<svg preserveAspectRatio="none" width="100%" height="100%" overflow="visible" style="display: block;" viewBox="0 0 3644.5 2055.5" fill="none" xmlns="http://www.w3.org/2000/svg">
<path id="Vector" d="M1.46649 1.96596L1.4664 2055.5M104.114 1.96596L104.114 2055.5M209.695 1.96596L209.695 2055.5M312.343 1.96596L312.343 2055.5M417.924 1.96596L417.923 2055.5M520.571 1.96596L520.571 2055.5M626.152 1.96596L626.152 2055.5M728.8 1.96596L728.8 2055.5M834.381 1.96596L834.381 2055.5M937.029 1.96596L937.028 2055.5M1042.61 1.96596L1042.61 2055.5M1145.26 1.96596L1145.26 2055.5M1250.84 1.96596L1250.84 2055.5M1353.49 1.96596L1353.49 2055.5M1459.07 1.96596L1459.07 2055.5M1561.71 1.96596L1561.71 2055.5M1667.29 1.96596L1667.29 2055.5M1769.94 1.96596L1769.94 2055.5M4.91564e-08 2054.03L3642.53 2054.03M4.91564e-08 1951.36L3642.53 1951.36M4.91564e-08 1848.68L3642.53 1848.68M4.91564e-08 1746L3642.53 1746M4.91564e-08 1643.33L3642.53 1643.33M4.91564e-08 1540.65L3642.53 1540.65M4.91564e-08 1437.97L3642.53 1437.97M4.91564e-08 1335.3L3642.53 1335.3M4.91564e-08 1232.62L3642.53 1232.62M4.91564e-08 1129.94L3642.53 1129.94M4.91564e-08 1027.27L3642.53 1027.27M4.91564e-08 924.59L3642.53 924.589M4.91564e-08 821.913L3642.53 821.912M4.91564e-08 719.236L3642.53 719.236M4.91564e-08 616.559L3642.53 616.559M4.91564e-08 513.883L3642.53 513.882M4.91564e-08 411.206L3642.53 411.206M4.91564e-08 308.529L3642.53 308.529M4.91564e-08 205.853L3642.53 205.853M4.91564e-08 103.176L3642.53 103.176M8.96747e-05 0.499513L3642.53 0.499195M1875.52 1.96596L1875.52 2055.5M1978.17 1.96596L1978.17 2055.5M2083.75 1.96596L2083.75 2055.5M2186.4 1.96596L2186.4 2055.5M2291.98 1.96596L2291.98 2055.5M2394.63 1.96596L2394.63 2055.5M2500.21 1.96596L2500.21 2055.5M2602.86 1.96596L2602.86 2055.5M2708.44 1.96596L2708.44 2055.5M2811.09 1.96596L2811.09 2055.5M2916.67 1.96596L2916.67 2055.5M3019.31 1.96596V2055.5M3124.89 1.96596V2055.5M3227.54 1.96596V2055.5M3333.12 1.96596V2055.5M3435.77 1.96596V2055.5M3541.35 1.96596V2055.5M3644 1.96596V2055.5" stroke="var(--stroke-0, #F7FDFA)" stroke-opacity="0.5" stroke-width="0.99839"/>
</svg>
