<svg preserveAspectRatio="none" width="100%" height="100%" overflow="visible" style="display: block;" viewBox="0 0 13 13" fill="none" xmlns="http://www.w3.org/2000/svg">
<path id="ban" d="M9.31836 10.4863L2.51367 3.68164C1.95508 4.49414 1.625 5.45898 1.625 6.5C1.625 9.19141 3.80859 11.375 6.5 11.375C7.54102 11.375 8.50586 11.0449 9.31836 10.4863ZM10.4609 9.34375C11.0195 8.53125 11.375 7.56641 11.375 6.5C11.375 3.80859 9.19141 1.625 6.5 1.625C5.43359 1.625 4.46875 1.98047 3.65625 2.53906L10.4609 9.34375ZM13 6.5C13 10.1055 10.0801 13 6.5 13C2.89453 13 0 10.1055 0 6.5C0 2.91992 2.89453 0 6.5 0C10.0801 0 13 2.91992 13 6.5Z" fill="var(--fill-0, white)"/>
</svg>
