<svg preserveAspectRatio="none" width="100%" height="100%" overflow="visible" style="display: block;" viewBox="0 0 12.1875 13" fill="none" xmlns="http://www.w3.org/2000/svg">
<path id="shield-keyhole" d="M11.4258 2.13281C11.8828 2.33594 12.1875 2.76758 12.1875 3.25C12.1875 9.75 7.38867 13 6.06836 13C4.79883 13 0 9.80078 0 3.25C0 2.76758 0.279297 2.33594 0.736328 2.13281L5.61133 0.101562C5.73828 0.0507812 5.94141 0 6.09375 0C6.2207 0 6.42383 0.0507812 6.55078 0.101562L11.4258 2.13281ZM6.06836 11.7812C7.76953 11.0957 10.9688 8.4043 10.9688 3.25L6.09375 1.24414C6.06836 1.24414 6.06836 1.24414 6.04297 1.24414L1.21875 3.27539C1.21875 7.71875 3.73242 10.8164 6.06836 11.7812ZM4.67188 5.28125C4.67188 4.51953 5.30664 3.85938 6.09375 3.85938C6.85547 3.85938 7.51562 4.51953 7.51562 5.28125C7.51562 5.86523 7.16016 6.34766 6.70312 6.57617V8.32812C6.70312 8.68359 6.42383 8.9375 6.09375 8.9375C5.73828 8.9375 5.48438 8.68359 5.48438 8.32812V6.57617C5.00195 6.34766 4.67188 5.86523 4.67188 5.28125Z" fill="var(--fill-0, white)"/>
</svg>
