<svg preserveAspectRatio="none" width="100%" height="100%" overflow="visible" style="display: block;" viewBox="0 0 14.625 11.375" fill="none" xmlns="http://www.w3.org/2000/svg">
<path id="credit-card" d="M1.625 0H13C13.8887 0 14.625 0.736328 14.625 1.625V2.4375H0V1.625C0 0.736328 0.710938 0 1.625 0ZM14.625 4.875V9.75C14.625 10.6641 13.8887 11.375 13 11.375H1.625C0.710938 11.375 0 10.6641 0 9.75V4.875H14.625ZM2.84375 8.125C2.61523 8.125 2.4375 8.32812 2.4375 8.53125C2.4375 8.75977 2.61523 8.9375 2.84375 8.9375H4.46875C4.67188 8.9375 4.875 8.75977 4.875 8.53125C4.875 8.32812 4.67188 8.125 4.46875 8.125H2.84375ZM5.6875 8.53125C5.6875 8.75977 5.86523 8.9375 6.09375 8.9375H9.34375C9.54688 8.9375 9.75 8.75977 9.75 8.53125C9.75 8.32812 9.54688 8.125 9.34375 8.125H6.09375C5.86523 8.125 5.6875 8.32812 5.6875 8.53125Z" fill="var(--fill-0, white)"/>
</svg>
