<svg preserveAspectRatio="none" width="100%" height="100%" overflow="visible" style="display: block;" viewBox="0 0 14.625 13" fill="none" xmlns="http://www.w3.org/2000/svg">
<path id="plane" d="M12.2383 4.875C13.1016 4.875 14.625 5.61133 14.625 6.5C14.625 7.41406 13.1016 8.125 12.2383 8.125H9.26758L6.72852 12.5938C6.57617 12.8477 6.29688 13 6.01758 13H4.5957C4.31641 13 4.11328 12.7461 4.18945 12.4922L5.43359 8.125H2.84375L1.72656 9.59766C1.65039 9.69922 1.54883 9.75 1.42188 9.75H0.355469C0.152344 9.75 0 9.59766 0 9.39453C0 9.36914 0 9.34375 0 9.31836L0.8125 6.5L0 3.70703C0 3.68164 0 3.65625 0 3.60547C0 3.42773 0.152344 3.25 0.355469 3.25H1.42188C1.54883 3.25 1.65039 3.32617 1.72656 3.42773L2.84375 4.875H5.43359L4.18945 0.533203C4.11328 0.279297 4.31641 0 4.5957 0H6.01758C6.29688 0 6.57617 0.177734 6.72852 0.431641L9.26758 4.875H12.2383Z" fill="var(--fill-0, white)"/>
</svg>
