<svg preserveAspectRatio="none" width="100%" height="100%" overflow="visible" style="display: block;" viewBox="0 0 12.2129 11.375" fill="none" xmlns="http://www.w3.org/2000/svg">
<path id="rotate" d="M11.832 0.0507812C12.0605 0.152344 12.2129 0.380859 12.2129 0.609375V4.26562C12.2129 4.62109 11.9336 4.875 11.5781 4.875H7.94727C7.69336 4.875 7.46484 4.74805 7.36328 4.51953C7.28711 4.29102 7.33789 4.01172 7.51562 3.85938L9.01367 2.33594C8.22656 1.65039 7.21094 1.21875 6.11914 1.21875C4.13867 1.21875 2.36133 2.56445 1.80273 4.44336C1.72656 4.77344 1.39648 4.95117 1.06641 4.84961C0.736328 4.77344 0.558594 4.41797 0.634766 4.11328C1.3457 1.70117 3.60547 0 6.11914 0C7.54102 0 8.86133 0.558594 9.87695 1.47266L11.1719 0.203125C11.3242 0.0253906 11.6035 -0.0253906 11.832 0.0507812ZM11.1465 6.52539C11.4766 6.62695 11.6543 6.95703 11.5527 7.28711C10.8418 9.69922 8.60742 11.375 6.09375 11.375C4.67188 11.375 3.35156 10.8418 2.33594 9.92773L1.04102 11.1973C0.939453 11.3242 0.787109 11.375 0.609375 11.375C0.533203 11.375 0.457031 11.375 0.380859 11.3496C0.152344 11.248 0 11.0195 0 10.7656V7.10938C0 6.7793 0.279297 6.5 0.634766 6.5H4.26562C4.51953 6.5 4.74805 6.65234 4.82422 6.88086C4.90039 7.10938 4.84961 7.38867 4.69727 7.54102L3.17383 9.06445C3.96094 9.75 4.97656 10.1562 6.09375 10.1562C8.07422 10.1562 9.85156 8.83594 10.3848 6.93164C10.4863 6.60156 10.8164 6.42383 11.1465 6.52539Z" fill="var(--fill-0, white)"/>
</svg>
