<svg preserveAspectRatio="none" width="100%" height="100%" overflow="visible" style="display: block;" viewBox="0 0 30 30" fill="none" xmlns="http://www.w3.org/2000/svg">
<path id="Vector" d="M16.7061 9.81738L16.8486 10.4482L17.4229 10.1514L22.4463 7.55371L19.8506 12.5791L19.5537 13.1533L20.1846 13.2959L27.7324 15L20.1846 16.7061L19.5537 16.8486L19.8506 17.4229L22.4463 22.4463L17.4229 19.8506L16.8486 19.5537L16.7061 20.1846L15 27.7324L13.2959 20.1846L13.1533 19.5537L12.5791 19.8506L7.55371 22.4463L10.1514 17.4229L10.4482 16.8486L9.81738 16.7061L2.26758 15L9.81738 13.2959L10.4482 13.1533L10.1514 12.5791L7.55371 7.55371L12.5791 10.1514L13.1533 10.4482L13.2959 9.81738L15 2.26758L16.7061 9.81738Z" stroke="var(--stroke-0, #F4F097)"/>
</svg>
