<svg preserveAspectRatio="none" width="100%" height="100%" overflow="visible" style="display: block;" viewBox="0 0 287 73.6327" fill="none" xmlns="http://www.w3.org/2000/svg">
<g id="Vector">
<path d="M87.1616 54.0721L79.896 33.8561H70.2872L62.9916 54.1121L56.3883 33.8561H47.1191L57.9693 62.8973H66.6161L74.6672 40.435L82.7217 62.8973H91.0857L101.766 33.8561H93.8548L87.1616 54.0721Z" fill="#F7FDFB"/>
<path d="M130.642 34.2485C128.229 33.4565 125.197 33.0605 121.543 33.0605C118.188 33.0605 115.289 33.4199 112.839 34.1354C110.39 34.8509 108.459 35.8858 107.048 37.2435C105.637 38.6012 104.758 40.2585 104.419 42.2152H113.122C113.422 41.0837 114.271 40.2285 115.665 39.6428C117.06 39.0605 118.96 38.7676 121.373 38.7676C122.994 38.7676 124.375 38.9174 125.527 39.2202C126.675 39.523 127.57 39.9556 128.213 40.5214C128.852 41.0871 129.175 41.7826 129.175 42.6112V42.6678C129.175 43.31 128.948 43.8158 128.496 44.1919C128.043 44.5679 127.347 44.7942 126.405 44.8707L114.65 46.1719C112.087 46.3982 109.94 46.8973 108.206 47.6694C106.472 48.4414 105.174 49.4297 104.306 50.6344C103.437 51.839 103.008 53.2899 103.008 54.9838C103.008 57.6959 104.073 59.8256 106.199 61.3697C108.326 62.9138 111.275 63.6858 115.043 63.6858C117.605 63.6858 119.882 63.3664 121.879 62.7241C123.876 62.0852 125.59 61.1334 127.021 59.8722C128.003 59.007 128.848 58.002 129.564 56.8606V62.8938H137.871V43.8524C137.871 41.4431 137.269 39.4365 136.064 37.8359C134.859 36.2352 133.049 35.0372 130.639 34.2485H130.642ZM128.326 52.8673C127.76 53.829 126.971 54.6743 125.953 55.4097C124.934 56.1451 123.756 56.7208 122.421 57.1335C121.083 57.5495 119.642 57.7558 118.098 57.7558C116.101 57.7558 114.583 57.4363 113.548 56.7941C112.513 56.1551 111.994 55.25 111.994 54.0819C111.994 53.1402 112.313 52.4147 112.956 51.9056C113.595 51.3964 114.577 51.067 115.895 50.9173L124.711 49.7891C126.219 49.5995 127.424 49.3832 128.329 49.1402C128.632 49.057 128.908 48.9705 129.178 48.8773V49.7891C129.178 50.8806 128.895 51.9089 128.329 52.8673H128.326Z" fill="#F7FDFB"/>
<path d="M170.652 33.8561L160.317 54.3783L149.404 33.8561H139.459L155.624 62.4248L154.263 64.8174C153.621 65.9489 152.925 66.7176 152.173 67.1336C151.417 67.5462 150.479 67.7558 149.347 67.7558H143.469V73.6327H150.083C152.985 73.6327 155.375 73.047 157.259 71.8823C159.142 70.7142 160.78 68.8307 162.174 66.2317L179.581 33.8561H170.652Z" fill="#F7FDFB"/>
<path d="M210.141 47.8555C210.141 49.6625 209.765 51.2565 209.009 52.6309C208.254 54.0052 207.172 55.1001 205.761 55.9087C204.35 56.7207 202.642 57.1233 200.645 57.1233C198.762 57.1233 197.197 56.7573 195.956 56.0218C194.711 55.2864 193.799 54.2415 193.217 52.8871C192.631 51.5327 192.341 49.9321 192.341 48.0852V33.7891H183.581V49.8356C183.581 52.0219 183.884 53.9686 184.487 55.6824C185.089 57.3962 185.954 58.8371 187.086 60.0052C188.218 61.1732 189.619 62.0684 191.296 62.6907C192.974 63.3129 194.904 63.6224 197.087 63.6224C200.439 63.6224 203.311 62.9635 205.704 61.6457C207.568 60.6175 209.043 59.2198 210.141 57.4628V62.8304H218.844V33.7858H210.141V47.8555Z" fill="#F7FDFB"/>
<path d="M238.734 34.7742C237.226 35.4331 235.975 36.5079 234.977 37.9954C234.328 38.9605 233.775 40.1385 233.309 41.5228V33.7858H224.606V62.8271H233.309V51.7523C233.309 49.7557 233.722 47.9654 234.554 46.3847C235.383 44.804 236.551 43.5494 238.059 42.6276C239.566 41.7059 241.297 41.2433 243.257 41.2433H247.045V33.7858H244.106C242.033 33.7858 240.245 34.1153 238.738 34.7742H238.734Z" fill="#F7FDFB"/>
<path d="M274.111 56.8672C272.643 57.413 270.832 57.6858 268.685 57.6858C266.349 57.6858 264.392 57.2832 262.808 56.4712C261.227 55.6626 260.049 54.5511 259.276 53.1368C258.79 52.245 258.458 51.2766 258.278 50.2284H286.998C287.034 47.2533 286.638 44.681 285.81 42.5146C284.981 40.3483 283.766 38.5579 282.165 37.147C280.564 35.736 278.614 34.6878 276.317 34.0122C274.017 33.3334 271.438 32.9939 268.576 32.9939C266.203 32.9939 264.016 33.2302 262.019 33.6994C260.022 34.172 258.251 34.8475 256.707 35.7327C255.163 36.6179 253.855 37.6927 252.78 38.9539C251.705 40.2152 250.896 41.6294 250.35 43.1902C249.804 44.7542 249.531 46.458 249.531 48.3049C249.531 51.3199 250.293 53.9821 251.821 56.2982C253.345 58.6143 255.532 60.4146 258.378 61.6925C261.223 62.9736 264.622 63.6126 268.579 63.6126C272.31 63.6126 275.409 63.1966 277.875 62.3713C280.341 61.5427 282.272 60.4312 283.666 59.0369C285.061 57.6426 286.003 56.0985 286.492 54.4047H277.449C276.693 55.4962 275.585 56.3181 274.114 56.8639L274.111 56.8672ZM259.782 42.6278C260.328 41.8557 261.027 41.1968 261.873 40.6511C262.721 40.1053 263.7 39.6827 264.811 39.3799C265.923 39.0771 267.158 38.9273 268.512 38.9273C269.867 38.9273 271.035 39.0604 272.13 39.3233C273.222 39.5862 274.184 40.0022 275.013 40.5646C275.841 41.1303 276.52 41.8191 277.046 42.6278C277.572 43.4397 277.931 44.3715 278.121 45.4264H258.481C258.501 45.3532 258.518 45.2733 258.538 45.2001C258.82 44.2584 259.233 43.4031 259.779 42.6278H259.782Z" fill="#F7FDFB"/>
<path d="M25.7409 0L29.5052 16.6554L40.5185 10.9616L34.8271 21.9765L51.4819 25.7368L34.8271 29.5005L40.5185 40.512L29.5052 34.8216L25.7409 51.4736L21.98 34.8216L10.9634 40.512L16.6581 29.5005L0 25.7368L16.6581 21.9765L10.9634 10.9616L21.98 16.6554L25.7409 0Z" fill="var(--fill-0, #F4F097)"/>
</g>
</svg>
