<svg preserveAspectRatio="none" width="100%" height="100%" overflow="visible" style="display: block;" viewBox="0 0 357.549 115.849" fill="none" xmlns="http://www.w3.org/2000/svg">
<g id="Vector">
<path d="M103.144 64.7122L94.5461 40.5181H83.1754L74.5421 64.76L66.728 40.5181H55.7591L68.5988 75.274H78.8312L88.3586 48.3916L97.8899 75.274H107.788L120.426 40.5181H111.064L103.144 64.7122Z" fill="#F7FDFB"/>
<path d="M154.598 40.9878C151.742 40.04 148.154 39.5661 143.829 39.5661C139.859 39.5661 136.429 39.9962 133.53 40.8524C130.631 41.7087 128.347 42.9473 126.677 44.5721C125.007 46.197 123.967 48.1804 123.566 50.5221H133.865C134.219 49.168 135.224 48.1445 136.874 47.4436C138.524 46.7466 140.773 46.3962 143.629 46.3962C145.547 46.3962 147.181 46.5754 148.544 46.9378C149.903 47.3002 150.962 47.8179 151.722 48.495C152.479 49.172 152.861 50.0044 152.861 50.996V51.0637C152.861 51.8324 152.593 52.4377 152.057 52.8878C151.522 53.3378 150.698 53.6086 149.584 53.7002L135.673 55.2574C132.64 55.5282 130.1 56.1256 128.048 57.0495C125.996 57.9735 124.46 59.1563 123.432 60.598C122.404 62.0397 121.896 63.7761 121.896 65.8032C121.896 69.049 123.156 71.5979 125.673 73.4458C128.189 75.2937 131.679 76.2177 136.137 76.2177C139.17 76.2177 141.864 75.8353 144.227 75.0667C146.59 74.302 148.619 73.163 150.312 71.6536C151.474 70.6182 152.475 69.4154 153.321 68.0494V75.2698H163.152V52.4815C163.152 49.5981 162.439 47.1967 161.013 45.281C159.588 43.3654 157.445 41.9317 154.594 40.9878H154.598ZM151.856 63.2703C151.187 64.4213 150.253 65.4329 149.048 66.313C147.843 67.1932 146.449 67.8821 144.869 68.376C143.286 68.8738 141.581 69.1207 139.753 69.1207C137.39 69.1207 135.594 68.7384 134.369 67.9697C133.144 67.2051 132.53 66.1218 132.53 64.724C132.53 63.5969 132.908 62.7287 133.668 62.1194C134.424 61.51 135.586 61.1158 137.146 60.9365L147.579 59.5864C149.363 59.3594 150.789 59.1006 151.86 58.8098C152.219 58.7103 152.546 58.6067 152.865 58.4952V59.5864C152.865 60.8927 152.53 62.1233 151.86 63.2703H151.856Z" fill="#F7FDFB"/>
<path d="M201.943 40.5181L189.714 65.0786L176.799 40.5181H165.031L184.16 74.7085L182.55 77.5719C181.789 78.926 180.966 79.846 180.076 80.3438C179.182 80.8377 178.071 81.0886 176.732 81.0886H169.777V88.1218H177.603C181.037 88.1218 183.865 87.4208 186.094 86.0269C188.323 84.6291 190.261 82.3749 191.911 79.2645L212.51 40.5181H201.943Z" fill="#F7FDFB"/>
<path d="M248.673 57.2724C248.673 59.4349 248.228 61.3425 247.334 62.9873C246.44 64.6321 245.16 65.9424 243.49 66.9102C241.82 67.8819 239.8 68.3638 237.437 68.3638C235.207 68.3638 233.356 67.9257 231.887 67.0456C230.414 66.1654 229.335 64.9149 228.646 63.294C227.953 61.6731 227.61 59.7575 227.61 57.5472V40.438H217.244V59.642C217.244 62.2585 217.602 64.5883 218.315 66.6394C219.028 68.6904 220.052 70.4148 221.391 71.8127C222.73 73.2106 224.388 74.2819 226.373 75.0267C228.358 75.7714 230.643 76.1418 233.226 76.1418C237.193 76.1418 240.591 75.3532 243.423 73.7761C245.629 72.5455 247.374 70.8728 248.673 68.77V75.1939H258.973V40.434H248.673V57.2724Z" fill="#F7FDFB"/>
<path d="M282.51 41.6169C280.726 42.4054 279.245 43.6918 278.063 45.472C277.295 46.6269 276.641 48.0368 276.09 49.6935V40.434H265.79V75.1899H276.09V61.9359C276.09 59.5464 276.578 57.4038 277.563 55.5121C278.544 53.6203 279.926 52.1189 281.71 51.0157C283.494 49.9126 285.542 49.359 287.862 49.359H292.344V40.434H288.867C286.413 40.434 284.298 40.8283 282.514 41.6169H282.51Z" fill="#F7FDFB"/>
<path d="M324.373 68.0573C322.636 68.7105 320.493 69.037 317.953 69.037C315.188 69.037 312.872 68.5551 310.997 67.5834C309.127 66.6156 307.732 65.2854 306.819 63.5928C306.244 62.5255 305.85 61.3666 305.637 60.1121H339.623C339.666 56.5517 339.198 53.4731 338.217 50.8805C337.236 48.2878 335.799 46.1452 333.904 44.4566C332.01 42.768 329.702 41.5135 326.984 40.705C324.263 39.8926 321.21 39.4863 317.823 39.4863C315.015 39.4863 312.427 39.7691 310.064 40.3307C307.701 40.8962 305.606 41.7046 303.778 42.764C301.951 43.8234 300.403 45.1097 299.131 46.6191C297.858 48.1285 296.901 49.8211 296.255 51.6889C295.609 53.5608 295.287 55.5998 295.287 57.8102C295.287 61.4184 296.188 64.6044 297.996 67.3763C299.8 70.1482 302.388 72.3027 305.755 73.832C309.123 75.3653 313.144 76.13 317.827 76.13C322.242 76.13 325.909 75.6322 328.827 74.6445C331.746 73.6528 334.03 72.3226 335.681 70.6539C337.331 68.9852 338.445 67.1373 339.024 65.1102H328.323C327.429 66.4165 326.118 67.4002 324.377 68.0533L324.373 68.0573ZM307.417 51.0159C308.063 50.0919 308.89 49.3034 309.891 48.6502C310.895 47.9971 312.053 47.4913 313.368 47.1289C314.684 46.7665 316.145 46.5873 317.748 46.5873C319.351 46.5873 320.734 46.7466 322.029 47.0612C323.321 47.3758 324.46 47.8736 325.44 48.5467C326.421 49.2237 327.224 50.0481 327.847 51.0159C328.469 51.9876 328.894 53.1028 329.119 54.3652H305.877C305.901 54.2776 305.921 54.182 305.944 54.0944C306.279 52.9674 306.767 51.9438 307.413 51.0159H307.417Z" fill="#F7FDFB"/>
<path d="M30.4609 0L34.9154 19.9328L47.9482 13.1186L41.2132 26.3009L60.9218 30.8012L41.2132 35.3055L47.9482 48.4838L34.9154 41.6736L30.4609 61.6024L26.0103 41.6736L12.9737 48.4838L19.7126 35.3055L0 30.8012L19.7126 26.3009L12.9737 13.1186L26.0103 19.9328L30.4609 0Z" fill="var(--fill-0, #F4F097)"/>
<path d="M53 113.293V100.153H61.604V102.025H54.926V105.769H61.604V107.641H54.926V111.403H61.604V113.293H53Z" fill="white"/>
<path d="M71.8318 113.293L66.7558 100.153H68.8258L72.8218 110.755L76.7998 100.153H78.8878L73.8118 113.293H71.8318Z" fill="white"/>
<path d="M84.2117 113.293V100.153H92.8157V102.025H86.1377V105.769H92.8157V107.641H86.1377V111.403H92.8157V113.293H84.2117Z" fill="white"/>
<path d="M98.9035 113.293V100.153H104.016C106.878 100.153 108.732 102.007 108.732 104.545C108.732 106.183 107.814 107.749 106.194 108.433L108.984 113.293H106.752L104.376 108.955H100.848V113.293H98.9035ZM103.854 101.971H100.848V107.155H103.854C105.852 107.155 106.77 105.877 106.77 104.491C106.77 102.997 105.78 101.971 103.854 101.971Z" fill="white"/>
<path d="M117.864 113.293V107.749L113.22 100.153H115.416L118.854 105.895L122.31 100.153H124.47L119.808 107.767V113.293H117.864Z" fill="white"/>
<path d="M142.387 113.473C139.651 113.473 137.923 112.393 136.681 110.701L138.391 109.351C139.345 110.899 140.677 111.619 142.333 111.619C144.097 111.619 145.015 110.755 145.015 109.567C145.015 108.001 143.341 107.695 141.577 107.317C139.543 106.903 137.383 106.363 137.383 103.735C137.383 101.683 139.255 99.9733 141.901 99.9733C144.151 99.9733 145.627 100.783 146.905 102.223L145.285 103.501C144.511 102.457 143.611 101.755 141.901 101.755C140.137 101.755 139.399 102.583 139.399 103.717C139.399 105.049 140.947 105.301 142.657 105.661C144.727 106.093 147.031 106.687 147.031 109.549C147.031 111.565 145.375 113.473 142.387 113.473Z" fill="white"/>
<path d="M155.673 113.293V101.953H151.947V100.153H161.343V101.953H157.617V113.293H155.673Z" fill="white"/>
<path d="M167.142 113.293V100.153H175.746V102.025H169.068V105.769H175.746V107.641H169.068V111.403H175.746V113.293H167.142Z" fill="white"/>
<path d="M181.834 113.293V100.153H186.946C189.754 100.153 191.734 102.187 191.734 104.797C191.734 107.389 189.754 109.441 186.91 109.441H183.796V113.293H181.834ZM186.784 101.953H183.796V107.623H186.784C188.62 107.623 189.772 106.399 189.772 104.797C189.772 103.177 188.62 101.953 186.784 101.953Z" fill="white"/>
<path d="M196.097 113.455C195.431 113.455 194.999 112.915 194.999 112.303C194.999 111.403 195.611 110.827 196.475 110.827C197.483 110.827 198.095 111.619 198.095 112.627C198.095 113.905 197.195 115.021 195.935 115.849L195.269 115.093C196.367 114.337 196.943 113.617 196.943 112.771V112.735C196.871 113.239 196.547 113.455 196.097 113.455Z" fill="white"/>
<path d="M215.377 113.293V107.749L210.733 100.153H212.929L216.367 105.895L219.823 100.153H221.983L217.321 107.767V113.293H215.377Z" fill="white"/>
<path d="M232.242 113.473C228.516 113.473 225.51 110.449 225.51 106.723C225.51 102.997 228.516 99.9733 232.242 99.9733C235.986 99.9733 238.992 102.997 238.992 106.723C238.992 110.449 235.986 113.473 232.242 113.473ZM232.242 111.565C234.942 111.565 237.03 109.387 237.03 106.723C237.03 104.059 234.942 101.863 232.242 101.863C229.56 101.863 227.472 104.059 227.472 106.723C227.472 109.387 229.56 111.565 232.242 111.565Z" fill="white"/>
<path d="M249.838 113.473C246.85 113.473 244.762 111.511 244.762 108.361V100.153H246.76V108.469C246.76 110.251 248.02 111.637 249.856 111.637C251.692 111.637 252.934 110.251 252.934 108.469V100.153H254.932V108.361C254.932 111.511 252.826 113.473 249.838 113.473Z" fill="white"/>
<path d="M261.143 113.293V100.153H266.255C269.117 100.153 270.971 102.007 270.971 104.545C270.971 106.183 270.053 107.749 268.433 108.433L271.223 113.293H268.991L266.615 108.955H263.087V113.293H261.143ZM266.093 101.971H263.087V107.155H266.093C268.091 107.155 269.009 105.877 269.009 104.491C269.009 102.997 268.019 101.971 266.093 101.971Z" fill="white"/>
<path d="M289.477 113.473C286.741 113.473 285.013 112.393 283.771 110.701L285.481 109.351C286.435 110.899 287.767 111.619 289.423 111.619C291.187 111.619 292.105 110.755 292.105 109.567C292.105 108.001 290.431 107.695 288.667 107.317C286.633 106.903 284.473 106.363 284.473 103.735C284.473 101.683 286.345 99.9733 288.991 99.9733C291.241 99.9733 292.717 100.783 293.995 102.223L292.375 103.501C291.601 102.457 290.701 101.755 288.991 101.755C287.227 101.755 286.489 102.583 286.489 103.717C286.489 105.049 288.037 105.301 289.747 105.661C291.817 106.093 294.121 106.687 294.121 109.549C294.121 111.565 292.465 113.473 289.477 113.473Z" fill="white"/>
<path d="M302.763 113.293V101.953H299.037V100.153H308.433V101.953H304.707V113.293H302.763Z" fill="white"/>
<path d="M319.338 113.473C315.612 113.473 312.606 110.449 312.606 106.723C312.606 102.997 315.612 99.9733 319.338 99.9733C323.082 99.9733 326.088 102.997 326.088 106.723C326.088 110.449 323.082 113.473 319.338 113.473ZM319.338 111.565C322.038 111.565 324.126 109.387 324.126 106.723C324.126 104.059 322.038 101.863 319.338 101.863C316.656 101.863 314.568 104.059 314.568 106.723C314.568 109.387 316.656 111.565 319.338 111.565Z" fill="white"/>
<path d="M331.982 113.293V100.153H337.094C339.956 100.153 341.81 102.007 341.81 104.545C341.81 106.183 340.892 107.749 339.272 108.433L342.062 113.293H339.83L337.454 108.955H333.926V113.293H331.982ZM336.932 101.971H333.926V107.155H336.932C338.93 107.155 339.848 105.877 339.848 104.491C339.848 102.997 338.858 101.971 336.932 101.971Z" fill="white"/>
<path d="M350.943 113.293V107.749L346.299 100.153H348.495L351.933 105.895L355.389 100.153H357.549L352.887 107.767V113.293H350.943Z" fill="white"/>
</g>
</svg>
