<svg preserveAspectRatio="none" width="100%" height="100%" overflow="visible" style="display: block;" viewBox="0 0 71.4778 12.9514" fill="none" xmlns="http://www.w3.org/2000/svg">
<path id="Vector" d="M0.0597122 11.5083C2.53971 10.8983 5.80971 9.07827 7.67971 7.33827C9.01971 6.09827 10.2297 4.55828 11.9797 4.01828C12.6797 3.80828 13.4297 3.76828 14.0997 3.46828C15.3697 2.89828 16.1497 1.45828 17.4997 1.06828C18.3997 0.808277 19.3597 1.08828 20.2997 1.02828C21.6997 0.938276 23.0097 0.118275 24.3997 0.268275C25.9597 0.448275 27.0897 1.77828 28.2997 2.77828C30.1997 4.33828 32.5697 5.17827 34.8897 5.99827C37.9897 7.08827 41.1397 8.18827 44.4197 8.33827C44.9997 8.36827 45.5997 8.35828 46.1497 8.18828C46.7797 7.99828 47.3297 7.59827 47.9297 7.32827C50.5497 6.12827 53.6097 7.32828 56.1397 8.70828C56.9497 9.14828 57.7897 9.61828 58.7097 9.71828C61.4597 10.0083 64.0697 6.93828 66.6097 8.01828C68.7197 8.91828 69.1997 12.1783 71.4197 12.7083" stroke="var(--stroke-0, black)" stroke-width="0.5" stroke-miterlimit="10" stroke-dasharray="1 1"/>
</svg>
