<svg preserveAspectRatio="none" width="100%" height="100%" overflow="visible" style="display: block;" viewBox="0 0 80.7582 9.12387" fill="none" xmlns="http://www.w3.org/2000/svg">
<path id="Vector" d="M0.125565 8.90769C1.79557 7.93769 3.46557 6.95769 5.13557 5.98769C6.72557 5.07769 8.45556 3.98769 10.1956 4.24769C11.4056 4.39769 12.5856 5.02769 13.8156 4.80769C17.8556 3.57769 19.2656 0.527685 23.9956 3.43768C24.9356 3.89768 25.6956 3.62769 26.5456 2.99769C30.8756 -0.882314 36.1656 0.0576865 41.3756 1.51769C44.0156 2.12769 46.6956 2.60769 49.3756 3.00769C51.1156 3.17769 53.0456 3.81769 54.7056 3.16769C55.9356 2.62769 56.7956 1.28769 58.2356 0.917688C61.6956 0.097688 65.3656 0.997686 68.8856 1.06769C72.9056 1.36769 77.3356 1.37769 80.6056 3.89769" stroke="var(--stroke-0, black)" stroke-width="0.5" stroke-miterlimit="10"/>
</svg>
