<svg preserveAspectRatio="none" width="100%" height="100%" overflow="visible" style="display: block;" viewBox="0 0 17.11 27.72" fill="none" xmlns="http://www.w3.org/2000/svg">
<path id="Vector" d="M11.2 24.32H5.9C5.82 24.32 5.75 24.39 5.75 24.47C5.75 24.55 5.82 24.61 5.9 24.61H11.2C11.28 24.61 11.35 24.55 11.35 24.47C11.35 24.39 11.28 24.32 11.2 24.32ZM11.2 24.32H5.9C5.82 24.32 5.75 24.39 5.75 24.47C5.75 24.55 5.82 24.61 5.9 24.61H11.2C11.28 24.61 11.35 24.55 11.35 24.47C11.35 24.39 11.28 24.32 11.2 24.32ZM14.74 0H2.37C1.06 0 0 1.06 0 2.36V25.36C0 26.66 1.06 27.72 2.37 27.72H14.74C16.05 27.72 17.11 26.66 17.11 25.36V2.36C17.11 1.06 16.05 0 14.74 0ZM16.81 25.36C16.81 26.5 15.88 27.42 14.74 27.42H2.37C1.23 27.42 0.299999 26.5 0.299999 25.36V2.36C0.299999 1.23 1.23 0.299999 2.37 0.299999H14.74C15.88 0.299999 16.81 1.23 16.81 2.36V25.36ZM11.2 24.32H5.9C5.82 24.32 5.75 24.39 5.75 24.47C5.75 24.55 5.82 24.61 5.9 24.61H11.2C11.28 24.61 11.35 24.55 11.35 24.47C11.35 24.39 11.28 24.32 11.2 24.32ZM11.2 24.32H5.9C5.82 24.32 5.75 24.39 5.75 24.47C5.75 24.55 5.82 24.61 5.9 24.61H11.2C11.28 24.61 11.35 24.55 11.35 24.47C11.35 24.39 11.28 24.32 11.2 24.32ZM11.2 24.32H5.9C5.82 24.32 5.75 24.39 5.75 24.47C5.75 24.55 5.82 24.61 5.9 24.61H11.2C11.28 24.61 11.35 24.55 11.35 24.47C11.35 24.39 11.28 24.32 11.2 24.32Z" fill="var(--fill-0, black)"/>
</svg>
