<svg preserveAspectRatio="none" width="100%" height="100%" overflow="visible" style="display: block;" viewBox="0 0 7.5 7.5" fill="none" xmlns="http://www.w3.org/2000/svg">
<path id="Container" fill-rule="evenodd" clip-rule="evenodd" d="M7.33362 0.172071C7.11177 -0.0497725 6.75341 -0.0497725 6.53157 0.172071L3.75 2.94795L0.96843 0.166382C0.746587 -0.0554608 0.388225 -0.0554608 0.166382 0.166382C-0.0554608 0.388225 -0.0554608 0.746587 0.166382 0.96843L2.94795 3.75L0.166382 6.53157C-0.0554608 6.75341 -0.0554608 7.11177 0.166382 7.33362C0.388225 7.55546 0.746587 7.55546 0.96843 7.33362L3.75 4.55205L6.53157 7.33362C6.75341 7.55546 7.11177 7.55546 7.33362 7.33362C7.55546 7.11177 7.55546 6.75341 7.33362 6.53157L4.55205 3.75L7.33362 0.96843C7.54977 0.752275 7.54977 0.388225 7.33362 0.172071Z" fill="var(--fill-0, #3C4043)"/>
</svg>
