<svg preserveAspectRatio="none" width="100%" height="100%" overflow="visible" style="display: block;" viewBox="0 0 24 24" fill="none" xmlns="http://www.w3.org/2000/svg">
<g id="Frame 12">
<path id="&#244;&#128;&#133;&#144;" d="M12.0659 17.4089C12.4468 17.4089 12.6445 17.2625 12.7837 16.8523L13.7285 14.2668H18.0498L18.9946 16.8523C19.1338 17.2625 19.3242 17.4089 19.7051 17.4089C20.0933 17.4089 20.3423 17.1746 20.3423 16.8083C20.3423 16.6838 20.3203 16.5667 20.2617 16.4128L16.8267 7.26489C16.6582 6.81812 16.3579 6.59106 15.8892 6.59106C15.4351 6.59106 15.1274 6.81079 14.9663 7.25757L11.5312 16.4202C11.4727 16.574 11.4507 16.6912 11.4507 16.8157C11.4507 17.1819 11.6851 17.4089 12.0659 17.4089ZM14.0874 13.1536L15.8672 8.22437H15.9038L17.6836 13.1536H14.0874ZM4.26562 17.387C4.56592 17.387 4.76367 17.2332 4.88086 16.8743L5.48877 15.0798H8.35254L8.96045 16.8743C9.07764 17.2478 9.27539 17.387 9.58301 17.387C9.94922 17.387 10.1982 17.1599 10.1982 16.8303C10.1982 16.6838 10.1616 16.5447 10.103 16.3909L7.8252 10.3411C7.65674 9.89429 7.34912 9.65991 6.91699 9.65991C6.49219 9.65991 6.18457 9.87964 6.01611 10.3411L3.73828 16.3909C3.67969 16.53 3.65771 16.6765 3.65771 16.8303C3.65771 17.1672 3.89209 17.387 4.26562 17.387ZM5.81104 14.1277L6.83643 11.0735H7.00488L8.03027 14.1277H5.81104Z" fill="var(--fill-0, white)" fill-opacity="0.5"/>
</g>
</svg>
