<svg preserveAspectRatio="none" width="100%" height="100%" overflow="visible" style="display: block;" viewBox="0 0 64 24" fill="none" xmlns="http://www.w3.org/2000/svg">
<g id="Frame 8">
<path id="&#244;&#128;&#133;&#136;" d="M34 13.69C34 18.023 37.3447 21.5 41.5042 21.5C45.6638 21.5 49 18.023 49 13.69C49 13.2664 48.7114 12.9575 48.2954 12.9575C47.8964 12.9575 47.6333 13.2664 47.6333 13.69C47.6333 17.2376 44.9083 20.0792 41.5042 20.0792C38.1002 20.0792 35.3667 17.2376 35.3667 13.69C35.3667 10.1512 38.1002 7.31839 41.5042 7.31839C42.1494 7.31839 42.7521 7.37134 43.253 7.49489L40.7148 10.1071C40.5874 10.2483 40.5195 10.4248 40.5195 10.6101C40.5195 11.016 40.8081 11.3161 41.1902 11.3161C41.4024 11.3161 41.5637 11.2455 41.6825 11.1131L45.18 7.45959C45.3328 7.30957 45.3922 7.13307 45.3922 6.9301C45.3922 6.73595 45.3158 6.5418 45.18 6.4006L41.6825 2.7118C41.5637 2.5706 41.3939 2.5 41.1902 2.5C40.8081 2.5 40.5195 2.8177 40.5195 3.22364C40.5195 3.40896 40.5874 3.58546 40.7063 3.72666L42.9643 6.04761C42.5229 5.95936 42.0221 5.89758 41.5042 5.89758C37.3447 5.89758 34 9.36577 34 13.69Z" fill="var(--fill-0, white)"/>
</g>
</svg>
