<svg preserveAspectRatio="none" width="100%" height="100%" overflow="visible" style="display: block;" viewBox="0 0 24 24" fill="none" xmlns="http://www.w3.org/2000/svg">
<g id="Frame 11">
<path id="&#244;&#128;&#165;&#174;" d="M3.85498 16.5425C3.85498 17.896 4.55225 18.6069 5.89893 18.6069H14.355C15.7153 18.6069 16.4263 17.9097 16.4263 16.5698V13.6851C16.4263 13.5483 16.5356 13.4868 16.6724 13.5962C17.0483 13.8833 17.4927 14.1157 18.0806 14.1157C19.2427 14.1157 20.145 13.1997 20.145 12.0239C20.145 10.855 19.2427 9.93896 18.0806 9.93896C17.4927 9.93896 17.0483 10.1714 16.6724 10.4585C16.5356 10.5679 16.4263 10.5063 16.4263 10.3696V7.43018C16.4263 6.09033 15.7153 5.39307 14.355 5.39307H5.89893C4.55225 5.39307 3.85498 6.104 3.85498 7.45752V10.3901C3.85498 10.8345 4.20361 11.1284 4.61377 11.1284C4.83936 11.1284 5.07861 11.0327 5.29053 10.8276C5.61182 10.5269 6.0083 10.144 6.80127 10.144C7.8335 10.144 8.64697 10.9644 8.64697 12.0103C8.64697 13.0562 7.8335 13.8765 6.80127 13.8765C6.0083 13.8765 5.61182 13.4868 5.29053 13.186C5.07861 12.9878 4.83936 12.8921 4.61377 12.8921C4.20361 12.8921 3.85498 13.186 3.85498 13.6304V16.5425Z" fill="var(--fill-0, white)" fill-opacity="0.5"/>
</g>
</svg>
