<svg preserveAspectRatio="none" width="100%" height="100%" overflow="visible" style="display: block;" viewBox="0 0 12.0028 11.9966" fill="none" xmlns="http://www.w3.org/2000/svg">
<path id="Container" d="M6.00161 0.00633905C6.18408 -0.0187837 6.37571 0.0313022 6.52309 0.164542L11.7907 4.93114C12.0543 5.16975 12.0748 5.57644 11.8375 5.8413C11.5987 6.10794 11.1891 6.13007 10.9235 5.89013L10.4967 5.50341V10.9966C10.4964 11.5485 10.0487 11.9965 9.49673 11.9966H2.47524C1.92314 11.9966 1.47553 11.5486 1.47524 10.9966V5.53173L1.07973 5.89013C0.814175 6.13033 0.403637 6.10803 0.164696 5.8413C-0.072334 5.57643 -0.0510268 5.16968 0.212547 4.93114L5.47915 0.164542C5.6267 0.0310072 5.81888 -0.0189604 6.00161 0.00633905ZM2.7643 4.36474V10.7007H9.20766V4.33739L6.00063 1.43505L2.7643 4.36474Z" fill="var(--fill-0, #5F6368)"/>
</svg>
