<svg preserveAspectRatio="none" width="100%" height="100%" overflow="visible" style="display: block;" viewBox="0 0 12 12" fill="none" xmlns="http://www.w3.org/2000/svg">
<g id="Icon - Secure">
<path id="page_info" d="M9.03906 10.3438C8.51406 10.3438 8.07031 10.1625 7.70781 9.8C7.34531 9.4375 7.16406 8.99375 7.16406 8.46875C7.16406 7.94375 7.34531 7.5 7.70781 7.1375C8.07031 6.775 8.51406 6.59375 9.03906 6.59375C9.56406 6.59375 10.0078 6.775 10.3703 7.1375C10.7328 7.5 10.9141 7.94375 10.9141 8.46875C10.9141 8.99375 10.7328 9.4375 10.3703 9.8C10.0078 10.1625 9.56406 10.3438 9.03906 10.3438ZM9.03906 9.34375C9.28073 9.34375 9.48698 9.25833 9.65781 9.0875C9.82865 8.91667 9.91406 8.71042 9.91406 8.46875C9.91406 8.22708 9.82865 8.02083 9.65781 7.85C9.48698 7.67917 9.28073 7.59375 9.03906 7.59375C8.7974 7.59375 8.59115 7.67917 8.42031 7.85C8.24948 8.02083 8.16406 8.22708 8.16406 8.46875C8.16406 8.71042 8.24948 8.91667 8.42031 9.0875C8.59115 9.25833 8.7974 9.34375 9.03906 9.34375ZM2.16406 8.96875V7.96875H6.16406V8.96875H2.16406ZM3.28906 5.84375C2.76406 5.84375 2.32031 5.6625 1.95781 5.3C1.59531 4.9375 1.41406 4.49375 1.41406 3.96875C1.41406 3.44375 1.59531 3 1.95781 2.6375C2.32031 2.275 2.76406 2.09375 3.28906 2.09375C3.81406 2.09375 4.25781 2.275 4.62031 2.6375C4.98281 3 5.16406 3.44375 5.16406 3.96875C5.16406 4.49375 4.98281 4.9375 4.62031 5.3C4.25781 5.6625 3.81406 5.84375 3.28906 5.84375ZM3.28906 4.84375C3.53073 4.84375 3.73698 4.75833 3.90781 4.5875C4.07865 4.41667 4.16406 4.21042 4.16406 3.96875C4.16406 3.72708 4.07865 3.52083 3.90781 3.35C3.73698 3.17917 3.53073 3.09375 3.28906 3.09375C3.0474 3.09375 2.84115 3.17917 2.67031 3.35C2.49948 3.52083 2.41406 3.72708 2.41406 3.96875C2.41406 4.21042 2.49948 4.41667 2.67031 4.5875C2.84115 4.75833 3.0474 4.84375 3.28906 4.84375ZM6.16406 4.46875V3.46875H10.1641V4.46875H6.16406Z" fill="var(--fill-0, #5F6368)"/>
</g>
</svg>
