<svg preserveAspectRatio="none" width="100%" height="100%" overflow="visible" style="display: block;" viewBox="0 0 13.3333 13.3333" fill="none" xmlns="http://www.w3.org/2000/svg">
<path id="Icon - New Tab" fill-rule="evenodd" clip-rule="evenodd" d="M12.381 7.61905H7.61905V12.381C7.61905 12.9048 7.19048 13.3333 6.66667 13.3333C6.14286 13.3333 5.71429 12.9048 5.71429 12.381V7.61905H0.952381C0.428571 7.61905 0 7.19048 0 6.66667C0 6.14286 0.428571 5.71429 0.952381 5.71429H5.71429V0.952381C5.71429 0.428571 6.14286 0 6.66667 0C7.19048 0 7.61905 0.428571 7.61905 0.952381V5.71429H12.381C12.9048 5.71429 13.3333 6.14286 13.3333 6.66667C13.3333 7.19048 12.9048 7.61905 12.381 7.61905Z" fill="var(--fill-0, #3C4043)"/>
</svg>
