<svg preserveAspectRatio="none" width="100%" height="100%" overflow="visible" style="display: block;" viewBox="0 0 11.9979 11.9979" fill="none" xmlns="http://www.w3.org/2000/svg">
<path id="Container" fill-rule="evenodd" clip-rule="evenodd" d="M11.9979 4.33122V0.80455C11.9979 0.50455 11.6379 0.357883 11.4312 0.571217L10.2446 1.75788C9.03789 0.551217 7.31789 -0.142117 5.43789 0.0245498C2.64456 0.277883 0.344556 2.52455 0.0378889 5.31788C-0.362111 8.93122 2.45789 11.9979 5.99789 11.9979C9.05789 11.9979 11.5846 9.70455 11.9512 6.74455C11.9979 6.34455 11.6846 5.99788 11.2846 5.99788C10.9512 5.99788 10.6712 6.24455 10.6312 6.57122C10.3446 8.89788 8.33789 10.6979 5.93122 10.6646C3.45789 10.6312 1.37122 8.54455 1.33122 6.06455C1.29122 3.46455 3.40456 1.33122 5.99789 1.33122C7.28456 1.33122 8.45122 1.85788 9.29789 2.69788L7.90456 4.09122C7.69122 4.30455 7.83789 4.66455 8.13789 4.66455H11.6646C11.8512 4.66455 11.9979 4.51788 11.9979 4.33122Z" fill="var(--fill-0, #5F6368)"/>
</svg>
