<svg preserveAspectRatio="none" width="100%" height="100%" overflow="visible" style="display: block;" viewBox="0 0 66.6005 12" fill="none" xmlns="http://www.w3.org/2000/svg">
<g id="Stack">
<path id="Cellular" d="M2 7.33362C2.55227 7.33364 3 7.78134 3 8.33362V10.3336C2.99988 10.8858 2.5522 11.3336 2 11.3336H1C0.447788 11.3336 0.00011724 10.8858 0 10.3336V8.33362C0 7.78133 0.447715 7.33362 1 7.33362H2ZM6.66699 5.33362C7.21914 5.33378 7.66699 5.78143 7.66699 6.33362V10.3336C7.66687 10.8857 7.21907 11.3335 6.66699 11.3336H5.66699C5.11478 11.3336 4.66711 10.8858 4.66699 10.3336V6.33362C4.66699 5.78133 5.11471 5.33362 5.66699 5.33362H6.66699ZM11.333 2.99963C11.8852 2.99963 12.3329 3.44747 12.333 3.99963V10.3336C12.3328 10.8857 11.8852 11.3336 11.333 11.3336H10.333C9.78093 11.3335 9.33321 10.8857 9.33301 10.3336V3.99963C9.33315 3.44753 9.78089 2.99973 10.333 2.99963H11.333ZM16 0.666626C16.5522 0.666676 17 1.11437 17 1.66663V10.3336C16.9998 10.8857 16.5521 11.3336 16 11.3336H15C14.4478 11.3336 14.0002 10.8857 14 10.3336V1.66663C14 1.11434 14.4477 0.666626 15 0.666626H16Z" fill="var(--fill-0, white)"/>
<path id="Wifi" d="M27.4268 8.91739C28.7023 7.83851 30.5711 7.83851 31.8467 8.91739C31.9107 8.97541 31.9484 9.05756 31.9502 9.14396C31.9519 9.23036 31.9172 9.31388 31.8555 9.37442L29.8584 11.39C29.7999 11.4492 29.72 11.4828 29.6367 11.4828C29.5535 11.4828 29.4736 11.4492 29.415 11.39L27.417 9.37442C27.3554 9.31386 27.3215 9.23029 27.3232 9.14396C27.3251 9.05757 27.3627 8.97537 27.4268 8.91739ZM24.7617 6.22794C27.5098 3.67182 31.7655 3.6719 34.5137 6.22794C34.5756 6.28782 34.6114 6.3703 34.6123 6.45646C34.6132 6.54267 34.5793 6.62574 34.5186 6.68692L33.3643 7.85392C33.2453 7.97301 33.0527 7.97564 32.9307 7.85978C32.0282 7.04259 30.8542 6.59019 29.6367 6.59024C28.42 6.59075 27.2466 7.04311 26.3447 7.85978C26.2227 7.97545 26.031 7.97273 25.9121 7.85392L24.7568 6.68692C24.6961 6.62585 24.6623 6.54257 24.6631 6.45646C24.664 6.37029 24.6997 6.2878 24.7617 6.22794ZM22.0967 3.5463C26.3118 -0.49287 32.9618 -0.493122 37.1768 3.5463C37.2377 3.60624 37.2719 3.68839 37.2725 3.77384C37.273 3.8594 37.239 3.94164 37.1787 4.00235L36.0225 5.16935C35.9033 5.28882 35.7107 5.29007 35.5898 5.17228C33.9839 3.64554 31.8525 2.79447 29.6367 2.79435C27.4206 2.79434 25.2888 3.64539 23.6826 5.17228C23.5618 5.29026 23.369 5.28904 23.25 5.16935L22.0938 4.00235C22.0335 3.94159 21.9994 3.85942 22 3.77384C22.0006 3.68833 22.0357 3.60622 22.0967 3.5463Z" fill="var(--fill-0, white)"/>
<g id="Battery">
<path id="Union" opacity="0.4" d="M61.6054 0.333333C63.0781 0.333333 64.2724 1.52757 64.2724 3.00033V9.00033L64.2587 9.27279C64.1221 10.6174 62.9861 11.6663 61.6054 11.6663H44.9394L44.6659 11.6527C43.4112 11.525 42.4135 10.5276 42.286 9.27279L42.2724 9.00033V3.00033C42.2724 1.61977 43.3215 0.483771 44.6659 0.347005L44.9394 0.333333H61.6054ZM44.9394 1.33333C44.0189 1.33333 43.2724 2.07985 43.2724 3.00033V9.00033C43.2726 9.92065 44.019 10.6663 44.9394 10.6663H61.6054C62.5258 10.6663 63.2722 9.92065 63.2724 9.00033V3.00033C63.2724 2.07985 62.5259 1.33333 61.6054 1.33333H44.9394ZM65.2724 4.00033C66.077 4.33914 66.6005 5.12725 66.6005 6.00033C66.6004 6.87335 66.077 7.66158 65.2724 8.00033V4.00033Z" fill="var(--fill-0, white)"/>
<rect id="Capacity" x="44.2723" y="2.33334" width="18" height="7.33333" rx="1.33333" fill="var(--fill-0, white)"/>
</g>
</g>
</svg>
