<svg preserveAspectRatio="none" width="100%" height="100%" overflow="visible" style="display: block;" viewBox="0 0 1297 920" fill="none" xmlns="http://www.w3.org/2000/svg">
<g id="Map2 1">
<path id="Vector" d="M226.9 497.8C237.4 486.7 241.1 474.5 245.3 460.6C296.3 231.2 517.6 211.5 769.3 196.6C895.7 186.9 1020.4 113.8 1150.5 143.6C1171.1 148.7 1192 156 1206.9 169C1252 211 1244.4 283.1 1193.5 319.3C1173.2 333.9 1147.3 341.9 1123.3 351.7C1041.8 381.3 1044 446.1 1044.8 509.5C1043.3 574.1 1033.9 642.5 993.5 699.2C986.3 709 976.8 717.5 965.3 724.4C796.4 822.3 562 774.9 367.6 749.4C331.1 745 290.9 737.4 256.1 751.1C239.9 757.4 226.6 768.3 209.8 773.4C183.2 782.1 152.6 771.2 136.2 752.7C92.7 701.1 143.1 636.2 137.5 578.6C136.1 508.2 190.8 533.5 226.8 497.8H226.9Z" stroke="var(--stroke-0, white)" stroke-width="0.5" stroke-miterlimit="10"/>
<path id="Vector_2" d="M197.1 571.2C202.3 566.1 208.8 561.3 215 556.8C245 536.2 267.3 511.7 282.3 487.4C321 425.6 328.2 354.9 387.6 301.7C396.9 293.3 407.7 285.6 419.2 279.4C582.5 194.1 795.8 250.3 973.2 200C1013.9 189 1053.9 174 1097.7 173.7C1162.8 173.4 1230.9 211.7 1201.1 265.2C1169.6 311.6 1079.4 315.4 1033.9 352.5C1025.9 358.7 1018.9 365.7 1012.9 373.2C995.3 395.1 986.9 419.5 979.4 445.1C921.9 673.8 833.3 767.6 551.2 730.1C469 720.6 386.5 707.8 305.1 719.7C299 720.5 292.9 721.3 286.7 722C276.9 723.1 266.6 723.7 256.4 722.7C198 717.7 183.4 673.1 182.7 631.5C182.2 620.5 181.6 609.5 183 598.6C184.3 588.4 188.5 579.3 197 571.2H197.1Z" stroke="var(--stroke-0, white)" stroke-width="0.8" stroke-miterlimit="10"/>
<path id="Vector_3" d="M576.5 293C612 283.1 647.2 279.4 684.1 277C705.1 275.7 726.2 274.9 747.2 273.9C851.4 269.4 953.7 251.4 1057.4 243.5C1075.9 242.3 1106.9 243.8 1105.6 263.1C1101 283.7 1067.3 285.2 1046.3 288.4C989.3 296.5 932.1 307.7 879.4 327.5C866.6 332.6 853.4 339.6 844.3 348.1C838.1 353.7 833.7 359.5 827.4 367C821.9 373.7 815 381.4 807.5 388.9C663.7 533.9 506.4 374.4 377.8 582.2C372.6 590.4 367.5 598.7 362.1 606.9C345.9 630.3 318.7 676.4 282.1 668.1C272.6 665.6 264.9 659.6 259.1 652.3C210.3 582.1 354.1 510.6 405.9 451.5C420.8 435.1 436.2 415.9 447.8 398.2C480.9 346.2 502.3 313.7 576.1 293.4H576.3L576.5 293Z" stroke="var(--stroke-0, white)" stroke-width="0.5" stroke-miterlimit="10"/>
<path id="Vector_4" d="M478.9 604.1C504.5 558.1 571 544.9 621 533.3C658 524.9 694 514.9 729.2 499.2C754.6 488 778.7 474.2 802.2 459.8C829 443.9 856.9 425.7 886.9 420.7C897.6 419.3 908.7 419.9 914.1 429.5C925.5 453.6 894.7 506.2 881.4 530.7C844.6 598 810.5 635.1 734.6 654.1C688.4 665.6 640.1 668.5 592.3 669.1C564.3 669.1 538.2 668.3 514.5 661.6C487.5 654.2 463.5 634.8 478.8 604.3L478.9 604.1Z" stroke="var(--stroke-0, white)" stroke-miterlimit="10" stroke-dasharray="10 10"/>
</g>
</svg>
