<svg preserveAspectRatio="none" width="100%" height="100%" overflow="visible" style="display: block;" viewBox="0 0 1297 920" fill="none" xmlns="http://www.w3.org/2000/svg">
<g id="Map 1">
<path id="Vector" d="M229.3 487.7C240.5 471.8 243.5 451.9 247.4 432.9C269.5 324.3 332.5 219.5 431.4 169.4C541.8 113.5 674.2 133.2 795.3 107.8C855.1 95.3 912 71.7 970.8 54.9C1029.6 38.1 1092.4 28.1 1151.6 43.3C1169.1 47.8 1186.4 54.7 1199.8 66.9C1209.1 75.4 1216.2 86.1 1221.7 97.4C1250.1 154.8 1237 232.4 1185.7 270.7C1154.2 294.3 1112.3 302.2 1083.9 329.3C1037.5 373.5 1044.6 447.3 1044.4 511.4C1044.2 575 1033.3 638.5 1012.2 698.5C1004.7 719.8 995.7 741.1 981.1 758.4C962.9 779.8 937.3 793.5 911.3 804.2C823.1 840.6 725.1 847.6 629.9 840.8C534.7 834 441 814 346.9 798C314.5 792.5 278.8 788.1 250.8 805.2C237 813.6 226.2 826.7 211.5 833.2C181.9 846.3 145.5 826.9 130.4 798.3C115.2 769.7 116.6 735.2 122.4 703.3C128.2 671.4 138 640 138.4 607.6C138.7 583.7 132.1 544.5 154.3 527.9C178.1 510.1 209.3 516 229.2 487.8L229.3 487.7Z" stroke="var(--stroke-0, white)" stroke-width="0.5" stroke-miterlimit="10"/>
<path id="Vector_2" d="M194.8 577.7C203.7 565.4 217.1 557.2 228.9 547.6C325.9 468.7 309.6 302.9 406 223.1C432.6 201.1 465.4 188.1 498.3 177.9C545.4 163.3 594 153.8 643.1 149.5C743 140.8 845.8 153.5 942 125.4C979.4 114.5 1014.9 97.5996 1052.7 88.3996C1090.5 79.1996 1132.6 78.1996 1166.1 97.9996C1199.6 117.8 1220 162.7 1202.7 197.5C1190.7 221.7 1164.9 235.3 1140.2 246.3C1096.8 265.5 1049.8 282.8 1020.1 319.7C997.1 348.2 987.5 384.8 978.9 420.4C967.1 468.8 956.2 517.5 941.4 565.1C922.1 627.4 894.5 690.3 843.9 731.6C773 789.3 672.6 792.5 581.8 781.3C491 770.1 399.3 747.4 309.3 763.4C292 766.5 274.7 770.9 257.2 769.5C218.2 766.3 190.6 731.4 186.3 694.4C182 657.4 185.4 660.2 183.8 643.1C182.2 626 181 597.1 194.9 577.8L194.8 577.7Z" stroke="var(--stroke-0, white)" stroke-miterlimit="10"/>
<path id="Vector_3" d="M575.8 204.1C635.2 183.8 699.3 184.6 761.9 180.1C861.4 173 959.5 152.1 1058.8 142.5C1076.5 140.8 1099.8 143.1 1104.2 160.4C1106.9 171 1099.8 182.1 1090.4 187.8C1081 193.5 1069.8 194.9 1059 196.4C1007.6 203.8 957 216.3 908.2 233.8C882.9 242.9 857.3 253.8 838.7 273.2C824.9 287.6 815.9 305.9 804.8 322.4C783.6 353.9 753.8 380 718.7 394.4C643.7 425.1 552.8 400.9 481.5 439.4C443.2 460.1 415.8 496.5 394.1 534.2C372.4 571.9 354.9 612.3 329.7 647.8C319.8 661.8 305.9 676.3 288.7 675C280.3 674.4 272.6 669.9 266.6 664.1C248.5 646.8 244.4 618.4 250.9 594.1C257.3 569.9 272.6 549 288.8 529.8C328.7 482.5 376.1 441.7 412.4 391.3C427.1 370.8 441.9 348 453.3 325.5C466.4 299.5 473.7 275.6 494.8 254.2C515.9 232.8 545.8 214.5 576 204.1H575.8Z" stroke="var(--stroke-0, white)" stroke-width="0.5" stroke-miterlimit="10"/>
<path id="Vector_4" d="M441.9 590.5C456.6 561.7 479 536.1 507.9 521.6C549.7 500.6 599 504.5 645.1 496.6C687.5 489.3 728.1 471.4 762.1 444.9C782.5 429.1 800.4 410.3 818.3 391.7C837.1 372 855.9 352.4 874.8 332.7C886.2 320.7 898.1 308.5 913 301.5C928 294.5 947.1 293.7 960.1 304C973.5 314.6 976.9 334.3 972.8 350.9C968.7 367.5 958.5 381.9 948.5 395.9C925.5 428.2 902.4 461.4 891.1 499.4C880.6 534.7 880.8 572.6 869.2 607.5C857 644 831.6 676 798.7 696C765.3 716.4 725.7 724.1 686.7 727.6C650.2 730.9 613.5 730.7 577 727.2C546.7 724.3 516.7 719 486.8 713.7C467.7 710.3 425.2 704.1 417.1 682.1C409 660.1 421.6 648.9 424.4 638C428.6 621.7 434.3 605.7 441.9 590.7V590.5Z" stroke="var(--stroke-0, white)" stroke-miterlimit="10" stroke-dasharray="10 10"/>
<path id="Vector_5" d="M534.7 551.9C549.8 548.4 565.6 549.5 581.1 550.7C584.5 551 588.1 551.3 591.2 552.7C598.8 556.1 602.2 564.9 603.9 573.1C607.7 591.7 605.2 613.4 590.7 625.5C569.5 643.1 535.4 631.7 512 646.2C504.8 650.7 499.1 657.3 492.1 662.1C485.1 666.9 475.4 669.5 468.2 665C461.5 660.9 459.3 652.2 459.3 644.3C459.6 608.8 500.2 560 534.7 551.9Z" stroke="var(--stroke-0, white)" stroke-miterlimit="10" stroke-dasharray="10 10"/>
<path id="Vector_6" d="M848.2 395.9C866.3 372.5 881.9 346.1 906.4 329.5C919.4 320.7 939 316.1 949.2 328C954.5 334.2 955.4 343.2 953.4 351.1C951.4 359 947 366 942.5 372.8C914.4 415.7 882.9 457.2 864.7 505.2C848.9 547 843.5 593.2 819.3 630.8C813.2 640.3 805.9 649.1 796.7 655.6C785.4 663.6 771.9 667.7 758.4 670.9C727.4 678.4 695.5 682.2 663.6 682.1C650.9 682.1 637.4 681.1 627.4 673.4C617 665.5 612.6 651.5 613.7 638.4C614.8 625.3 620.8 613.2 628.1 602.4C637.9 587.9 650.4 575.1 664.7 564.9C682 552.5 690.5 542.5 702.3 525.7C712.8 510.8 734.3 500.4 748.8 489.5C785.1 462 820.2 432 848.2 395.8V395.9Z" stroke="var(--stroke-0, white)" stroke-miterlimit="10"/>
<path id="Vector_7" d="M730.8 562.3C785.9 507.3 843.8 454.4 891.2 392.6C903.1 377.1 915 360.5 932.8 352.4C936.3 357.7 935.3 365 932.2 370.6C929.1 376.2 924.2 380.5 919.5 384.8C853.7 446.8 832.8 541.8 785.6 619C778.9 629.9 771.3 640.9 760.1 647.1C747.8 654 732.9 654.1 718.8 654C710.3 654 701.5 653.8 694 649.9C660.9 632.5 716.6 576.5 730.8 562.3Z" stroke="var(--stroke-0, white)" stroke-miterlimit="10" stroke-dasharray="10 10"/>
<path id="Vector_8" d="M546.3 250.9C564.2 235.6 586.1 224.8 609.4 222.2C616.4 221.6 626.6 221.7 629.5 228.7C633 241.9 601.9 259.1 592.4 266.9C581.1 275.2 570 283.8 560 293.7C539.5 313.5 525.9 339.1 508.2 361.3C495.1 377.7 479.4 391.5 462.7 404.1C442.6 419.4 421.4 433.6 403 451C372.6 479.4 354.6 517.8 330.9 551.5C324.3 561.3 317.5 571.1 310.6 580.8C302.9 590.5 289 615.7 277.2 615.5C274.1 615.5 271.6 613.4 270.1 610.7C263.2 597.4 269.8 577.8 277.9 565.2C281 560.2 284.5 555.4 288.2 550.7C326.7 503.8 373.8 464.9 416.4 421.9C437.9 400.1 459.5 378.1 477.5 353.1C501.7 319.7 513.7 278.2 546.1 251H546.3V250.9Z" stroke="var(--stroke-0, white)" stroke-miterlimit="10" stroke-dasharray="10 10"/>
<path id="Vector_9" d="M689.3 215.3C708.2 204.9 729.8 200.8 751.1 197.7C789.1 192.2 827.4 189.5 865.8 189.5C867.5 194.2 862.9 198.7 858.8 201.4C824.3 224 779.9 228.9 748 255C730.3 269.5 717.9 289.3 703 306.7C664.9 351.3 610.7 379.8 554.3 396C531.9 376.8 597.6 319.8 609.5 302.2C631 270.5 655.1 234.3 689.3 215.3Z" stroke="var(--stroke-0, white)" stroke-width="0.5" stroke-miterlimit="10" stroke-dasharray="10 10"/>
<path id="Vector_10" d="M704.8 237.5C712.2 230.5 719.9 223.3 729.4 219.6C740.3 215.3 752.5 216.1 764.2 216.9C761.8 226.5 752 232 743.7 237.5C732.7 244.9 723.1 254.3 715.6 265.1C712.1 270.1 708.6 275.8 702.9 278.1C693.2 282 679.3 275.1 680.7 264.1C682.1 253.1 698.3 243.7 704.8 237.5Z" stroke="var(--stroke-0, white)" stroke-miterlimit="10" stroke-dasharray="5 5"/>
</g>
</svg>
