<svg preserveAspectRatio="none" width="100%" height="100%" overflow="visible" style="display: block;" viewBox="0 0 931.759 1028.08" fill="none" xmlns="http://www.w3.org/2000/svg" xmlns:xlink="http://www.w3.org/1999/xlink">
<g id="Mask Group">
<g id="Mask group">
<path id="Vector 1" d="M236.65 408.734C208.474 463.471 67.4766 478.306 0.5 478.881V752.57C74.4052 724.779 228.913 646.659 255.704 556.503C289.192 443.807 326.722 487.505 385.038 530.054C443.354 572.602 451.437 549.028 467.604 530.054C483.771 511.079 520.146 503.251 520.146 530.054C520.146 547.303 548.188 565.127 559.985 530.054C591.857 435.297 650.635 364.077 676.039 340.311C893.94 147.868 777.467 64.7057 715.879 0.5L576.152 0.5C772.479 179.744 695.177 254.501 630.426 309.263C566.264 363.527 592.319 386.884 559.985 436.332C527.652 485.78 492.431 438.057 486.658 426.558C480.884 415.058 473.378 391.484 451.437 398.384C429.496 405.284 394.276 385.16 326.722 331.112C259.168 277.064 271.871 340.311 236.65 408.734Z" fill="url(#pattern0_0_9)" stroke="var(--stroke-0, #F7FDFB)"/>
</g>
<g id="Vector 2">
</g>
<path id="Vector 2_2" d="M931.303 0.499998C896.072 79.4778 810.943 250.89 752.264 304.718C678.916 372.002 651.772 369.127 631.558 433.536C611.344 497.945 602.103 618.137 555.322 583.057C508.541 547.977 495.835 520.948 469.845 565.229C443.856 609.511 428.84 565.229 390.722 565.229C352.604 565.229 335.278 960.31 0.302631 1027.59" stroke="var(--stroke-0, #F7FDFB)"/>
</g>
<defs>
<pattern id="pattern0_0_9" patternUnits="userSpaceOnUse" patternTransform="matrix(41.04 0 0 88.92 397.964 372.635)" preserveAspectRatio="none" viewBox="0 0 68.4 148.2" width="1" height="1">
<use xlink:href="#pattern0_0_9_inner" transform="translate(-68.4 0)"/>
<g id="pattern0_0_9_inner">
<path id="Union" d="M8.19974 4.27246C9.40822 5.51036 12 6.54883 12 6.54883C12 6.54883 9.5 7.5 8.03125 9.03027C6.5625 10.5605 5.91602 13 5.91602 13C5.91602 13 4.97298 10.1967 3.71484 8.87207C2.53648 7.6314 0 6.54883 0 6.54883C0 6.54883 2.47487 5.47921 3.6377 4.27246C4.94976 2.91084 5.91602 0 5.91602 0C5.91602 0 6.87814 2.9187 8.19974 4.27246Z" fill="var(--fill-0, #F7FDFB)"/>
</g>
<use xlink:href="#pattern0_0_9_inner" transform="translate(-34.2 74.1)"/>
<use xlink:href="#pattern0_0_9_inner" transform="translate(34.2 74.1)"/>
</pattern></defs>
</svg>
