<svg preserveAspectRatio="none" width="100%" height="100%" overflow="visible" style="display: block;" viewBox="0 0 13 13" fill="none" xmlns="http://www.w3.org/2000/svg">
<path id="headset" d="M6.5 1.21875C3.58008 1.21875 1.21875 3.60547 1.21875 6.5V7.51562C1.21875 7.87109 0.939453 8.125 0.609375 8.125C0.253906 8.125 0 7.87109 0 7.51562V6.5C0 2.91992 2.89453 0 6.5 0C10.0801 0 13 2.91992 13 6.5V10.1816C13 11.4004 11.9844 12.416 10.7402 12.416L7.94727 12.3906C7.74414 12.7715 7.33789 13 6.90625 13H6.09375C5.4082 13 4.875 12.4668 4.875 11.7812C4.875 11.1211 5.4082 10.5625 6.09375 10.5625H6.90625C7.33789 10.5625 7.74414 10.8164 7.94727 11.1719L10.7656 11.1973C11.3242 11.1973 11.7812 10.7402 11.7812 10.1816V6.5C11.7812 3.60547 9.39453 1.21875 6.5 1.21875ZM3.65625 5.28125H4.0625C4.49414 5.28125 4.875 5.66211 4.875 6.09375V8.9375C4.875 9.39453 4.49414 9.75 4.0625 9.75H3.65625C2.74219 9.75 2.03125 9.03906 2.03125 8.125V6.90625C2.03125 6.01758 2.74219 5.28125 3.65625 5.28125ZM9.34375 5.28125C10.2324 5.28125 10.9688 6.01758 10.9688 6.90625V8.125C10.9688 9.03906 10.2324 9.75 9.34375 9.75H8.9375C8.48047 9.75 8.125 9.39453 8.125 8.9375V6.09375C8.125 5.66211 8.48047 5.28125 8.9375 5.28125H9.34375Z" fill="var(--fill-0, white)"/>
</svg>
