<svg preserveAspectRatio="none" width="100%" height="100%" overflow="visible" style="display: block;" viewBox="0 0 11.375 13" fill="none" xmlns="http://www.w3.org/2000/svg">
<path id="Icon lable" d="M8.125 8.125C8.55664 8.125 8.9375 8.50586 8.9375 8.9375V9.75H2.4375V8.9375C2.4375 8.50586 2.79297 8.125 3.25 8.125H8.125ZM2.4375 13V10.5625H8.9375V13H2.4375ZM8.125 2.03125C9.90234 2.03125 11.375 3.50391 11.375 5.28125V11.375C11.375 12.2891 10.6387 13 9.75 13V8.9375C9.75 8.04883 9.01367 7.3125 8.125 7.3125H3.25C2.33594 7.3125 1.625 8.04883 1.625 8.9375V13C0.710938 13 0 12.2891 0 11.375V5.28125C0 3.50391 1.44727 2.03125 3.25 2.03125H3.45312V1.42188C3.45312 0.660156 4.08789 0 4.875 0H6.5C7.26172 0 7.92188 0.660156 7.92188 1.42188V2.03125H8.125ZM4.67188 1.42188V2.03125H6.70312V1.42188C6.70312 1.32031 6.60156 1.21875 6.5 1.21875H4.875C4.74805 1.21875 4.67188 1.32031 4.67188 1.42188ZM8.125 5.07812V4.67188C8.125 4.57031 8.02344 4.46875 7.92188 4.46875H3.45312C3.32617 4.46875 3.25 4.57031 3.25 4.67188V5.07812C3.25 5.20508 3.32617 5.28125 3.45312 5.28125H7.92188C8.02344 5.28125 8.125 5.20508 8.125 5.07812Z" fill="var(--fill-0, white)"/>
</svg>
