<svg preserveAspectRatio="none" width="100%" height="100%" overflow="visible" style="display: block;" viewBox="0 0 9.625 11" fill="none" xmlns="http://www.w3.org/2000/svg">
<path id="Icon lable" d="M2.0625 0.6875C2.0625 0.322266 2.36328 0 2.75 0C3.11523 0 3.4375 0.322266 3.4375 0.6875V1.375H6.1875V0.6875C6.1875 0.322266 6.48828 0 6.875 0C7.24023 0 7.5625 0.322266 7.5625 0.6875V1.375H8.59375C9.15234 1.375 9.625 1.84766 9.625 2.40625V3.4375H0V2.40625C0 1.84766 0.451172 1.375 1.03125 1.375H2.0625V0.6875ZM9.625 4.125V9.96875C9.625 10.5488 9.15234 11 8.59375 11H1.03125C0.451172 11 0 10.5488 0 9.96875V4.125H9.625Z" fill="var(--fill-0, white)"/>
</svg>
