<svg preserveAspectRatio="none" width="100%" height="100%" overflow="visible" style="display: block;" viewBox="0 0 8.1377 8.125" fill="none" xmlns="http://www.w3.org/2000/svg">
<path id="vector" d="M8.1377 0.609375V6.70312C8.1377 7.05859 7.8584 7.3125 7.52832 7.3125C7.17285 7.3125 6.91895 7.05859 6.91895 6.70312V2.08203L1.05371 7.94727C0.926758 8.07422 0.774414 8.125 0.62207 8.125C0.444336 8.125 0.291992 8.07422 0.19043 7.94727C-0.0634766 7.71875 -0.0634766 7.33789 0.19043 7.10938L6.05566 1.21875H1.43457C1.0791 1.21875 0.825195 0.964844 0.825195 0.609375C0.825195 0.279297 1.0791 0 1.43457 0H7.52832C7.8584 0 8.1377 0.279297 8.1377 0.609375Z" fill="var(--fill-0, white)"/>
</svg>
