<svg preserveAspectRatio="none" width="100%" height="100%" overflow="visible" style="display: block;" viewBox="0 0 11.375 9.34375" fill="none" xmlns="http://www.w3.org/2000/svg">
<path id="bars-filter" d="M0 0.609375C0 0.279297 0.253906 0 0.609375 0H10.7656C11.0957 0 11.375 0.279297 11.375 0.609375C11.375 0.964844 11.0957 1.21875 10.7656 1.21875H0.609375C0.253906 1.21875 0 0.964844 0 0.609375ZM1.625 4.67188C1.625 4.3418 1.87891 4.0625 2.23438 4.0625H9.14062C9.4707 4.0625 9.75 4.3418 9.75 4.67188C9.75 5.02734 9.4707 5.28125 9.14062 5.28125H2.23438C1.87891 5.28125 1.625 5.02734 1.625 4.67188ZM6.70312 9.34375H4.67188C4.31641 9.34375 4.0625 9.08984 4.0625 8.73438C4.0625 8.4043 4.31641 8.125 4.67188 8.125H6.70312C7.0332 8.125 7.3125 8.4043 7.3125 8.73438C7.3125 9.08984 7.0332 9.34375 6.70312 9.34375Z" fill="var(--fill-0, white)"/>
</svg>
