<svg preserveAspectRatio="none" width="100%" height="100%" overflow="visible" style="display: block;" viewBox="0 0 12 12" fill="none" xmlns="http://www.w3.org/2000/svg">
<path id="route" d="M9.75 6H7.5C7.07812 6 6.75 6.35156 6.75 6.75C6.75 7.17188 7.07812 7.5 7.5 7.5H9.75C10.9922 7.5 12 8.50781 12 9.75C12 10.9922 10.9922 12 9.75 12H3.25781C3.46875 11.7891 3.70312 11.4844 3.96094 11.1562C4.125 10.9453 4.26562 10.7344 4.40625 10.5H9.75C10.1484 10.5 10.5 10.1719 10.5 9.75C10.5 9.35156 10.1484 9 9.75 9H7.5C6.25781 9 5.25 7.99219 5.25 6.75C5.25 5.50781 6.25781 4.5 7.5 4.5H8.48438C7.96875 3.79688 7.5 2.95312 7.5 2.25C7.5 1.00781 8.50781 0 9.75 0C10.9922 0 12 1.00781 12 2.25C12 3.75 9.75 6 9.75 6ZM9.75 3C10.1484 3 10.5 2.67188 10.5 2.25C10.5 1.85156 10.1484 1.5 9.75 1.5C9.32812 1.5 9 1.85156 9 2.25C9 2.67188 9.32812 3 9.75 3ZM3.49219 10.5C3.25781 10.875 2.97656 11.1797 2.76562 11.4375L2.74219 11.4609C2.64844 11.5781 2.55469 11.6719 2.48438 11.7656C2.46094 11.7656 2.46094 11.7656 2.46094 11.7891C2.32031 11.9297 2.25 12 2.25 12C2.25 12 0 9.75 0 8.25C0 7.00781 1.00781 6 2.25 6C3.49219 6 4.5 7.00781 4.5 8.25C4.5 8.95312 4.00781 9.79688 3.49219 10.5ZM2.25 9C2.64844 9 3 8.67188 3 8.25C3 7.85156 2.64844 7.5 2.25 7.5C1.82812 7.5 1.5 7.85156 1.5 8.25C1.5 8.67188 1.82812 9 2.25 9Z" fill="var(--fill-0, white)"/>
</svg>
