<svg preserveAspectRatio="none" width="100%" height="100%" overflow="visible" style="display: block;" viewBox="0 0 10.5 12" fill="none" xmlns="http://www.w3.org/2000/svg">
<path id="book-arrow-up" d="M2.0625 0H9.1875C9.89062 0 10.5 0.609375 10.5 1.3125V8.0625C10.5 8.60156 10.1719 9.04688 9.75 9.25781V10.875H9.9375C10.2422 10.875 10.5 11.1328 10.5 11.4375C10.5 11.7656 10.2422 12 9.9375 12H7.125V10.875H8.625V9.375H7.125V8.25H9.1875C9.28125 8.25 9.375 8.17969 9.375 8.0625V1.3125C9.375 1.21875 9.28125 1.125 9.1875 1.125H2.0625C1.52344 1.125 1.125 1.54688 1.125 2.0625V8.41406C1.33594 8.32031 1.59375 8.25 1.875 8.25H4.125V9.375H1.875C1.45312 9.375 1.125 9.72656 1.125 10.125C1.125 10.5469 1.45312 10.875 1.875 10.875H4.125V12H1.875C0.820312 12 0 11.1797 0 10.125C0 10.0781 0 10.0078 0 9.9375V2.0625C0 0.9375 0.914062 0 2.0625 0ZM3.35156 5.03906L5.22656 3.16406C5.4375 2.95312 5.78906 2.95312 6 3.16406L7.875 5.03906C8.10938 5.27344 8.10938 5.625 7.875 5.83594C7.66406 6.07031 7.3125 6.07031 7.10156 5.83594L6.1875 4.92188V11.4375C6.1875 11.7656 5.92969 12 5.625 12C5.29688 12 5.0625 11.7656 5.0625 11.4375L5.03906 4.92188L4.125 5.83594C3.91406 6.07031 3.5625 6.07031 3.35156 5.83594C3.11719 5.625 3.11719 5.27344 3.35156 5.03906Z" fill="var(--fill-0, white)"/>
</svg>
