<svg preserveAspectRatio="none" width="100%" height="100%" overflow="visible" style="display: block;" viewBox="0 0 11 11" fill="none" xmlns="http://www.w3.org/2000/svg">
<path id="Icon lable" d="M5.51228 2.66406C7.05915 2.66406 8.33594 3.94085 8.33594 5.48772C8.33594 7.05915 7.05915 8.31138 5.51228 8.31138C3.94085 8.31138 2.68862 7.05915 2.68862 5.48772C2.68862 3.94085 3.94085 2.66406 5.51228 2.66406ZM5.51228 7.32924C6.51897 7.32924 7.32924 6.51897 7.32924 5.48772C7.32924 4.48103 6.51897 3.67076 5.51228 3.67076C4.48103 3.67076 3.67076 4.48103 3.67076 5.48772C3.67076 6.51897 4.50558 7.32924 5.51228 7.32924ZM9.0971 2.56585C9.0971 2.19754 8.80246 1.9029 8.43415 1.9029C8.06585 1.9029 7.77121 2.19754 7.77121 2.56585C7.77121 2.93415 8.06585 3.22879 8.43415 3.22879C8.80246 3.22879 9.0971 2.93415 9.0971 2.56585ZM10.9632 3.22879C11.0123 4.13728 11.0123 6.86272 10.9632 7.77121C10.9141 8.65513 10.7176 9.41629 10.0792 10.0792C9.44085 10.7176 8.65513 10.9141 7.77121 10.9632C6.86272 11.0123 4.13728 11.0123 3.22879 10.9632C2.34487 10.9141 1.58371 10.7176 0.920759 10.0792C0.282366 9.41629 0.0859375 8.65513 0.0368304 7.77121C-0.0122768 6.86272 -0.0122768 4.13728 0.0368304 3.22879C0.0859375 2.34487 0.282366 1.55915 0.920759 0.920759C1.58371 0.282366 2.34487 0.0859375 3.22879 0.0368304C4.13728 -0.0122768 6.86272 -0.0122768 7.77121 0.0368304C8.65513 0.0859375 9.44085 0.282366 10.0792 0.920759C10.7176 1.55915 10.9141 2.34487 10.9632 3.22879ZM9.7846 8.72879C10.0792 8.01674 10.0056 6.29799 10.0056 5.48772C10.0056 4.70201 10.0792 2.98326 9.7846 2.24665C9.58817 1.78013 9.21987 1.38728 8.75335 1.2154C8.01674 0.920759 6.29799 0.99442 5.51228 0.99442C4.70201 0.99442 2.98326 0.920759 2.27121 1.2154C1.78013 1.41183 1.41183 1.78013 1.2154 2.24665C0.920759 2.98326 0.99442 4.70201 0.99442 5.48772C0.99442 6.29799 0.920759 8.01674 1.2154 8.72879C1.41183 9.21987 1.78013 9.58817 2.27121 9.7846C2.98326 10.0792 4.70201 10.0056 5.51228 10.0056C6.29799 10.0056 8.01674 10.0792 8.75335 9.7846C9.21987 9.58817 9.61272 9.21987 9.7846 8.72879Z" fill="var(--fill-0, white)"/>
</svg>
