<svg preserveAspectRatio="none" width="100%" height="100%" overflow="visible" style="display: block;" viewBox="0 0 11.375 9.34375" fill="none" xmlns="http://www.w3.org/2000/svg">
<path id="Icon lable" d="M0 0.609375C0 0.279297 0.253906 0 0.609375 0H10.7656C11.0957 0 11.375 0.279297 11.375 0.609375C11.375 0.964844 11.0957 1.21875 10.7656 1.21875H0.609375C0.253906 1.21875 0 0.964844 0 0.609375ZM0 4.67188C0 4.3418 0.253906 4.0625 0.609375 4.0625H10.7656C11.0957 4.0625 11.375 4.3418 11.375 4.67188C11.375 5.02734 11.0957 5.28125 10.7656 5.28125H0.609375C0.253906 5.28125 0 5.02734 0 4.67188ZM10.7656 9.34375H0.609375C0.253906 9.34375 0 9.08984 0 8.73438C0 8.4043 0.253906 8.125 0.609375 8.125H10.7656C11.0957 8.125 11.375 8.4043 11.375 8.73438C11.375 9.08984 11.0957 9.34375 10.7656 9.34375Z" fill="var(--fill-0, white)"/>
</svg>
