<svg preserveAspectRatio="none" width="100%" height="100%" overflow="visible" style="display: block;" viewBox="0 0 12.5938 13" fill="none" xmlns="http://www.w3.org/2000/svg">
<path id="file-pdf" d="M1.625 11.7812H2.4375V13H1.625C0.710938 13 0 12.2891 0 11.375V1.625C0 0.736328 0.710938 0 1.625 0H5.81445C6.24609 0 6.65234 0.177734 6.95703 0.482422L9.26758 2.79297C9.57227 3.09766 9.75 3.50391 9.75 3.93555V7.3125H8.53125V4.0625H6.5C6.04297 4.0625 5.6875 3.70703 5.6875 3.25V1.21875H1.625C1.39648 1.21875 1.21875 1.42188 1.21875 1.625V11.375C1.21875 11.6035 1.39648 11.7812 1.625 11.7812ZM4.46875 8.9375H5.28125C6.04297 8.9375 6.70312 9.59766 6.70312 10.3594C6.70312 11.1465 6.04297 11.7812 5.28125 11.7812H4.875V12.5938C4.875 12.8223 4.67188 13 4.46875 13C4.24023 13 4.0625 12.8223 4.0625 12.5938V9.34375C4.0625 9.14062 4.24023 8.9375 4.46875 8.9375ZM5.28125 10.9688C5.61133 10.9688 5.89062 10.7148 5.89062 10.3594C5.89062 10.0293 5.61133 9.75 5.28125 9.75H4.875V10.9688H5.28125ZM7.71875 8.9375H8.53125C9.19141 8.9375 9.75 9.49609 9.75 10.1562V11.7812C9.75 12.4668 9.19141 13 8.53125 13H7.71875C7.49023 13 7.3125 12.8223 7.3125 12.5938V9.34375C7.3125 9.14062 7.49023 8.9375 7.71875 8.9375ZM8.53125 12.1875C8.73438 12.1875 8.9375 12.0098 8.9375 11.7812V10.1562C8.9375 9.95312 8.73438 9.75 8.53125 9.75H8.125V12.1875H8.53125ZM10.5625 9.34375C10.5625 9.14062 10.7402 8.9375 10.9688 8.9375H12.1875C12.3906 8.9375 12.5938 9.14062 12.5938 9.34375C12.5938 9.57227 12.3906 9.75 12.1875 9.75H11.375V10.5625H12.1875C12.3906 10.5625 12.5938 10.7656 12.5938 10.9688C12.5938 11.1973 12.3906 11.375 12.1875 11.375H11.375V12.5938C11.375 12.8223 11.1719 13 10.9688 13C10.7402 13 10.5625 12.8223 10.5625 12.5938V9.34375Z" fill="var(--fill-0, white)"/>
</svg>
