<svg preserveAspectRatio="none" width="100%" height="100%" overflow="visible" style="display: block;" viewBox="0 0 10.9863 10.9863" fill="none" xmlns="http://www.w3.org/2000/svg">
<path id="Icon lable" d="M3.52344 0.523423L4.38281 2.58592C4.5332 2.92967 4.44727 3.33788 4.14648 3.5742L3.09375 4.45506C3.80273 5.95897 5.02734 7.18358 6.53125 7.89256L7.41211 6.83983C7.64844 6.53905 8.05664 6.45311 8.40039 6.6035L10.4629 7.46288C10.8711 7.61327 11.0645 8.06444 10.957 8.47264L10.4414 10.3633C10.334 10.7285 10.0117 10.9863 9.625 10.9863C4.29688 10.9863 0 6.68944 0 1.36131C0 0.974595 0.257812 0.65233 0.623047 0.544908L2.51367 0.0292828C2.92188 -0.0781391 3.37305 0.11522 3.52344 0.523423Z" fill="var(--fill-0, white)"/>
</svg>
