<svg preserveAspectRatio="none" width="100%" height="100%" overflow="visible" style="display: block;" viewBox="0 0 11.375 11.375" fill="none" xmlns="http://www.w3.org/2000/svg">
<path id="vector" d="M2.64062 1.82812C2.84375 1.82812 3.04688 2.03125 3.04688 2.23438V2.64062C3.04688 2.86914 2.84375 3.04688 2.64062 3.04688H2.23438C2.00586 3.04688 1.82812 2.86914 1.82812 2.64062V2.23438C1.82812 2.03125 2.00586 1.82812 2.23438 1.82812H2.64062ZM0 1.21875C0 0.558594 0.533203 0 1.21875 0H3.65625C4.31641 0 4.875 0.558594 4.875 1.21875V3.65625C4.875 4.3418 4.31641 4.875 3.65625 4.875H1.21875C0.533203 4.875 0 4.3418 0 3.65625V1.21875ZM1.21875 3.65625H3.65625V1.21875H1.21875V3.65625ZM1.82812 8.73438C1.82812 8.53125 2.00586 8.32812 2.23438 8.32812H2.64062C2.84375 8.32812 3.04688 8.53125 3.04688 8.73438V9.14062C3.04688 9.36914 2.84375 9.54688 2.64062 9.54688H2.23438C2.00586 9.54688 1.82812 9.36914 1.82812 9.14062V8.73438ZM0 7.71875C0 7.05859 0.533203 6.5 1.21875 6.5H3.65625C4.31641 6.5 4.875 7.05859 4.875 7.71875V10.1562C4.875 10.8418 4.31641 11.375 3.65625 11.375H1.21875C0.533203 11.375 0 10.8418 0 10.1562V7.71875ZM1.21875 10.1562H3.65625V7.71875H1.21875V10.1562ZM9.14062 1.82812C9.34375 1.82812 9.54688 2.03125 9.54688 2.23438V2.64062C9.54688 2.86914 9.34375 3.04688 9.14062 3.04688H8.73438C8.50586 3.04688 8.32812 2.86914 8.32812 2.64062V2.23438C8.32812 2.03125 8.50586 1.82812 8.73438 1.82812H9.14062ZM10.1562 0C10.8164 0 11.375 0.558594 11.375 1.21875V3.65625C11.375 4.3418 10.8164 4.875 10.1562 4.875H7.71875C7.0332 4.875 6.5 4.3418 6.5 3.65625V1.21875C6.5 0.558594 7.0332 0 7.71875 0H10.1562ZM10.1562 1.21875H7.71875V3.65625H10.1562V1.21875ZM9.75 11.375H8.9375V10.5625H9.75V11.375ZM10.5625 10.5625H11.375V11.375H10.5625V10.5625ZM11.375 9.75H8.9375V8.9375H8.125V11.375H6.5V6.5H8.9375V7.3125H10.5625V6.5H11.375V9.75Z" fill="var(--fill-0, white)"/>
</svg>
