<svg preserveAspectRatio="none" width="100%" height="100%" overflow="visible" style="display: block;" viewBox="0 0 12.9937 13.019" fill="none" xmlns="http://www.w3.org/2000/svg">
<path id="vector" d="M10.5625 5.28125C10.5625 6.44922 10.1816 7.54102 9.54688 8.4043L12.7461 11.6289C13.0762 11.9336 13.0762 12.4668 12.7461 12.7715C12.4414 13.1016 11.9082 13.1016 11.6035 12.7715L8.37891 9.54688C7.51562 10.207 6.42383 10.5625 5.28125 10.5625C2.36133 10.5625 0 8.20117 0 5.28125C0 2.38672 2.36133 0 5.28125 0C8.17578 0 10.5625 2.38672 10.5625 5.28125ZM5.28125 8.9375C7.28711 8.9375 8.9375 7.3125 8.9375 5.28125C8.9375 3.27539 7.28711 1.625 5.28125 1.625C3.25 1.625 1.625 3.27539 1.625 5.28125C1.625 7.3125 3.25 8.9375 5.28125 8.9375Z" fill="var(--fill-0, white)"/>
</svg>
