<svg preserveAspectRatio="none" width="100%" height="100%" overflow="visible" style="display: block;" viewBox="0 0 12.1886 12.9492" fill="none" xmlns="http://www.w3.org/2000/svg">
<path id="shield" d="M6.09482 1.26953L1.44833 3.22461C1.29599 3.30078 1.19442 3.42773 1.21982 3.55469C1.21982 5.89062 2.18466 9.90234 5.94247 11.6797C6.04403 11.7305 6.1456 11.7305 6.22177 11.6797C9.97958 9.87695 10.9444 5.89062 10.9698 3.55469C10.9698 3.42773 10.8683 3.30078 10.7413 3.22461L6.09482 1.26953ZM6.42489 0.0761719L11.1983 2.10742C11.7569 2.36133 12.1886 2.89453 12.1886 3.55469C12.1632 6.09375 11.1222 10.6895 6.75497 12.7969C6.32333 13 5.84091 13 5.40927 12.7969C1.04208 10.6895 0.00106513 6.09375 0.00106513 3.55469C-0.0243255 2.89453 0.407315 2.36133 0.965909 2.10742L5.73935 0.0761719C5.84091 0.0253906 5.96786 0 6.09482 0C6.19638 0 6.32333 0.0253906 6.42489 0.0761719Z" fill="var(--fill-0, white)"/>
</svg>
