<svg preserveAspectRatio="none" width="100%" height="100%" overflow="visible" style="display: block;" viewBox="0 0 13 13" fill="none" xmlns="http://www.w3.org/2000/svg">
<path id="spinner" d="M7.3125 0.8125C7.3125 1.26953 6.93164 1.625 6.5 1.625C6.04297 1.625 5.6875 1.26953 5.6875 0.8125C5.6875 0.380859 6.04297 0 6.5 0C6.93164 0 7.3125 0.380859 7.3125 0.8125ZM7.3125 12.1875C7.3125 12.6445 6.93164 13 6.5 13C6.04297 13 5.6875 12.6445 5.6875 12.1875C5.6875 11.7559 6.04297 11.375 6.5 11.375C6.93164 11.375 7.3125 11.7559 7.3125 12.1875ZM11.375 6.5C11.375 6.06836 11.7305 5.6875 12.1875 5.6875C12.6191 5.6875 13 6.06836 13 6.5C13 6.95703 12.6191 7.3125 12.1875 7.3125C11.7305 7.3125 11.375 6.95703 11.375 6.5ZM0.8125 7.3125C0.355469 7.3125 0 6.95703 0 6.5C0 6.06836 0.355469 5.6875 0.8125 5.6875C1.24414 5.6875 1.625 6.06836 1.625 6.5C1.625 6.95703 1.24414 7.3125 0.8125 7.3125ZM1.9043 11.0957C1.57422 10.791 1.57422 10.2832 1.9043 9.95312C2.20898 9.64844 2.7168 9.64844 3.04688 9.95312C3.35156 10.2832 3.35156 10.791 3.04688 11.0957C2.7168 11.4258 2.20898 11.4258 1.9043 11.0957ZM9.92773 11.0957C9.72461 10.918 9.62305 10.5879 9.69922 10.3086C9.77539 10.0293 10.0039 9.80078 10.2832 9.72461C10.5625 9.64844 10.8926 9.75 11.0957 9.95312C11.2988 10.1562 11.4004 10.4609 11.3242 10.7656C11.248 11.0449 11.0195 11.2734 10.7402 11.3496C10.4355 11.4258 10.1309 11.3242 9.92773 11.0957ZM1.9043 1.9043C2.20898 1.59961 2.7168 1.59961 3.04688 1.9043C3.35156 2.23438 3.35156 2.74219 3.04688 3.07227C2.7168 3.37695 2.20898 3.37695 1.9043 3.07227C1.57422 2.74219 1.57422 2.23438 1.9043 1.9043Z" fill="var(--fill-0, white)"/>
</svg>
