<svg preserveAspectRatio="none" width="100%" height="100%" overflow="visible" style="display: block;" viewBox="0 0 13.6129 13.005" fill="none" xmlns="http://www.w3.org/2000/svg">
<path id="Icon lable" d="M6.53027 0.670898C6.6475 0.437056 6.97784 0.451635 7.0791 0.663086L7.08203 0.669922L8.75781 4.04688L8.875 4.28223L9.13477 4.31934L12.8379 4.85156C13.1001 4.89263 13.2026 5.21231 13.0166 5.39941L10.332 7.9834L10.1406 8.16797L10.1855 8.42871L10.8193 12.1045C10.857 12.363 10.5877 12.5639 10.3428 12.4414L7.05078 10.7197L6.81836 10.5977L6.58594 10.7197L3.26758 12.4668C3.02214 12.5883 2.75404 12.3863 2.79395 12.127L2.79297 12.126L3.42676 8.4541L3.47168 8.19434L3.2832 8.01074L0.595703 5.39941C0.410233 5.2124 0.512796 4.89298 0.774414 4.85156L4.47852 4.31934L4.73828 4.28223L4.85449 4.04688L6.53027 0.670898Z" stroke="var(--stroke-0, white)"/>
</svg>
