<svg preserveAspectRatio="none" width="100%" height="100%" overflow="visible" style="display: block;" viewBox="0 0 179 45.9242" fill="none" xmlns="http://www.w3.org/2000/svg">
<g id="Vector">
<path d="M54.3621 33.7244L49.8306 21.1158H43.8377L39.2875 33.7493L35.169 21.1158H29.3879L36.155 39.2287H41.548L46.5695 25.2191L51.593 39.2287H56.8095L63.4709 21.1158H58.5366L54.3621 33.7244Z" fill="#2B2A26"/>
<path d="M81.4808 21.3606C79.9758 20.8666 78.0847 20.6196 75.8054 20.6196C73.713 20.6196 71.905 20.8438 70.3772 21.29C68.8493 21.7363 67.6454 22.3817 66.7652 23.2285C65.8851 24.0753 65.3371 25.1089 65.1253 26.3293H70.5536C70.7404 25.6237 71.2698 25.0903 72.1395 24.725C73.0093 24.3618 74.1946 24.1791 75.6996 24.1791C76.7105 24.1791 77.572 24.2725 78.2902 24.4614C79.0064 24.6503 79.5648 24.9201 79.9654 25.2729C80.364 25.6257 80.5653 26.0595 80.5653 26.5763V26.6116C80.5653 27.0122 80.4242 27.3276 80.1418 27.5622C79.8595 27.7967 79.4257 27.9378 78.8382 27.9856L71.5064 28.7971C69.908 28.9382 68.5691 29.2496 67.4876 29.7311C66.4061 30.2126 65.5965 30.829 65.0547 31.5803C64.5129 32.3317 64.2452 33.2366 64.2452 34.293C64.2452 35.9845 64.9094 37.3129 66.2359 38.2759C67.5623 39.2389 69.4015 39.7204 71.7514 39.7204C73.3497 39.7204 74.7696 39.5212 76.0151 39.1206C77.2606 38.7221 78.3296 38.1285 79.2223 37.3419C79.8346 36.8023 80.3619 36.1755 80.8082 35.4636V39.2265H85.9895V27.3505C85.9895 25.8478 85.6137 24.5963 84.8623 23.598C84.1108 22.5997 82.9816 21.8525 81.4787 21.3606H81.4808ZM80.036 32.973C79.6831 33.5728 79.1911 34.1 78.5559 34.5587C77.9207 35.0174 77.1859 35.3764 76.3535 35.6338C75.519 35.8932 74.6201 36.0219 73.657 36.0219C72.4115 36.0219 71.4649 35.8227 70.8193 35.4221C70.1737 35.0236 69.8499 34.459 69.8499 33.7305C69.8499 33.1432 70.0492 32.6907 70.4498 32.3732C70.8484 32.0556 71.4607 31.8502 72.2828 31.7568L77.7816 31.0532C78.722 30.9349 79.4734 30.7999 80.0381 30.6484C80.227 30.5966 80.3993 30.5426 80.5674 30.4845V31.0532C80.5674 31.7339 80.3909 32.3752 80.0381 32.973H80.036Z" fill="#2B2A26"/>
<path d="M106.434 21.1158L99.9888 33.9154L93.1822 21.1158H86.9796L97.0619 38.9339L96.2129 40.4262C95.8122 41.1319 95.3784 41.6113 94.9092 41.8708C94.438 42.1281 93.8526 42.2589 93.1469 42.2589H89.4809V45.9242H93.6056C95.4157 45.9242 96.9062 45.5589 98.0811 44.8325C99.256 44.104 100.277 42.9293 101.147 41.3083L112.004 21.1158H106.434Z" fill="#2B2A26"/>
<path d="M131.064 29.8472C131.064 30.9742 130.829 31.9683 130.358 32.8255C129.887 33.6827 129.212 34.3655 128.332 34.8699C127.452 35.3763 126.387 35.6274 125.141 35.6274C123.966 35.6274 122.991 35.3991 122.216 34.9405C121.44 34.4818 120.871 33.8301 120.508 32.9853C120.143 32.1406 119.962 31.1423 119.962 29.9904V21.0741H114.498V31.0821C114.498 32.4457 114.687 33.6599 115.063 34.7288C115.439 35.7976 115.978 36.6963 116.684 37.4248C117.39 38.1533 118.264 38.7116 119.31 39.0997C120.356 39.4879 121.56 39.6809 122.922 39.6809C125.012 39.6809 126.804 39.2699 128.296 38.448C129.459 37.8067 130.378 36.935 131.064 35.8391V39.1869H136.492V21.072H131.064V29.8472Z" fill="#2B2A26"/>
<path d="M148.897 21.6884C147.957 22.0994 147.176 22.7697 146.553 23.6975C146.149 24.2994 145.804 25.0341 145.513 25.8975V21.072H140.085V39.1848H145.513V32.2776C145.513 31.0323 145.771 29.9157 146.29 28.9298C146.807 27.944 147.535 27.1615 148.476 26.5866C149.416 26.0117 150.495 25.7232 151.718 25.7232H154.08V21.072H152.247C150.954 21.072 149.839 21.2775 148.899 21.6884H148.897Z" fill="#2B2A26"/>
<path d="M170.961 35.4677C170.046 35.8081 168.916 35.9783 167.577 35.9783C166.12 35.9783 164.9 35.7271 163.911 35.2207C162.925 34.7164 162.191 34.0232 161.709 33.1411C161.406 32.5848 161.198 31.9809 161.086 31.3271H178.999C179.021 29.4716 178.774 27.8672 178.258 26.5161C177.741 25.1649 176.983 24.0483 175.984 23.1683C174.986 22.2883 173.77 21.6345 172.337 21.2132C170.903 20.7898 169.294 20.5781 167.509 20.5781C166.029 20.5781 164.665 20.7255 163.419 21.0181C162.174 21.3128 161.07 21.7342 160.106 22.2862C159.143 22.8383 158.327 23.5087 157.657 24.2953C156.986 25.0819 156.482 25.964 156.142 26.9374C155.801 27.9129 155.631 28.9756 155.631 30.1275C155.631 32.0079 156.106 33.6683 157.059 35.1128C158.01 36.5573 159.374 37.6802 161.149 38.4772C162.923 39.2762 165.043 39.6747 167.511 39.6747C169.838 39.6747 171.771 39.4153 173.309 38.9006C174.847 38.3838 176.051 37.6906 176.921 36.8209C177.79 35.9513 178.378 34.9883 178.683 33.9318H173.043C172.572 34.6126 171.881 35.1253 170.963 35.4656L170.961 35.4677ZM162.025 26.5867C162.365 26.1051 162.801 25.6942 163.328 25.3538C163.857 25.0134 164.468 24.7498 165.161 24.561C165.854 24.3721 166.625 24.2787 167.469 24.2787C168.314 24.2787 169.043 24.3617 169.726 24.5257C170.407 24.6897 171.007 24.9491 171.524 25.2999C172.04 25.6527 172.464 26.0823 172.792 26.5867C173.12 27.0931 173.344 27.6742 173.462 28.3322H161.213C161.225 28.2865 161.236 28.2367 161.248 28.191C161.425 27.6037 161.682 27.0703 162.022 26.5867H162.025Z" fill="#2B2A26"/>
<path d="M16.0544 0L18.4022 10.3879L25.2711 6.83668L21.7215 13.7066L32.1089 16.0519L21.7215 18.3993L25.2711 25.2671L18.4022 21.718L16.0544 32.1038L13.7088 21.718L6.83777 25.2671L10.3895 18.3993L0 16.0519L10.3895 13.7066L6.83777 6.83668L13.7088 10.3879L16.0544 0Z" fill="var(--fill-0, #8EBFC4)"/>
</g>
</svg>
