<svg preserveAspectRatio="none" width="100%" height="100%" overflow="visible" style="display: block;" viewBox="0 0 13.75 9.625" fill="none" xmlns="http://www.w3.org/2000/svg">
<path id="Icon lable" d="M0.6875 0C1.05273 0 1.375 0.322266 1.375 0.6875V6.1875H6.1875V2.75C6.1875 2.38477 6.48828 2.0625 6.875 2.0625H11.6875C12.8262 2.0625 13.75 2.98633 13.75 4.125V8.9375C13.75 9.32422 13.4277 9.625 13.0625 9.625C12.6758 9.625 12.375 9.32422 12.375 8.9375V8.25H1.375V8.9375C1.375 9.32422 1.05273 9.625 0.6875 9.625C0.300781 9.625 0 9.32422 0 8.9375V0.6875C0 0.322266 0.300781 0 0.6875 0ZM3.78125 5.5C2.81445 5.5 2.0625 4.74805 2.0625 3.78125C2.0625 2.83594 2.81445 2.0625 3.78125 2.0625C4.72656 2.0625 5.5 2.83594 5.5 3.78125C5.5 4.74805 4.72656 5.5 3.78125 5.5Z" fill="var(--fill-0, white)"/>
</svg>
