<svg preserveAspectRatio="none" width="100%" height="100%" overflow="visible" style="display: block;" viewBox="0 0 11.0246 11" fill="none" xmlns="http://www.w3.org/2000/svg">
<path id="Icon lable" d="M9.44966 0C10.311 0 11.0246 0.713647 11.0246 1.55034V9.42506C11.0246 10.2864 10.311 11 9.44966 11H1.57494C0.689038 11 0 10.2864 0 9.42506V1.55034C0 0.689038 0.689038 0 1.57494 0H9.44966ZM9.8434 9.44966V1.57494C9.8434 1.37808 9.64653 1.18121 9.44966 1.18121H1.57494C1.35347 1.18121 1.18121 1.37808 1.18121 1.57494V9.44966C1.18121 9.67114 1.35347 9.8434 1.57494 9.8434H9.44966C9.64653 9.8434 9.8434 9.67114 9.8434 9.44966Z" fill="var(--fill-0, white)"/>
</svg>
