<svg preserveAspectRatio="none" width="100%" height="100%" overflow="visible" style="display: block;" viewBox="0 0 11 11" fill="none" xmlns="http://www.w3.org/2000/svg">
<path id="Icon lable" d="M9.42857 0C10.2879 0 11 0.712054 11 1.57143V9.42857C11 10.3125 10.2879 11 9.42857 11H1.57143C0.6875 11 0 10.3125 0 9.42857V1.57143C0 0.712054 0.6875 0 1.57143 0H9.42857ZM8.32366 4.41964C8.59375 4.14955 8.59375 3.73214 8.32366 3.46205C8.05357 3.19196 7.63616 3.19196 7.36607 3.46205L4.71429 6.11384L3.60938 5.03348C3.33929 4.76339 2.92188 4.76339 2.65179 5.03348C2.3817 5.30357 2.3817 5.72098 2.65179 5.99107L4.22321 7.5625C4.34598 7.70982 4.51786 7.75893 4.71429 7.75893C4.88616 7.75893 5.05804 7.70982 5.1808 7.5625L8.32366 4.41964Z" fill="var(--fill-0, white)"/>
</svg>
