<svg preserveAspectRatio="none" width="100%" height="100%" overflow="visible" style="display: block;" viewBox="0 0 13 13" fill="none" xmlns="http://www.w3.org/2000/svg">
<path id="Icon lable" d="M6.5 0C10.0801 0 13 2.91992 13 6.5C13 10.1055 10.0801 13 6.5 13C2.89453 13 0 10.1055 0 6.5C0 2.91992 2.89453 0 6.5 0ZM9.41992 5.38281C9.69922 5.10352 9.69922 4.67188 9.41992 4.39258C9.14062 4.11328 8.70898 4.11328 8.42969 4.39258L5.6875 7.13477L4.54492 6.01758C4.26562 5.73828 3.83398 5.73828 3.55469 6.01758C3.27539 6.29688 3.27539 6.72852 3.55469 7.00781L5.17969 8.63281C5.30664 8.78516 5.48438 8.83594 5.6875 8.83594C5.86523 8.83594 6.04297 8.78516 6.16992 8.63281L9.41992 5.38281Z" fill="var(--fill-0, white)"/>
</svg>
