<svg preserveAspectRatio="none" width="100%" height="100%" overflow="visible" style="display: block;" viewBox="0 0 13 13" fill="none" xmlns="http://www.w3.org/2000/svg">
<path id="vector" d="M6.5 13C2.89453 13 0 10.1055 0 6.5C0 2.91992 2.89453 0 6.5 0C10.0801 0 13 2.91992 13 6.5C13 10.1055 10.0801 13 6.5 13ZM5.89062 3.04688V6.5C5.89062 6.70312 5.99219 6.90625 6.14453 7.00781L8.58203 8.63281C8.86133 8.83594 9.24219 8.75977 9.44531 8.48047C9.62305 8.20117 9.54688 7.82031 9.26758 7.61719L7.10938 6.19531V3.04688C7.10938 2.7168 6.83008 2.4375 6.5 2.4375C6.14453 2.4375 5.89062 2.7168 5.89062 3.04688Z" fill="var(--fill-0, white)"/>
</svg>
