<svg preserveAspectRatio="none" width="100%" height="100%" overflow="visible" style="display: block;" viewBox="0 0 9.75 13" fill="none" xmlns="http://www.w3.org/2000/svg">
<path id="file-contract" d="M9.26758 2.38672C9.57227 2.69141 9.75 3.09766 9.75 3.5293V11.375C9.75 12.2891 9.01367 13 8.125 13H1.625C0.710938 13 0 12.2891 0 11.375V1.625C0 0.736328 0.710938 0 1.625 0H6.2207C6.65234 0 7.05859 0.177734 7.36328 0.482422L9.26758 2.38672ZM8.53125 11.375H8.50586V4.0625H6.5C6.04297 4.0625 5.6875 3.70703 5.6875 3.25V1.24414H1.625C1.39648 1.24414 1.21875 1.42188 1.21875 1.65039V11.375C1.21875 11.6035 1.39648 11.7812 1.625 11.7812H8.125C8.32812 11.7812 8.53125 11.6035 8.53125 11.375ZM2.4375 3.25C2.20898 3.25 2.03125 3.07227 2.03125 2.84375C2.03125 2.64062 2.20898 2.4375 2.4375 2.4375H4.46875C4.67188 2.4375 4.875 2.64062 4.875 2.84375C4.875 3.07227 4.67188 3.25 4.46875 3.25H2.4375ZM2.4375 4.875C2.20898 4.875 2.03125 4.69727 2.03125 4.46875C2.03125 4.26562 2.20898 4.0625 2.4375 4.0625H4.46875C4.67188 4.0625 4.875 4.26562 4.875 4.46875C4.875 4.69727 4.67188 4.875 4.46875 4.875H2.4375ZM4.97656 9.24219C5.48438 8.83594 6.34766 8.98828 6.65234 9.59766C6.70312 9.69922 6.80469 9.75 6.90625 9.75H7.3125C7.51562 9.75 7.71875 9.95312 7.71875 10.1562C7.71875 10.3848 7.51562 10.5625 7.3125 10.5625H6.90625C6.5 10.5625 6.11914 10.334 5.94141 9.97852C5.86523 9.82617 5.73828 9.80078 5.6875 9.80078C5.61133 9.80078 5.48438 9.82617 5.43359 9.95312L5.23047 10.3594C5.1543 10.4863 5.00195 10.5625 4.875 10.5625H4.82422C4.67188 10.5625 4.51953 10.4609 4.46875 10.2832L4.0625 9.01367L3.7832 9.82617C3.63086 10.2832 3.22461 10.5625 2.74219 10.5625H2.4375C2.20898 10.5625 2.03125 10.3848 2.03125 10.1562C2.03125 9.95312 2.20898 9.75 2.4375 9.75H2.74219C2.86914 9.75 2.9707 9.67383 3.02148 9.57227L3.47852 8.17578C3.55469 7.92188 3.7832 7.76953 4.0625 7.76953C4.31641 7.76953 4.54492 7.92188 4.62109 8.17578L4.97656 9.24219Z" fill="var(--fill-0, white)"/>
</svg>
