<svg preserveAspectRatio="none" width="100%" height="100%" overflow="visible" style="display: block;" viewBox="0 0 15.0041 12.0025" fill="none" xmlns="http://www.w3.org/2000/svg">
<path id="Icon lable" d="M0.598892 0.0832666L14.8723 11.3333C15.013 11.4505 15.0598 11.7083 14.9192 11.8489C14.802 12.013 14.5676 12.0598 14.4036 11.9192L0.153579 0.669204C-0.0104834 0.552017 -0.0573584 0.294204 0.0832666 0.153579C0.200454 -0.0104834 0.458267 -0.0573584 0.598892 0.0832666ZM14.1926 6.2942C13.9583 6.8567 13.5364 7.63014 12.927 8.38014L12.3411 7.91139C12.9036 7.20827 13.2786 6.52858 13.513 5.98952C13.1848 5.23952 12.5051 4.11452 11.4973 3.17702C10.4895 2.23952 9.15358 1.48952 7.51295 1.48952C6.57545 1.48952 5.7317 1.74733 5.00514 2.12233L4.37233 1.6067C5.26295 1.09108 6.2942 0.739517 7.51295 0.739517C9.38795 0.739517 10.9114 1.6067 12.013 2.63795C13.1145 3.64577 13.8411 4.86452 14.1926 5.70827C14.263 5.89577 14.263 6.1067 14.1926 6.2942ZM2.07545 3.62233L2.66139 4.09108C2.09889 4.77077 1.72389 5.47389 1.51295 5.98952C1.81764 6.73952 2.49733 7.86452 3.50514 8.80202C4.51295 9.73952 5.84889 10.4895 7.51295 10.4895C8.42702 10.4895 9.27077 10.2551 9.99733 9.88014L10.6301 10.3958C9.76295 10.9114 8.70827 11.2395 7.51295 11.2395C5.61452 11.2395 4.09108 10.3958 2.98952 9.36452C1.88795 8.33327 1.16139 7.11452 0.809829 6.2942C0.739517 6.1067 0.739517 5.89577 0.809829 5.70827C1.0442 5.14577 1.46608 4.37233 2.07545 3.62233ZM7.51295 8.98952C5.84889 8.98952 4.51295 7.65358 4.51295 5.98952C4.51295 5.84889 4.51295 5.70827 4.53639 5.56764L5.26295 6.13014C5.33327 7.32545 6.31764 8.23952 7.51295 8.23952C7.63014 8.23952 7.77077 8.23952 7.88795 8.21608L8.61452 8.77858C8.26295 8.9192 7.88795 8.98952 7.51295 8.98952ZM10.513 5.98952V6.01295C10.513 6.15358 10.4895 6.2942 10.4661 6.43483L9.73952 5.87233C9.6692 4.67702 8.70827 3.76295 7.51295 3.76295C7.37233 3.76295 7.2317 3.76295 7.11452 3.78639L6.38795 3.22389C6.73952 3.08327 7.11452 2.98952 7.51295 2.98952C9.15358 2.98952 10.513 4.34889 10.513 5.98952Z" fill="var(--fill-0, white)"/>
</svg>
