<svg preserveAspectRatio="none" width="100%" height="100%" overflow="visible" style="display: block;" viewBox="0 0 14.644 13" fill="none" xmlns="http://www.w3.org/2000/svg">
<path id="vector" d="M14.644 6.5C14.644 7.74414 12.7651 8.53125 11.8003 8.53125H9.71826L7.1792 12.5938C7.02686 12.8477 6.77295 13 6.46826 13H4.81787C4.56396 13 4.31006 12.8984 4.15771 12.6953C4.00537 12.4922 3.95459 12.2129 4.03076 11.959L5.12256 8.53125H3.87842L2.88818 9.85156C2.73584 10.0547 2.50732 10.1562 2.25342 10.1562H0.806152C0.577637 10.1562 0.32373 10.0547 0.171387 9.85156C0.019043 9.64844 -0.0317383 9.39453 0.0444336 9.14062L0.806152 6.5L0.019043 3.85938C-0.0317383 3.63086 0.019043 3.37695 0.171387 3.17383C0.32373 2.9707 0.577637 2.84375 0.806152 2.84375H2.25342C2.50732 2.84375 2.73584 2.9707 2.88818 3.17383L3.87842 4.46875H5.12256L4.03076 1.04102C3.95459 0.8125 4.00537 0.533203 4.15771 0.330078C4.31006 0.126953 4.56396 0 4.81787 0H6.46826C6.74756 0 7.05225 0.177734 7.15381 0.40625L9.69287 4.46875H11.7749C12.7651 4.46875 14.644 5.28125 14.644 6.5ZM13.3999 6.5C13.3491 6.24609 12.4351 5.6875 11.7749 5.6875H9.03271L6.23975 1.21875H5.37646L6.77295 5.6875H3.26904L2.05029 4.0625H1.36475L2.07568 6.5L1.36475 8.9375H2.05029L3.26904 7.3125H6.77295L5.37646 11.7812H6.23975L9.03271 7.3125H11.7749C12.4604 7.3125 13.3745 6.7793 13.3999 6.5Z" fill="var(--fill-0, white)"/>
</svg>
