<svg preserveAspectRatio="none" width="100%" height="100%" overflow="visible" style="display: block;" viewBox="0 0 13 13" fill="none" xmlns="http://www.w3.org/2000/svg">
<path id="Icon lable" d="M6.5 0C10.0801 0 13 2.91992 13 6.5C13 10.1055 10.0801 13 6.5 13C2.89453 13 0 10.1055 0 6.5C0 2.91992 2.89453 0 6.5 0ZM6.5 11.7812C9.39453 11.7812 11.7812 9.41992 11.7812 6.5C11.7812 3.60547 9.39453 1.21875 6.5 1.21875C3.58008 1.21875 1.21875 3.60547 1.21875 6.5C1.21875 9.41992 3.58008 11.7812 6.5 11.7812ZM7.51562 8.53125C7.8457 8.53125 8.125 8.81055 8.125 9.14062C8.125 9.49609 7.8457 9.75 7.51562 9.75H5.48438C5.12891 9.75 4.875 9.49609 4.875 9.14062C4.875 8.81055 5.12891 8.53125 5.48438 8.53125H5.89062V6.90625H5.6875C5.33203 6.90625 5.07812 6.65234 5.07812 6.29688C5.07812 5.9668 5.33203 5.6875 5.6875 5.6875H6.5C6.83008 5.6875 7.10938 5.9668 7.10938 6.29688V8.53125H7.51562ZM6.5 4.875C6.04297 4.875 5.6875 4.51953 5.6875 4.0625C5.6875 3.63086 6.04297 3.25 6.5 3.25C6.93164 3.25 7.3125 3.63086 7.3125 4.0625C7.3125 4.51953 6.93164 4.875 6.5 4.875Z" fill="var(--fill-0, white)"/>
</svg>
