<svg preserveAspectRatio="none" width="100%" height="100%" overflow="visible" style="display: block;" viewBox="0 0 12.9911 12.9771" fill="none" xmlns="http://www.w3.org/2000/svg">
<path id="pen" d="M1.49132 8.19482L9.21007 0.476074C9.84484 -0.158691 10.8859 -0.158691 11.5206 0.476074L12.5109 1.46631C12.587 1.54248 12.6632 1.64404 12.714 1.72021C13.1456 2.35498 13.0694 3.21826 12.5109 3.77686L4.7921 11.4956C4.76671 11.521 4.71593 11.5464 4.69054 11.5972C4.43663 11.8003 4.15734 11.9526 3.85265 12.0542L0.780383 12.9429C0.577258 13.019 0.348742 12.9683 0.196398 12.7905C0.0186637 12.6382 -0.0321175 12.4097 0.0186638 12.2065L0.932726 9.13428C1.03429 8.77881 1.23741 8.44873 1.49132 8.19482ZM2.10069 9.48975L1.51671 11.4702L3.49718 10.8862C3.64952 10.8354 3.80187 10.7593 3.92882 10.6323L9.74327 4.81787L8.14366 3.24365L2.3546 9.05811C2.32921 9.05811 2.32921 9.0835 2.30382 9.10889C2.20226 9.21045 2.15148 9.3374 2.10069 9.48975Z" fill="var(--fill-0, white)"/>
</svg>
