<svg preserveAspectRatio="none" width="100%" height="100%" overflow="visible" style="display: block;" viewBox="0 0 16.25 11.375" fill="none" xmlns="http://www.w3.org/2000/svg">
<path id="signature" d="M4.46875 2.4375V3.45312C4.46875 3.80859 4.18945 4.0625 3.85938 4.0625C3.50391 4.0625 3.25 3.80859 3.25 3.45312V2.4375C3.25 1.0918 4.3418 0 5.6875 0C7.0332 0 8.125 1.0918 8.125 2.4375V2.64062C8.125 3.22461 8.07422 3.7832 7.99805 4.3418L11.375 3.30078C11.6035 3.22461 11.8574 3.27539 12.0098 3.45312C12.1621 3.60547 12.2129 3.85938 12.1367 4.08789L11.4258 6.09375H14.0156C14.3457 6.09375 14.625 6.37305 14.625 6.70312C14.625 7.05859 14.3457 7.3125 14.0156 7.3125H10.5625C10.3594 7.3125 10.1562 7.23633 10.0547 7.05859C9.92773 6.90625 9.90234 6.70312 9.97852 6.5L10.5879 4.82422L7.76953 5.6875L7.74414 5.81445C7.43945 7.23633 6.88086 8.60742 6.11914 9.85156L5.73828 10.5117C5.4082 11.0703 4.82422 11.375 4.21484 11.375C3.22461 11.375 2.4375 10.5879 2.4375 9.59766V7.71875C2.4375 6.72852 3.07227 5.86523 4.01172 5.58594L6.72852 4.72266C6.83008 4.03711 6.90625 3.35156 6.90625 2.64062V2.4375C6.90625 1.77734 6.34766 1.21875 5.6875 1.21875C5.00195 1.21875 4.46875 1.77734 4.46875 2.4375ZM4.36719 6.72852C3.93555 6.88086 3.65625 7.26172 3.65625 7.71875V9.62305C3.65625 9.92773 3.88477 10.1816 4.21484 10.1816C4.39258 10.1816 4.57031 10.0547 4.67188 9.90234L5.07812 9.2168C5.66211 8.25195 6.11914 7.21094 6.42383 6.09375L4.36719 6.72852ZM1.625 8.53125V9.59766C1.625 9.64844 1.625 9.69922 1.625 9.75H0.609375C0.253906 9.75 0 9.49609 0 9.14062C0 8.81055 0.253906 8.53125 0.609375 8.53125H1.625ZM7.10938 9.75C7.33789 9.36914 7.54102 8.96289 7.71875 8.53125H15.6406C15.9707 8.53125 16.25 8.81055 16.25 9.14062C16.25 9.49609 15.9707 9.75 15.6406 9.75H7.10938Z" fill="var(--fill-0, white)"/>
</svg>
