<svg preserveAspectRatio="none" width="100%" height="100%" overflow="visible" style="display: block;" viewBox="0 0 10.5625 13" fill="none" xmlns="http://www.w3.org/2000/svg">
<path id="stopwatch" d="M5.89062 8.125C5.89062 8.48047 5.61133 8.73438 5.28125 8.73438C4.92578 8.73438 4.67188 8.48047 4.67188 8.125V5.48438C4.67188 5.1543 4.92578 4.875 5.28125 4.875C5.61133 4.875 5.89062 5.1543 5.89062 5.48438V8.125ZM3.25 0.609375C3.25 0.279297 3.50391 0 3.85938 0H6.70312C7.0332 0 7.3125 0.279297 7.3125 0.609375C7.3125 0.964844 7.0332 1.21875 6.70312 1.21875H5.89062V2.48828C6.98242 2.61523 7.97266 3.07227 8.75977 3.7832L9.52148 3.02148C9.75 2.79297 10.1309 2.79297 10.3594 3.02148C10.6133 3.27539 10.6133 3.65625 10.3594 3.88477L9.57227 4.67188C10.1816 5.53516 10.5625 6.60156 10.5625 7.71875C10.5625 10.6387 8.17578 13 5.28125 13C2.36133 13 0 10.6387 0 7.71875C0 5.02734 2.03125 2.79297 4.67188 2.48828V1.21875H3.85938C3.50391 1.21875 3.25 0.964844 3.25 0.609375ZM5.28125 11.7812C7.51562 11.7812 9.34375 9.97852 9.34375 7.71875C9.34375 5.48438 7.51562 3.65625 5.28125 3.65625C3.02148 3.65625 1.21875 5.48438 1.21875 7.71875C1.21875 9.97852 3.02148 11.7812 5.28125 11.7812Z" fill="var(--fill-0, white)"/>
</svg>
