<svg preserveAspectRatio="none" width="100%" height="100%" overflow="visible" style="display: block;" viewBox="0 0 10.5 12" fill="none" xmlns="http://www.w3.org/2000/svg">
<path id="tree" d="M4.92188 0.140625C5.01562 0.0703125 5.10938 0 5.25 0C5.36719 0 5.48438 0.0703125 5.55469 0.140625L9.04688 3.98438C9.11719 4.07812 9.1875 4.21875 9.1875 4.33594C9.1875 4.64062 8.92969 4.875 8.625 4.875H8.0625L9.77344 6.60938C9.86719 6.70312 9.9375 6.84375 9.9375 6.98438C9.9375 7.26562 9.67969 7.5 9.39844 7.5H8.625L10.3594 9.60938C10.4531 9.70312 10.5 9.82031 10.5 9.96094C10.5 10.2656 10.2422 10.5 9.9375 10.5H6V11.25C6 11.6719 5.64844 12 5.25 12C4.82812 12 4.5 11.6719 4.5 11.25V10.5H0.539062C0.234375 10.5 0 10.2656 0 9.96094C0 9.82031 0.0234375 9.70312 0.117188 9.60938L1.875 7.5H1.07812C0.796875 7.5 0.5625 7.26562 0.5625 6.98438C0.5625 6.84375 0.609375 6.70312 0.703125 6.60938L2.4375 4.875H1.85156C1.54688 4.875 1.3125 4.64062 1.3125 4.33594C1.3125 4.21875 1.35938 4.07812 1.45312 3.98438L4.92188 0.140625Z" fill="var(--fill-0, white)"/>
</svg>
