<svg preserveAspectRatio="none" width="100%" height="100%" overflow="visible" style="display: block;" viewBox="0 0 11 7.72212" fill="none" xmlns="http://www.w3.org/2000/svg">
<path id="Icon lable" d="M10.7587 1.22669C11 2.0713 11 3.88117 11 3.88117C11 3.88117 11 5.67093 10.7587 6.53565C10.638 7.01828 10.2559 7.38026 9.79342 7.50091C8.9287 7.72212 5.51005 7.72212 5.51005 7.72212C5.51005 7.72212 2.0713 7.72212 1.20658 7.50091C0.744059 7.38026 0.361974 7.01828 0.241316 6.53565C0 5.67093 0 3.88117 0 3.88117C0 3.88117 0 2.0713 0.241316 1.22669C0.361974 0.744059 0.744059 0.361974 1.20658 0.241316C2.0713 0 5.51005 0 5.51005 0C5.51005 0 8.9287 0 9.79342 0.241316C10.2559 0.361974 10.638 0.744059 10.7587 1.22669ZM4.38391 5.51005L7.23949 3.88117L4.38391 2.25229V5.51005Z" fill="var(--fill-0, white)"/>
</svg>
