<svg preserveAspectRatio="none" width="100%" height="100%" overflow="visible" style="display: block;" viewBox="0 0 551.32 414.05" fill="none" xmlns="http://www.w3.org/2000/svg">
<g id="Modalit&#195;&#160;_Isolamento" clip-path="url(#clip0_0_4)">
<path id="Vector" d="M541.59 164.7L536.78 165.04L532.67 166.32L527.16 165.72L522.05 161.88L512.42 162.56L508.95 162.81L507.43 164.55L504.17 164.78L499.65 164.11L494.06 162.58L491.25 155.02L491.6 154.36L488.03 154.62L483.14 154.96L478.34 150.46L478.83 143.31L476.44 137.72L470.44 134.23L459.77 138.19L448.47 138.34L448.13 133.54L443.6 133.86L433.63 129.72L428.81 130.06L423.41 125.5L423 125.35L422.99 125.15L418.23 121.13L413.74 116.97L408.57 117.34L404.11 117.65L398.27 108.39L393.81 108.71L393.12 108.11L393.05 108.12L387.92 103.93L384.16 100.4L383.42 99.77L378.97 100.08L373.8 100.45L373.46 95.63L373.14 91.1L368.34 86.61L362.86 82.51L363.45 81.83L362.53 81.89L357.02 77.37L348.03 78.01L338.07 73.88L332.63 69.43L328.1 69.75L323 70.11L313.66 70.77L308.51 66.29L303.04 57.36L293.69 58.02L288.54 53.55L284.08 53.86L274.46 54.54L269.3 54.91L264.51 50.7L259.35 51.07L254.89 51.38L250 46.6L244.56 42.15L240.03 42.47L230.09 38.62L224.99 38.98L215.28 34.55L214.99 30.37L205.37 31.05L200.19 26.22L195.66 26.54L186.38 27.2L180.91 23.11L175.75 18.63L166.82 24.1L160.97 14.84L156.18 10.35L155.83 5.53L155.51 1L146.21 6.21L141.39 6.55L136.27 2.36L136.59 6.89L132.05 7.21L127.24 7.55L122.42 7.89L127.58 12.37L123.1 17.51L118.64 22.67L118.3 17.85L113.15 13.39L108.33 13.73L103.52 14.07L98.6401 9.57L94.5101 19.53L89.3601 15.07L84.8901 20.22L80.4101 25.37L85.5701 29.85L85.8801 34.3L90.3801 29.5L90.7001 33.96L86.2501 39.47L95.8701 38.79L96.1601 42.97L91.7201 48.4L92.0401 52.93L87.5601 58.08L92.3801 57.74L92.7401 62.84L88.2401 67.7L83.1101 63.52L78.6201 68.38L79.2801 77.66L79.9101 77.61L79.8901 77.34L89.8701 76.63L93.7001 76.36L93.4001 72.18L94.4201 72.57L94.3501 71.48L103.96 75.63L108.77 75.29L109.09 79.75L109.45 84.92L109.77 89.37L114.29 89.05L119.46 88.69L123.92 88.37L129.42 92.82L134.24 92.48L139.04 96.98L143.19 100.38L142.98 97.41L143.9 97.35L143.85 96.64L148.66 96.3L153.48 95.96L153.8 100.49L158.33 100.17L163.42 99.81L167.96 104.68L164.1 109.43L164.44 114.25L164.78 119.06L168.95 118.77L174.47 123.22L174.79 127.74L174.15 127.78L174.19 128.43L169.66 128.75L169.95 132.92L169.32 132.96L169.37 133.61L164.91 133.92L160.74 134.22L161.03 138.39L160.39 138.43L160.41 138.72L155.6 139.06L151.71 139.33L152.03 143.87L151.1 143.93L151.15 144.56L146.62 144.88L142.74 149.36L143.05 153.82L138.96 159.3L139.25 163.47L134.8 168.91L135.12 173.44L135.46 178.25L135.82 183.35L136.14 187.87L135.15 187.94L135.2 188.59L130.39 188.93L126.57 189.2L126.84 193.01L117.82 203.33L118.17 208.21L113.69 213.36L114.03 218.18L113.39 218.22L113.41 218.51L108.6 218.85L99.6801 215.46L100.26 223.63L100.6 228.45L100.94 233.26L106.1 237.74L106.44 242.54L106.78 247.36L102.3 252.51L97.7801 257.02L98.1501 262.2L97.1601 262.27L97.2001 262.9L92.4001 263.24L92.3901 263.25L88.8401 267.33L89.2101 272.5L84.7301 277.28L84.7101 277.3L89.8601 281.77L94.3201 281.45L94.6601 286.27L94.9801 290.8L94.3501 290.85L94.3901 291.48L89.9701 291.79L86.0701 296.55L85.7601 296.57L85.4501 296.95L80.6401 297.29L76.4601 297.59L76.7601 301.76L76.1201 301.8L76.1701 302.44L72.2701 302.71L72.5701 306.89L68.1001 312.05L68.7601 321.38L69.4401 331.01L74.2501 330.67L73.4101 331.02L78.1701 330.68L83.3501 335.51L88.4701 339.62L93.2701 344.13L93.6101 348.94L103.55 352.79L108.73 357.54L109.05 362.07L104.57 367.23L109.39 366.89L114.21 366.55L110.04 376.16L110.41 381.32L100.79 382L105.91 386.12L106.59 395.82L111.75 400.3L116.57 399.96L121.69 404.07L127.18 413.36L131.37 408.22L131.03 403.41L140.35 398.28L149.97 397.6L154.44 392.44L159.26 392.1L168.94 396.25L173.75 395.91L177.88 385.87L187.15 385.22L197.12 389.42L202.27 393.9L212.25 393.19L217.37 402.14L226.71 401.48L241.14 400.46L245.96 400.12L255.93 404.26L260.12 399.12L269.74 398.44L275.18 402.9L279.71 402.58L280.05 407.39L284.51 407.07L289.33 401.9L288.99 397.08L288.65 392.27L297.97 387.14L297.63 382.32L307.25 381.64L311.36 376.44L320.99 375.76L325.52 375.44L335.5 379.64L340.31 374.39L349.25 368.92L348.57 359.3L352.78 354.52L357.88 354.16L362.06 349.03L361.72 344.21L371.03 339L375.49 338.68L385.12 338L394.06 327.7L389.26 323.2L388.92 318.39L383.44 314.3L383.08 309.13L382.76 304.67L382.1 295.33L381.42 285.7L386.24 280.52L390.36 275.4L399.65 269.9L408.33 259.9L413.14 259.56L417.97 254.39L426.92 244.07L431.06 239.3L440.32 233.46L440.01 228.99L444.81 228.65L444.49 224.12L448.95 218.69L453.76 218.35L462.75 217.72L472.73 217.01L482 216.36L487.17 215.99L491.63 215.68L496.45 215.34L505.45 209.86L510.61 209.49L514.76 204.65L524.37 203.97L529.19 203.63L533.66 198.47L538.48 198.13L542.95 192.99L547.42 187.83L547.11 183.37L551.29 178.24L550.95 173.42L550.27 163.73L549.43 162.75L545.29 166.71L541.59 164.7Z" fill="var(--fill-0, #2B2A26)" stroke="var(--stroke-1, #F7FDFB)" stroke-miterlimit="10"/>
<path id="Vector_2" d="M69.44 331.009L68.76 321.38L68.1 312.049L72.57 306.889L72.27 302.709L72.23 302.079L76.12 301.799L76.76 301.759L76.46 297.589L76.44 297.229L81.54 296.869L85.76 296.57L86.07 296.549L89.97 291.789L90.52 291.119L94.35 290.85L94.98 290.799L94.66 286.269L94.32 281.449L89.86 281.769L84.71 277.299L84.73 277.279L89.21 272.499L88.84 267.329L92.39 263.249L92.98 262.559L97.16 262.269L98.15 262.199L97.78 257.019L102.3 252.509L106.78 247.359L106.44 242.539L106.1 237.739L100.94 233.259L100.6 228.449L100.26 223.629L99.68 215.459L99.61 214.359L109.58 218.489L113.39 218.219L114.03 218.179L113.69 213.359L118.17 208.209L117.82 203.329L126.84 193.009L126.57 189.199L126.52 188.549L130.98 188.239L135.15 187.939L136.14 187.869L135.82 183.349L135.46 178.249L135.12 173.439L134.8 168.909L139.25 163.469L138.96 159.299L143.05 153.819L142.74 149.359L146.62 144.879L147.21 144.209L151.1 143.929L152.03 143.869L151.71 139.329L151.69 139.049L156.5 138.709L160.39 138.429L161.03 138.389L160.74 134.219L160.69 133.569L165.78 133.209L169.32 132.959L169.95 132.919L169.66 128.749L169.61 128.099L174.15 127.779L174.79 127.739L174.47 123.219L168.95 118.769L164.78 119.059L164.44 114.249L164.1 109.429L167.96 104.679L163.42 99.8095L158.33 100.169L153.8 100.489L153.48 95.9595L148.66 96.2995L143.85 96.6395L143.9 97.3495L144.17 101.169L143.19 100.379L139.04 96.9795L134.24 92.4795L129.42 92.8195L123.92 88.3695L119.46 88.6895L114.29 89.0495L109.77 89.3695L109.45 84.9195L109.09 79.7495L108.77 75.2895L103.96 75.6295L94.35 71.4795L94.42 72.5695L94.69 76.2895L93.7 76.3595L89.87 76.6295L79.89 77.3395L79.91 77.6095L80.21 81.7995L80.57 86.9595L80.89 91.4195L76.77 96.5495L77.11 101.359L77.79 111.049L73.3 115.849L69.1 120.989L69.78 130.619L65.01 135.499L60.82 140.629L61.5 150.259L57.03 155.419L52.9 165.379L48.38 169.889L43.92 175.329L44.24 179.859L40.12 184.989L35.64 194.979L31.18 195.289L21.48 195.979L16.99 200.779L17.33 205.589L17.67 210.409L18.02 215.289L13.89 220.409L9.42 225.569L9.74 230.029L10.08 234.839L19.35 234.189L24.5 238.659L29.03 238.339L29.71 247.959L30.05 252.779L25.86 257.91L21.35 262.429L21.71 267.6L17.56 272.369L22.39 277.219L18.58 286.809L18.92 291.619L14.12 291.959L9.27 296.859L9.63 301.949L5.83 311.609L1 316.789L1.34 321.6L6.51 321.229L10.97 320.919L15.8 315.749L20.94 320.209L21.26 324.739L25.73 324.419L30.53 324.089L35.41 328.579L45.38 332.709L50.88 337.169L55 332.029L55.34 336.849L60.15 336.509L73.41 331.019L74.25 330.669L69.44 331.009Z" fill="var(--fill-0, #2B2A26)" stroke="var(--stroke-1, #F7FDFB)" stroke-miterlimit="10"/>
</g>
<defs>
<clipPath id="clip0_0_4">
<rect width="551.32" height="414.05" fill="white"/>
</clipPath>
</defs>
</svg>
