<svg preserveAspectRatio="none" width="100%" height="100%" overflow="visible" style="display: block;" viewBox="0 0 10.5 12" fill="none" xmlns="http://www.w3.org/2000/svg">
<path id="bag-shopping" d="M2.625 3.75V2.625C2.625 1.19531 3.79688 0 5.25 0C6.67969 0 7.875 1.19531 7.875 2.625V3.75H9.375C9.98438 3.75 10.5 4.26562 10.5 4.875V9.75C10.5 10.9922 9.49219 12 8.25 12H2.25C0.984375 12 0 10.9922 0 9.75V4.875C0 4.26562 0.492188 3.75 1.125 3.75H2.625ZM3.75 3.75H6.75V2.625C6.75 1.80469 6.07031 1.125 5.25 1.125C4.40625 1.125 3.75 1.80469 3.75 2.625V3.75ZM1.125 4.875V9.75C1.125 10.3828 1.61719 10.875 2.25 10.875H8.25C8.85938 10.875 9.375 10.3828 9.375 9.75V4.875H7.875V6.1875C7.875 6.51562 7.61719 6.75 7.3125 6.75C6.98438 6.75 6.75 6.51562 6.75 6.1875V4.875H3.75V6.1875C3.75 6.51562 3.49219 6.75 3.1875 6.75C2.85938 6.75 2.625 6.51562 2.625 6.1875V4.875H1.125Z" fill="var(--fill-0, #2B2A26)"/>
</svg>
