<svg preserveAspectRatio="none" width="100%" height="100%" overflow="visible" style="display: block;" viewBox="0 0 4.24667 5.096" fill="none" xmlns="http://www.w3.org/2000/svg">
<g id="shield">
<path id="Rectangle 78" opacity="0.3" fill-rule="evenodd" clip-rule="evenodd" d="M0 0H4.24667V3.81549C4.24667 3.81549 3.93121 5.096 2.12333 5.096C0.315452 5.096 0 3.78172 0 3.78172V0Z" fill="var(--fill-0, #E1E5E8)"/>
<mask id="mask0_0_46" style="mask-type:luminance" maskUnits="userSpaceOnUse" x="0" y="0" width="5" height="6">
<path id="Rectangle 78_2" fill-rule="evenodd" clip-rule="evenodd" d="M0 0H4.24667V3.81549C4.24667 3.81549 3.93121 5.096 2.12333 5.096C0.315452 5.096 0 3.78172 0 3.78172V0Z" fill="var(--fill-0, white)"/>
</mask>
<g mask="url(#mask0_0_46)">
<rect id="Rectangle 79" y="2.35201" width="2.156" height="2.548" fill="var(--fill-0, #FFC034)"/>
<rect id="Rectangle 80" x="0.261475" y="2.48275" width="0.261333" height="2.41733" fill="var(--fill-0, #AD1619)"/>
<rect id="Rectangle 80_2" x="1.17635" y="2.48275" width="0.261333" height="2.41733" fill="var(--fill-0, #AD1619)"/>
<rect id="Rectangle 80_3" x="0.718913" y="2.48275" width="0.261333" height="2.41733" fill="var(--fill-0, #AD1619)"/>
<rect id="Rectangle 80_4" x="1.6335" y="2.48275" width="0.261333" height="2.41733" fill="var(--fill-0, #AD1619)"/>
<rect id="Rectangle 79_2" y="-0.0652771" width="2.156" height="2.48267" fill="var(--fill-0, #AD1619)"/>
<rect id="Rectangle 79_3" x="2.09066" y="2.28671" width="2.156" height="2.48267" fill="var(--fill-0, #AD1619)"/>
<rect id="Rectangle 79_4" x="2.09066" y="2.03451e-05" width="2.28667" height="2.41733" fill="var(--fill-0, #F1F9FF)"/>
<path id="castle" d="M1.11076 0.738047H1.24162V0.467539H1.43693V0.738047H1.63322V1.07691H1.43693V1.68629H1.63322V2.02516H0.457438V1.68629H0.653727V1.07691H0.457438V0.738047H0.588298V0.467539H0.78361V0.738047H0.914469V0.196055H1.11076V0.738047Z" fill="var(--fill-0, #C88A02)"/>
<path id="Combined Shape" d="M3.00702 0.315823C3.16244 0.253871 3.3435 0.319115 3.49726 0.538479C3.58468 0.66352 3.58456 0.801322 3.49921 0.91055C3.45609 0.965663 3.39677 1.00734 3.32441 1.04141C3.37929 1.11895 3.41259 1.16219 3.46894 1.22598C3.49567 1.25625 3.51807 1.286 3.53925 1.31289C3.55971 1.30113 3.58516 1.29036 3.61737 1.28067C3.62248 1.27913 3.6284 1.27733 3.63398 1.27578C3.654 1.27023 3.66896 1.2661 3.68085 1.26211C3.73454 1.24411 3.73184 1.25002 3.73163 1.09317C3.73162 1.08146 3.73164 1.08045 3.73163 1.06778C3.73162 1.02877 3.73091 0.994808 3.72773 0.918362C3.72762 0.915209 3.72788 0.914144 3.72773 0.91055C3.71603 0.62858 3.72624 0.52022 3.81269 0.442776L3.8996 0.540433C3.85783 0.578293 3.84808 0.676039 3.85761 0.905667C3.85776 0.909207 3.85839 0.910117 3.85859 0.913479C3.86184 0.991609 3.86248 1.02638 3.86249 1.06778C3.8625 1.08032 3.86248 1.08149 3.86249 1.09317C3.86276 1.30109 3.8471 1.34409 3.72187 1.38614C3.70733 1.391 3.69034 1.39561 3.66816 1.40176L3.61737 1.41739C3.6152 1.41824 3.6133 1.41938 3.61152 1.42032C3.62378 1.44108 3.63709 1.45857 3.64472 1.47696C3.68 1.56235 3.66929 1.64417 3.6037 1.68985L3.60468 1.6918C3.60513 1.6939 3.60511 1.69655 3.60663 1.70254C3.61432 1.73348 3.61292 1.7648 3.59882 1.89004C3.59094 1.95997 3.59151 2.0066 3.59589 2.01992C3.5914 2.00829 3.57612 1.99607 3.55487 1.99551L3.54902 1.99063C3.5424 1.99793 3.53682 2.00338 3.53339 2.00625C3.53716 2.004 3.5431 2.00219 3.55097 2.00039L3.63691 2.07852C3.58193 2.13909 3.50361 2.14946 3.47284 2.06387C3.45943 2.02582 3.45878 1.96556 3.46894 1.87539C3.48096 1.76864 3.48296 1.74308 3.48066 1.73379C3.47939 1.72903 3.47786 1.72342 3.47675 1.71817C3.47218 1.69618 3.47034 1.66678 3.46991 1.61856L3.41816 1.73086C3.36 1.70396 3.32997 1.67977 3.32245 1.63711C3.31979 1.62195 3.32145 1.60823 3.32538 1.59414C3.32719 1.58768 3.32935 1.58113 3.33222 1.57364C3.33904 1.55492 3.33726 1.54358 3.3078 1.50332C3.30075 1.4937 3.29489 1.48198 3.2873 1.4711C3.2842 1.47017 3.28053 1.47002 3.27753 1.46914C3.24693 1.46018 3.22072 1.45286 3.19941 1.44864C3.20641 1.46703 3.21481 1.48742 3.2248 1.51016C3.22482 1.51015 3.26111 1.58985 3.26972 1.61075C3.28714 1.65303 3.29622 1.68482 3.29804 1.71621C3.30558 1.84987 3.1975 1.88173 3.06269 1.84219C2.96254 1.81277 2.9112 1.80087 2.89667 1.80117C2.94112 1.79978 2.96496 1.75102 2.9621 1.73282L2.76874 1.76407C2.75568 1.68078 2.79159 1.60874 2.89081 1.60586C2.92839 1.6048 2.9765 1.61431 3.06757 1.64004C3.06135 1.62588 3.05379 1.60901 3.04511 1.58926C3.02347 1.54001 3.00839 1.50033 2.99628 1.46035C2.96237 1.34837 3.01883 1.25985 3.12714 1.24844C3.13273 1.24786 3.13893 1.24963 3.14472 1.24942C3.12109 1.20986 3.09694 1.16656 3.0705 1.12051C3.05584 1.12336 3.04216 1.12738 3.02948 1.1293L3.02167 1.07852C2.96732 1.13914 2.91349 1.19613 2.85956 1.23867C2.72946 1.3412 2.6079 1.37498 2.51679 1.27285L2.66327 1.14297C2.65841 1.13753 2.65081 1.13549 2.65546 1.13418C2.67472 1.12861 2.70356 1.11205 2.73749 1.08535C2.77438 1.05628 2.81368 1.01686 2.8537 0.974026C2.79872 0.937462 2.7448 0.887118 2.69257 0.823636C2.65324 0.775849 2.61852 0.744401 2.58612 0.722073C2.56995 0.710939 2.52161 0.684633 2.51484 0.680081C2.43413 0.625788 2.43859 0.573679 2.48749 0.450589L2.67011 0.523831C2.66784 0.529547 2.66509 0.534736 2.66327 0.539456C2.67498 0.546383 2.68795 0.553424 2.69745 0.559964C2.74531 0.592904 2.79309 0.637802 2.84394 0.699612C2.89375 0.760129 2.93982 0.800376 2.98261 0.823636L2.98066 0.807034C2.98923 0.805737 3.00715 0.802533 3.03046 0.797269C3.06982 0.788359 3.10937 0.776391 3.14472 0.763089C3.18141 0.749268 3.21067 0.734282 3.22773 0.722073C3.18381 0.660091 3.14752 0.631208 3.12323 0.622464C3.12017 0.621289 3.12382 0.620274 3.12812 0.618558C3.1327 0.616677 3.13849 0.61314 3.14569 0.607815L2.95136 0.34512C2.96532 0.334828 2.9842 0.324938 3.00702 0.315823ZM3.55487 1.99551L3.5578 1.99844C3.55553 1.99885 3.55293 1.99995 3.55097 2.00039L3.54511 1.99453H3.54609C3.54898 1.99415 3.55217 1.99535 3.55487 1.99551ZM3.46405 1.55313C3.46471 1.5709 3.46432 1.58839 3.45917 1.60586C3.4621 1.60736 3.46533 1.60904 3.46894 1.61075C3.46893 1.60865 3.46894 1.60607 3.46894 1.60391C3.46893 1.58814 3.46755 1.57367 3.46698 1.55703C3.46649 1.55578 3.46474 1.55479 3.46405 1.55313Z" fill="var(--fill-0, #C37C9C)"/>
<path id="Path 326" d="M3.21232 0.309804L3.34612 0.166575L3.62701 0.428973L3.49322 0.572202L3.21232 0.309804Z" fill="var(--fill-0, #C88A02)"/>
<path id="Rectangle 78_3" d="M4.01839 4.01139L4.01546 4.02214C3.93244 4.3668 3.6504 4.54069 3.20101 4.54069C2.75147 4.54062 2.47029 4.36245 2.38753 4.01042L2.3846 3.9987V2.58073H4.01839V4.01139ZM2.58089 3.97624C2.64362 4.2231 2.84045 4.34433 3.20101 4.3444C3.56206 4.3444 3.75961 4.22605 3.8221 3.98698V2.77702H2.58089V3.97624Z" fill="var(--fill-0, #FFC034)"/>
<path id="Combined Shape_2" d="M3.2688 3.27939L3.74243 2.76474L3.83911 2.85361L3.35376 3.38095H3.89673V3.57724H3.34302L3.83911 4.1163L3.74341 4.20517L3.2688 3.68857V4.37997H3.13306V3.62119L2.59595 4.20517L2.50024 4.1163L2.99536 3.57724H2.54614V3.38095H2.9856L2.50024 2.85361L2.59595 2.76474L3.13306 3.34775V2.70029H3.2688V3.27939Z" fill="var(--fill-0, #FFC034)"/>
<path id="Path 330" fill-rule="evenodd" clip-rule="evenodd" d="M3.5064 4.77098C3.5064 4.77098 2.12262 4.87977 2.12262 3.98729C2.12262 3.98729 2.10943 4.77098 0.66451 4.77098V5.47554H3.5064V4.77098Z" fill="var(--fill-0, #F1F9FF)"/>
<path id="Oval 57" fill-rule="evenodd" clip-rule="evenodd" d="M2.1235 2.87468C2.39412 2.87468 2.6135 2.64067 2.6135 2.35201C2.6135 2.06335 2.39412 1.82935 2.1235 1.82935C1.85288 1.82935 1.6335 2.06335 1.6335 2.35201C1.6335 2.64067 1.85288 2.87468 2.1235 2.87468Z" fill="var(--fill-0, #005BBF)" stroke="var(--stroke-0, #AD1619)" stroke-width="0.680556"/>
</g>
</g>
</svg>
