<svg preserveAspectRatio="none" width="100%" height="100%" overflow="visible" style="display: block;" viewBox="0 0 4.51485 3.01831" fill="none" xmlns="http://www.w3.org/2000/svg">
<g id="crown">
<path id="Combined Shape" d="M2.27799 1.18475L2.27702 1.18573C2.63866 1.15055 2.99626 1.21212 3.34928 1.36834C3.71699 1.36839 4.06896 1.48854 4.40495 1.72967V1.82538L3.74577 2.48749C3.61402 2.85251 3.37885 2.87197 3.19596 2.9328C3.13242 2.95272 2.28825 2.97543 2.27604 2.97577V2.97381C0.995116 3.12155 0.797018 2.50496 0.791667 2.48749L0.132487 1.82538V1.72967C0.140628 1.72386 0.640997 1.36834 1.18815 1.36834C1.18815 1.36834 1.73507 1.13179 2.27799 1.18475Z" fill="var(--fill-0, #AD1619)"/>
<path id="Combined Shape_2" d="M3.29289 1.9978C3.30737 2.16019 3.35135 2.23694 3.41691 2.2478C3.50637 2.26236 3.57456 2.25492 3.62199 2.22925L3.71867 2.17749V2.26636C3.74902 2.26953 3.80099 2.26324 3.87199 2.2478L3.89152 2.34351L4.37394 1.89038L4.41886 1.93726L3.81925 2.50171C3.73195 2.66253 3.6884 2.76912 3.6884 2.81323C3.68793 2.88042 3.51235 2.92066 3.17082 2.96167C2.90288 2.99383 2.58664 3.01217 2.32804 3.01538V3.01831C2.3171 3.01831 2.30604 3.01643 2.29484 3.01636C2.28402 3.01643 2.2732 3.01831 2.26261 3.01831V3.01538C2.004 3.01216 1.68775 2.99383 1.41984 2.96167C1.07831 2.92066 0.902727 2.88042 0.902262 2.81323C0.902262 2.80334 0.899839 2.79021 0.895426 2.77417C0.866627 2.73454 0.84523 2.67631 0.829997 2.61987C0.812861 2.58483 0.794743 2.5447 0.771403 2.50171L0.637614 2.37573H0.634684V2.3728L0.171794 1.93726L0.216715 1.89038L0.651286 2.29956L0.663005 2.2478C0.734101 2.26325 0.786026 2.26958 0.816325 2.26636V2.17749L0.913005 2.22925C0.960352 2.25483 1.02793 2.26226 1.11711 2.2478C1.18281 2.23711 1.22761 2.16042 1.24211 1.9978L1.2714 1.66968L1.36906 1.98413C1.41346 2.12643 1.48164 2.18915 1.57804 2.18921C1.67217 2.18921 1.71051 2.15497 1.71476 2.06812L1.72648 1.82104L1.83781 2.04175C1.87803 2.12108 1.93379 2.15697 2.01261 2.15698C2.12546 2.15698 2.20109 2.0624 2.20109 1.91479H2.3339C2.3339 2.0624 2.40954 2.15698 2.52238 2.15698C2.6011 2.1569 2.657 2.12107 2.69718 2.04175L2.80851 1.82104L2.82023 2.06812C2.82449 2.15496 2.86283 2.18921 2.95695 2.18921C3.05323 2.18904 3.12059 2.12631 3.16496 1.98413L3.26359 1.66968L3.29289 1.9978ZM2.25968 2.67358C2.08891 2.68445 1.1471 2.7475 1.00382 2.81421C1.00111 2.81548 0.997684 2.81519 0.995036 2.81616C1.01622 2.82405 1.04531 2.83319 1.08195 2.84155C1.16599 2.86072 1.28588 2.87922 1.42765 2.89624C1.70431 2.92946 2.03323 2.95016 2.29484 2.9519C2.55658 2.95022 2.88597 2.92949 3.163 2.89624C3.30474 2.87922 3.42467 2.86072 3.50871 2.84155C3.55111 2.83188 3.58386 2.82221 3.60539 2.81323C3.61284 2.8101 3.61913 2.8069 3.62297 2.80444C3.62376 2.79289 3.627 2.77939 3.63078 2.7644C3.60102 2.81013 3.56496 2.83687 3.51652 2.81421C3.37335 2.74737 2.4282 2.6843 2.25968 2.67358ZM3.20207 2.19897C3.14984 2.26551 3.08301 2.3032 3.00285 2.31421C3.41914 2.37259 3.71384 2.45502 3.72355 2.45776C3.72355 2.45776 3.71194 2.53216 3.69035 2.61401C3.71085 2.57078 3.73447 2.52084 3.76457 2.46558L3.7714 2.45776L3.84855 2.38452C3.74046 2.40386 3.66227 2.40347 3.62101 2.36987C3.55701 2.38842 3.48204 2.39063 3.3964 2.37671C3.30468 2.36178 3.2405 2.30018 3.20207 2.19897ZM1.33293 2.19897C1.2945 2.30016 1.23028 2.36177 1.13859 2.37671C1.05271 2.39068 0.97713 2.38853 0.913005 2.36987C0.880638 2.39617 0.826148 2.40095 0.751872 2.39331L0.814372 2.45288C0.884977 2.43388 1.15794 2.36511 1.52336 2.31421C1.44693 2.30162 1.38331 2.26317 1.33293 2.19897ZM2.72843 2.21265C2.69518 2.24195 2.65672 2.26108 2.61418 2.27319C2.68329 2.27837 2.7509 2.28359 2.81632 2.29077C2.77957 2.27269 2.74959 2.24667 2.72843 2.21265ZM1.80558 2.21265C1.78492 2.24584 1.75616 2.2708 1.72062 2.28882C1.78395 2.28204 1.84926 2.27709 1.91593 2.27222C1.87512 2.2599 1.83771 2.24101 1.80558 2.21265ZM2.2675 2.14722C2.23463 2.19838 2.19083 2.23778 2.13664 2.26147C2.16901 2.26046 2.20155 2.25891 2.23429 2.25854V2.25757H2.28605V2.25854C2.32407 2.25897 2.36183 2.26019 2.39933 2.26147C2.34472 2.23784 2.30056 2.19865 2.2675 2.14722Z" fill="var(--fill-0, #C88A02)"/>
<path id="Oval 55" fill-rule="evenodd" clip-rule="evenodd" d="M2.26761 0.74106C2.37586 0.74106 2.46361 0.653308 2.46361 0.54506C2.46361 0.436812 2.37586 0.34906 2.26761 0.34906C2.15937 0.34906 2.07161 0.436812 2.07161 0.54506C2.07161 0.653308 2.15937 0.74106 2.26761 0.74106Z" fill="var(--fill-0, #005BBF)"/>
<path id="Combined Shape_3" d="M0.47819 2.04964C0.496103 2.02878 0.520484 2.0094 0.549479 1.99398C0.629126 1.95163 0.7145 1.95596 0.739909 2.00374C0.765281 2.05153 0.720905 2.12449 0.641276 2.16683C0.561652 2.20913 0.476247 2.20484 0.450846 2.15706C0.449947 2.15535 0.450594 2.15298 0.44987 2.1512C0.441769 2.16031 0.433717 2.16823 0.422526 2.17171C0.370817 2.18752 0.307344 2.13088 0.280924 2.04476C0.254551 1.95849 0.275064 1.87504 0.326823 1.85921C0.378557 1.84351 0.442067 1.90095 0.468424 1.98714C0.474945 2.00847 0.477171 2.0297 0.47819 2.04964ZM4.16178 1.83968C4.2135 1.85549 4.23397 1.93806 4.20768 2.02425C4.18131 2.11052 4.11784 2.16801 4.06608 2.15218C4.05478 2.14864 4.0459 2.14095 4.03776 2.13167C4.03709 2.13323 4.03856 2.13602 4.03776 2.13753C4.01221 2.18509 3.92683 2.18955 3.84733 2.1473C3.76775 2.10498 3.7244 2.032 3.74967 1.98421C3.77504 1.93651 3.8596 1.93137 3.93913 1.97347C3.96822 1.98894 3.99151 2.01015 4.00944 2.03109C4.01035 2.01086 4.01359 1.98931 4.02018 1.96761C4.04651 1.88149 4.11007 1.82413 4.16178 1.83968ZM1.22526 1.58968C1.27836 1.57937 1.33497 1.64281 1.35221 1.73128C1.3584 1.7631 1.35598 1.79335 1.35124 1.82015C1.37157 1.8147 1.3949 1.81331 1.41862 1.81331C1.5086 1.81347 1.58171 1.85694 1.58171 1.91097C1.58158 1.96493 1.50852 2.00847 1.41862 2.00863C1.32903 2.00863 1.25555 1.96556 1.25456 1.91195C1.25355 1.96555 1.18105 2.00863 1.09147 2.00863C1.00146 2.00855 0.928515 1.96498 0.928385 1.91097C0.928385 1.8569 1.00138 1.81339 1.09147 1.81331C1.12435 1.81331 1.15471 1.81989 1.18034 1.82992C1.17166 1.81159 1.16416 1.79068 1.15983 1.76839C1.14278 1.68 1.17221 1.59999 1.22526 1.58968ZM3.24089 1.56527C3.29483 1.56258 3.34254 1.63358 3.34733 1.72347C3.34904 1.75614 3.34225 1.7863 3.33366 1.81234C3.35452 1.80978 3.37761 1.81002 3.40104 1.81331C3.49021 1.82595 3.55603 1.8799 3.5485 1.93343C3.54086 1.98689 3.46283 2.02008 3.3737 2.00765C3.28437 1.9951 3.21773 1.94113 3.22526 1.88753C3.22551 1.88581 3.22682 1.88433 3.22721 1.88265C3.22602 1.88206 3.22448 1.88234 3.22331 1.88167C3.22323 1.88359 3.22552 1.88561 3.22526 1.88753C3.21773 1.94113 3.13881 1.97431 3.04948 1.96175C2.96046 1.94911 2.89469 1.89606 2.90202 1.84261C2.90954 1.78906 2.98759 1.75593 3.07682 1.76839C3.11008 1.77307 3.13949 1.78473 3.16374 1.79867C3.15745 1.779 3.15227 1.75737 3.15104 1.73421C3.14632 1.64413 3.18684 1.5681 3.24089 1.56527ZM2.20475 1.52425C2.25786 1.51393 2.31544 1.57737 2.33268 1.66585C2.33901 1.6984 2.33581 1.72944 2.33073 1.75667C2.3513 1.75105 2.37404 1.7479 2.39811 1.74788C2.48832 1.74788 2.5612 1.79142 2.5612 1.84554C2.56119 1.89966 2.48831 1.9432 2.39811 1.9432C2.30797 1.94316 2.23504 1.89963 2.23503 1.84554C2.23503 1.84388 2.23587 1.8423 2.236 1.84066C2.235 1.84033 2.23407 1.84005 2.23307 1.83968C2.23327 1.84166 2.23503 1.84353 2.23503 1.84554C2.23502 1.89958 2.16195 1.94307 2.07194 1.9432C1.98174 1.9432 1.90789 1.89966 1.90788 1.84554C1.90788 1.79142 1.98173 1.74788 2.07194 1.74788C2.10466 1.74793 2.13431 1.75548 2.15983 1.76546C2.15103 1.747 2.14468 1.72547 2.1403 1.70296C2.12329 1.61473 2.15188 1.53479 2.20475 1.52425ZM1.25456 1.90902C1.2546 1.90769 1.25541 1.90642 1.25553 1.90511H1.2526C1.25274 1.90647 1.25452 1.90764 1.25456 1.90902Z" fill="var(--fill-0, #C88A02)"/>
<path id="Combined Shape_4" d="M2.33065 0.0859375H2.41951V0.22168H2.33065V0.494141H2.41951V0.630859H2.10409V0.494141H2.19393V0.22168H2.10409V0.0859375H2.19393V0H2.33065V0.0859375Z" fill="var(--fill-0, #C88A02)"/>
<rect id="Rectangle 77" x="2.1696" y="0.739278" width="0.261333" height="0.849333" fill="var(--fill-0, #C88A02)"/>
<g id="top">
<path id="Path 311" d="M1.11742 0.881508L1.11628 0.946832C0.536969 0.936718 0.204671 1.02126 0.120319 1.18975C0.0331114 1.36395 0.0493276 1.57572 0.171524 1.82726L0.112757 1.85581C-0.0176197 1.58742 -0.0354248 1.35491 0.0618975 1.16051C0.162075 0.9604 0.513604 0.870967 1.11742 0.881508Z" fill="var(--fill-0, white)"/>
<path id="Path 312" d="M1.22967 1.46081L1.19618 1.51691C1.07002 1.44158 1.00688 1.31303 1.00688 1.13587C1.00688 0.881257 1.13804 0.73195 1.42816 0.629774C1.61332 0.564563 1.86626 0.5913 2.18769 0.707837L2.16542 0.769258C1.85685 0.657385 1.6181 0.632147 1.44986 0.691397C1.18375 0.785116 1.07221 0.912092 1.07221 1.13587C1.07221 1.29134 1.12466 1.39811 1.22967 1.46081Z" fill="var(--fill-0, white)"/>
<path id="Path 309" d="M0.25387 1.72704L0.130586 1.77034C0.00267256 1.40613 0.0392012 1.15879 0.257773 1.0521C0.45037 0.958083 0.731061 0.919822 1.10124 0.934823L1.09595 1.06538C0.745464 1.05118 0.484712 1.08672 0.315093 1.16952C0.171448 1.23964 0.145173 1.41755 0.25387 1.72704Z" fill="var(--fill-0, #C88A02)"/>
<path id="Path 310" d="M1.69419 0.794516C1.39544 0.794516 1.27275 0.867277 1.20267 1.08211C1.158 1.21902 1.20132 1.33587 1.34178 1.44495L1.26164 1.54815C1.07979 1.40694 1.01567 1.23399 1.07844 1.04158C1.16776 0.767797 1.34303 0.663849 1.69419 0.663849C1.92434 0.663849 2.10363 0.724316 2.22847 0.847377L2.24794 0.866568V1.49655H2.11727V0.922416C2.01977 0.83773 1.87972 0.794516 1.69419 0.794516Z" fill="var(--fill-0, #C88A02)"/>
<path id="Path 311_2" d="M3.39743 0.946877L3.39857 1.0122C3.97788 1.00209 4.31018 1.08663 4.39453 1.25512C4.48174 1.42932 4.46552 1.64108 4.34333 1.89263L4.40209 1.92118C4.53247 1.65279 4.55028 1.42028 4.45295 1.22588C4.35278 1.02577 4.00125 0.936335 3.39743 0.946877Z" fill="var(--fill-0, white)"/>
<path id="Path 312_2" d="M3.19261 1.47449L3.22611 1.53058C3.35226 1.45525 3.41541 1.3267 3.41541 1.14954C3.41541 0.894929 3.28425 0.745622 2.99412 0.643446C2.80896 0.578235 2.55602 0.604972 2.23459 0.721509L2.25686 0.78293C2.56543 0.671057 2.80418 0.645819 2.97242 0.705069C3.23853 0.798788 3.35007 0.925764 3.35007 1.14954C3.35007 1.30501 3.29763 1.41178 3.19261 1.47449Z" fill="var(--fill-0, white)"/>
<path id="Path 309_2" d="M4.30143 1.7924L4.42471 1.8357C4.55263 1.4715 4.5161 1.22416 4.29752 1.11747C4.10493 1.02345 3.82424 0.98519 3.45406 1.00019L3.45935 1.13075C3.80983 1.11655 4.07059 1.15209 4.24021 1.23489C4.38385 1.30501 4.41012 1.48292 4.30143 1.7924Z" fill="var(--fill-0, #C88A02)"/>
<path id="Path 310_2" d="M2.85371 0.804627C3.15246 0.804627 3.27514 0.877389 3.34523 1.09222C3.38989 1.22913 3.34657 1.34598 3.20611 1.45506L3.28626 1.55826C3.4681 1.41705 3.53222 1.2441 3.46945 1.0517C3.38013 0.777909 3.20486 0.67396 2.85371 0.67396C2.62355 0.67396 2.44426 0.734427 2.31942 0.857488L2.29995 0.876679V1.50666H2.43062V0.932527C2.52812 0.847842 2.66817 0.804627 2.85371 0.804627Z" fill="var(--fill-0, #C88A02)"/>
</g>
</g>
</svg>
