<svg preserveAspectRatio="none" width="100%" height="100%" overflow="visible" style="display: block;" viewBox="0 0 13.3936 13.8649" fill="none" xmlns="http://www.w3.org/2000/svg">
<g id="G">
<path id="Blue" d="M13.3936 7.08674C13.3936 6.61496 13.3557 6.14318 13.2797 5.68103H6.83594V8.34802H10.5276C10.3758 9.20492 9.88227 9.97517 9.16102 10.4566V12.1896H11.3627C12.6534 10.9861 13.3936 9.20492 13.3936 7.08674Z" fill="var(--fill-0, #4285F4)"/>
<path id="Green" d="M6.83654 13.8649C8.67762 13.8649 10.234 13.2487 11.3633 12.1896L9.16162 10.4566C8.54476 10.8802 7.75708 11.1209 6.83654 11.1209C5.05239 11.1209 3.54346 9.89813 3.00252 8.26135H0.734375V10.0522C1.89217 12.3918 4.25522 13.8649 6.83654 13.8649Z" fill="var(--fill-0, #34A853)"/>
<path id="Yellow" d="M3.00176 8.26137C2.71701 7.40447 2.71701 6.47054 3.00176 5.60401V3.82281H0.73325C-0.244391 5.77732 -0.244391 8.08806 0.73325 10.0426L3.00176 8.26137Z" fill="var(--fill-0, #FBBC04)"/>
<path id="Red" d="M6.83654 2.74443C7.81402 2.72518 8.75355 3.10067 9.45582 3.78427L11.4108 1.80088C10.1676 0.626247 8.53527 -0.0188372 6.83654 0.000419025C4.25522 0.000419025 1.89217 1.48315 0.734375 3.82278L3.00252 5.61361C3.54346 3.96721 5.05239 2.74443 6.83654 2.74443Z" fill="var(--fill-0, #EA4335)"/>
</g>
</svg>
