<svg preserveAspectRatio="none" width="100%" height="100%" overflow="visible" style="display: block;" viewBox="0 0 37.2666 22.333" fill="none" xmlns="http://www.w3.org/2000/svg">
<g id="Mastercard">
<path id="Left" d="M25.9648 0C32.2063 0 37.2666 4.99981 37.2666 11.167C37.2664 17.334 32.2062 22.333 25.9648 22.333C23.1659 22.3329 20.6067 21.3254 18.6328 19.6602C16.6589 21.3253 14.0996 22.333 11.3008 22.333C5.05961 22.3328 0.00017891 17.3339 0 11.167C0 4.99993 5.0595 0.00019556 11.3008 0C14.0996 0 16.659 1.00778 18.6328 2.67285C20.6066 1.00764 23.166 8.74682e-05 25.9648 0Z" fill="var(--fill-0, #ED0006)"/>
<path id="Right" d="M25.9652 0C32.2067 0 37.266 4.99981 37.266 11.167C37.2658 17.334 32.2066 22.333 25.9652 22.333C23.1663 22.333 20.6071 21.3254 18.6332 19.6602C21.0609 17.6121 22.6018 14.5684 22.6019 11.167C22.6019 7.76538 21.061 4.721 18.6332 2.67285C20.6071 1.00768 23.1663 1.71286e-07 25.9652 0Z" fill="var(--fill-0, #F9A000)"/>
<path id="Middle" d="M18.6328 2.67279C21.0608 4.72093 22.6025 7.76519 22.6025 11.1669C22.6025 14.5684 21.0606 17.612 18.6328 19.6601C16.2052 17.612 14.6641 14.5682 14.6641 11.1669C14.6641 7.76539 16.2051 4.72093 18.6328 2.67279Z" fill="var(--fill-0, #FF5E00)"/>
</g>
</svg>
