<svg preserveAspectRatio="none" width="100%" height="100%" overflow="visible" style="display: block;" viewBox="0 0 39.6685 13.0319" fill="none" xmlns="http://www.w3.org/2000/svg">
<path id="visa-logo" fill-rule="evenodd" clip-rule="evenodd" d="M9.91708 12.9304H6.48418L3.90993 2.82063C3.78774 2.35558 3.52831 1.94444 3.14669 1.75067C2.19431 1.26372 1.14486 0.876177 0 0.680721V0.291494H5.53013C6.29337 0.291494 6.8658 0.876177 6.96121 1.55522L8.29688 8.84775L11.7281 0.291494H15.0656L9.91708 12.9304ZM16.9765 12.9304H13.7344L16.404 0.291504H19.6461L16.9765 12.9304ZM23.8372 3.79286C23.9326 3.11213 24.505 2.7229 25.1729 2.7229C26.2223 2.62518 27.3655 2.82063 28.3196 3.3059L28.892 0.584683C27.9379 0.195456 26.8885 0 25.9361 0C22.7894 0 20.4997 1.75068 20.4997 4.1804C20.4997 6.02881 22.1216 6.99934 23.2665 7.58403C24.505 8.16703 24.9821 8.55625 24.8867 9.13925C24.8867 10.0137 23.9326 10.403 22.9802 10.403C21.8354 10.403 20.6905 10.1115 19.6427 9.62452L19.0703 12.3474C20.2152 12.8327 21.4538 13.0282 22.5986 13.0282C26.1269 13.1242 28.3196 11.3752 28.3196 8.75002C28.3196 5.44412 23.8372 5.25035 23.8372 3.79286V3.79286ZM39.6685 12.9304L37.0942 0.291504H34.3291C33.7567 0.291504 33.1843 0.680731 32.9935 1.26373L28.2266 12.9304H31.5641L32.2302 11.0837H36.331L36.7126 12.9304H39.6685ZM34.8032 3.69519L35.7556 8.45859H33.0859L34.8032 3.69519Z" fill="var(--fill-0, #172B85)"/>
</svg>
