<svg preserveAspectRatio="none" width="100%" height="100%" overflow="visible" style="display: block;" viewBox="0 0 23.395 16.4985" fill="none" xmlns="http://www.w3.org/2000/svg">
<g id="Group">
<path id="Vector" d="M0.389902 14.2732L4.49755 16.0104L21.2283 3.16216L23.3949 0.580627L19.0024 0L12.1784 5.53669L6.6857 9.26711L0.389902 14.2732Z" fill="var(--fill-0, white)"/>
<path id="Vector_2" d="M0.952221 15.4903L3.04488 16.4984L22.6169 0.340721H19.6786L0.952221 15.4903Z" fill="var(--fill-0, #F50100)"/>
<path id="Vector_3" d="M23.2134 14.2732L19.1058 16.0104L2.37506 3.16216L0.20837 0.580627L4.60092 0L11.425 5.53669L16.9176 9.26711L23.2134 14.2732Z" fill="var(--fill-0, white)"/>
<path id="Vector_4" d="M23.0734 15.1467L20.9808 16.1548L12.6468 9.23689L10.1759 8.46392L0 0.58941H2.93834L13.1086 8.27702L15.81 9.20388L23.0734 15.1467Z" fill="var(--fill-0, #F50100)"/>
<mask id="mask0_0_4" style="mask-type:alpha" maskUnits="userSpaceOnUse" x="1" y="0" width="22" height="17">
<g id="path-9-inside-1_270_66403">
<path id="Vector_5" fill-rule="evenodd" clip-rule="evenodd" d="M14.0055 0.106717H9.59804V5.94005H1.31782V10.6067H9.59804V16.4401H14.0055V10.6067H22.3178V5.94005H14.0055V0.106717Z" fill="var(--fill-0, white)"/>
</g>
</mask>
<g mask="url(#mask0_0_4)">
<path id="Vector_6" fill-rule="evenodd" clip-rule="evenodd" d="M14.0055 0.106717H9.59804V5.94005H1.31782V10.6067H9.59804V16.4401H14.0055V10.6067H22.3178V5.94005H14.0055V0.106717Z" fill="var(--fill-0, #F50100)"/>
<path id="Vector_7" d="M9.59804 0.106717V-1.05995H8.43137V0.106717H9.59804ZM14.0055 0.106717H15.1721V-1.05995H14.0055V0.106717ZM9.59804 5.94005V7.10672H10.7647V5.94005H9.59804ZM1.31782 5.94005V4.77338H0.15115V5.94005H1.31782ZM1.31782 10.6067H0.15115V11.7734H1.31782V10.6067ZM9.59804 10.6067H10.7647V9.44005H9.59804V10.6067ZM9.59804 16.44H8.43137V17.6067H9.59804V16.44ZM14.0055 16.44V17.6067H15.1721V16.44H14.0055ZM14.0055 10.6067V9.44005H12.8388V10.6067H14.0055ZM22.3178 10.6067V11.7734H23.4845V10.6067H22.3178ZM22.3178 5.94005H23.4845V4.77338H22.3178V5.94005ZM14.0055 5.94005H12.8388V7.10672H14.0055V5.94005ZM9.59804 1.27338H14.0055V-1.05995H9.59804V1.27338ZM10.7647 5.94005V0.106717H8.43137V5.94005H10.7647ZM1.31782 7.10672H9.59804V4.77338H1.31782V7.10672ZM2.48448 10.6067V5.94005H0.15115V10.6067H2.48448ZM9.59804 9.44005H1.31782V11.7734H9.59804V9.44005ZM10.7647 16.44V10.6067H8.43137V16.44H10.7647ZM14.0055 15.2734H9.59804V17.6067H14.0055V15.2734ZM12.8388 10.6067V16.44H15.1721V10.6067H12.8388ZM22.3178 9.44005H14.0055V11.7734H22.3178V9.44005ZM21.1511 5.94005V10.6067H23.4845V5.94005H21.1511ZM14.0055 7.10672H22.3178V4.77338H14.0055V7.10672ZM12.8388 0.106717V5.94005H15.1721V0.106717H12.8388Z" fill="var(--fill-0, white)"/>
</g>
</g>
</svg>
