<svg preserveAspectRatio="none" width="100%" height="100%" overflow="visible" style="display: block;" viewBox="0 0 286 48" fill="none" xmlns="http://www.w3.org/2000/svg">
<g id="Vector">
<path d="M47.741 24.8963L39.0785 1.01828H27.6224L18.9242 24.9435L11.0514 1.01828H0L12.9362 35.3201H23.2455L32.8445 8.78895L42.4475 35.3201H52.4195L65.1534 1.01828H55.721L47.741 24.8963Z" fill="white"/>
<path d="M99.5813 1.48187C96.7043 0.546404 93.0893 0.0786693 88.7323 0.0786693C84.7324 0.0786693 81.2761 0.503167 78.3555 1.34823C75.435 2.1933 73.1334 3.41569 71.4509 5.01935C69.7684 6.62301 68.7208 8.58042 68.3161 10.8916H78.6928C79.05 9.55519 80.0618 8.54505 81.7245 7.85327C83.3872 7.16543 85.653 6.81954 88.5299 6.81954C90.4624 6.81954 92.1092 6.99642 93.4822 7.3541C94.8512 7.71178 95.9186 8.22274 96.6845 8.89093C97.4464 9.55913 97.8313 10.3806 97.8313 11.3593V11.4261C97.8313 12.1847 97.5615 12.7822 97.0218 13.2263C96.4821 13.6705 95.6528 13.9377 94.5298 14.0282L80.5142 15.565C77.4587 15.8323 74.8993 16.4218 72.8318 17.3337C70.7644 18.2456 69.2168 19.413 68.1811 20.8358C67.1455 22.2587 66.6336 23.9724 66.6336 25.973C66.6336 29.1764 67.9034 31.692 70.439 33.5158C72.9747 35.3395 76.4905 36.2514 80.9825 36.2514C84.0379 36.2514 86.7522 35.8741 89.1331 35.1155C91.514 34.3608 93.5576 33.2367 95.2639 31.747C96.4345 30.7251 97.4424 29.538 98.2956 28.1899V35.3159H108.2V12.8254C108.2 9.97969 107.482 7.60958 106.045 5.71899C104.609 3.8284 102.45 2.41341 99.5773 1.48187H99.5813ZM96.8194 23.4732C96.1448 24.6092 95.2044 25.6075 93.9901 26.4762C92.7758 27.3448 91.3711 28.0248 89.7799 28.5122C88.1847 29.0035 86.4665 29.2472 84.6252 29.2472C82.2443 29.2472 80.4349 28.8699 79.2008 28.1113C77.9666 27.3566 77.3476 26.2875 77.3476 24.9079C77.3476 23.7955 77.7286 22.9387 78.4944 22.3373C79.2563 21.7359 80.4269 21.3468 81.9983 21.1699L92.51 19.8375C94.3076 19.6134 95.744 19.358 96.8234 19.071C97.1845 18.9728 97.5139 18.8706 97.8353 18.7605V19.8375C97.8353 21.1267 97.498 22.3412 96.8234 23.4732H96.8194Z" fill="white"/>
<path d="M147.283 1.01828L134.961 25.2579L121.95 1.01828H110.093L129.366 34.7619L127.743 37.588C126.977 38.9244 126.148 39.8323 125.251 40.3237C124.35 40.811 123.231 41.0587 121.882 41.0587H114.874V48H122.759C126.219 48 129.069 47.3082 131.315 45.9325C133.561 44.5529 135.513 42.3282 137.176 39.2585L157.929 1.01828H147.283Z" fill="white"/>
<path d="M194.364 17.5536C194.364 19.6879 193.916 21.5706 193.015 23.194C192.114 24.8173 190.825 26.1104 189.142 27.0655C187.46 28.0246 185.424 28.5002 183.043 28.5002C180.797 28.5002 178.932 28.0678 177.452 27.1992C175.968 26.3305 174.88 25.0963 174.186 23.4966C173.488 21.8969 173.142 20.0063 173.142 17.8248V0.939247H162.698V19.8923C162.698 22.4747 163.059 24.774 163.777 26.7983C164.496 28.8225 165.527 30.5244 166.877 31.904C168.226 33.2836 169.896 34.341 171.896 35.076C173.896 35.811 176.198 36.1765 178.801 36.1765C182.797 36.1765 186.221 35.3983 189.075 33.8418C191.297 32.6272 193.055 30.9764 194.364 28.9011V35.2411H204.741V0.935318H194.364V17.5536Z" fill="white"/>
<path d="M228.455 2.10269C226.657 2.88093 225.165 4.1505 223.975 5.90745C223.201 7.04731 222.542 8.43872 221.987 10.0738V0.935318H211.61V35.2371H221.987V22.1563C221.987 19.798 222.479 17.6833 223.471 15.8163C224.459 13.9493 225.852 12.4675 227.649 11.3788C229.447 10.29 231.51 9.74365 233.847 9.74365H238.363V0.935318H234.859C232.387 0.935318 230.256 1.32444 228.459 2.10269H228.455Z" fill="white"/>
<path d="M270.632 28.1977C268.883 28.8423 266.724 29.1646 264.164 29.1646C261.379 29.1646 259.045 28.689 257.157 27.7299C255.272 26.7748 253.867 25.462 252.946 23.7915C252.367 22.7382 251.97 21.5944 251.756 20.3563H285.997C286.041 16.8424 285.569 13.804 284.581 11.2453C283.593 8.68649 282.144 6.57186 280.235 4.90531C278.327 3.23877 276.001 2.00064 273.263 1.20274C270.521 0.400915 267.446 0 264.033 0C261.204 0 258.597 0.279068 256.216 0.833273C253.835 1.39141 251.724 2.18931 249.883 3.23483C248.042 4.28036 246.482 5.54992 245.2 7.0396C243.919 8.52927 242.954 10.1997 242.304 12.0432C241.653 13.8905 241.328 15.903 241.328 18.0844C241.328 21.6455 242.236 24.7899 244.058 27.5256C245.875 30.2612 248.482 32.3876 251.875 33.897C255.268 35.4102 259.319 36.1649 264.037 36.1649C268.486 36.1649 272.18 35.6736 275.12 34.6988C278.061 33.7201 280.362 32.4073 282.025 30.7604C283.688 29.1135 284.811 27.2897 285.394 25.2891H274.613C273.712 26.5783 272.39 27.5491 270.636 28.1938L270.632 28.1977ZM253.549 11.3789C254.2 10.467 255.034 9.68878 256.041 9.04417C257.053 8.39956 258.22 7.90038 259.545 7.5427C260.871 7.18502 262.343 7.00815 263.958 7.00815C265.573 7.00815 266.966 7.16537 268.271 7.47589C269.573 7.7864 270.72 8.27771 271.708 8.94197C272.696 9.61017 273.505 10.4238 274.132 11.3789C274.759 12.338 275.188 13.4385 275.414 14.6845H251.998C252.022 14.598 252.042 14.5037 252.065 14.4172C252.403 13.3049 252.895 12.2947 253.546 11.3789H253.549Z" fill="white"/>
</g>
</svg>
