<svg preserveAspectRatio="none" width="100%" height="100%" overflow="visible" style="display: block;" viewBox="0 0 8.25 12" fill="none" xmlns="http://www.w3.org/2000/svg">
<path id="mobile" d="M1.5 1.125C1.28906 1.125 1.125 1.3125 1.125 1.5V10.5C1.125 10.7109 1.28906 10.875 1.5 10.875H6.75C6.9375 10.875 7.125 10.7109 7.125 10.5V1.5C7.125 1.3125 6.9375 1.125 6.75 1.125H1.5ZM0 1.5C0 0.679688 0.65625 0 1.5 0H6.75C7.57031 0 8.25 0.679688 8.25 1.5V10.5C8.25 11.3438 7.57031 12 6.75 12H1.5C0.65625 12 0 11.3438 0 10.5V1.5ZM3.375 9.375H4.875C5.0625 9.375 5.25 9.5625 5.25 9.75C5.25 9.96094 5.0625 10.125 4.875 10.125H3.375C3.16406 10.125 3 9.96094 3 9.75C3 9.5625 3.16406 9.375 3.375 9.375Z" fill="var(--fill-0, white)"/>
</svg>
