<svg preserveAspectRatio="none" width="100%" height="100%" overflow="visible" style="display: block;" viewBox="0 0 13 13.0254" fill="none" xmlns="http://www.w3.org/2000/svg">
<path id="croissant" d="M8.20117 6.16992C8.25195 6.62695 8.09961 7.13477 7.74414 7.46484L7.46484 7.76953C7.10938 8.125 6.62695 8.27734 6.14453 8.22656L5.28125 8.91211V9.75L5.66211 12.1367C5.66211 12.1875 5.6875 12.2129 5.6875 12.2637C5.6875 12.6699 5.33203 13.0254 4.92578 13.0254H4.79883C4.67188 13.0254 4.57031 13 4.46875 12.9492C3.58008 12.5938 2.76758 12.0352 2.10742 11.3242C1.70117 11.502 1.19336 11.375 0.964844 10.9688C0.355469 9.90234 0 8.6582 0 7.3125C0 6.75391 0.0507812 6.19531 0.177734 5.66211C0.0507812 5.48438 0 5.25586 0 5.02734C0 4.90039 0 4.77344 0.0507812 4.67188C0.837891 2.53906 2.51367 0.863281 4.64648 0.0761719C4.77344 0.0253906 4.90039 0 5.00195 0C5.25586 0 5.45898 0.0761719 5.63672 0.203125C6.16992 0.0761719 6.72852 0 7.3125 0C8.63281 0 9.87695 0.355469 10.9434 0.990234C11.3496 1.21875 11.4766 1.72656 11.2988 2.13281C12.0098 2.79297 12.5684 3.60547 12.9238 4.49414C12.9746 4.5957 13 4.69727 13 4.82422V4.95117C13 5.35742 12.6445 5.71289 12.2383 5.71289C12.1875 5.71289 12.1621 5.6875 12.1113 5.6875L9.75 5.28125H8.88672L8.20117 6.16992ZM6.32227 1.32031L7.71875 4.79883L10.0039 1.85352C9.19141 1.44727 8.27734 1.21875 7.3125 1.21875C6.95703 1.21875 6.65234 1.26953 6.32227 1.32031ZM1.29492 6.34766C1.24414 6.65234 1.21875 6.98242 1.21875 7.3125C1.21875 8.30273 1.44727 9.2168 1.82812 10.0293L4.77344 7.74414L1.29492 6.34766ZM9.85156 4.0625L9.92773 4.08789L11.502 4.3418C11.248 3.91016 10.9434 3.47852 10.5625 3.12305L9.82617 4.0625H9.85156ZM4.3418 11.5273L4.0625 9.95312V9.85156L3.09766 10.5879C3.45312 10.9688 3.88477 11.2734 4.3418 11.5273ZM6.14453 6.98242C6.29688 7.05859 6.47461 7.00781 6.60156 6.90625L6.88086 6.62695C6.98242 6.5 7.0332 6.32227 6.95703 6.16992L4.97656 1.24414C3.25 1.9043 1.87891 3.27539 1.21875 5.00195L6.14453 6.98242Z" fill="var(--fill-0, white)"/>
</svg>
