<svg preserveAspectRatio="none" width="100%" height="100%" overflow="visible" style="display: block;" viewBox="0 0 13 13" fill="none" xmlns="http://www.w3.org/2000/svg">
<path id="vector" d="M6.5 0C9.90234 0 12.1875 0.914062 12.1875 2.03125V2.4375V3.25C12.6191 3.25 13 3.63086 13 4.0625V5.6875C13 6.14453 12.6191 6.5 12.1875 6.5V10.5625C12.1875 11.0195 11.8066 11.375 11.375 11.375V12.1875C11.375 12.6445 10.9941 13 10.5625 13H9.75C9.29297 13 8.9375 12.6445 8.9375 12.1875V11.375H4.0625V12.1875C4.0625 12.6445 3.68164 13 3.25 13H2.4375C1.98047 13 1.625 12.6445 1.625 12.1875V11.375C1.16797 11.375 0.8125 11.0195 0.8125 10.5625V6.5C0.355469 6.5 0 6.14453 0 5.6875V4.0625C0 3.63086 0.355469 3.25 0.8125 3.25V2.4375V2.03125C0.8125 0.914062 3.07227 0 6.5 0ZM2.4375 4.0625V6.5C2.4375 6.95703 2.79297 7.3125 3.25 7.3125H6.09375V3.25H3.25C2.79297 3.25 2.4375 3.63086 2.4375 4.0625ZM6.90625 7.3125H9.75C10.1816 7.3125 10.5625 6.95703 10.5625 6.5V4.0625C10.5625 3.63086 10.1816 3.25 9.75 3.25H6.90625V7.3125ZM2.84375 10.1562C3.27539 10.1562 3.65625 9.80078 3.65625 9.34375C3.65625 8.91211 3.27539 8.53125 2.84375 8.53125C2.38672 8.53125 2.03125 8.91211 2.03125 9.34375C2.03125 9.80078 2.38672 10.1562 2.84375 10.1562ZM10.1562 10.1562C10.5879 10.1562 10.9688 9.80078 10.9688 9.34375C10.9688 8.91211 10.5879 8.53125 10.1562 8.53125C9.69922 8.53125 9.34375 8.91211 9.34375 9.34375C9.34375 9.80078 9.69922 10.1562 10.1562 10.1562ZM8.9375 2.03125C8.9375 1.82812 8.73438 1.625 8.53125 1.625H4.46875C4.24023 1.625 4.0625 1.82812 4.0625 2.03125C4.0625 2.25977 4.24023 2.4375 4.46875 2.4375H8.53125C8.73438 2.4375 8.9375 2.25977 8.9375 2.03125Z" fill="var(--fill-0, white)"/>
</svg>
