<svg preserveAspectRatio="none" width="100%" height="100%" overflow="visible" style="display: block;" viewBox="0 0 9.75 11.375" fill="none" xmlns="http://www.w3.org/2000/svg">
<path id="arrow-to-bottom" d="M9.14062 10.1562C9.4707 10.1562 9.75 10.4355 9.75 10.7656C9.75 11.1211 9.4707 11.375 9.14062 11.375H0.609375C0.253906 11.375 0 11.1211 0 10.7656C0 10.4102 0.253906 10.1562 0.609375 10.1562H9.14062ZM7.66797 4.46875C7.89648 4.21484 8.27734 4.21484 8.53125 4.44336C8.78516 4.67188 8.78516 5.05273 8.55664 5.30664L5.30664 8.75977C5.07812 9.01367 4.64648 9.01367 4.41797 8.75977L1.16797 5.30664C0.939453 5.05273 0.939453 4.67188 1.19336 4.44336C1.32031 4.3418 1.47266 4.29102 1.625 4.29102C1.77734 4.29102 1.92969 4.3418 2.05664 4.46875L4.26562 6.80469V0.634766C4.26562 0.279297 4.51953 0 4.875 0C5.20508 0 5.48438 0.279297 5.48438 0.634766V6.80469L7.66797 4.46875Z" fill="var(--fill-0, white)"/>
</svg>
