<svg preserveAspectRatio="none" width="100%" height="100%" overflow="visible" style="display: block;" viewBox="0 0 14.625 9.75" fill="none" xmlns="http://www.w3.org/2000/svg">
<path id="money-check" d="M6.70312 3.65625C7.0332 3.65625 7.3125 3.93555 7.3125 4.26562C7.3125 4.62109 7.0332 4.875 6.70312 4.875H3.04688C2.69141 4.875 2.4375 4.62109 2.4375 4.26562C2.4375 3.93555 2.69141 3.65625 3.04688 3.65625H6.70312ZM2.4375 6.70312C2.4375 6.37305 2.69141 6.09375 3.04688 6.09375H11.5781C11.9082 6.09375 12.1875 6.37305 12.1875 6.70312C12.1875 7.05859 11.9082 7.3125 11.5781 7.3125H3.04688C2.69141 7.3125 2.4375 7.05859 2.4375 6.70312ZM11.5781 2.4375C11.9082 2.4375 12.1875 2.7168 12.1875 3.04688V4.26562C12.1875 4.62109 11.9082 4.875 11.5781 4.875H9.54688C9.19141 4.875 8.9375 4.62109 8.9375 4.26562V3.04688C8.9375 2.7168 9.19141 2.4375 9.54688 2.4375H11.5781ZM0 1.625C0 0.736328 0.710938 0 1.625 0H13C13.8887 0 14.625 0.736328 14.625 1.625V8.125C14.625 9.03906 13.8887 9.75 13 9.75H1.625C0.710938 9.75 0 9.03906 0 8.125V1.625ZM1.21875 1.625V8.125C1.21875 8.35352 1.39648 8.53125 1.625 8.53125H13C13.2031 8.53125 13.4062 8.35352 13.4062 8.125V1.625C13.4062 1.42188 13.2031 1.21875 13 1.21875H1.625C1.39648 1.21875 1.21875 1.42188 1.21875 1.625Z" fill="var(--fill-0, white)"/>
</svg>
