<svg preserveAspectRatio="none" width="100%" height="100%" overflow="visible" style="display: block;" viewBox="0 0 13.4883 10.5" fill="none" xmlns="http://www.w3.org/2000/svg">
<path id="Icon lable" d="M2.74805 2.4375C1.74023 3.375 1.06055 4.5 0.755859 5.25C1.06055 6 1.74023 7.125 2.74805 8.0625C3.75586 9 5.0918 9.75 6.75586 9.75C8.39648 9.75 9.73242 9 10.7402 8.0625C11.748 7.125 12.4277 6 12.7559 5.25C12.4277 4.5 11.748 3.375 10.7402 2.4375C9.73242 1.5 8.39648 0.75 6.75586 0.75C5.0918 0.75 3.75586 1.5 2.74805 2.4375ZM6.75586 0C8.63086 0 10.1543 0.867188 11.2559 1.89844C12.3574 2.90625 13.084 4.125 13.4355 4.96875C13.5059 5.15625 13.5059 5.36719 13.4355 5.55469C13.084 6.375 12.3574 7.59375 11.2559 8.625C10.1543 9.65625 8.63086 10.5 6.75586 10.5C4.85742 10.5 3.33398 9.65625 2.23242 8.625C1.13086 7.59375 0.404297 6.375 0.0527344 5.55469C-0.0175781 5.36719 -0.0175781 5.15625 0.0527344 4.96875C0.404297 4.125 1.13086 2.90625 2.23242 1.89844C3.33398 0.867188 4.85742 0 6.75586 0ZM4.50586 5.25C4.50586 6.07031 4.92773 6.79688 5.63086 7.21875C6.31055 7.61719 7.17773 7.61719 7.88086 7.21875C8.56055 6.79688 9.00586 6.07031 9.00586 5.25C9.00586 4.45312 8.56055 3.72656 7.88086 3.30469C7.17773 2.90625 6.31055 2.90625 5.63086 3.30469C4.92773 3.72656 4.50586 4.45312 4.50586 5.25ZM9.75586 5.25C9.75586 6.32812 9.16992 7.3125 8.25586 7.85156C7.31836 8.39062 6.16992 8.39062 5.25586 7.85156C4.31836 7.3125 3.75586 6.32812 3.75586 5.25C3.75586 4.19531 4.31836 3.21094 5.25586 2.67188C6.16992 2.13281 7.31836 2.13281 8.25586 2.67188C9.16992 3.21094 9.75586 4.19531 9.75586 5.25Z" fill="var(--fill-0, white)"/>
</svg>
