<svg preserveAspectRatio="none" width="100%" height="100%" overflow="visible" style="display: block;" viewBox="0 0 13.4583 13.4582" fill="none" xmlns="http://www.w3.org/2000/svg">
<g id="Icon lable">
<path fill-rule="evenodd" clip-rule="evenodd" d="M3.5869 8.61582C3.65499 8.5474 3.66779 8.44192 3.62246 8.35664C3.3632 7.86909 3.20662 7.31922 3.20662 6.72953C3.20662 6.00561 3.43456 5.33879 3.81187 4.78039C3.87096 4.69295 3.86333 4.57522 3.78892 4.50038L1.8021 2.50182C1.7149 2.4141 1.57125 2.41892 1.49356 2.51516C0.561822 3.66921 0 5.13372 0 6.72953C0 8.18112 0.466615 9.52298 1.2523 10.623C1.327 10.7276 1.47736 10.7371 1.56799 10.6459L3.5869 8.61582Z" fill="var(--fill-0, white)"/>
<path fill-rule="evenodd" clip-rule="evenodd" d="M4.54551 3.75427C4.61927 3.82844 4.73567 3.83731 4.82334 3.78026C5.37309 3.42255 6.02497 3.20946 6.72849 3.20946C7.53811 3.20946 8.29957 3.47579 8.92999 3.98083C9.07165 4.09417 9.27636 4.08212 9.40386 3.9525L11.157 2.16821C11.225 2.09808 11.2618 2.00387 11.2583 1.90683C11.2547 1.80908 11.2108 1.71771 11.1379 1.65325C9.92094 0.587208 8.35482 0 6.72849 0C5.16 0 3.71745 0.5414 2.57204 1.44447C2.47454 1.52134 2.46846 1.66561 2.55601 1.75364L4.54551 3.75427Z" fill="var(--fill-0, white)"/>
<path fill-rule="evenodd" clip-rule="evenodd" d="M8.92141 9.70389C8.84774 9.62972 8.73137 9.6208 8.64367 9.67775C8.08671 10.0394 7.42916 10.2494 6.72933 10.2494C5.89406 10.2494 5.13306 9.94975 4.53019 9.46178C4.44202 9.39038 4.31335 9.39321 4.23334 9.47368L2.26252 11.4543C2.17829 11.539 2.18011 11.6766 2.26937 11.7559C3.45805 12.8123 5.01823 13.4582 6.72933 13.4582C8.28504 13.4582 9.73578 12.9214 10.8907 12.0115C10.9883 11.9346 10.9943 11.7904 10.9069 11.7024L8.92141 9.70389Z" fill="var(--fill-0, white)"/>
<path fill-rule="evenodd" clip-rule="evenodd" d="M13.3435 5.51537C13.3116 5.34892 13.1657 5.22779 12.9957 5.22779H6.7291C6.53289 5.22779 6.37493 5.38575 6.37493 5.58196V7.94071C6.37493 8.13621 6.53289 8.29487 6.7291 8.29487H9.88684C9.81948 8.43059 9.74135 8.55852 9.65685 8.68162C9.59735 8.76832 9.60521 8.88555 9.6793 8.96014L11.6646 10.9584C11.7518 11.0462 11.8955 11.0414 11.9732 10.9451C12.6442 10.113 13.1236 9.11321 13.3364 8.008C13.4172 7.59646 13.4583 7.1665 13.4583 6.72946C13.4583 6.32429 13.4193 5.91558 13.3435 5.51537Z" fill="var(--fill-0, white)"/>
</g>
</svg>
