<svg preserveAspectRatio="none" width="100%" height="100%" overflow="visible" style="display: block;" viewBox="0 0 9.75 12.9949" fill="none" xmlns="http://www.w3.org/2000/svg">
<path id="receipt" d="M6.70312 3.64102C7.0332 3.64102 7.3125 3.92031 7.3125 4.25039C7.3125 4.60586 7.0332 4.85977 6.70312 4.85977H3.04688C2.69141 4.85977 2.4375 4.60586 2.4375 4.25039C2.4375 3.92031 2.69141 3.64102 3.04688 3.64102H6.70312ZM6.70312 8.10977C7.0332 8.10977 7.3125 8.38906 7.3125 8.71914C7.3125 9.07461 7.0332 9.32852 6.70312 9.32852H3.04688C2.69141 9.32852 2.4375 9.07461 2.4375 8.71914C2.4375 8.38906 2.69141 8.10977 3.04688 8.10977H6.70312ZM2.4375 6.48477C2.4375 6.15469 2.69141 5.87539 3.04688 5.87539H6.70312C7.0332 5.87539 7.3125 6.15469 7.3125 6.48477C7.3125 6.84023 7.0332 7.09414 6.70312 7.09414H3.04688C2.69141 7.09414 2.4375 6.84023 2.4375 6.48477ZM2.03125 1.02578L3.04688 0.137109C3.27539 -0.040625 3.60547 -0.040625 3.83398 0.137109L4.875 1.02578L5.89062 0.137109C6.11914 -0.040625 6.44922 -0.040625 6.67773 0.137109L7.71875 1.02578L8.73438 0.137109C8.91211 -0.0152344 9.16602 -0.040625 9.39453 0.0609375C9.59766 0.1625 9.75 0.365625 9.75 0.594141V12.3754C9.75 12.6293 9.59766 12.8324 9.39453 12.934C9.16602 13.0355 8.91211 13.0102 8.73438 12.8578L7.71875 11.9691L6.67773 12.8578C6.44922 13.0355 6.11914 13.0355 5.89062 12.8578L4.875 11.9691L3.83398 12.8578C3.60547 13.0355 3.27539 13.0355 3.04688 12.8578L2.03125 11.9691L0.990234 12.8578C0.8125 13.0102 0.558594 13.0355 0.330078 12.934C0.126953 12.8324 0 12.6293 0 12.3754V0.594141C0 0.365625 0.126953 0.1625 0.330078 0.0609375C0.558594 -0.040625 0.8125 -0.0152344 0.990234 0.137109L2.03125 1.02578ZM1.625 10.6996C1.85352 10.5219 2.18359 10.5219 2.41211 10.6996L3.45312 11.5883L4.46875 10.6996C4.69727 10.5219 5.02734 10.5219 5.25586 10.6996L6.29688 11.5883L7.3125 10.6996C7.54102 10.5219 7.87109 10.5219 8.09961 10.6996L8.53125 11.0551V1.93984L8.09961 2.29531C7.87109 2.47305 7.54102 2.47305 7.3125 2.29531L6.29688 1.40664L5.25586 2.29531C5.02734 2.47305 4.69727 2.47305 4.46875 2.29531L3.45312 1.40664L2.41211 2.29531C2.18359 2.47305 1.85352 2.47305 1.625 2.29531L1.21875 1.93984V11.0551L1.625 10.6996Z" fill="var(--fill-0, white)"/>
</svg>
