<svg preserveAspectRatio="none" width="100%" height="100%" overflow="visible" style="display: block;" viewBox="0 0 8.9375 8.9375" fill="none" xmlns="http://www.w3.org/2000/svg">
<path id="Icon lable" d="M5.15625 0.6875V3.78125H8.25C8.61523 3.78125 8.9375 4.10352 8.9375 4.46875C8.9375 4.85547 8.61523 5.15625 8.25 5.15625H5.15625V8.25C5.15625 8.63672 4.83398 8.9375 4.46875 8.9375C4.08203 8.9375 3.78125 8.63672 3.78125 8.25V5.15625H0.6875C0.300781 5.15625 0 4.85547 0 4.46875C0 4.10352 0.300781 3.78125 0.6875 3.78125H3.78125V0.6875C3.78125 0.322266 4.08203 0 4.46875 0C4.83398 0 5.15625 0.322266 5.15625 0.6875Z" fill="var(--fill-0, white)"/>
</svg>
