<svg preserveAspectRatio="none" width="100%" height="100%" overflow="visible" style="display: block;" viewBox="0 0 83.5 80.1148" fill="none" xmlns="http://www.w3.org/2000/svg">
<g id="Livello 2">
<path id="Vector" d="M20.6301 62.401C20.5101 60.751 20.5001 59.051 21.0001 57.471C21.5801 55.611 22.8001 54.031 24.0501 52.541C25.6601 50.621 27.3701 48.751 29.3901 47.261C31.5401 45.661 34.0001 44.531 36.4301 43.401C41.4501 41.081 46.4701 38.751 51.4901 36.431C55.4601 34.591 59.5201 32.691 62.5701 29.571C65.5501 26.531 67.4001 22.411 67.6901 18.161C67.8101 16.401 67.6901 14.601 68.2001 12.921C68.7101 11.241 70.1401 9.65102 71.9001 9.67102C72.6101 9.67102 73.2901 9.94102 73.8901 10.301C75.8601 11.491 77.0001 13.751 77.3901 16.021C77.7801 18.291 77.5301 20.621 77.2901 22.911C76.5001 30.691 76.0001 38.561 77.0901 46.301C77.7601 51.061 79.0301 55.791 78.8301 60.601C78.7801 61.761 78.6401 62.951 78.1101 63.981C77.5101 65.151 76.4701 66.041 75.3701 66.751C70.2101 70.091 63.6001 70.101 57.5001 69.351C51.4001 68.601 45.2601 67.181 39.1701 68.051C37.2901 68.321 35.2601 68.931 34.2701 70.551C32.8001 72.951 34.2701 76.511 32.4501 78.661C31.0601 80.311 28.3201 80.151 26.5901 78.871C22.1901 75.601 20.9901 67.381 20.6301 62.401Z" stroke="var(--stroke-0, black)" stroke-width="0.5" stroke-miterlimit="10" stroke-dasharray="2 2"/>
<path id="Vector_2" d="M61.0799 33.6606C63.0199 32.5506 64.9999 31.3706 66.3899 29.6206C67.9399 27.6806 68.7299 25.0906 70.7399 23.6306C71.0199 23.4306 71.3199 23.2506 71.6599 23.2206C72.0499 23.1806 72.4399 23.3606 72.7699 23.5706C74.1399 24.4706 74.8499 26.1506 74.9899 27.7906C75.1299 29.4306 74.7899 31.0606 74.4899 32.6806C73.7199 36.8306 73.2099 41.0806 73.6399 45.2806C73.9899 48.7106 74.9499 52.0406 75.5099 55.4406C76.0099 58.4906 76.0599 61.9706 73.9799 64.2506C72.1599 66.2406 69.2399 66.7306 66.5499 66.7906C62.0999 66.8806 57.6899 66.1206 53.2499 65.8706C48.7499 65.6106 44.2099 65.8906 39.7699 66.6806C38.1499 66.9706 36.5099 67.3406 35.1199 68.2306C32.7699 69.7306 30.9899 72.7106 28.2099 72.5706C25.6999 72.4506 24.1699 69.8406 23.1099 67.5706C22.0999 65.4106 21.0599 63.1206 21.2999 60.7406C21.4299 59.4006 21.9599 58.1406 22.5399 56.9206C23.2399 55.4406 24.0599 53.9506 25.3499 52.9306C26.7099 51.8606 28.5199 51.3906 29.7199 50.1406C31.4499 48.3206 32.6499 47.5206 34.9699 46.5006C37.8299 45.2506 40.7099 44.0206 43.5399 42.7106C49.5099 39.9406 55.3699 36.9106 61.0799 33.6506V33.6606Z" stroke="var(--stroke-0, black)" stroke-width="0.5" stroke-miterlimit="10"/>
<path id="Vector_3" d="M30.0699 56.1506C34.3099 53.2906 38.8699 50.9306 43.6499 49.1206C45.8199 48.3006 48.0499 47.5806 50.0799 46.4606C52.8699 44.9206 55.1799 42.6706 57.6199 40.6306C60.4699 38.2406 63.5199 36.0906 66.6699 34.1206C67.8299 33.3906 69.3499 32.6806 70.4899 33.4406C71.0699 33.8206 71.3799 34.5106 71.4899 35.1906C71.9399 38.1006 69.2299 40.4406 68.0399 43.1406C66.9699 45.5806 67.1699 48.3706 67.5799 51.0006C67.9499 53.3906 68.3899 56.1506 66.7899 57.9706C65.2799 59.7006 62.6699 59.7506 60.3799 59.6406C55.5899 59.4106 50.6099 59.0706 46.1799 60.9106C41.9599 62.6706 38.1899 66.4006 33.6299 65.9406C31.2699 65.7006 29.1399 64.1506 27.9999 62.0906C26.4899 59.3506 27.6299 57.7906 30.0399 56.1606L30.0699 56.1506Z" stroke="var(--stroke-0, black)" stroke-width="0.5" stroke-miterlimit="10"/>
<path id="Vector_4" d="M39.6399 53.5902C41.5599 52.2302 44.0799 52.1902 46.3899 51.7802C49.1999 51.2802 51.9099 50.1602 54.2499 48.5202C55.6899 47.5202 57.0099 46.3102 58.6099 45.6002C59.1599 45.3602 59.7899 45.1802 60.3599 45.3602C60.8499 45.5202 61.2099 45.9302 61.5499 46.3202C62.3699 47.2702 63.2499 48.5302 62.7299 49.6802C62.2599 50.7202 60.9299 50.9902 59.7899 51.1402C54.6199 51.8402 49.3199 53.1702 45.3299 56.5102C43.1899 58.3102 41.3299 60.7202 38.5999 61.3602C36.7499 61.8002 34.0999 60.8302 35.0699 58.5902C35.7599 57.0002 38.2199 54.5802 39.6299 53.5802L39.6399 53.5902Z" stroke="var(--stroke-0, black)" stroke-width="0.5" stroke-miterlimit="10"/>
<path id="Vector_5" d="M6.01809 30.45C6.94228 27.7379 7.94924 24.9157 10.0183 22.9332C11.7012 21.3362 13.9358 20.4551 16.1429 19.7255C21.7432 17.8807 27.578 16.7793 33.4681 16.4627C34.9716 16.3801 36.5855 16.3801 37.7994 17.2749C39.8961 18.8031 39.5512 22.2448 37.8408 24.1998C36.1303 26.1547 33.5508 27.0633 31.1507 28.0821C20.2259 32.7216 11.0391 41.2985 5.65945 51.8579C5.02492 53.0969 4.36282 54.4599 3.10756 55.0656C-1.87205 57.4749 1.09365 47.1633 1.45229 45.5663C2.61098 40.4312 4.32143 35.4475 6.01809 30.4638V30.45Z" stroke="var(--stroke-0, black)" stroke-width="0.5" stroke-miterlimit="10"/>
<path id="Vector_6" d="M8.25823 36.3216C8.30104 37.4502 8.5864 38.6623 9.44251 39.4286C14.5792 36.656 17.2616 30.6927 22.3983 27.9201C23.126 27.53 23.8965 27.1956 24.4815 26.6383C25.0665 26.081 25.4517 25.2032 25.1378 24.4508C24.5814 23.1411 22.6409 23.3083 21.2568 23.7542C15.1642 25.7326 7.97286 28.8118 8.25823 36.3216Z" stroke="var(--stroke-0, black)" stroke-width="0.5" stroke-miterlimit="10"/>
<path id="Vector_7" d="M7.92993 76.3206C9.83993 77.8806 13.3199 77.2106 13.5699 74.5206C13.7899 72.4806 11.7999 70.5306 9.70993 70.4306C6.32993 70.2106 5.13993 74.1906 7.74993 76.1806L7.92993 76.3206Z" stroke="var(--stroke-0, black)" stroke-width="0.5" stroke-miterlimit="10" stroke-dasharray="2 2"/>
<path id="Vector_8" d="M67.8101 3.62058C67.5601 1.17058 64.6301 -0.829417 62.5501 0.900583C60.9501 2.18058 60.9801 4.97058 62.3901 6.52058C64.6201 9.06058 68.2801 7.09058 67.8401 3.84058L67.8101 3.62058Z" stroke="var(--stroke-0, black)" stroke-width="0.5" stroke-miterlimit="10"/>
<path id="Vector_9" d="M83.2196 49.2764C83.1048 46.968 81.7599 45.0836 80.8051 46.7136C80.0706 47.9196 80.0844 50.5483 80.7316 52.0088C81.7553 54.4019 83.4353 52.5458 83.2333 49.4837L83.2196 49.2764Z" stroke="var(--stroke-0, black)" stroke-width="0.5" stroke-miterlimit="10"/>
<path id="Vector_10" d="M27.8999 9.44058C30.0499 9.22058 32.1999 8.99058 34.3599 8.77058C35.6699 8.63058 36.9999 8.50058 38.2699 8.13058C39.6399 7.73058 40.9199 7.08058 42.1899 6.43058C44.0699 5.46058 45.9699 4.48058 47.5999 3.13058C47.9399 2.85058 48.2699 2.54058 48.4199 2.13058C48.5699 1.72058 48.4799 1.19058 48.0999 0.970583C47.9099 0.860583 47.6699 0.840583 47.4499 0.840583C45.8999 0.810583 44.3499 1.15058 42.9599 1.82058C41.6799 2.43058 40.5399 3.31058 39.2399 3.89058C34.1999 6.12058 28.2299 3.32058 22.8799 4.65058C21.9699 4.88058 20.9899 5.32058 20.6899 6.21058C20.2399 7.52058 21.5599 9.07058 22.7699 9.44058C24.3299 9.91058 26.3499 9.62058 27.9199 9.46058L27.8999 9.44058Z" stroke="var(--stroke-0, black)" stroke-width="0.5" stroke-miterlimit="10" stroke-dasharray="2 2"/>
<path id="Vector_11" d="M42.7499 71.3606C44.0699 71.9606 45.2599 72.8106 46.5999 73.3606C47.5699 73.7606 48.6499 74.0306 49.3699 74.7906C50.0899 75.5506 50.1499 77.0506 49.1799 77.4606C48.2499 77.8606 47.3199 76.9906 46.4499 76.4606C43.7299 74.7906 37.1899 78.3906 36.0699 75.4806C34.5599 71.5506 40.2899 70.2406 42.7499 71.3606Z" stroke="var(--stroke-0, black)" stroke-width="0.5" stroke-miterlimit="10"/>
<path id="Vector_12" d="M78.7099 33.7903C78.4999 34.5603 78.4999 35.3703 78.5099 36.1603C78.5199 38.1803 78.5399 40.2303 79.0699 42.1903C79.1999 42.6703 79.4598 43.2203 79.9498 43.2803C80.3598 43.3303 80.7299 42.9803 80.8599 42.5903C80.9899 42.2003 80.9299 41.7703 80.8699 41.3603C80.5899 39.1503 80.5799 36.7303 81.8599 34.9103C82.2299 34.3903 82.6899 33.9403 82.9699 33.3703C83.2499 32.8003 83.2999 32.0503 82.8599 31.5903C82.5299 31.2503 82.0099 31.1503 81.5499 31.2403C80.2399 31.5003 79.0699 32.5003 78.7099 33.7903Z" stroke="var(--stroke-0, black)" stroke-width="0.5" stroke-miterlimit="10"/>
</g>
</svg>
