<svg preserveAspectRatio="none" width="100%" height="100%" overflow="visible" style="display: block;" viewBox="0 0 8.1377 8.1377" fill="none" xmlns="http://www.w3.org/2000/svg">
<path id="Icon lable" d="M7.89014 1.39014L5.22412 4.05615L7.89014 6.74756C8.22021 7.05225 8.22021 7.58545 7.89014 7.89014C7.58545 8.22021 7.05225 8.22021 6.74756 7.89014L4.08154 5.22412L1.39014 7.89014C1.08545 8.22021 0.552246 8.22021 0.247559 7.89014C-0.0825195 7.58545 -0.0825195 7.05225 0.247559 6.74756L2.91357 4.05615L0.247559 1.39014C-0.0825195 1.08545 -0.0825195 0.552246 0.247559 0.247559C0.552246 -0.0825195 1.08545 -0.0825195 1.39014 0.247559L4.08154 2.91357L6.74756 0.247559C7.05225 -0.0825195 7.58545 -0.0825195 7.89014 0.247559C8.22021 0.552246 8.22021 1.08545 7.89014 1.39014Z" fill="var(--fill-0, #2B2A26)"/>
</svg>
