<svg preserveAspectRatio="none" width="100%" height="100%" overflow="visible" style="display: block;" viewBox="0 0 11.375 11.375" fill="none" xmlns="http://www.w3.org/2000/svg">
<path id="Icon lable" d="M9.64844 1.67578C10.7148 2.74219 11.375 4.13867 11.375 5.66211C11.375 8.75977 8.78516 11.2988 5.66211 11.2988C4.72266 11.2988 3.80859 11.0449 2.9707 10.6133L0 11.375L0.787109 8.45508C0.304688 7.61719 0.0253906 6.65234 0.0253906 5.63672C0.0253906 2.53906 2.56445 0 5.66211 0C7.18555 0 8.60742 0.609375 9.64844 1.67578ZM5.66211 10.334C8.25195 10.334 10.4102 8.22656 10.4102 5.66211C10.4102 4.39258 9.87695 3.22461 8.98828 2.33594C8.09961 1.44727 6.93164 0.964844 5.6875 0.964844C3.09766 0.964844 0.990234 3.07227 0.990234 5.63672C0.990234 6.52539 1.24414 7.38867 1.70117 8.15039L1.82812 8.32812L1.3457 10.0547L3.12305 9.57227L3.27539 9.67383C4.01172 10.1055 4.82422 10.334 5.66211 10.334ZM8.25195 6.83008C8.37891 6.90625 8.48047 6.93164 8.50586 7.00781C8.55664 7.05859 8.55664 7.33789 8.42969 7.66797C8.30273 7.99805 7.74414 8.30273 7.49023 8.32812C7.0332 8.4043 6.67773 8.37891 5.78906 7.97266C4.36719 7.36328 3.45312 5.94141 3.37695 5.86523C3.30078 5.76367 2.81836 5.10352 2.81836 4.39258C2.81836 3.70703 3.17383 3.37695 3.30078 3.22461C3.42773 3.07227 3.58008 3.04688 3.68164 3.04688C3.75781 3.04688 3.85938 3.04688 3.93555 3.04688C4.03711 3.04688 4.13867 3.02148 4.26562 3.30078C4.36719 3.58008 4.67188 4.26562 4.69727 4.3418C4.72266 4.41797 4.74805 4.49414 4.69727 4.5957C4.44336 5.12891 4.13867 5.10352 4.29102 5.35742C4.84961 6.29688 5.38281 6.62695 6.2207 7.0332C6.34766 7.10938 6.42383 7.08398 6.52539 7.00781C6.60156 6.90625 6.88086 6.57617 6.95703 6.44922C7.05859 6.29688 7.16016 6.32227 7.28711 6.37305C7.41406 6.42383 8.09961 6.75391 8.25195 6.83008Z" fill="var(--fill-0, white)"/>
</svg>
