<svg preserveAspectRatio="none" width="100%" height="100%" overflow="visible" style="display: block;" viewBox="0 0 247.18 27.0762" fill="none" xmlns="http://www.w3.org/2000/svg">
<path id="Vector" d="M0.12574 26.8602C5.24907 23.8788 10.3724 20.8667 15.4957 17.8853C20.3736 15.0883 25.681 11.7381 31.0191 12.5372C34.7312 12.9983 38.3513 14.9346 42.1248 14.2585C54.5189 10.4779 58.8446 1.1035 73.3556 10.0476C76.2394 11.4615 78.571 10.6316 81.1786 8.69526C94.4625 -3.23026 110.691 -0.341083 126.675 4.14635C134.774 6.02124 142.996 7.49657 151.218 8.72601C156.556 9.24852 162.477 11.2156 167.57 9.21778C171.343 7.55804 173.981 3.43943 178.399 2.30221C189.014 -0.218135 200.273 2.54809 211.072 2.76324C223.405 3.68531 236.995 3.71606 247.027 11.4615" stroke="var(--stroke-0, black)" stroke-width="0.5" stroke-miterlimit="10"/>
</svg>
