<svg preserveAspectRatio="none" width="100%" height="100%" overflow="visible" style="display: block;" viewBox="0 0 219.111 39.0806" fill="none" xmlns="http://www.w3.org/2000/svg">
<path id="Vector" d="M0.0957076 35.0033C7.704 33.1284 17.7359 27.5345 23.4728 22.1864C27.5837 18.3752 31.2959 13.6419 36.6646 11.9821C38.8121 11.3367 41.113 11.2137 43.1685 10.2917C47.0647 8.53971 49.4576 4.11374 53.5992 2.91504C56.3603 2.11591 59.3054 2.97651 62.1892 2.7921C66.4842 2.51548 70.5031 -0.00486685 74.7674 0.456171C79.5533 1.00942 83.02 5.09729 86.7321 8.17088C92.561 12.9657 99.8319 15.5475 106.949 18.0678C116.46 21.418 126.123 24.799 136.186 25.26C137.965 25.3522 139.806 25.3215 141.493 24.799C143.426 24.215 145.113 22.9856 146.954 22.1557C154.992 18.4674 164.38 22.1557 172.141 26.3973C174.626 27.7496 177.203 29.1942 180.026 29.5016C188.462 30.3929 196.47 20.957 204.262 24.2765C210.735 27.0427 212.208 37.0626 219.018 38.6916" stroke="var(--stroke-0, black)" stroke-width="0.8" stroke-miterlimit="10" stroke-dasharray="2 2"/>
</svg>
