<svg preserveAspectRatio="none" width="100%" height="100%" overflow="visible" style="display: block;" viewBox="0 0 876.63 704.36" fill="none" xmlns="http://www.w3.org/2000/svg">
<g id="Livello_1" clip-path="url(#clip0_0_4)">
<path id="Vector" d="M203.62 658.06C203.62 658.06 113.24 698.82 88.43 659.83C63.62 620.84 77.8 574.77 83.11 541.09C88.42 507.41 97.29 392.23 76.02 360.33C54.75 328.43 -24.99 277.05 8.68 190.21C42.35 103.37 33.49 80.34 24.63 51.98C15.77 23.62 -14.35 -1.18 60.08 0.59C134.51 2.36 191.22 -6.5 251.47 32.49C311.72 71.48 327.67 73.25 410.97 59.07C494.27 44.89 593.5 73.25 621.86 112.24C650.22 151.23 687.43 230.98 717.56 241.61C747.69 252.24 868.19 307.18 875.28 390.47C882.37 473.76 843.38 523.38 829.2 535.79C815.02 548.2 758.31 585.41 724.64 617.31C690.97 649.21 628.99 703.86 458.86 703.86C458.86 703.86 315.27 679.33 286.92 670.47" stroke="var(--stroke-0, black)" stroke-width="2" stroke-miterlimit="10"/>
<path id="Vector_2" d="M202.02 548.14C194.39 536.25 193.11 521.5 192.25 507.4C190.11 472.17 189.29 436.67 182.09 402.11C174.89 367.55 160.74 333.47 135.64 308.66C121.54 294.73 104.49 284.17 89.47 271.23C74.45 258.29 60.99 241.9 57.85 222.33C55.97 210.62 64.25 199.69 73.46 192.21C82.67 184.73 93.5 178.81 100.24 169.05C108.79 156.67 109.1 140.28 106.13 125.53C103.16 110.78 97.27 96.74 94.37 81.97C93.48 77.42 93.05 72.16 96.1 68.67C104.84 58.69 120.83 58.98 133.03 64.19C145.23 69.4 155.44 78.43 167.38 84.21C176.19 88.47 185.76 90.87 195.26 93.24C230.34 102.01 265.67 110.81 301.77 112.9C363.47 116.47 427.45 91.43 485.84 111.71C502.64 117.54 517.96 126.89 533.13 136.16C552.29 147.87 571.45 159.58 590.61 171.28C604.11 179.53 610.83 195.42 614.67 210.76C618.51 226.1 620.42 242.24 627.92 256.16C638.91 276.55 660.32 289.21 682.02 297.31C703.72 305.41 726.72 310.01 747.76 319.71C790.7 339.5 822.87 381.12 831.2 427.66C833.74 441.84 833.98 457.23 826.89 469.76C818.72 484.2 802.66 491.92 787.77 499.22C748.49 518.49 710.69 540.79 674.83 565.85C651.07 582.46 627.47 600.62 599.6 608.59C581.67 613.71 562.81 614.35 544.17 614.95C516.37 615.85 487.7 616.61 461.71 606.68C424.13 592.33 390.4 568.99 352.43 555.7C326.02 546.46 295.78 542.65 268.62 550.97C245.02 558.2 220.91 577.56 202.01 548.11L202.02 548.14Z" stroke="var(--stroke-0, black)" stroke-width="2" stroke-miterlimit="10" stroke-dasharray="6 6"/>
<path id="Vector_3" d="M268.77 437.2C254.55 427.51 247.7 410.2 243.55 393.5C239.39 376.8 236.97 359.27 228.34 344.38C218.64 327.66 202.24 316.17 188.17 302.92C155.94 272.58 134.79 230.66 129.76 186.68C128.05 171.71 138.92 157.55 152.36 150.72C165.8 143.89 181.33 142.83 196.38 142.08C221.03 140.85 245.71 140.09 270.39 139.65C281.81 139.45 293.24 139.31 304.66 139.18C331.17 138.87 357.9 138.57 383.9 143.75C400.31 147.02 416.2 152.42 432.31 156.94C469.35 167.33 508.14 173.26 542.33 190.89C576.52 208.52 606.28 241.72 605.76 280.18C605.53 297.31 599.53 315.42 606.76 330.95C610 337.92 615.6 343.48 621.27 348.67C633.48 359.86 646.58 370.09 660.38 379.25C672.55 387.32 684.48 395.76 696.14 404.55C703.45 410.06 710.81 415.88 715.59 423.68C721.14 432.74 722.69 443.62 724.13 454.15C726.38 470.68 727.93 489.62 716.67 501.93C709.18 510.11 697.71 513.22 686.77 515C666.41 518.31 645.52 518.33 625.16 515.06C607.52 512.23 591.65 525.14 578.32 537.03C564.99 548.92 548.64 561.49 531.15 557.82C518.3 555.12 509.04 544.37 498.88 536.06C482.79 522.89 463.03 515.18 443.64 507.67C411.48 495.22 379.33 482.77 347.17 470.31C338.89 467.1 330.62 463.9 322.34 460.69" stroke="var(--stroke-0, black)" stroke-width="2" stroke-miterlimit="10"/>
<path id="Vector_4" d="M209.22 274.4C189.95 256.06 174.97 226.91 187.59 203.49C195.19 189.39 210.86 181.56 226.34 177.44C255.86 169.58 287.01 172.14 317.45 174.76C360.33 178.45 403.21 182.14 446.08 185.83C463.45 187.32 481.51 189.04 496.41 198.08C511.31 207.13 521.88 225.86 515.84 242.21C509.27 259.97 487.99 266.4 469.6 270.91C438.6 278.5 407.9 287.28 377.56 297.2C364.91 301.34 352.09 305.8 341.42 313.77C332.66 320.31 325.71 328.95 317.55 336.23C309.39 343.51 299.28 349.63 288.35 349.36C269.7 348.9 265.9 328.12 255.84 316.17C242.35 300.14 224.31 288.76 209.22 274.39V274.4Z" stroke="var(--stroke-0, black)" stroke-width="2" stroke-miterlimit="10"/>
<path id="Vector_5" d="M272.35 290.52C268.66 290.87 265.95 287.25 264.05 284.07C253.54 266.51 243.04 248.96 232.53 231.4C231.12 229.05 229.69 226.64 229.15 223.95C228.06 218.5 230.85 212.95 234.58 208.82C262.79 177.57 305.07 210.35 336.88 213.89C349.93 215.34 363.07 212.99 375.96 210.53C387.21 208.38 399.15 206.2 409.87 210.25C417.81 213.26 424.94 221.32 425.17 230.09C425.37 237.71 418.03 243.08 412.48 247C405.29 252.08 398.26 257.15 391.31 262.57C385.16 267.36 378.85 272.25 371.43 274.64C357.19 279.23 339.8 274.42 328.1 283.73" stroke="var(--stroke-0, black)" stroke-width="2" stroke-miterlimit="10"/>
<path id="Vector_6" d="M307.85 259.46C295.69 255.01 284.45 248.04 275.06 239.12C272.21 236.41 269.33 233.02 269.64 229.1C270.25 221.41 281.02 220.16 288.61 221.53C307.55 224.93 326.11 230.39 343.89 237.76C348.56 239.7 353.35 241.91 356.5 245.86C359.65 249.81 360.55 256.01 357.19 259.78C355.27 261.93 352.38 262.92 349.58 263.62C333.08 267.76 314.95 264.92 300.51 255.93" stroke="var(--stroke-0, black)" stroke-width="2" stroke-miterlimit="10"/>
<path id="Vector_7" d="M394.43 447.36C389.81 440.79 388.72 431.93 384.87 424.36C378.11 411.08 369.11 398.96 363.7 385C358.98 372.81 357.24 359.48 358.68 346.49C359.19 341.93 360.1 337.33 362.25 333.27C369.05 320.43 385.76 316.67 400.27 317.21C414.78 317.75 429.69 321.08 443.58 316.82C458.84 312.14 469.84 299.26 481.36 288.21C493.79 276.29 507.74 265.94 522.75 257.5C535.58 250.28 553.97 245.41 563.23 256.86C569.23 264.28 567.99 275.28 564.3 284.09C560.61 292.89 554.83 300.83 552.29 310.04C547.66 326.82 554.53 344.46 562.03 360.17C568.24 373.19 575.04 386.07 584.26 397.16C605.04 422.16 644.96 429.92 656.82 460.18C661.03 470.92 658.8 483.47 648.48 489.89C642.67 493.51 638.74 490.62 632.91 489.81C628.93 489.26 624.57 489.73 620.6 490.12C610.75 491.1 601.07 494.15 592.54 499.19C583.96 504.26 576.53 511.23 567.58 515.62C545.11 526.65 517.94 519.37 495.6 508.07C481.44 500.91 468.11 492.25 454.81 483.6C443.2 476.05 430.86 469.74 418.66 463.22C412.56 459.96 406.49 456.66 400.55 453.12C397.93 451.56 395.96 449.59 394.4 447.36H394.43Z" stroke="var(--stroke-0, black)" stroke-width="2" stroke-miterlimit="10"/>
<path id="Vector_8" d="M412.99 340.14C427.5 334.4 443.8 333.73 457.77 326.77C475.06 318.16 486.36 301.27 499.84 287.43C505.04 282.09 512.17 276.76 519.29 278.97C526.72 281.27 529.52 290.83 527.65 298.38C525.78 305.93 520.71 312.19 516.86 318.94C503.81 341.86 505.82 372.49 521.76 393.5C528.12 401.88 536.39 408.75 542.15 417.55C547.91 426.35 550.74 438.35 545.15 447.26C539.72 455.92 537.6 466.61 539.31 476.69C540.3 482.48 542.5 488.11 542.49 493.98C542.49 499.85 539.38 506.38 533.66 507.68C525.98 509.43 520 501.47 515.5 495.01C501.12 474.4 479.22 459.15 454.89 452.83C444.07 450.02 432.1 448.55 424.02 440.83C420.1 437.08 417.5 432.19 414.97 427.39C398.43 395.99 369.38 361.93 412.98 340.14H412.99Z" stroke="var(--stroke-0, black)" stroke-width="2" stroke-miterlimit="10"/>
<path id="Vector_9" d="M424.69 403.81C433.11 427.54 458.35 440.15 481.35 450.41C492.56 455.41 507.69 459.62 515.47 450.12C522.18 441.93 517.72 429.27 510.61 421.42C503.5 413.57 493.98 407.7 488.9 398.4C483.92 389.28 484.02 378.36 482.14 368.14C480.26 357.92 474.93 346.85 464.87 344.23C457.63 342.35 450.13 345.43 443.28 348.45C433.54 352.74 414.19 356.8 412.69 369.01C411.78 376.43 422.08 396.41 424.7 403.8L424.69 403.81Z" stroke="var(--stroke-0, black)" stroke-width="2" stroke-miterlimit="10"/>
<path id="Vector_10" d="M470.51 426.64C471.09 426.62 471.63 426.42 472.04 425.96C472.58 425.36 472.7 424.51 472.78 423.71C474.78 403.89 466.04 387.23 457.63 369.99C457.14 368.98 456.64 367.96 455.87 367.14C452.85 363.93 445.81 364.66 441.96 365.88C438.9 366.85 434.68 369.17 432.89 371.93C429.01 377.93 436.5 389.32 439.48 394.56C446.36 406.66 455.32 417.96 467.18 425.5C468.16 426.12 469.42 426.68 470.51 426.64Z" stroke="var(--stroke-0, black)" stroke-width="2" stroke-miterlimit="10"/>
<g id="Group">
<path id="Vector_11" d="M222.14 653.42H222.09L219.18 654.45L219.02 652.8L222.67 651.52L224.45 651.8L222.07 667.24L220.05 666.93L222.13 653.44L222.14 653.42Z" fill="var(--fill-0, black)"/>
<path id="Vector_12" d="M228.06 666.88C228.2 666 228.89 665.48 229.72 665.6C230.55 665.73 231.03 666.43 230.89 667.31C230.76 668.17 230.11 668.72 229.23 668.59C228.4 668.46 227.93 667.73 228.06 666.88Z" fill="var(--fill-0, black)"/>
<path id="Vector_13" d="M232.62 668.85L232.82 667.57L234.7 666.23C239.22 663.09 241.31 661.37 241.7 659.04C241.94 657.47 241.41 655.91 239.1 655.55C237.7 655.33 236.43 655.87 235.62 656.35L235.18 654.77C236.39 654.03 238.01 653.6 239.79 653.88C243.12 654.39 244.16 656.89 243.82 659.1C243.38 661.95 240.96 663.93 237.22 666.57L235.81 667.52V667.57L242.74 668.64L242.47 670.37L232.61 668.85H232.62Z" fill="var(--fill-0, black)"/>
<path id="Vector_14" d="M256.29 664.44C255.48 669.69 253.08 672.29 249.66 671.76C246.64 671.29 245.04 668.15 245.78 663.04C246.58 657.86 249.25 655.36 252.39 655.84C255.64 656.34 257.05 659.53 256.29 664.44ZM247.87 663.38C247.25 667.39 248.13 669.86 250.03 670.16C252.17 670.49 253.57 668.15 254.18 664.21C254.77 660.41 254.18 657.77 252.02 657.43C250.19 657.15 248.52 659.18 247.87 663.38Z" fill="var(--fill-0, black)"/>
<path id="Vector_15" d="M268.47 666.32C267.66 671.57 265.26 674.17 261.84 673.64C258.82 673.17 257.22 670.03 257.96 664.92C258.76 659.74 261.43 657.24 264.57 657.72C267.82 658.22 269.23 661.41 268.47 666.32ZM260.05 665.26C259.43 669.27 260.31 671.75 262.21 672.04C264.35 672.37 265.75 670.03 266.36 666.09C266.95 662.29 266.36 659.65 264.2 659.31C262.37 659.03 260.7 661.05 260.05 665.26Z" fill="var(--fill-0, black)"/>
</g>
<g id="Group_2">
<path id="Vector_16" d="M283.87 435.79H283.84L281.67 435.91L281.89 434.76L284.6 434.6L285.75 435.13L281.13 445.09L279.83 444.49L283.86 435.78L283.87 435.79Z" fill="var(--fill-0, black)"/>
<path id="Vector_17" d="M285.25 446.03C285.51 445.46 286.08 445.24 286.62 445.49C287.16 445.74 287.34 446.31 287.08 446.87C286.82 447.42 286.28 447.67 285.71 447.41C285.17 447.16 285 446.58 285.25 446.03Z" fill="var(--fill-0, black)"/>
<path id="Vector_18" d="M292.11 450.18L293.37 447.47L288.74 445.32L289.15 444.43L296.54 440.13L298 440.8L295.13 446.99L296.52 447.64L296.03 448.7L294.64 448.05L293.38 450.76L292.11 450.17V450.18ZM293.86 446.41L295.4 443.08C295.64 442.56 295.9 442.05 296.17 441.54L296.12 441.52C295.54 441.96 295.1 442.28 294.61 442.61L290.6 444.87V444.9L293.85 446.41H293.86Z" fill="var(--fill-0, black)"/>
<path id="Vector_19" d="M304.78 449.87C303.21 453.26 301.08 454.54 298.88 453.52C296.93 452.62 296.46 450.18 297.96 446.87C299.51 443.53 301.8 442.36 303.82 443.3C305.92 444.27 306.25 446.7 304.78 449.87ZM299.3 447.52C298.1 450.11 298.22 451.95 299.44 452.52C300.82 453.16 302.23 451.86 303.4 449.31C304.54 446.86 304.66 444.96 303.26 444.31C302.08 443.76 300.55 444.81 299.3 447.52Z" fill="var(--fill-0, black)"/>
<path id="Vector_20" d="M312.64 453.52C311.07 456.91 308.95 458.19 306.74 457.17C304.79 456.27 304.32 453.83 305.82 450.52C307.37 447.18 309.66 446.01 311.69 446.95C313.79 447.92 314.12 450.35 312.65 453.52H312.64ZM307.16 451.16C305.96 453.75 306.07 455.59 307.3 456.16C308.68 456.8 310.08 455.5 311.26 452.95C312.4 450.5 312.51 448.6 311.12 447.95C309.94 447.4 308.41 448.45 307.16 451.16Z" fill="var(--fill-0, black)"/>
</g>
<g id="Group_3">
<path id="Vector_21" d="M285.76 281.26H285.73L283.76 282.16L283.55 281.01L286.03 279.89L287.29 279.98L286.55 290.93L285.12 290.83L285.77 281.26H285.76Z" fill="var(--fill-0, black)"/>
<path id="Vector_22" d="M290.71 290.33C290.75 289.71 291.2 289.3 291.79 289.34C292.38 289.38 292.76 289.85 292.71 290.47C292.67 291.08 292.25 291.51 291.63 291.46C291.04 291.42 290.67 290.94 290.71 290.33Z" fill="var(--fill-0, black)"/>
<path id="Vector_23" d="M301.22 282.18L297.04 281.9L296.43 284.69C296.68 284.67 296.92 284.66 297.33 284.69C298.17 284.75 299 284.99 299.65 285.44C300.48 285.99 301.12 286.98 301.03 288.36C300.88 290.5 299.07 291.99 296.7 291.82C295.5 291.74 294.52 291.33 294.02 290.96L294.47 289.86C294.91 290.16 295.78 290.56 296.77 290.63C298.17 290.72 299.43 289.9 299.53 288.43C299.61 287.01 298.74 285.94 296.54 285.79C295.92 285.75 295.42 285.79 295.01 285.8L296.08 280.59L301.32 280.95L301.24 282.2L301.22 282.18Z" fill="var(--fill-0, black)"/>
<path id="Vector_24" d="M309.59 282.54C309.29 282.5 308.9 282.49 308.47 282.54C306.12 282.77 304.77 284.39 304.4 286.17H304.45C305.02 285.52 305.97 285.01 307.18 285.09C309.12 285.22 310.39 286.71 310.24 288.85C310.1 290.85 308.61 292.62 306.34 292.46C304 292.3 302.59 290.38 302.78 287.53C302.93 285.37 303.82 283.72 304.97 282.72C305.94 281.89 307.19 281.41 308.59 281.34C309.03 281.3 309.4 281.31 309.67 281.33L309.59 282.54ZM308.74 288.83C308.85 287.26 308.02 286.26 306.65 286.16C305.76 286.1 304.89 286.6 304.44 287.36C304.33 287.52 304.24 287.74 304.23 288.01C304.14 289.82 304.88 291.2 306.43 291.31C307.71 291.4 308.64 290.39 308.75 288.83H308.74Z" fill="var(--fill-0, black)"/>
<path id="Vector_25" d="M318.97 287.51C318.72 291.23 317.19 293.2 314.77 293.03C312.63 292.88 311.32 290.78 311.53 287.15C311.78 283.48 313.5 281.56 315.73 281.71C318.04 281.87 319.21 284.01 318.98 287.5L318.97 287.51ZM313.01 287.28C312.82 290.13 313.58 291.81 314.93 291.9C316.45 292 317.29 290.28 317.48 287.48C317.66 284.78 317.09 282.97 315.56 282.86C314.26 282.77 313.21 284.29 313.01 287.27V287.28Z" fill="var(--fill-0, black)"/>
</g>
</g>
<defs>
<clipPath id="clip0_0_4">
<rect width="876.63" height="704.36" fill="white"/>
</clipPath>
</defs>
</svg>
