<svg preserveAspectRatio="none" width="100%" height="100%" overflow="visible" style="display: block;" viewBox="0 0 1269.9 896.92" fill="none" xmlns="http://www.w3.org/2000/svg">
<g id="Livello_1" clip-path="url(#clip0_0_4)">
<path id="Vector" d="M596.89 658.06C596.89 658.06 506.51 698.82 481.7 659.83C456.89 620.84 471.07 574.77 476.38 541.09C481.69 507.41 490.56 392.23 469.29 360.33C448.02 328.43 368.28 277.04 401.95 190.2C435.62 103.36 426.76 80.33 417.9 51.97C409.04 23.61 378.92 -1.18 453.35 0.59C527.78 2.36 584.49 -6.5 644.74 32.49C704.99 71.48 720.94 73.25 804.24 59.07C887.54 44.89 986.77 73.25 1015.13 112.24C1043.49 151.23 1080.7 230.98 1110.83 241.61C1140.96 252.24 1261.46 307.18 1268.55 390.47C1275.64 473.76 1236.65 523.38 1222.47 535.79C1208.29 548.2 1151.58 585.41 1117.91 617.31C1084.24 649.21 1022.26 703.86 852.13 703.86C852.13 703.86 708.54 679.33 680.19 670.47" stroke="var(--stroke-0, black)" stroke-width="2" stroke-miterlimit="10"/>
<path id="Vector_2" d="M595.29 548.14C587.66 536.25 586.38 521.5 585.52 507.4C583.38 472.17 582.56 436.67 575.36 402.11C568.16 367.55 554.01 333.47 528.91 308.66C514.81 294.73 497.76 284.17 482.74 271.23C467.72 258.29 454.26 241.9 451.12 222.33C449.24 210.62 457.52 199.69 466.73 192.21C475.94 184.73 486.77 178.81 493.51 169.05C502.06 156.67 502.37 140.28 499.4 125.53C496.43 110.78 490.54 96.74 487.64 81.97C486.75 77.42 486.32 72.16 489.37 68.67C498.11 58.69 514.1 58.98 526.3 64.19C538.5 69.4 548.71 78.43 560.65 84.21C569.46 88.47 579.03 90.87 588.53 93.24C623.61 102.01 658.94 110.81 695.04 112.9C756.74 116.47 820.72 91.43 879.11 111.71C895.91 117.54 911.23 126.89 926.4 136.16C945.56 147.87 964.72 159.58 983.88 171.28C997.38 179.53 1004.1 195.42 1007.94 210.76C1011.78 226.1 1013.69 242.24 1021.19 256.16C1032.18 276.55 1053.59 289.21 1075.29 297.31C1096.99 305.41 1119.99 310.01 1141.03 319.71C1183.97 339.5 1216.14 381.12 1224.47 427.66C1227.01 441.84 1227.25 457.23 1220.16 469.76C1211.99 484.2 1195.93 491.92 1181.04 499.22C1141.76 518.49 1103.96 540.79 1068.1 565.85C1044.34 582.46 1020.74 600.62 992.87 608.59C974.94 613.71 956.08 614.35 937.44 614.95C909.64 615.85 880.97 616.61 854.98 606.68C817.4 592.33 783.67 568.99 745.7 555.7C719.29 546.46 689.05 542.65 661.89 550.97C638.29 558.2 614.18 577.56 595.28 548.11L595.29 548.14Z" stroke="var(--stroke-0, black)" stroke-width="2" stroke-miterlimit="10"/>
<path id="Vector_3" d="M662.04 437.2C647.82 427.51 640.97 410.2 636.82 393.5C632.66 376.8 630.24 359.27 621.61 344.38C611.91 327.66 595.51 316.17 581.44 302.92C549.21 272.58 528.06 230.66 523.03 186.68C521.32 171.71 532.19 157.55 545.63 150.72C559.07 143.89 574.6 142.83 589.65 142.08C614.3 140.85 638.98 140.09 663.66 139.65C675.08 139.45 686.51 139.31 697.93 139.18C724.44 138.87 751.17 138.57 777.17 143.75C793.58 147.02 809.47 152.42 825.58 156.94C862.62 167.33 901.41 173.26 935.6 190.89C969.79 208.52 999.55 241.72 999.03 280.18C998.8 297.31 992.8 315.42 1000.03 330.95C1003.27 337.92 1008.87 343.48 1014.54 348.67C1026.75 359.86 1039.85 370.09 1053.65 379.25C1065.82 387.32 1077.75 395.76 1089.41 404.55C1096.72 410.06 1104.08 415.88 1108.86 423.68C1114.41 432.74 1115.96 443.62 1117.4 454.15C1119.65 470.68 1121.2 489.62 1109.94 501.93C1102.45 510.11 1090.98 513.22 1080.04 515C1059.68 518.31 1038.79 518.33 1018.43 515.06C1000.79 512.23 984.92 525.14 971.59 537.03C958.26 548.92 941.91 561.49 924.42 557.82C911.57 555.12 902.31 544.37 892.15 536.06C876.06 522.89 856.3 515.18 836.91 507.67C804.75 495.22 772.6 482.77 740.44 470.31C732.16 467.1 723.89 463.9 715.61 460.69" stroke="var(--stroke-0, black)" stroke-width="2" stroke-miterlimit="10"/>
<path id="Vector_4" d="M602.5 274.4C583.23 256.06 568.25 226.91 580.87 203.49C588.47 189.39 604.14 181.56 619.62 177.44C649.14 169.58 680.29 172.14 710.73 174.76C753.61 178.45 796.49 182.14 839.36 185.83C856.73 187.32 874.79 189.04 889.69 198.08C904.59 207.13 915.16 225.86 909.12 242.21C902.55 259.97 881.27 266.4 862.88 270.91C831.88 278.5 801.18 287.28 770.84 297.2C758.19 301.34 745.37 305.8 734.7 313.77C725.94 320.31 718.99 328.95 710.83 336.23C702.67 343.51 692.56 349.63 681.63 349.36C662.98 348.9 659.18 328.12 649.12 316.17C635.63 300.14 617.59 288.76 602.5 274.39V274.4Z" stroke="var(--stroke-0, black)" stroke-width="2" stroke-miterlimit="10"/>
<path id="Vector_5" d="M665.62 290.52C661.93 290.87 659.22 287.25 657.32 284.07C646.81 266.51 636.31 248.96 625.8 231.4C624.39 229.05 622.96 226.64 622.42 223.95C621.33 218.5 624.12 212.95 627.85 208.82C656.06 177.57 698.34 210.35 730.15 213.89C743.2 215.34 756.34 212.99 769.23 210.53C780.48 208.38 792.42 206.2 803.14 210.25C811.08 213.26 818.21 221.32 818.44 230.09C818.64 237.71 811.3 243.08 805.75 247C798.56 252.08 791.53 257.15 784.58 262.57C778.43 267.36 772.12 272.25 764.7 274.64C750.46 279.23 733.07 274.42 721.37 283.73" stroke="var(--stroke-0, black)" stroke-width="2" stroke-miterlimit="10"/>
<path id="Vector_6" d="M701.12 259.46C688.96 255.01 677.72 248.04 668.33 239.12C665.48 236.41 662.6 233.02 662.91 229.1C663.52 221.41 674.29 220.16 681.88 221.53C700.82 224.93 719.38 230.39 737.16 237.76C741.83 239.7 746.62 241.91 749.77 245.86C752.92 249.81 753.82 256.01 750.46 259.78C748.54 261.93 745.65 262.92 742.85 263.62C726.35 267.76 708.22 264.92 693.78 255.93" stroke="var(--stroke-0, black)" stroke-width="2" stroke-miterlimit="10"/>
<path id="Vector_7" d="M452.96 821.45C433.69 803.11 418.71 773.96 431.33 750.54C438.93 736.44 454.6 728.61 470.08 724.49C499.6 716.63 530.75 719.19 561.19 721.81C604.07 725.5 646.95 729.19 689.82 732.88C707.19 734.37 725.25 736.09 740.15 745.13C755.05 754.18 765.62 772.91 759.58 789.26C753.01 807.02 731.73 813.45 713.34 817.96C682.34 825.55 651.64 834.33 621.3 844.25C608.65 848.39 595.83 852.85 585.16 860.82C576.4 867.36 569.45 876 561.29 883.28C553.13 890.56 543.02 896.68 532.09 896.41C513.44 895.95 509.64 875.17 499.58 863.22C486.09 847.19 468.05 835.81 452.96 821.44V821.45Z" stroke="var(--stroke-0, black)" stroke-width="2" stroke-miterlimit="10"/>
<path id="Vector_8" d="M787.7 447.36C783.08 440.79 781.99 431.93 778.14 424.36C771.38 411.08 762.38 398.96 756.97 385C752.25 372.81 750.51 359.48 751.95 346.49C752.46 341.93 753.37 337.33 755.52 333.27C762.32 320.43 779.03 316.67 793.54 317.21C808.05 317.75 822.96 321.08 836.85 316.82C852.11 312.14 863.11 299.26 874.63 288.21C887.06 276.29 901.01 265.94 916.02 257.5C928.85 250.28 947.24 245.41 956.5 256.86C962.5 264.28 961.26 275.28 957.57 284.09C953.88 292.89 948.1 300.83 945.56 310.04C940.93 326.82 947.8 344.46 955.3 360.17C961.51 373.19 968.31 386.07 977.53 397.16C998.31 422.16 1038.23 429.92 1050.09 460.18C1054.3 470.92 1052.07 483.47 1041.75 489.89C1035.94 493.51 1032.01 490.62 1026.18 489.81C1022.2 489.26 1017.84 489.73 1013.87 490.12C1004.02 491.1 994.34 494.15 985.81 499.19C977.23 504.26 969.8 511.23 960.85 515.62C938.38 526.65 911.21 519.37 888.87 508.07C874.71 500.91 861.38 492.25 848.08 483.6C836.47 476.05 824.13 469.74 811.93 463.22C805.83 459.96 799.76 456.66 793.82 453.12C791.2 451.56 789.23 449.59 787.67 447.36H787.7Z" stroke="var(--stroke-0, black)" stroke-width="2" stroke-miterlimit="10"/>
<path id="Vector_9" d="M806.26 340.14C820.77 334.4 837.07 333.73 851.04 326.77C868.33 318.16 879.63 301.27 893.11 287.43C898.31 282.09 905.44 276.76 912.56 278.97C919.99 281.27 922.79 290.83 920.92 298.38C919.05 305.93 913.98 312.19 910.13 318.94C897.08 341.86 899.09 372.49 915.03 393.5C921.39 401.88 929.66 408.75 935.42 417.55C941.18 426.35 944.01 438.35 938.42 447.26C932.99 455.92 930.87 466.61 932.58 476.69C933.57 482.48 935.77 488.11 935.76 493.98C935.76 499.85 932.65 506.38 926.93 507.68C919.25 509.43 913.27 501.47 908.77 495.01C894.39 474.4 872.49 459.15 848.16 452.83C837.34 450.02 825.37 448.55 817.29 440.83C813.37 437.08 810.77 432.19 808.24 427.39C791.7 395.99 762.65 361.93 806.25 340.14H806.26Z" stroke="var(--stroke-0, black)" stroke-width="2" stroke-miterlimit="10"/>
<path id="Vector_10" d="M817.96 403.81C826.38 427.54 851.62 440.15 874.62 450.41C885.83 455.41 900.96 459.62 908.74 450.12C915.45 441.93 910.99 429.27 903.88 421.42C896.77 413.57 887.25 407.7 882.17 398.4C877.19 389.28 877.29 378.36 875.41 368.14C873.53 357.92 868.2 346.85 858.14 344.23C850.9 342.35 843.4 345.43 836.55 348.45C826.81 352.74 807.46 356.8 805.96 369.01C805.05 376.43 815.35 396.41 817.97 403.8L817.96 403.81Z" stroke="var(--stroke-0, black)" stroke-width="2" stroke-miterlimit="10"/>
<path id="Vector_11" d="M863.78 426.64C864.36 426.62 864.9 426.42 865.31 425.96C865.85 425.36 865.97 424.51 866.05 423.71C868.05 403.89 859.31 387.23 850.9 369.99C850.41 368.98 849.91 367.96 849.14 367.14C846.12 363.93 839.08 364.66 835.23 365.88C832.17 366.85 827.95 369.17 826.16 371.93C822.28 377.93 829.77 389.32 832.75 394.56C839.63 406.66 848.59 417.96 860.45 425.5C861.43 426.12 862.69 426.68 863.78 426.64Z" stroke="var(--stroke-0, black)" stroke-width="2" stroke-miterlimit="10"/>
<path id="Vector_12" d="M173.21 134.73C173.37 109.55 153.93 89.1 135.81 71.62C126.97 63.1 114.18 53.99 103.63 60.27C94.53 65.69 94.42 79.11 98.43 88.91C102.44 98.71 109.39 107.47 111 117.94C112.58 128.21 108.77 138.44 107.06 148.69C105.35 158.94 106.59 171.17 115.16 177.05C121.33 181.28 129.43 180.94 136.89 180.44C147.51 179.72 167.08 182.49 172.65 171.53C176.03 164.87 173.15 142.57 173.21 134.73Z" stroke="var(--stroke-0, black)" stroke-width="2" stroke-miterlimit="10"/>
<path id="Vector_13" d="M137.9 97.66C137.34 97.49 136.77 97.49 136.23 97.78C135.52 98.16 135.12 98.92 134.77 99.64C126.14 117.59 128.68 136.23 130.72 155.31C130.84 156.42 130.96 157.56 131.41 158.59C133.15 162.63 140.02 164.34 144.06 164.51C147.26 164.64 152.03 163.89 154.64 161.91C160.33 157.59 157.17 144.33 156.15 138.39C153.8 124.67 149.22 110.99 140.64 99.87C139.93 98.95 138.94 98 137.9 97.67V97.66Z" stroke="var(--stroke-0, black)" stroke-width="2" stroke-miterlimit="10"/>
<path id="Vector_14" d="M272.32 347.2C297.09 350.82 315.37 372.2 327.4 394.15C335.02 408.06 341.11 422.75 347.19 437.41C352.49 450.2 359.09 462.38 365.46 474.66C368.64 480.79 371.79 486.95 374.67 493.23C375.94 496 376.45 498.74 376.48 501.46C376.57 509.49 372.45 517.41 371.35 525.84C369.41 540.61 369.97 555.7 366.53 570.27C363.53 582.99 357.42 594.97 348.88 604.86C345.88 608.34 342.52 611.61 338.46 613.74C325.59 620.48 309.69 614.12 298.02 605.47C286.35 596.82 275.95 585.63 262.09 581.28C246.86 576.5 230.5 580.9 214.75 583.49C197.75 586.28 180.4 586.92 163.25 585.39C148.59 584.08 130.67 577.69 129.51 563.01C128.76 553.49 136.01 545.13 144.04 539.96C152.07 534.79 161.33 531.52 168.63 525.36C181.94 514.14 186.26 495.71 188.96 478.52C191.21 464.27 192.88 449.8 191.56 435.44C188.57 403.07 160.04 374.09 167.39 342.42C169.99 331.18 178.94 322.1 191.07 322.64C197.91 322.95 199.51 327.55 203.86 331.51C206.83 334.21 210.69 336.3 214.19 338.22" stroke="var(--stroke-0, black)" stroke-width="2" stroke-miterlimit="10"/>
<path id="Vector_15" d="M300.52 579.37C348.8 586.06 344.12 541.55 348.25 506.3C348.88 500.91 349.51 495.41 348.39 490.1C346.1 479.16 337.06 471.18 329.73 462.74C313.25 443.76 303.82 418.8 303.62 393.67C303.56 385.8 303.13 375.85 295.82 372.95C290.36 370.79 284.11 374.41 280.78 379.25C277.45 384.09 276.08 389.98 273.62 395.31C269.33 404.59 261.54 412.2 252.16 416.27C242.51 420.45 238.06 431.95 237.82 442.46C237.59 452.98 240.53 463.32 241.03 473.83C242.28 500.18 226.62 526.57 202.89 538.08C195.9 541.47 188.17 543.76 182.36 548.93C176.55 554.1 173.45 563.57 178.27 569.67C182.9 575.52 191.78 575.16 199.09 573.7C199.09 573.7 235.37 562.38 254.86 566.81" stroke="var(--stroke-0, black)" stroke-width="2" stroke-miterlimit="10"/>
<g id="Group">
<path id="Vector_16" d="M615.41 653.42H615.36L612.45 654.45L612.29 652.8L615.94 651.52L617.72 651.8L615.34 667.24L613.32 666.93L615.4 653.44L615.41 653.42Z" fill="var(--fill-0, black)"/>
<path id="Vector_17" d="M621.33 666.88C621.47 666 622.16 665.48 622.99 665.6C623.82 665.73 624.3 666.43 624.16 667.31C624.03 668.17 623.38 668.72 622.5 668.59C621.67 668.46 621.2 667.73 621.33 666.88Z" fill="var(--fill-0, black)"/>
<path id="Vector_18" d="M625.89 668.85L626.09 667.57L627.97 666.23C632.49 663.09 634.58 661.37 634.97 659.04C635.21 657.47 634.68 655.91 632.37 655.55C630.97 655.33 629.7 655.87 628.89 656.35L628.45 654.77C629.66 654.03 631.28 653.6 633.06 653.88C636.39 654.39 637.43 656.89 637.09 659.1C636.65 661.95 634.23 663.93 630.49 666.57L629.08 667.52V667.57L636.01 668.64L635.74 670.37L625.88 668.85H625.89Z" fill="var(--fill-0, black)"/>
<path id="Vector_19" d="M649.56 664.44C648.75 669.69 646.35 672.29 642.93 671.76C639.91 671.29 638.31 668.15 639.05 663.04C639.85 657.86 642.52 655.36 645.66 655.84C648.91 656.34 650.32 659.53 649.56 664.44ZM641.14 663.38C640.52 667.39 641.4 669.86 643.3 670.16C645.44 670.49 646.84 668.15 647.45 664.21C648.04 660.41 647.45 657.77 645.29 657.43C643.46 657.15 641.79 659.18 641.14 663.38Z" fill="var(--fill-0, black)"/>
<path id="Vector_20" d="M661.75 666.32C660.94 671.57 658.54 674.17 655.12 673.64C652.1 673.17 650.5 670.03 651.24 664.92C652.04 659.74 654.71 657.24 657.85 657.72C661.1 658.22 662.51 661.41 661.75 666.32ZM653.32 665.26C652.7 669.27 653.58 671.75 655.48 672.04C657.62 672.37 659.02 670.03 659.63 666.09C660.22 662.29 659.63 659.65 657.47 659.31C655.64 659.03 653.97 661.05 653.32 665.26Z" fill="var(--fill-0, black)"/>
</g>
<g id="Group_2">
<path id="Vector_21" d="M247.43 277.75L247.41 277.73L245.54 277.15L246.09 276.25L248.43 276.99L249.23 277.81L242.15 284.75L241.24 283.82L247.43 277.76V277.75Z" fill="var(--fill-0, black)"/>
<path id="Vector_22" d="M245.32 286.84C245.72 286.44 246.27 286.44 246.65 286.82C247.02 287.2 247 287.74 246.59 288.13C246.2 288.51 245.66 288.55 245.26 288.15C244.89 287.77 244.92 287.22 245.32 286.83V286.84Z" fill="var(--fill-0, black)"/>
<path id="Vector_23" d="M246.89 289.58L247.48 289L248.95 289.04C252.44 289.16 254.16 289.08 255.24 288.05C255.96 287.35 256.28 286.35 255.24 285.29C254.61 284.65 253.76 284.43 253.17 284.37L253.55 283.4C254.44 283.49 255.43 283.88 256.23 284.7C257.72 286.23 257.31 287.89 256.29 288.89C254.98 290.17 253 290.26 250.09 290.17L249.01 290.12L248.99 290.14L252.11 293.32L251.31 294.1L246.88 289.58H246.89Z" fill="var(--fill-0, black)"/>
<path id="Vector_24" d="M260.6 296.34C258.19 298.7 255.99 299.11 254.45 297.54C253.09 296.16 253.47 293.95 255.79 291.63C258.17 289.3 260.48 289.05 261.89 290.48C263.35 291.97 262.86 294.13 260.6 296.34ZM256.72 292.59C254.88 294.4 254.39 295.99 255.24 296.86C256.2 297.84 257.8 297.19 259.61 295.42C261.35 293.71 262.06 292.14 261.09 291.15C260.27 290.31 258.65 290.7 256.72 292.59Z" fill="var(--fill-0, black)"/>
<path id="Vector_25" d="M266.08 301.93C263.67 304.29 261.47 304.7 259.93 303.13C258.57 301.75 258.95 299.54 261.27 297.22C263.65 294.89 265.96 294.64 267.37 296.07C268.83 297.56 268.34 299.72 266.08 301.93ZM262.2 298.19C260.36 299.99 259.87 301.59 260.72 302.46C261.68 303.44 263.28 302.79 265.09 301.02C266.83 299.31 267.54 297.74 266.57 296.75C265.75 295.91 264.13 296.3 262.2 298.19Z" fill="var(--fill-0, black)"/>
</g>
<g id="Group_3">
<path id="Vector_26" d="M677.15 435.79H677.12L674.95 435.91L675.17 434.76L677.88 434.6L679.03 435.13L674.41 445.09L673.11 444.49L677.14 435.78L677.15 435.79Z" fill="var(--fill-0, black)"/>
<path id="Vector_27" d="M678.52 446.03C678.78 445.46 679.35 445.24 679.89 445.49C680.43 445.74 680.61 446.31 680.35 446.87C680.09 447.42 679.55 447.67 678.98 447.41C678.44 447.16 678.27 446.58 678.52 446.03Z" fill="var(--fill-0, black)"/>
<path id="Vector_28" d="M685.38 450.18L686.64 447.47L682.01 445.32L682.42 444.43L689.81 440.13L691.27 440.8L688.4 446.99L689.79 447.64L689.3 448.7L687.91 448.05L686.65 450.76L685.38 450.17V450.18ZM687.13 446.41L688.67 443.08C688.91 442.56 689.17 442.05 689.44 441.54L689.39 441.52C688.81 441.96 688.37 442.28 687.88 442.61L683.87 444.87V444.9L687.12 446.41H687.13Z" fill="var(--fill-0, black)"/>
<path id="Vector_29" d="M698.06 449.87C696.49 453.26 694.36 454.54 692.16 453.52C690.21 452.62 689.74 450.18 691.24 446.87C692.79 443.53 695.08 442.36 697.1 443.3C699.2 444.27 699.53 446.7 698.06 449.87ZM692.57 447.52C691.37 450.11 691.49 451.95 692.71 452.52C694.09 453.16 695.5 451.86 696.67 449.31C697.81 446.86 697.93 444.96 696.53 444.31C695.35 443.76 693.82 444.81 692.57 447.52Z" fill="var(--fill-0, black)"/>
<path id="Vector_30" d="M705.92 453.52C704.35 456.91 702.23 458.19 700.02 457.17C698.07 456.27 697.6 453.83 699.1 450.52C700.65 447.18 702.94 446.01 704.97 446.95C707.07 447.92 707.4 450.35 705.93 453.52H705.92ZM700.43 451.16C699.23 453.75 699.34 455.59 700.57 456.16C701.95 456.8 703.35 455.5 704.53 452.95C705.67 450.5 705.78 448.6 704.39 447.95C703.21 447.4 701.68 448.45 700.43 451.16Z" fill="var(--fill-0, black)"/>
</g>
<g id="Group_4">
<path id="Vector_31" d="M228.29 335.1H228.26L226.17 335.67L226.14 334.5L228.76 333.79L229.99 334.07L227.53 344.77L226.13 344.45L228.28 335.1H228.29Z" fill="var(--fill-0, black)"/>
<path id="Vector_32" d="M231.76 344.84C231.9 344.23 232.41 343.9 232.99 344.03C233.57 344.16 233.86 344.68 233.72 345.29C233.58 345.88 233.1 346.24 232.49 346.1C231.91 345.97 231.62 345.43 231.76 344.84Z" fill="var(--fill-0, black)"/>
<path id="Vector_33" d="M239.33 347.48L240 344.57L235.03 343.43L235.25 342.47L241.59 336.73L243.15 337.09L241.62 343.74L243.12 344.08L242.86 345.22L241.36 344.88L240.69 347.79L239.32 347.48H239.33ZM240.26 343.43L241.08 339.86C241.21 339.3 241.35 338.75 241.52 338.19H241.47C241 338.73 240.63 339.13 240.22 339.56L236.77 342.6V342.63L240.27 343.43H240.26Z" fill="var(--fill-0, black)"/>
<path id="Vector_34" d="M251.66 344.56C250.82 348.2 249.01 349.9 246.64 349.35C244.55 348.87 243.58 346.59 244.36 343.04C245.18 339.45 247.18 337.83 249.36 338.33C251.62 338.85 252.44 341.15 251.66 344.56ZM245.81 343.39C245.17 346.17 245.67 347.95 246.98 348.25C248.46 348.59 249.57 347.02 250.19 344.29C250.79 341.66 250.52 339.77 249.02 339.43C247.75 339.14 246.47 340.48 245.81 343.39Z" fill="var(--fill-0, black)"/>
<path id="Vector_35" d="M260.11 346.49C259.28 350.13 257.46 351.83 255.1 351.28C253.01 350.8 252.04 348.52 252.82 344.97C253.64 341.38 255.64 339.76 257.82 340.26C260.07 340.78 260.9 343.08 260.12 346.49H260.11ZM254.26 345.33C253.62 348.11 254.11 349.89 255.43 350.19C256.91 350.53 258.02 348.96 258.64 346.23C259.24 343.6 258.97 341.71 257.47 341.37C256.2 341.08 254.93 342.42 254.26 345.33Z" fill="var(--fill-0, black)"/>
</g>
<g id="Group_5">
<path id="Vector_36" d="M679.03 281.26H679L677.03 282.16L676.82 281.01L679.3 279.89L680.56 279.98L679.82 290.93L678.39 290.83L679.04 281.26H679.03Z" fill="var(--fill-0, black)"/>
<path id="Vector_37" d="M683.98 290.33C684.02 289.71 684.47 289.3 685.06 289.34C685.65 289.38 686.03 289.85 685.98 290.47C685.94 291.08 685.52 291.51 684.9 291.46C684.31 291.42 683.94 290.94 683.98 290.33Z" fill="var(--fill-0, black)"/>
<path id="Vector_38" d="M694.49 282.18L690.31 281.9L689.7 284.69C689.95 284.67 690.19 284.66 690.6 284.69C691.44 284.75 692.27 284.99 692.92 285.44C693.75 285.99 694.39 286.98 694.3 288.36C694.15 290.5 692.34 291.99 689.97 291.82C688.77 291.74 687.79 291.33 687.29 290.96L687.74 289.86C688.18 290.16 689.05 290.56 690.04 290.63C691.44 290.72 692.7 289.9 692.8 288.43C692.88 287.01 692.01 285.94 689.81 285.79C689.19 285.75 688.69 285.79 688.28 285.8L689.35 280.59L694.59 280.95L694.51 282.2L694.49 282.18Z" fill="var(--fill-0, black)"/>
<path id="Vector_39" d="M702.86 282.54C702.56 282.5 702.17 282.49 701.74 282.54C699.39 282.77 698.04 284.39 697.67 286.17H697.72C698.29 285.52 699.24 285.01 700.45 285.09C702.39 285.22 703.66 286.71 703.51 288.85C703.37 290.85 701.88 292.62 699.61 292.46C697.27 292.3 695.86 290.38 696.05 287.53C696.2 285.37 697.09 283.72 698.24 282.72C699.21 281.89 700.46 281.41 701.86 281.34C702.3 281.3 702.67 281.31 702.94 281.33L702.86 282.54ZM702.01 288.83C702.12 287.26 701.29 286.26 699.92 286.16C699.03 286.1 698.16 286.6 697.71 287.36C697.6 287.52 697.51 287.74 697.5 288.01C697.41 289.82 698.15 291.2 699.7 291.31C700.98 291.4 701.91 290.39 702.02 288.83H702.01Z" fill="var(--fill-0, black)"/>
<path id="Vector_40" d="M712.24 287.51C711.99 291.23 710.46 293.2 708.04 293.03C705.9 292.88 704.59 290.78 704.8 287.15C705.05 283.48 706.77 281.56 709 281.71C711.31 281.87 712.48 284.01 712.25 287.5L712.24 287.51ZM706.28 287.28C706.09 290.13 706.85 291.81 708.2 291.9C709.72 292 710.56 290.28 710.75 287.48C710.93 284.78 710.36 282.97 708.83 282.86C707.53 282.77 706.48 284.29 706.28 287.27V287.28Z" fill="var(--fill-0, black)"/>
</g>
<g id="Group_6">
<path id="Vector_41" d="M263.1 561.09H263.07L260.95 561.54L260.99 560.37L263.65 559.8L264.87 560.15L261.82 570.7L260.44 570.3L263.1 561.08V561.09Z" fill="var(--fill-0, black)"/>
<path id="Vector_42" d="M266.02 571.01C266.19 570.41 266.72 570.1 267.29 570.27C267.86 570.43 268.13 570.97 267.95 571.57C267.78 572.15 267.28 572.49 266.68 572.31C266.11 572.15 265.85 571.6 266.02 571.01Z" fill="var(--fill-0, black)"/>
<path id="Vector_43" d="M278.02 565.26L274 564.1L272.81 566.69C273.06 566.73 273.3 566.76 273.69 566.87C274.5 567.1 275.26 567.52 275.8 568.09C276.49 568.8 276.91 569.91 276.53 571.24C275.93 573.3 273.85 574.37 271.56 573.71C270.41 573.38 269.53 572.77 269.12 572.3L269.79 571.32C270.15 571.71 270.92 572.28 271.88 572.56C273.23 572.95 274.63 572.41 275.04 570.99C275.42 569.62 274.79 568.39 272.68 567.78C272.08 567.61 271.59 567.54 271.19 567.47L273.33 562.6L278.38 564.06L278.03 565.26H278.02Z" fill="var(--fill-0, black)"/>
<path id="Vector_44" d="M286.12 567.39C285.83 567.29 285.45 567.2 285.03 567.15C282.68 566.88 281.02 568.17 280.28 569.84H280.33C281.03 569.33 282.06 569.04 283.23 569.37C285.1 569.91 286.02 571.63 285.43 573.7C284.87 575.63 283.04 577.04 280.85 576.4C278.59 575.75 277.62 573.57 278.42 570.83C279.02 568.75 280.24 567.33 281.58 566.59C282.71 565.98 284.03 565.78 285.41 566.01C285.85 566.07 286.21 566.15 286.47 566.23L286.13 567.4L286.12 567.39ZM283.96 573.36C284.4 571.85 283.8 570.69 282.48 570.31C281.62 570.06 280.67 570.37 280.06 571.02C279.92 571.15 279.79 571.35 279.71 571.61C279.24 573.36 279.67 574.87 281.16 575.3C282.39 575.66 283.52 574.87 283.95 573.36H283.96Z" fill="var(--fill-0, black)"/>
<path id="Vector_45" d="M294.24 574.23C293.2 577.82 291.3 579.41 288.97 578.74C286.91 578.14 286.07 575.81 287.05 572.31C288.07 568.77 290.16 567.27 292.3 567.88C294.52 568.52 295.22 570.87 294.25 574.23H294.24ZM288.46 572.74C287.67 575.48 288.06 577.28 289.36 577.66C290.82 578.08 292.01 576.58 292.79 573.89C293.54 571.29 293.37 569.4 291.89 568.97C290.64 568.61 289.29 569.87 288.46 572.74Z" fill="var(--fill-0, black)"/>
</g>
<path id="Vector_46" d="M234.3 273.01C223.6 244.71 201.01 221.13 173.19 209.22C151.98 200.15 123.46 199.64 109.78 218.21C105.8 223.61 103.53 230.1 102.09 236.66C92.68 279.62 117.1 321.85 126.61 364.79C137.52 414.06 127.91 467.55 100.53 509.94C86.86 531.1 68.79 550 60.75 573.87C54.8 591.53 71.79 609.79 89.97 613.86C108.15 617.93 126.94 612.76 145.47 610.83C192.51 605.93 241.4 623.37 274.73 656.93C285.17 667.44 294.17 679.44 305.77 688.66C317.36 697.88 332.55 704.17 346.94 700.68C363.6 696.64 374.6 681 382.5 665.79C406.62 619.35 416.41 565.6 410.21 513.64C403.11 454.13 372.4 322.81 295.43 319.31C295.43 319.31 281.45 321.36 271.7 309.84" stroke="var(--stroke-0, black)" stroke-width="2" stroke-miterlimit="10"/>
<path id="Vector_47" d="M303.3 302.37C297.38 298.45 291.39 294.48 286.6 289.23C272.71 274.03 271.44 251.63 268.49 231.25C258.62 163.15 220.88 99.5 165.85 58.18C141.59 39.96 108.13 25.9 81.77 40.93C53.81 56.87 50.35 95.71 54.88 127.58C59.41 159.44 68.15 193.79 53.37 222.38C44.74 239.08 29.27 251 17.11 265.35C4.95 279.69 -4.21 299.7 3.11 317.02C4.35 319.96 6.03 322.7 7.92 325.27C27.13 351.54 65.67 359.19 82.3 387.17C93.83 406.56 91.76 431.42 83.93 452.57C76.1 473.72 63.16 492.55 53.11 512.74C23.32 572.59 20 641.67 17.24 708.47C16.96 715.28 16.77 722.5 20.17 728.41C28.98 743.76 52.06 738.69 68.29 731.63C80.77 726.19 93.25 720.76 105.72 715.32C116.32 710.7 127.81 705.98 139.11 708.45C152.86 711.45 162.01 723.98 170.84 734.93C190.62 759.46 215.03 780.25 242.41 795.85C259.85 805.79 279 813.76 299.06 814.52C319.12 815.28 340.27 807.81 352.31 791.75C357.2 785.23 360.4 777.63 363.56 770.11C379.76 731.58 395.95 693.06 412.15 654.53C423.93 626.51 431.3 596.65 433.93 566.38C435.71 545.89 435.31 525.25 433.29 504.78C429.4 465.38 421.29 417.42 401.06 382.49C380.31 346.66 336.54 324.37 303.29 302.37H303.3Z" stroke="var(--stroke-0, black)" stroke-width="2" stroke-miterlimit="10"/>
<path id="Vector_48" d="M530.14 837.05C535.12 837.97 543.15 828.91 546.88 823.72C552.64 815.7 561.57 810.56 571.4 809.63C583.17 808.52 594.34 808.46 605.5 808.4C622.16 810.32 636.9 804.17 663.3 793.16C689.7 782.15 716.1 771.13 699.48 760.89C678.03 763.89 659.35 769.56 640.68 775.24C627.45 780.99 613.8 782.12 602.63 782.05C596.74 782.01 590.9 781.27 585.1 780.24C574.62 778.38 564.63 781.44 554.69 784.48C532.54 791.25 493.51 751.41 486.42 772.67C484.7 777.84 500.01 789.21 498.23 809.29C496.87 824.74 509.83 833.31 530.13 837.05H530.14Z" stroke="var(--stroke-0, black)" stroke-width="2" stroke-miterlimit="10"/>
</g>
<defs>
<clipPath id="clip0_0_4">
<rect width="1269.9" height="896.92" fill="white"/>
</clipPath>
</defs>
</svg>
