<svg preserveAspectRatio="none" width="100%" height="100%" overflow="visible" style="display: block;" viewBox="0 0 685.99 1318.5" fill="none" xmlns="http://www.w3.org/2000/svg">
<g id="Livello_1" clip-path="url(#clip0_0_4)">
<g id="Group">
<path id="Vector" d="M312.37 1092.17L305.51 1089.76L307.92 1082.9L303.84 1081.47L301.43 1088.32L294.57 1085.91L293.14 1089.99L299.99 1092.4L297.58 1099.26L301.66 1100.7L304.07 1093.84L310.93 1096.26L312.37 1092.17Z" fill="var(--fill-0, black)"/>
<path id="Vector_2" d="M284.56 1082.63L277.64 1080.4L279.88 1073.48L275.76 1072.15L273.52 1079.07L266.61 1076.83L265.28 1080.95L272.19 1083.19L269.96 1090.1L274.08 1091.43L276.31 1084.52L283.23 1086.75L284.56 1082.63Z" fill="var(--fill-0, black)"/>
<path id="Vector_3" d="M256.34 1073.84L249.24 1072.26L250.82 1065.16L246.6 1064.22L245.02 1071.32L237.92 1069.74L236.98 1073.96L244.08 1075.54L242.5 1082.63L246.72 1083.58L248.3 1076.48L255.4 1078.06L256.34 1073.84Z" fill="var(--fill-0, black)"/>
<path id="Vector_4" d="M227.94 1067.8L221.16 1065.16L223.8 1058.39L219.77 1056.82L217.13 1063.59L210.36 1060.95L208.79 1064.98L215.56 1067.62L212.92 1074.4L216.95 1075.97L219.59 1069.2L226.36 1071.83L227.94 1067.8Z" fill="var(--fill-0, black)"/>
<path id="Vector_5" d="M202.14 1055.69L196.41 1051.22L200.87 1045.49L197.46 1042.83L192.99 1048.56L187.26 1044.09L184.6 1047.51L190.33 1051.98L185.87 1057.71L189.28 1060.37L193.75 1054.63L199.48 1059.1L202.14 1055.69Z" fill="var(--fill-0, black)"/>
<path id="Vector_6" d="M180.95 1036.4L176.77 1030.46L182.71 1026.27L180.21 1022.74L174.27 1026.93L170.08 1020.99L166.55 1023.48L170.74 1029.42L164.8 1033.61L167.29 1037.15L173.23 1032.96L177.42 1038.9L180.95 1036.4Z" fill="var(--fill-0, black)"/>
<path id="Vector_7" d="M165.84 1012.05L163.61 1005.13L170.53 1002.9L169.21 998.78L162.29 1001.01L160.06 994.09L155.94 995.41L158.17 1002.33L151.25 1004.55L152.57 1008.67L159.49 1006.45L161.72 1013.37L165.84 1012.05Z" fill="var(--fill-0, black)"/>
<path id="Vector_8" d="M160.87 985.08L164.01 978.52L170.57 981.66L172.43 977.75L165.88 974.62L169.01 968.06L165.11 966.19L161.97 972.75L155.41 969.62L153.55 973.52L160.1 976.66L156.97 983.21L160.87 985.08Z" fill="var(--fill-0, black)"/>
<path id="Vector_9" d="M174.61 957.47L174.44 950.21L181.7 950.03L181.6 945.7L174.33 945.88L174.15 938.61L169.83 938.72L170 945.98L162.74 946.16L162.84 950.49L170.11 950.31L170.29 957.58L174.61 957.47Z" fill="var(--fill-0, black)"/>
<path id="Vector_10" d="M169.22 928.36L165.03 922.42L170.97 918.23L168.48 914.69L162.54 918.88L158.35 912.93L154.82 915.43L159 921.37L153.06 925.55L155.55 929.09L161.49 924.91L165.68 930.85L169.22 928.36Z" fill="var(--fill-0, black)"/>
<path id="Vector_11" d="M150.57 906.14L148.61 899.14L155.61 897.18L154.45 893.02L147.45 894.98L145.49 887.98L141.32 889.14L143.28 896.14L136.28 898.1L137.45 902.27L144.45 900.31L146.4 907.31L150.57 906.14Z" fill="var(--fill-0, black)"/>
<path id="Vector_12" d="M142.69 878.6L143.13 871.35L150.39 871.79L150.65 867.47L143.4 867.03L143.84 859.77L139.52 859.51L139.08 866.77L131.82 866.33L131.56 870.64L138.81 871.09L138.37 878.34L142.69 878.6Z" fill="var(--fill-0, black)"/>
<path id="Vector_13" d="M146.33 850.75L149.66 844.29L156.12 847.63L158.1 843.78L151.65 840.45L154.98 833.99L151.14 832L147.8 838.46L141.34 835.13L139.36 838.97L145.82 842.31L142.48 848.76L146.33 850.75Z" fill="var(--fill-0, black)"/>
<path id="Vector_14" d="M159.7 823L159.11 815.75L166.35 815.16L166 810.85L158.76 811.44L158.17 804.2L153.85 804.55L154.44 811.79L147.2 812.38L147.55 816.7L154.8 816.11L155.39 823.35L159.7 823Z" fill="var(--fill-0, black)"/>
<path id="Vector_15" d="M156.72 793.61L155.41 786.46L162.56 785.15L161.78 780.89L154.63 782.21L153.32 775.06L149.06 775.84L150.37 782.99L143.22 784.3L144 788.55L151.15 787.24L152.46 794.39L156.72 793.61Z" fill="var(--fill-0, black)"/>
<path id="Vector_16" d="M151.95 764.78L151.02 757.57L158.23 756.64L157.68 752.35L150.47 753.28L149.54 746.07L145.25 746.63L146.18 753.84L138.97 754.77L139.52 759.06L146.73 758.13L147.66 765.34L151.95 764.78Z" fill="var(--fill-0, black)"/>
<path id="Vector_17" d="M150.3 735.99L150.68 728.73L157.94 729.11L158.16 724.79L150.91 724.41L151.28 717.15L146.96 716.92L146.58 724.18L139.32 723.8L139.1 728.13L146.36 728.5L145.98 735.76L150.3 735.99Z" fill="var(--fill-0, black)"/>
<path id="Vector_18" d="M155.79 708.25L158.45 701.48L165.21 704.14L166.79 700.11L160.03 697.45L162.68 690.69L158.65 689.11L156 695.87L149.23 693.22L147.65 697.25L154.42 699.9L151.76 706.67L155.79 708.25Z" fill="var(--fill-0, black)"/>
<path id="Vector_19" d="M170.71 684.65L175.77 679.42L180.99 684.48L184 681.37L178.78 676.31L183.83 671.09L180.72 668.08L175.67 673.3L170.44 668.25L167.43 671.36L172.66 676.41L167.6 681.64L170.71 684.65Z" fill="var(--fill-0, black)"/>
<path id="Vector_20" d="M193.34 667.59L199.99 664.65L202.93 671.29L206.89 669.54L203.95 662.89L210.59 659.95L208.84 655.99L202.19 658.94L199.25 652.29L195.29 654.04L198.24 660.69L191.59 663.63L193.34 667.59Z" fill="var(--fill-0, black)"/>
<path id="Vector_21" d="M220.44 657.06L227.4 654.95L229.5 661.91L233.64 660.66L231.54 653.7L238.5 651.6L237.25 647.46L230.29 649.56L228.19 642.6L224.04 643.85L226.15 650.81L219.19 652.91L220.44 657.06Z" fill="var(--fill-0, black)"/>
<path id="Vector_22" d="M248.65 649.33L255.69 647.51L257.51 654.55L261.7 653.46L259.88 646.43L266.92 644.61L265.83 640.42L258.8 642.24L256.98 635.2L252.79 636.28L254.61 643.32L247.57 645.14L248.65 649.33Z" fill="var(--fill-0, black)"/>
<path id="Vector_23" d="M277.21 642.17L284.16 640.05L286.28 647L290.42 645.74L288.3 638.78L295.25 636.66L293.99 632.52L287.03 634.64L284.91 627.69L280.77 628.96L282.89 635.91L275.94 638.03L277.21 642.17Z" fill="var(--fill-0, black)"/>
<path id="Vector_24" d="M305.71 632.71L311.69 628.57L315.83 634.55L319.39 632.09L315.25 626.11L321.23 621.98L318.77 618.42L312.79 622.55L308.66 616.57L305.1 619.03L309.23 625.01L303.25 629.15L305.71 632.71Z" fill="var(--fill-0, black)"/>
<path id="Vector_25" d="M327.52 612.58L331.35 606.41L337.53 610.24L339.81 606.56L333.64 602.73L337.47 596.55L333.79 594.27L329.96 600.45L323.78 596.62L321.5 600.3L327.68 604.13L323.85 610.3L327.52 612.58Z" fill="var(--fill-0, black)"/>
<path id="Vector_26" d="M342.28 586.89L345.08 580.18L351.78 582.99L353.45 579L346.75 576.19L349.55 569.49L345.56 567.82L342.75 574.52L336.05 571.72L334.38 575.71L341.09 578.52L338.28 585.22L342.28 586.89Z" fill="var(--fill-0, black)"/>
<path id="Vector_27" d="M353.83 559.83L356.39 553.02L363.19 555.59L364.72 551.53L357.91 548.97L360.48 542.17L356.42 540.65L353.86 547.45L347.06 544.89L345.54 548.94L352.34 551.5L349.78 558.3L353.83 559.83Z" fill="var(--fill-0, black)"/>
<path id="Vector_28" d="M364.17 532.36L366.73 525.56L373.53 528.12L375.05 524.07L368.25 521.51L370.81 514.71L366.76 513.18L364.2 519.99L357.4 517.43L355.88 521.48L362.68 524.04L360.12 530.84L364.17 532.36Z" fill="var(--fill-0, black)"/>
<path id="Vector_29" d="M374.64 505.05L377.46 498.35L384.16 501.16L385.84 497.18L379.14 494.36L381.96 487.66L377.97 485.98L375.15 492.68L368.45 489.86L366.78 493.85L373.48 496.67L370.66 503.37L374.64 505.05Z" fill="var(--fill-0, black)"/>
<path id="Vector_30" d="M386.03 478L388.85 471.3L395.55 474.12L397.22 470.13L390.52 467.31L393.34 460.61L389.35 458.93L386.54 465.63L379.84 462.81L378.16 466.8L384.86 469.62L382.04 476.32L386.03 478Z" fill="var(--fill-0, black)"/>
<path id="Vector_31" d="M397.49 451L400.36 444.32L407.04 447.19L408.75 443.22L402.07 440.35L404.94 433.67L400.96 431.96L398.09 438.64L391.41 435.77L389.71 439.75L396.38 442.62L393.52 449.3L397.49 451Z" fill="var(--fill-0, black)"/>
<path id="Vector_32" d="M408.93 423.88L411.5 417.08L418.3 419.66L419.83 415.61L413.04 413.04L415.61 406.24L411.57 404.71L408.99 411.5L402.19 408.93L400.66 412.97L407.46 415.55L404.88 422.35L408.93 423.88Z" fill="var(--fill-0, black)"/>
<path id="Vector_33" d="M419.33 396.44L421.9 389.64L428.7 392.22L430.24 388.17L423.44 385.6L426.01 378.8L421.97 377.27L419.39 384.06L412.6 381.49L411.06 385.53L417.86 388.11L415.28 394.91L419.33 396.44Z" fill="var(--fill-0, black)"/>
<path id="Vector_34" d="M429.28 368.78L431.67 361.91L438.54 364.31L439.96 360.22L433.1 357.83L435.49 350.96L431.41 349.54L429.01 356.4L422.15 354.01L420.72 358.1L427.59 360.49L425.2 367.35L429.28 368.78Z" fill="var(--fill-0, black)"/>
<path id="Vector_35" d="M438.95 341.02L441.2 334.11L448.11 336.37L449.46 332.26L442.55 330L444.8 323.09L440.69 321.75L438.43 328.66L431.52 326.4L430.18 330.52L437.09 332.77L434.84 339.68L438.95 341.02Z" fill="var(--fill-0, black)"/>
<path id="Vector_36" d="M448.05 313.13L450.31 306.22L457.22 308.47L458.56 304.36L451.65 302.1L453.91 295.19L449.79 293.85L447.54 300.76L440.63 298.51L439.28 302.62L446.19 304.87L443.94 311.78L448.05 313.13Z" fill="var(--fill-0, black)"/>
<path id="Vector_37" d="M456.96 285.13L459.09 278.18L466.04 280.31L467.3 276.17L460.35 274.04L462.48 267.09L458.35 265.82L456.22 272.77L449.27 270.64L448 274.78L454.95 276.91L452.82 283.86L456.96 285.13Z" fill="var(--fill-0, black)"/>
<path id="Vector_38" d="M465.57 257.03L467.55 250.03L474.55 252.01L475.73 247.85L468.73 245.87L470.71 238.88L466.55 237.7L464.57 244.69L457.58 242.71L456.4 246.87L463.39 248.85L461.41 255.85L465.57 257.03Z" fill="var(--fill-0, black)"/>
<path id="Vector_39" d="M473.34 228.84L475.68 221.96L482.56 224.3L483.95 220.2L477.07 217.86L479.42 210.98L475.32 209.59L472.98 216.47L466.1 214.12L464.7 218.22L471.58 220.56L469.24 227.44L473.34 228.84Z" fill="var(--fill-0, black)"/>
<path id="Vector_40" d="M482.8 201.06L485.14 194.18L492.02 196.52L493.42 192.43L486.54 190.08L488.88 183.2L484.78 181.81L482.44 188.69L475.56 186.34L474.16 190.44L481.04 192.78L478.7 199.66L482.8 201.06Z" fill="var(--fill-0, black)"/>
<path id="Vector_41" d="M494.1 174.33L497.28 167.8L503.82 170.98L505.71 167.09L499.18 163.91L502.36 157.38L498.47 155.48L495.29 162.01L488.75 158.83L486.86 162.72L493.39 165.9L490.21 172.44L494.1 174.33Z" fill="var(--fill-0, black)"/>
<path id="Vector_42" d="M508.11 149.03L512.43 143.18L518.27 147.51L520.85 144.03L515.01 139.7L519.33 133.86L515.85 131.29L511.53 137.13L505.68 132.81L503.11 136.29L508.95 140.61L504.63 146.45L508.11 149.03Z" fill="var(--fill-0, black)"/>
</g>
<g id="Group_2">
<path id="Vector_43" d="M477.29 638.76L476.64 631.52L483.88 630.87L483.49 626.56L476.25 627.21L475.6 619.98L471.29 620.36L471.94 627.6L464.7 628.26L465.09 632.57L472.33 631.91L472.98 639.15L477.29 638.76Z" fill="var(--fill-0, black)"/>
<path id="Vector_44" d="M475.46 609.95L476.19 602.72L483.42 603.45L483.85 599.14L476.62 598.41L477.34 591.18L473.04 590.75L472.31 597.98L465.08 597.26L464.65 601.56L471.88 602.29L471.15 609.52L475.46 609.95Z" fill="var(--fill-0, black)"/>
<path id="Vector_45" d="M478.76 580.88L479.77 573.68L486.97 574.69L487.56 570.4L480.37 569.4L481.37 562.2L477.09 561.6L476.08 568.8L468.88 567.79L468.28 572.08L475.48 573.09L474.48 580.28L478.76 580.88Z" fill="var(--fill-0, black)"/>
<path id="Vector_46" d="M482.29 551.67L482.99 544.43L490.23 545.13L490.64 540.82L483.41 540.12L484.11 532.89L479.8 532.47L479.1 539.71L471.87 539.01L471.45 543.31L478.68 544.01L477.98 551.25L482.29 551.67Z" fill="var(--fill-0, black)"/>
<path id="Vector_47" d="M481.98 522.03L481.34 514.79L488.58 514.16L488.2 509.84L480.96 510.48L480.33 503.24L476.01 503.62L476.65 510.86L469.41 511.5L469.79 515.81L477.03 515.17L477.67 522.42L481.98 522.03Z" fill="var(--fill-0, black)"/>
<path id="Vector_48" d="M479.78 493.48L481.32 486.38L488.43 487.92L489.34 483.69L482.24 482.15L483.78 475.04L479.55 474.13L478.01 481.23L470.91 479.69L469.99 483.92L477.1 485.46L475.55 492.56L479.78 493.48Z" fill="var(--fill-0, black)"/>
<path id="Vector_49" d="M485.24 465.04L488.26 458.42L494.87 461.44L496.67 457.51L490.06 454.49L493.07 447.87L489.14 446.08L486.12 452.69L479.51 449.67L477.71 453.61L484.32 456.63L481.3 463.24L485.24 465.04Z" fill="var(--fill-0, black)"/>
<path id="Vector_50" d="M497.43 438.34L500.44 431.73L507.06 434.75L508.85 430.81L502.24 427.79L505.26 421.18L501.32 419.38L498.31 426L491.69 422.98L489.9 426.91L496.51 429.93L493.49 436.54L497.43 438.34Z" fill="var(--fill-0, black)"/>
<path id="Vector_51" d="M508.91 411.22L511.58 404.46L518.34 407.13L519.93 403.1L513.16 400.44L515.83 393.68L511.81 392.09L509.14 398.85L502.38 396.18L500.79 400.21L507.55 402.88L504.88 409.64L508.91 411.22Z" fill="var(--fill-0, black)"/>
<path id="Vector_52" d="M516.73 382.63L517.79 375.44L524.98 376.5L525.62 372.22L518.43 371.16L519.49 363.96L515.2 363.33L514.14 370.52L506.95 369.46L506.32 373.75L513.51 374.81L512.45 382L516.73 382.63Z" fill="var(--fill-0, black)"/>
<path id="Vector_53" d="M519.12 353.16L519.23 345.89L526.5 346L526.57 341.68L519.3 341.56L519.41 334.29L515.09 334.23L514.97 341.49L507.71 341.38L507.64 345.71L514.9 345.82L514.79 353.09L519.12 353.16Z" fill="var(--fill-0, black)"/>
<path id="Vector_54" d="M520.18 324.56L522.39 317.63L529.31 319.84L530.63 315.71L523.7 313.51L525.91 306.58L521.78 305.27L519.58 312.19L512.65 309.99L511.34 314.11L518.27 316.32L516.06 323.24L520.18 324.56Z" fill="var(--fill-0, black)"/>
<path id="Vector_55" d="M532.07 298.37L535.72 292.08L542.01 295.73L544.18 291.98L537.89 288.34L541.53 282.05L537.79 279.88L534.14 286.17L527.85 282.52L525.68 286.27L531.97 289.91L528.33 296.2L532.07 298.37Z" fill="var(--fill-0, black)"/>
<path id="Vector_56" d="M546.79 267.74L540.89 263.49L545.13 257.59L541.62 255.07L537.38 260.97L531.47 256.72L528.95 260.24L534.85 264.48L530.61 270.38L534.12 272.91L538.36 267.01L544.27 271.25L546.79 267.74Z" fill="var(--fill-0, black)"/>
<path id="Vector_57" d="M525.54 249.22L522.62 242.56L529.28 239.64L527.54 235.68L520.88 238.6L517.96 231.94L514 233.68L516.92 240.34L510.26 243.26L512 247.22L518.66 244.3L521.58 250.96L525.54 249.22Z" fill="var(--fill-0, black)"/>
<path id="Vector_58" d="M518.26 222.19L518.73 214.93L525.98 215.4L526.26 211.09L519.01 210.61L519.48 203.36L515.16 203.08L514.69 210.33L507.44 209.86L507.16 214.18L514.41 214.65L513.94 221.91L518.26 222.19Z" fill="var(--fill-0, black)"/>
<path id="Vector_59" d="M519.6 192.76L519.66 185.49L526.93 185.55L526.96 181.23L519.7 181.16L519.76 173.9L515.43 173.86L515.37 181.13L508.1 181.07L508.06 185.39L515.33 185.46L515.27 192.72L519.6 192.76Z" fill="var(--fill-0, black)"/>
<path id="Vector_60" d="M515.94 162.65L512.68 156.16L519.18 152.9L517.24 149.03L510.75 152.29L507.49 145.79L503.62 147.73L506.88 154.23L500.38 157.48L502.32 161.35L508.82 158.09L512.07 164.59L515.94 162.65Z" fill="var(--fill-0, black)"/>
<path id="Vector_61" d="M502.63 136.22L498.63 130.15L504.69 126.15L502.31 122.53L496.24 126.54L492.24 120.47L488.63 122.86L492.63 128.92L486.57 132.93L488.95 136.54L495.02 132.53L499.02 138.6L502.63 136.22Z" fill="var(--fill-0, black)"/>
<path id="Vector_62" d="M485.8 111.83L481.02 106.35L486.5 101.57L483.65 98.31L478.18 103.09L473.39 97.62L470.13 100.46L474.92 105.94L469.44 110.72L472.29 113.98L477.76 109.2L482.54 114.67L485.8 111.83Z" fill="var(--fill-0, black)"/>
</g>
<g id="Group_3">
<path id="Vector_63" d="M644.91 1029.67C647.666 1029.67 649.9 1027.44 649.9 1024.68C649.9 1021.92 647.666 1019.69 644.91 1019.69C642.154 1019.69 639.92 1021.92 639.92 1024.68C639.92 1027.44 642.154 1029.67 644.91 1029.67Z" fill="var(--fill-0, black)"/>
<path id="Vector_64" d="M629.18 1026.17C631.936 1026.17 634.17 1023.94 634.17 1021.18C634.17 1018.42 631.936 1016.19 629.18 1016.19C626.424 1016.19 624.19 1018.42 624.19 1021.18C624.19 1023.94 626.424 1026.17 629.18 1026.17Z" fill="var(--fill-0, black)"/>
<path id="Vector_65" d="M613.44 1022.76C616.196 1022.76 618.43 1020.53 618.43 1017.77C618.43 1015.01 616.196 1012.78 613.44 1012.78C610.684 1012.78 608.45 1015.01 608.45 1017.77C608.45 1020.53 610.684 1022.76 613.44 1022.76Z" fill="var(--fill-0, black)"/>
<path id="Vector_66" d="M597.68 1019.37C600.436 1019.37 602.67 1017.14 602.67 1014.38C602.67 1011.62 600.436 1009.39 597.68 1009.39C594.924 1009.39 592.69 1011.62 592.69 1014.38C592.69 1017.14 594.924 1019.37 597.68 1019.37Z" fill="var(--fill-0, black)"/>
<path id="Vector_67" d="M581.91 1016.09C584.666 1016.09 586.9 1013.86 586.9 1011.1C586.9 1008.34 584.666 1006.11 581.91 1006.11C579.154 1006.11 576.92 1008.34 576.92 1011.1C576.92 1013.86 579.154 1016.09 581.91 1016.09Z" fill="var(--fill-0, black)"/>
<path id="Vector_68" d="M566.14 1012.81C568.896 1012.81 571.13 1010.58 571.13 1007.82C571.13 1005.06 568.896 1002.83 566.14 1002.83C563.384 1002.83 561.15 1005.06 561.15 1007.82C561.15 1010.58 563.384 1012.81 566.14 1012.81Z" fill="var(--fill-0, black)"/>
<path id="Vector_69" d="M550.35 1009.62C553.106 1009.62 555.34 1007.39 555.34 1004.63C555.34 1001.87 553.106 999.64 550.35 999.64C547.594 999.64 545.36 1001.87 545.36 1004.63C545.36 1007.39 547.594 1009.62 550.35 1009.62Z" fill="var(--fill-0, black)"/>
<path id="Vector_70" d="M534.55 1006.46C537.306 1006.46 539.54 1004.23 539.54 1001.47C539.54 998.714 537.306 996.48 534.55 996.48C531.794 996.48 529.56 998.714 529.56 1001.47C529.56 1004.23 531.794 1006.46 534.55 1006.46Z" fill="var(--fill-0, black)"/>
<path id="Vector_71" d="M518.75 1003.3C521.506 1003.3 523.74 1001.07 523.74 998.31C523.74 995.554 521.506 993.32 518.75 993.32C515.994 993.32 513.76 995.554 513.76 998.31C513.76 1001.07 515.994 1003.3 518.75 1003.3Z" fill="var(--fill-0, black)"/>
<path id="Vector_72" d="M502.93 1000.27C505.686 1000.27 507.92 998.036 507.92 995.28C507.92 992.524 505.686 990.29 502.93 990.29C500.174 990.29 497.94 992.524 497.94 995.28C497.94 998.036 500.174 1000.27 502.93 1000.27Z" fill="var(--fill-0, black)"/>
<path id="Vector_73" d="M487.1 997.25C489.856 997.25 492.09 995.016 492.09 992.26C492.09 989.504 489.856 987.27 487.1 987.27C484.344 987.27 482.11 989.504 482.11 992.26C482.11 995.016 484.344 997.25 487.1 997.25Z" fill="var(--fill-0, black)"/>
<path id="Vector_74" d="M471.28 994.22C474.036 994.22 476.27 991.986 476.27 989.23C476.27 986.474 474.036 984.24 471.28 984.24C468.524 984.24 466.29 986.474 466.29 989.23C466.29 991.986 468.524 994.22 471.28 994.22Z" fill="var(--fill-0, black)"/>
<path id="Vector_75" d="M455.43 991.32C458.186 991.32 460.42 989.086 460.42 986.33C460.42 983.574 458.186 981.34 455.43 981.34C452.674 981.34 450.44 983.574 450.44 986.33C450.44 989.086 452.674 991.32 455.43 991.32Z" fill="var(--fill-0, black)"/>
<path id="Vector_76" d="M439.58 988.45C442.336 988.45 444.57 986.216 444.57 983.46C444.57 980.704 442.336 978.47 439.58 978.47C436.824 978.47 434.59 980.704 434.59 983.46C434.59 986.216 436.824 988.45 439.58 988.45Z" fill="var(--fill-0, black)"/>
<path id="Vector_77" d="M423.73 985.58C426.486 985.58 428.72 983.346 428.72 980.59C428.72 977.834 426.486 975.6 423.73 975.6C420.974 975.6 418.74 977.834 418.74 980.59C418.74 983.346 420.974 985.58 423.73 985.58Z" fill="var(--fill-0, black)"/>
<path id="Vector_78" d="M407.86 982.77C410.616 982.77 412.85 980.536 412.85 977.78C412.85 975.024 410.616 972.79 407.86 972.79C405.104 972.79 402.87 975.024 402.87 977.78C402.87 980.536 405.104 982.77 407.86 982.77Z" fill="var(--fill-0, black)"/>
<path id="Vector_79" d="M391.98 980.08C394.736 980.08 396.97 977.846 396.97 975.09C396.97 972.334 394.736 970.1 391.98 970.1C389.224 970.1 386.99 972.334 386.99 975.09C386.99 977.846 389.224 980.08 391.98 980.08Z" fill="var(--fill-0, black)"/>
<path id="Vector_80" d="M376.1 977.39C378.856 977.39 381.09 975.156 381.09 972.4C381.09 969.644 378.856 967.41 376.1 967.41C373.344 967.41 371.11 969.644 371.11 972.4C371.11 975.156 373.344 977.39 376.1 977.39Z" fill="var(--fill-0, black)"/>
<path id="Vector_81" d="M360.21 974.7C362.966 974.7 365.2 972.466 365.2 969.71C365.2 966.954 362.966 964.72 360.21 964.72C357.454 964.72 355.22 966.954 355.22 969.71C355.22 972.466 357.454 974.7 360.21 974.7Z" fill="var(--fill-0, black)"/>
<path id="Vector_82" d="M344.42 971.54C347.176 971.54 349.41 969.306 349.41 966.55C349.41 963.794 347.176 961.56 344.42 961.56C341.664 961.56 339.43 963.794 339.43 966.55C339.43 969.306 341.664 971.54 344.42 971.54Z" fill="var(--fill-0, black)"/>
<path id="Vector_83" d="M328.7 967.99C331.456 967.99 333.69 965.756 333.69 963C333.69 960.244 331.456 958.01 328.7 958.01C325.944 958.01 323.71 960.244 323.71 963C323.71 965.756 325.944 967.99 328.7 967.99Z" fill="var(--fill-0, black)"/>
<path id="Vector_84" d="M312.99 964.45C315.746 964.45 317.98 962.216 317.98 959.46C317.98 956.704 315.746 954.47 312.99 954.47C310.234 954.47 308 956.704 308 959.46C308 962.216 310.234 964.45 312.99 964.45Z" fill="var(--fill-0, black)"/>
<path id="Vector_85" d="M298.08 958.4C300.836 958.4 303.07 956.166 303.07 953.41C303.07 950.654 300.836 948.42 298.08 948.42C295.324 948.42 293.09 950.654 293.09 953.41C293.09 956.166 295.324 958.4 298.08 958.4Z" fill="var(--fill-0, black)"/>
<path id="Vector_86" d="M283.26 952.08C286.016 952.08 288.25 949.846 288.25 947.09C288.25 944.334 286.016 942.1 283.26 942.1C280.504 942.1 278.27 944.334 278.27 947.09C278.27 949.846 280.504 952.08 283.26 952.08Z" fill="var(--fill-0, black)"/>
<path id="Vector_87" d="M270.99 941.67C273.746 941.67 275.98 939.436 275.98 936.68C275.98 933.924 273.746 931.69 270.99 931.69C268.234 931.69 266 933.924 266 936.68C266 939.436 268.234 941.67 270.99 941.67Z" fill="var(--fill-0, black)"/>
<path id="Vector_88" d="M261.91 928.79C264.666 928.79 266.9 926.556 266.9 923.8C266.9 921.044 264.666 918.81 261.91 918.81C259.154 918.81 256.92 921.044 256.92 923.8C256.92 926.556 259.154 928.79 261.91 928.79Z" fill="var(--fill-0, black)"/>
<path id="Vector_89" d="M257.61 913.58C260.366 913.58 262.6 911.346 262.6 908.59C262.6 905.834 260.366 903.6 257.61 903.6C254.854 903.6 252.62 905.834 252.62 908.59C252.62 911.346 254.854 913.58 257.61 913.58Z" fill="var(--fill-0, black)"/>
<path id="Vector_90" d="M257.73 897.54C260.486 897.54 262.72 895.306 262.72 892.55C262.72 889.794 260.486 887.56 257.73 887.56C254.974 887.56 252.74 889.794 252.74 892.55C252.74 895.306 254.974 897.54 257.73 897.54Z" fill="var(--fill-0, black)"/>
<path id="Vector_91" d="M261.03 881.77C263.786 881.77 266.02 879.536 266.02 876.78C266.02 874.024 263.786 871.79 261.03 871.79C258.274 871.79 256.04 874.024 256.04 876.78C256.04 879.536 258.274 881.77 261.03 881.77Z" fill="var(--fill-0, black)"/>
<path id="Vector_92" d="M265.69 866.37C268.446 866.37 270.68 864.136 270.68 861.38C270.68 858.624 268.446 856.39 265.69 856.39C262.934 856.39 260.7 858.624 260.7 861.38C260.7 864.136 262.934 866.37 265.69 866.37Z" fill="var(--fill-0, black)"/>
<path id="Vector_93" d="M270.78 851.08C273.536 851.08 275.77 848.846 275.77 846.09C275.77 843.334 273.536 841.1 270.78 841.1C268.024 841.1 265.79 843.334 265.79 846.09C265.79 848.846 268.024 851.08 270.78 851.08Z" fill="var(--fill-0, black)"/>
<path id="Vector_94" d="M276.13 835.88C278.886 835.88 281.12 833.646 281.12 830.89C281.12 828.134 278.886 825.9 276.13 825.9C273.374 825.9 271.14 828.134 271.14 830.89C271.14 833.646 273.374 835.88 276.13 835.88Z" fill="var(--fill-0, black)"/>
<path id="Vector_95" d="M281.12 820.57C283.876 820.57 286.11 818.336 286.11 815.58C286.11 812.824 283.876 810.59 281.12 810.59C278.364 810.59 276.13 812.824 276.13 815.58C276.13 818.336 278.364 820.57 281.12 820.57Z" fill="var(--fill-0, black)"/>
<path id="Vector_96" d="M285.8 805.15C288.556 805.15 290.79 802.916 290.79 800.16C290.79 797.404 288.556 795.17 285.8 795.17C283.044 795.17 280.81 797.404 280.81 800.16C280.81 802.916 283.044 805.15 285.8 805.15Z" fill="var(--fill-0, black)"/>
<path id="Vector_97" d="M289.31 789.45C292.066 789.45 294.3 787.216 294.3 784.46C294.3 781.704 292.066 779.47 289.31 779.47C286.554 779.47 284.32 781.704 284.32 784.46C284.32 787.216 286.554 789.45 289.31 789.45Z" fill="var(--fill-0, black)"/>
<path id="Vector_98" d="M292.38 773.63C295.136 773.63 297.37 771.396 297.37 768.64C297.37 765.884 295.136 763.65 292.38 763.65C289.624 763.65 287.39 765.884 287.39 768.64C287.39 771.396 289.624 773.63 292.38 773.63Z" fill="var(--fill-0, black)"/>
<path id="Vector_99" d="M292.43 757.57C295.186 757.57 297.42 755.336 297.42 752.58C297.42 749.824 295.186 747.59 292.43 747.59C289.674 747.59 287.44 749.824 287.44 752.58C287.44 755.336 289.674 757.57 292.43 757.57Z" fill="var(--fill-0, black)"/>
<path id="Vector_100" d="M291.99 741.46C294.746 741.46 296.98 739.226 296.98 736.47C296.98 733.714 294.746 731.48 291.99 731.48C289.234 731.48 287 733.714 287 736.47C287 739.226 289.234 741.46 291.99 741.46Z" fill="var(--fill-0, black)"/>
<path id="Vector_101" d="M287.48 726.18C290.236 726.18 292.47 723.946 292.47 721.19C292.47 718.434 290.236 716.2 287.48 716.2C284.724 716.2 282.49 718.434 282.49 721.19C282.49 723.946 284.724 726.18 287.48 726.18Z" fill="var(--fill-0, black)"/>
<path id="Vector_102" d="M281.64 711.17C284.396 711.17 286.63 708.936 286.63 706.18C286.63 703.424 284.396 701.19 281.64 701.19C278.884 701.19 276.65 703.424 276.65 706.18C276.65 708.936 278.884 711.17 281.64 711.17Z" fill="var(--fill-0, black)"/>
<path id="Vector_103" d="M271.4 698.77C274.156 698.77 276.39 696.536 276.39 693.78C276.39 691.024 274.156 688.79 271.4 688.79C268.644 688.79 266.41 691.024 266.41 693.78C266.41 696.536 268.644 698.77 271.4 698.77Z" fill="var(--fill-0, black)"/>
<path id="Vector_104" d="M260.22 687.31C262.976 687.31 265.21 685.076 265.21 682.32C265.21 679.564 262.976 677.33 260.22 677.33C257.464 677.33 255.23 679.564 255.23 682.32C255.23 685.076 257.464 687.31 260.22 687.31Z" fill="var(--fill-0, black)"/>
<path id="Vector_105" d="M247.05 678.03C249.806 678.03 252.04 675.796 252.04 673.04C252.04 670.284 249.806 668.05 247.05 668.05C244.294 668.05 242.06 670.284 242.06 673.04C242.06 675.796 244.294 678.03 247.05 678.03Z" fill="var(--fill-0, black)"/>
<path id="Vector_106" d="M233.07 670.15C235.826 670.15 238.06 667.916 238.06 665.16C238.06 662.404 235.826 660.17 233.07 660.17C230.314 660.17 228.08 662.404 228.08 665.16C228.08 667.916 230.314 670.15 233.07 670.15Z" fill="var(--fill-0, black)"/>
<path id="Vector_107" d="M218.51 663.26C221.266 663.26 223.5 661.026 223.5 658.27C223.5 655.514 221.266 653.28 218.51 653.28C215.754 653.28 213.52 655.514 213.52 658.27C213.52 661.026 215.754 663.26 218.51 663.26Z" fill="var(--fill-0, black)"/>
<path id="Vector_108" d="M203.37 657.77C206.126 657.77 208.36 655.536 208.36 652.78C208.36 650.024 206.126 647.79 203.37 647.79C200.614 647.79 198.38 650.024 198.38 652.78C198.38 655.536 200.614 657.77 203.37 657.77Z" fill="var(--fill-0, black)"/>
<path id="Vector_109" d="M188.1 652.64C190.856 652.64 193.09 650.406 193.09 647.65C193.09 644.894 190.856 642.66 188.1 642.66C185.344 642.66 183.11 644.894 183.11 647.65C183.11 650.406 185.344 652.64 188.1 652.64Z" fill="var(--fill-0, black)"/>
<path id="Vector_110" d="M172.67 648.01C175.426 648.01 177.66 645.776 177.66 643.02C177.66 640.264 175.426 638.03 172.67 638.03C169.914 638.03 167.68 640.264 167.68 643.02C167.68 645.776 169.914 648.01 172.67 648.01Z" fill="var(--fill-0, black)"/>
<path id="Vector_111" d="M157.35 643C160.106 643 162.34 640.766 162.34 638.01C162.34 635.254 160.106 633.02 157.35 633.02C154.594 633.02 152.36 635.254 152.36 638.01C152.36 640.766 154.594 643 157.35 643Z" fill="var(--fill-0, black)"/>
<path id="Vector_112" d="M142.91 635.95C145.666 635.95 147.9 633.716 147.9 630.96C147.9 628.204 145.666 625.97 142.91 625.97C140.154 625.97 137.92 628.204 137.92 630.96C137.92 633.716 140.154 635.95 142.91 635.95Z" fill="var(--fill-0, black)"/>
<path id="Vector_113" d="M129.09 627.78C131.846 627.78 134.08 625.546 134.08 622.79C134.08 620.034 131.846 617.8 129.09 617.8C126.334 617.8 124.1 620.034 124.1 622.79C124.1 625.546 126.334 627.78 129.09 627.78Z" fill="var(--fill-0, black)"/>
<path id="Vector_114" d="M116.75 617.45C119.506 617.45 121.74 615.216 121.74 612.46C121.74 609.704 119.506 607.47 116.75 607.47C113.994 607.47 111.76 609.704 111.76 612.46C111.76 615.216 113.994 617.45 116.75 617.45Z" fill="var(--fill-0, black)"/>
<path id="Vector_115" d="M106.73 604.87C109.486 604.87 111.72 602.636 111.72 599.88C111.72 597.124 109.486 594.89 106.73 594.89C103.974 594.89 101.74 597.124 101.74 599.88C101.74 602.636 103.974 604.87 106.73 604.87Z" fill="var(--fill-0, black)"/>
</g>
<path id="Vector_116" d="M620.65 757.61H531.86C518.2 757.61 504.55 758.01 490.91 758.65C472.47 759.51 431.63 758 374.31 736.35C294.56 706.22 197.09 700.91 195.32 784.2C193.55 867.49 413.3 848 434.56 929.52C455.82 1011.04 301.65 1025.22 319.37 1076.61C337.09 1128 457.6 1138.64 448.74 1195.35C439.88 1252.06 368.99 1298.14 368.99 1298.14" stroke="var(--stroke-0, black)" stroke-width="25" stroke-miterlimit="10"/>
<path id="Vector_117" d="M519.64 672.54H431.03V715.07H519.64V672.54Z" fill="var(--fill-0, black)"/>
<path id="Vector_118" d="M566.01 687.15H528.06V713.74H566.01V687.15Z" fill="var(--fill-0, black)"/>
<path id="Vector_119" d="M466.73 1048.36V1029.38H440.14V1048.36H466.73Z" fill="var(--fill-0, black)"/>
<path id="Vector_120" d="M450.09 1084.94V1065.96H423.5V1084.94H450.09Z" fill="var(--fill-0, black)"/>
<path id="Vector_121" d="M429.41 1059.31V1040.33H402.82V1059.31H429.41Z" fill="var(--fill-0, black)"/>
<path id="Vector_122" d="M323.22 999.94H285.27V1026.53H323.22V999.94Z" fill="var(--fill-0, black)"/>
<path id="Vector_123" d="M301.96 1005.26H264.01V1026.54H301.96V1005.26Z" fill="var(--fill-0, black)"/>
<path id="Vector_124" d="M566.08 724.37H528.13V737.67H566.08V724.37Z" fill="var(--fill-0, black)"/>
<g id="Group_4">
<g id="Vector_125">
</g>
<g id="Vector_126">
</g>
<g id="Vector_127">
</g>
<g id="Vector_128">
</g>
<g id="Vector_129">
</g>
<g id="Vector_130">
</g>
<g id="Vector_131">
</g>
<g id="Vector_132">
</g>
<path id="Vector_133" d="M685.88 9.14C685.86 9.4 685.86 9.67 685.87 9.94C685.88 10.37 685.93 10.77 686 11.15L685.88 9.14Z" fill="var(--fill-0, black)"/>
<path id="Vector_134" d="M682.72 0H667.82C667.16 1.21 666.79 2.67 666.84 4.37C667.14 14.73 685.43 15.28 683.57 2.73C683.42 1.7 683.12 0.8 682.72 0Z" fill="var(--fill-0, black)"/>
<path id="Vector_135" d="M671.76 16.18C660.1 12.7 662.63 31.11 672.42 27.33C675.14 26.28 676.22 23.51 675.37 20.11C674.71 17.47 673.09 16.57 671.76 16.17V16.18Z" fill="var(--fill-0, black)"/>
<path id="Vector_136" d="M660.96 36.83C662.78 36.48 664.45 36.16 665.99 35.83C664.44 34.8 662.24 35.47 660.96 36.83Z" fill="var(--fill-0, black)"/>
<path id="Vector_137" d="M653.06 8.63C641.23 7.37 642.94 24.53 653.39 23.06C657.04 22.55 660.11 19.7 658.97 14.2C658.22 10.6 655.76 8.91 653.07 8.62L653.06 8.63Z" fill="var(--fill-0, black)"/>
<path id="Vector_138" d="M647.82 29.62C639.65 27.2 641.19 39.47 647.82 37.49C649.85 36.89 650.7 34.4 649.79 31.91C649.36 30.73 648.58 29.84 647.82 29.61V29.62Z" fill="var(--fill-0, black)"/>
<path id="Vector_139" d="M636.99 3.38C626.25 -0.24 624.3 14.64 631.74 17.16C637.62 19.14 642.3 14.81 641.25 8.96C640.69 5.83 638.5 3.89 636.99 3.38Z" fill="var(--fill-0, black)"/>
<path id="Vector_140" d="M631.09 22.41C620.56 18.49 621.29 36.55 631.09 32.91C633.08 32.17 634.72 30.37 634.04 26.68C633.6 24.3 632.27 22.86 631.09 22.42V22.41Z" fill="var(--fill-0, black)"/>
<path id="Vector_141" d="M622.89 40.78C619.61 40.78 618.17 43.4 618.43 45.84C621.41 45.1 624.25 44.41 626.95 43.78C626.39 41.79 625.17 40.78 622.89 40.78Z" fill="var(--fill-0, black)"/>
<path id="Vector_142" d="M616.65 12.24C621.78 12.24 624.84 8.28 624.19 3.38C624.01 2.04 623.64 0.92 623.13 0H610.19C607.39 4.64 609.43 12.24 616.64 12.24H616.65Z" fill="var(--fill-0, black)"/>
<path id="Vector_143" d="M604.52 19.13C600.25 30.76 620.66 32.56 617.64 20.11C615.85 12.74 606.17 14.65 604.52 19.13Z" fill="var(--fill-0, black)"/>
<path id="Vector_144" d="M598.62 36.84C594.35 48.47 614.76 50.27 611.74 37.83C609.95 30.46 600.26 32.37 598.62 36.84Z" fill="var(--fill-0, black)"/>
<path id="Vector_145" d="M593.79 52.51C596.52 51.72 599.17 50.96 601.73 50.25C597.98 49.26 595.32 50.46 593.79 52.51Z" fill="var(--fill-0, black)"/>
<path id="Vector_146" d="M605.47 0H592.82C593.96 6.65 604.49 6.46 605.47 0Z" fill="var(--fill-0, black)"/>
<path id="Vector_147" d="M591.4 21.75C596.97 23.17 599.95 18.61 598.62 14.21C598 12.18 596.13 10.8 595.34 10.6C586.4 8.32 585.26 20.19 591.4 21.75Z" fill="var(--fill-0, black)"/>
<path id="Vector_148" d="M594.35 32.58C592.9 24.61 580.9 25.92 580.9 33.89C580.9 42.5 596.25 43.06 594.35 32.58Z" fill="var(--fill-0, black)"/>
<path id="Vector_149" d="M581.89 43.4C573.73 43.4 571.75 53.41 576.4 57.79C581.01 56.34 585.43 54.99 589.64 53.74C589.85 52.76 589.9 51.72 589.76 50.62C589.12 45.56 585.82 43.4 581.89 43.4Z" fill="var(--fill-0, black)"/>
<path id="Vector_150" d="M576.31 13.88C577.95 13.63 579.52 12.56 578.61 9.62C576.09 1.53 567.44 15.21 576.31 13.88Z" fill="var(--fill-0, black)"/>
<path id="Vector_151" d="M575 27C573.62 21.09 566.23 23.25 565.16 26.02C561.92 34.37 577.28 36.76 575 27Z" fill="var(--fill-0, black)"/>
<path id="Vector_152" d="M562.54 38.15C554.2 39.53 554.9 55.05 565.82 53.24C570.34 52.49 572.37 47.84 571.4 43.73C570.3 39.12 567.78 37.28 562.55 38.15H562.54Z" fill="var(--fill-0, black)"/>
<path id="Vector_153" d="M550.47 66.36C556.09 64.42 561.46 62.61 566.6 60.93C563.65 49.48 546.73 56.31 550.47 66.36Z" fill="var(--fill-0, black)"/>
<path id="Vector_154" d="M556.63 8.3C560.13 9.47 562.92 6.3 561.55 3.05C558.62 -3.93 550.59 6.27 556.63 8.3Z" fill="var(--fill-0, black)"/>
<path id="Vector_155" d="M557.62 21.1C555.86 13.56 545.97 17.47 546.8 23.4C547.73 30.02 559.51 29.16 557.62 21.1Z" fill="var(--fill-0, black)"/>
<path id="Vector_156" d="M554.99 38.48C552.58 25.33 533.29 33.4 539.25 44.38C543.7 52.58 556.74 47.97 554.99 38.48Z" fill="var(--fill-0, black)"/>
<path id="Vector_157" d="M532.36 54.55C527.65 68.93 552.41 71 549.41 55.86C547.47 46.07 534.49 48.03 532.36 54.55Z" fill="var(--fill-0, black)"/>
<path id="Vector_158" d="M543.18 4.7C545.19 3.92 546.3 2.21 546.4 0H544.45C544.45 0 541.26 0.73 535.74 2.17C537.05 4.52 539.64 6.07 543.18 4.7Z" fill="var(--fill-0, black)"/>
<path id="Vector_159" d="M527.11 74.56C527.11 74.62 527.11 74.68 527.11 74.74C528.16 74.33 529.22 73.93 530.28 73.54C534.06 72.16 537.73 70.84 541.33 69.56C537.1 64.8 527.8 67.67 527.12 74.55L527.11 74.56Z" fill="var(--fill-0, black)"/>
<path id="Vector_160" d="M542.2 15.19C540.46 6.37 528.91 8.42 527.11 13.88C522.78 27.03 544.86 28.68 542.2 15.19Z" fill="var(--fill-0, black)"/>
<path id="Vector_161" d="M537.94 32.25C537.21 28.47 534.52 26.06 532.36 25.36C518.88 21.02 515.94 39.9 525.8 43.07C533.75 45.63 539.24 39.05 537.94 32.25Z" fill="var(--fill-0, black)"/>
<path id="Vector_162" d="M514.32 49.63C511.52 63.87 535.02 64.33 531.7 49.63C529.44 39.63 515.66 42.81 514.32 49.63Z" fill="var(--fill-0, black)"/>
<path id="Vector_163" d="M509.73 69.97C510.09 80.23 527.02 79.64 525.15 68.33C523.58 58.81 509.42 60.89 509.73 69.97Z" fill="var(--fill-0, black)"/>
<path id="Vector_164" d="M524.49 9.29C524.19 7.79 523.61 6.61 522.84 5.7C518.65 6.9 513.99 8.28 508.96 9.85C507.24 21.24 527.02 22.1 524.49 9.29Z" fill="var(--fill-0, black)"/>
<path id="Vector_165" d="M510.71 37.17C516.65 37.52 520.61 32.6 519.57 27C518.72 22.44 516.5 20.38 512.03 20.11C500.82 19.45 499.76 36.52 510.72 37.17H510.71Z" fill="var(--fill-0, black)"/>
<path id="Vector_166" d="M505.41 84.73C507.94 83.38 510.49 82.08 513.07 80.84C510.11 80.4 506.75 81.91 505.41 84.73Z" fill="var(--fill-0, black)"/>
<path id="Vector_167" d="M507.43 38.15C494.58 35.74 494.71 52.9 503.49 54.55C510.61 55.89 514.62 50.34 513.33 44.38C512.55 40.78 509.79 38.59 507.43 38.15Z" fill="var(--fill-0, black)"/>
<path id="Vector_168" d="M506.78 62.1C506.03 59.01 503.97 57.67 502.19 57.18C494.92 55.17 491.69 61.26 492.68 66.04C494.45 74.64 509.15 71.86 506.79 62.1H506.78Z" fill="var(--fill-0, black)"/>
<path id="Vector_169" d="M496.94 74.56C485.89 70.66 483.63 85.72 491.04 88.34C497.29 90.55 502.47 86.16 500.88 79.48C500.22 76.71 498.24 75.02 496.94 74.56Z" fill="var(--fill-0, black)"/>
<path id="Vector_170" d="M499.56 21.42C497.96 13.73 487.42 16.38 487.42 22.73C487.42 30.43 501.62 31.36 499.56 21.42Z" fill="var(--fill-0, black)"/>
<path id="Vector_171" d="M481.19 99.49C481.19 99.59 481.21 99.68 481.21 99.78C484.59 97.37 488.03 95.05 491.51 92.84C487.25 90.89 481 93.49 481.19 99.49Z" fill="var(--fill-0, black)"/>
<path id="Vector_172" d="M490.71 46.03C493.43 44.98 494.51 42.21 493.66 38.81C493 36.17 491.38 35.27 490.05 34.87C478.39 31.39 480.92 49.8 490.71 46.02V46.03Z" fill="var(--fill-0, black)"/>
<path id="Vector_173" d="M487.75 56.85C486.25 49.59 476.5 52.23 476.27 57.83C475.96 65.48 489.77 66.57 487.75 56.85Z" fill="var(--fill-0, black)"/>
<path id="Vector_174" d="M471.03 81.45C476.27 86.69 485.57 81.76 483.82 73.91C481.01 61.27 462.1 72.53 471.03 81.45Z" fill="var(--fill-0, black)"/>
<path id="Vector_175" d="M470.7 39.14C473.2 38.99 475.13 37.46 474.31 33.89C473.77 31.53 472.53 30.61 470.38 30.61C464.22 30.61 465.05 39.47 470.71 39.14H470.7Z" fill="var(--fill-0, black)"/>
<path id="Vector_176" d="M462.5 58.16C468.07 59.58 471.05 55.02 469.71 50.62C469.1 48.59 467.22 47.21 466.43 47.01C457.49 44.73 456.35 56.6 462.5 58.16Z" fill="var(--fill-0, black)"/>
<path id="Vector_177" d="M451.02 70.3C451.38 80.56 468.31 79.97 466.44 68.66C464.87 59.14 450.71 61.22 451.02 70.3Z" fill="var(--fill-0, black)"/>
<path id="Vector_178" d="M453.64 32.58C455.02 32.31 456.44 31.36 456.27 29.21C454.28 30.07 452.28 30.95 450.29 31.85C451.07 32.51 452.18 32.86 453.64 32.57V32.58Z" fill="var(--fill-0, black)"/>
<path id="Vector_179" d="M452.33 45.04C451.21 40.71 445.71 39.53 442.82 42.74C435.07 51.36 455.5 57.24 452.33 45.04Z" fill="var(--fill-0, black)"/>
<path id="Vector_180" d="M448.72 66.69C448.51 65.26 449.15 62.98 448.39 62.1C447.83 59.27 445.6 58.11 443.47 56.85C437.74 56.15 435.28 58.72 433.63 62.1C430.97 73.3 446.7 74.73 448.72 66.69Z" fill="var(--fill-0, black)"/>
<path id="Vector_181" d="M430.3 146.95C434 142.65 437.8 138.46 441.68 134.39C440.83 133.49 439.91 132.86 439.22 132.61C428.29 128.75 424.77 141.92 430.3 146.94V146.95Z" fill="var(--fill-0, black)"/>
<path id="Vector_182" d="M434.95 40.78C434.9 40.26 434.82 39.79 434.7 39.36C431.3 41.1 427.94 42.9 424.65 44.75C427.65 48.72 435.46 46.63 434.95 40.78Z" fill="var(--fill-0, black)"/>
<path id="Vector_183" d="M431.01 60.79C430.8 59.36 431.44 57.08 430.68 56.2C430.12 53.37 427.89 52.21 425.76 50.95C420.03 50.25 417.57 52.82 415.92 56.2C413.26 67.4 428.99 68.83 431.01 60.79Z" fill="var(--fill-0, black)"/>
<path id="Vector_184" d="M421.83 126.71C409.56 121.61 405.75 139.43 414.61 143.11C421.12 145.81 427.51 140.4 426.75 133.92C426.21 129.36 424.04 127.62 421.83 126.71Z" fill="var(--fill-0, black)"/>
<path id="Vector_185" d="M405.1 149.67C400.77 162.82 422.85 164.47 420.19 150.98C418.45 142.16 406.9 144.21 405.1 149.67Z" fill="var(--fill-0, black)"/>
<path id="Vector_186" d="M413.3 53.9C413.39 53.05 413.23 52.47 413.06 51.68C409.18 54.16 405.44 56.72 401.87 59.37C406.14 61.66 412.69 59.85 413.3 53.9Z" fill="var(--fill-0, black)"/>
<path id="Vector_187" d="M400.18 170.67C400.35 174.84 403.84 176.83 407.16 176.67C409.05 174 410.96 171.35 412.9 168.73C411.16 161.26 399.89 163.39 400.18 170.67Z" fill="var(--fill-0, black)"/>
<path id="Vector_188" d="M406.41 76.86C407.64 75.63 409.06 71.86 408.38 68.66C407.48 64.41 402.84 61.26 398.38 62.04C396.14 63.8 393.98 65.6 391.91 67.44C388.87 75.11 399.52 83.76 406.42 76.86H406.41Z" fill="var(--fill-0, black)"/>
<path id="Vector_189" d="M394.93 189.69C395.19 190.82 395.77 191.72 396.55 192.4C398.87 188.79 401.24 185.22 403.67 181.68C403.48 181.6 403.3 181.53 403.13 181.49C395.96 179.85 394.05 185.85 394.93 189.69Z" fill="var(--fill-0, black)"/>
<path id="Vector_190" d="M398.21 138.52C391.97 136.44 387.75 140.4 386.73 143.44C382.03 157.51 406.16 159.49 403.13 144.75C402.3 140.7 399.96 139.1 398.21 138.52Z" fill="var(--fill-0, black)"/>
<path id="Vector_191" d="M388.7 202.48C388.23 203.76 388.07 204.92 388.14 205.95C389.49 203.68 390.87 201.43 392.26 199.18C390.6 199.87 389.23 201.03 388.7 202.47V202.48Z" fill="var(--fill-0, black)"/>
<path id="Vector_192" d="M397.23 103.75C396.76 101.41 395.71 99.57 394.28 98.5C388.62 94.29 378.61 98.63 379.85 107.36C381.4 118.3 399.68 115.96 397.23 103.75Z" fill="var(--fill-0, black)"/>
<path id="Vector_193" d="M390.67 171.98C395.19 171.23 397.22 166.58 396.25 162.47C395.15 157.86 392.63 156.03 387.4 156.89C379.07 158.27 379.76 173.79 390.68 171.98H390.67Z" fill="var(--fill-0, black)"/>
<path id="Vector_194" d="M374.6 121.14C371.99 131.53 384.83 133.74 389.03 129.34C390.25 128.06 391.1 124.88 391 123.11C390.39 112.38 376.52 113.5 374.6 121.14Z" fill="var(--fill-0, black)"/>
<path id="Vector_195" d="M376.89 180.18C374.41 190.7 388.58 190.31 390.01 184.12C390.29 182.92 390.15 181.94 389.68 180.18C387.76 173.06 378 175.47 376.89 180.18Z" fill="var(--fill-0, black)"/>
<path id="Vector_196" d="M385.09 139.18C384.31 135.58 381.55 133.39 379.19 132.95C366.34 130.54 366.47 147.7 375.25 149.35C382.37 150.68 386.38 145.14 385.09 139.18Z" fill="var(--fill-0, black)"/>
<path id="Vector_197" d="M384.44 81.45C384.19 79.52 383.42 78.04 382.36 76.95C378.92 80.86 375.93 84.9 373.49 89.08C378.38 91.24 385.41 89.04 384.44 81.44V81.45Z" fill="var(--fill-0, black)"/>
<path id="Vector_198" d="M371.32 201.83C372.87 208.62 385.96 207.2 383.46 197.89C382.8 195.43 380.71 193.9 379.52 193.63C372.35 191.99 370.44 197.99 371.32 201.83Z" fill="var(--fill-0, black)"/>
<path id="Vector_199" d="M378.86 156.89C377.46 150.41 370.05 149.96 366 152.99C365.64 156.42 365.2 159.91 364.67 163.45C368.9 169.08 381.01 166.84 378.86 156.89Z" fill="var(--fill-0, black)"/>
<path id="Vector_200" d="M378.53 98.18C377.7 94.46 374.77 92.64 371.67 92.42C369.33 97.05 367.67 101.84 366.8 106.8C372.02 109.56 380.44 106.76 378.53 98.18Z" fill="var(--fill-0, black)"/>
<path id="Vector_201" d="M366.07 216.26C365.02 224.78 380.1 225.76 377.55 215.6C375.75 208.43 366.62 211.83 366.07 216.26Z" fill="var(--fill-0, black)"/>
<path id="Vector_202" d="M366.77 124.95C370.25 124.26 373.07 121.17 372.63 116.87C372.29 113.54 370.4 111.41 368.69 110.64C367.87 110.27 367.1 110.04 366.36 109.92C366.02 113.09 366 116.32 366.34 119.62C366.52 121.38 366.66 123.16 366.77 124.95Z" fill="var(--fill-0, black)"/>
<path id="Vector_203" d="M372.63 174.93C372.07 171.8 369.87 169.86 368.36 169.35C366.6 168.76 365.08 168.67 363.79 168.93C363.06 173.25 362.21 177.64 361.26 182.11C361.8 182.54 362.41 182.89 363.12 183.13C369 185.11 373.68 180.78 372.63 174.93Z" fill="var(--fill-0, black)"/>
<path id="Vector_204" d="M359.84 233.32C358.59 239.97 365.33 242.4 369.36 240.27C370.29 238.42 371.23 236.56 372.18 234.71C372.15 234.27 372.09 233.81 371.98 233.32C370.22 225.66 360.67 228.94 359.85 233.32H359.84Z" fill="var(--fill-0, black)"/>
<path id="Vector_205" d="M353.93 253C354.09 256.98 357.25 258.96 360.41 258.98C362.01 255.48 363.65 251.97 365.33 248.46C361.87 244.34 353.69 246.84 353.93 253Z" fill="var(--fill-0, black)"/>
<path id="Vector_206" d="M365.74 193.63C365.42 189.19 362.74 187.69 359.97 187.96C359.1 191.77 358.15 195.63 357.15 199.54C360.89 201.08 366.08 198.25 365.74 193.62V193.63Z" fill="var(--fill-0, black)"/>
<path id="Vector_207" d="M353.32 275.18C354.59 272.16 355.88 269.13 357.22 266.1C356.61 265.72 355.93 265.52 355.25 265.46C347.79 264.76 348.24 273.78 353.33 275.18H353.32Z" fill="var(--fill-0, black)"/>
<path id="Vector_208" d="M358.85 210.03C358.27 208.01 356.69 206.94 355.9 206.75C355.69 206.7 355.48 206.66 355.28 206.63C354.39 209.9 353.46 213.21 352.5 216.55C352.54 216.56 352.58 216.58 352.62 216.59C357.51 217.76 359.95 213.83 358.85 210.03Z" fill="var(--fill-0, black)"/>
<path id="Vector_209" d="M353.61 227.74C353.04 225.65 351.75 224.53 350.26 224.16C349.23 227.59 348.17 231.06 347.07 234.57C350.54 235.28 354.94 232.7 353.6 227.74H353.61Z" fill="var(--fill-0, black)"/>
<path id="Vector_210" d="M346.78 291.45C347.72 288.99 348.69 286.53 349.68 284.06C346.56 283.77 343.08 289.56 346.78 291.45Z" fill="var(--fill-0, black)"/>
<path id="Vector_211" d="M336.55 305.8C336.65 308.3 337.94 310.01 339.67 310.94C341 307.08 342.39 303.18 343.83 299.26C340.27 299.02 336.37 301.53 336.54 305.8H336.55Z" fill="var(--fill-0, black)"/>
<path id="Vector_212" d="M348.36 245.45C347.78 243.14 346.45 241.94 344.88 241.5C343.72 245.13 342.53 248.81 341.31 252.51C345.16 253.59 349.88 251.49 348.36 245.45Z" fill="var(--fill-0, black)"/>
<path id="Vector_213" d="M329.99 327.45C330.83 328.99 331.97 330.08 333.26 330.77C334.85 325.51 336.56 320.16 338.38 314.74C332.59 314.69 326.21 320.47 329.99 327.45Z" fill="var(--fill-0, black)"/>
<path id="Vector_214" d="M338.85 269.4C341.01 268.87 342.99 266.89 341.8 262.84C341.25 260.95 340.06 260.09 338.92 259.73C337.86 262.9 336.79 266.1 335.7 269.33C336.6 269.63 337.66 269.7 338.85 269.4Z" fill="var(--fill-0, black)"/>
<path id="Vector_215" d="M328.33 348.16C329.63 343.23 331.05 338.19 332.57 333.06C332.16 333.03 331.74 333.02 331.3 333.03C323.4 333.29 321.45 345.29 328.33 348.16Z" fill="var(--fill-0, black)"/>
<path id="Vector_216" d="M334.26 286.12C335.13 285.48 336.07 283.6 335.9 281.86C335.66 279.38 334.55 278.03 332.93 277.51C331.86 280.67 330.77 283.85 329.68 287.05C330.91 287.58 332.47 287.44 334.26 286.12Z" fill="var(--fill-0, black)"/>
<path id="Vector_217" d="M331.63 298.59C331.05 295.8 329.3 294.38 327.3 293.99C326.02 297.74 324.73 301.52 323.43 305.33C327.46 306.91 332.97 305.04 331.63 298.59Z" fill="var(--fill-0, black)"/>
<path id="Vector_218" d="M324.09 364.19C324.19 364.22 324.29 364.23 324.39 364.25C325.23 360.53 326.14 356.73 327.12 352.85C319.02 351.58 318.16 362.68 324.09 364.19Z" fill="var(--fill-0, black)"/>
<path id="Vector_219" d="M326.38 321.22C327.1 319.72 327.13 318.11 326.71 315.97C326.07 312.76 324 311.08 321.63 310.62C320.11 315.1 318.57 319.62 317.04 324.19C320.44 325.44 324.79 324.53 326.39 321.22H326.38Z" fill="var(--fill-0, black)"/>
<path id="Vector_220" d="M320.81 381.25C320.86 381.25 320.91 381.24 320.96 381.23C321.49 378.24 322.07 375.17 322.71 372.04C322.03 371.64 321.27 371.45 320.48 371.41C312.53 371.04 314.15 381.86 320.81 381.25Z" fill="var(--fill-0, black)"/>
<path id="Vector_221" d="M306.7 449.14C304.21 456.7 310.03 460.75 315.48 460.61C316.7 455.13 317.52 449.66 317.88 444.21C313.51 442.9 307.95 445.34 306.69 449.14H306.7Z" fill="var(--fill-0, black)"/>
<path id="Vector_222" d="M308.01 392.07C306.73 399.08 314.19 401.44 318.36 398.91C318.7 395.88 319.12 392.74 319.6 389.5C316.43 385.44 308.92 387.12 308.01 392.07Z" fill="var(--fill-0, black)"/>
<path id="Vector_223" d="M320.48 334.01C319.89 330.94 317.76 329.4 315.39 329.1C314.07 333.07 312.74 337.06 311.42 341.09C315.63 342.86 321.72 340.5 320.48 334.01Z" fill="var(--fill-0, black)"/>
<path id="Vector_224" d="M306.38 478.01C307.69 478.43 308.95 478.58 310.13 478.51C311.96 473.61 313.51 468.71 314.74 463.81C313.95 463.04 313.08 462.51 312.29 462.26C299.94 458.28 297.89 475.26 306.39 478.01H306.38Z" fill="var(--fill-0, black)"/>
<path id="Vector_225" d="M300.8 409.46C298.33 422.19 319.1 422.45 316.21 409.46C314.38 401.21 302.18 402.3 300.8 409.46Z" fill="var(--fill-0, black)"/>
<path id="Vector_226" d="M312.61 351.73C312.12 349.47 311.1 348.38 309.12 348.17C308.19 351.05 307.26 353.95 306.33 356.86C306.99 357.18 307.78 357.36 308.68 357.31C311.39 357.17 313.42 355.45 312.62 351.73H312.61Z" fill="var(--fill-0, black)"/>
<path id="Vector_227" d="M294.9 429.14C294.9 439.36 313.03 440.3 310.97 427.83C309.35 418.05 294.9 419.9 294.9 429.14Z" fill="var(--fill-0, black)"/>
<path id="Vector_228" d="M302.85 495.12C304.93 490.96 306.83 486.79 308.52 482.62C307.41 481.44 305.95 480.79 304.41 480.63C293.33 479.45 294.13 494.42 302.85 495.12Z" fill="var(--fill-0, black)"/>
<path id="Vector_229" d="M303.09 374.03C305.55 373.87 306.73 371.93 306.04 369.44C305.44 367.25 304.38 366.47 303.26 366.51C302.5 368.95 301.74 371.4 300.99 373.86C301.54 374.02 302.23 374.08 303.08 374.03H303.09Z" fill="var(--fill-0, black)"/>
<path id="Vector_230" d="M288.66 444.88C286.09 458.62 308.37 458.69 305.39 444.88C303.27 435.06 289.94 438.05 288.66 444.88Z" fill="var(--fill-0, black)"/>
<path id="Vector_231" d="M290.63 505.89C290.72 508.65 291.99 510.48 293.73 511.48C296.24 507.38 298.59 503.27 300.77 499.16C296.52 497.36 290.44 499.97 290.63 505.89Z" fill="var(--fill-0, black)"/>
<path id="Vector_232" d="M302.11 386.82C301.54 384.25 300.04 382.99 298.33 382.69C297.27 386.25 296.22 389.82 295.18 393.42C298.73 394.32 303.25 391.98 302.11 386.82Z" fill="var(--fill-0, black)"/>
<path id="Vector_233" d="M297.85 470.46C299.24 468.96 300.06 466.53 299.82 463.9C299.17 456.7 290.73 453.68 285.72 458.32C277.36 466.07 290.28 478.62 297.86 470.45L297.85 470.46Z" fill="var(--fill-0, black)"/>
<path id="Vector_234" d="M285.06 520.65C284.6 522.25 284.62 523.65 284.97 524.85C287 521.94 288.95 519.03 290.83 516.11C288.2 516.55 285.76 518.22 285.06 520.65Z" fill="var(--fill-0, black)"/>
<path id="Vector_235" d="M298.18 403.88C297.43 400.79 295.38 399.46 293.59 398.96C292.28 403.57 291 408.21 289.73 412.89C294.31 413.44 299.67 410.06 298.17 403.88H298.18Z" fill="var(--fill-0, black)"/>
<path id="Vector_236" d="M291.62 429.14C293.01 427.64 293.83 425.2 293.59 422.58C293.3 419.33 291.41 416.95 288.98 415.72C287.57 421.01 286.2 426.34 284.86 431.72C287.15 432.03 289.58 431.34 291.62 429.14Z" fill="var(--fill-0, black)"/>
<path id="Vector_237" d="M279.15 479.32C275.31 490.47 294.93 492.15 292.27 480.3C290.5 472.41 280.74 474.71 279.15 479.32Z" fill="var(--fill-0, black)"/>
<path id="Vector_238" d="M284.54 432.99C283.43 437.49 282.34 442.02 281.29 446.59C281.03 447.73 280.76 448.86 280.49 449.96C281.34 449.91 282.22 449.75 283.09 449.47C289.3 447.45 290.71 436.55 284.54 432.99Z" fill="var(--fill-0, black)"/>
<path id="Vector_239" d="M274.89 500.97C276.06 507.13 284.53 504.84 285.38 501.3C285.62 500.3 285.49 499.56 285.05 498.02C283.07 491.09 273.8 495.27 274.88 500.97H274.89Z" fill="var(--fill-0, black)"/>
<path id="Vector_240" d="M282.1 457.67C281.85 455.7 280.98 454.07 279.78 452.83C278.5 457.95 277.19 462.67 275.86 467.01C277.36 466.7 278.83 465.94 280.13 464.56C281.61 462.99 282.47 460.6 282.1 457.67Z" fill="var(--fill-0, black)"/>
<path id="Vector_241" d="M279.15 516.06C277.77 510.15 270.38 512.31 269.31 515.08C266.07 523.43 281.43 525.82 279.15 516.06Z" fill="var(--fill-0, black)"/>
<path id="Vector_242" d="M260.78 534.1C260.07 541.14 267.4 543.86 272.26 541.83C273.63 540.11 274.99 538.38 276.32 536.65C276.46 535.7 276.43 534.63 276.19 533.44C274.51 525 261.66 525.33 260.77 534.1H260.78Z" fill="var(--fill-0, black)"/>
<path id="Vector_243" d="M274.56 479.32C275.08 478.01 275.03 476.16 274.56 474.4C274.42 473.87 274.2 473.39 273.94 472.95C272.73 476.48 271.51 479.74 270.26 482.74C272.14 482.37 273.79 481.27 274.56 479.32Z" fill="var(--fill-0, black)"/>
<path id="Vector_244" d="M263.41 498.34C265.48 498 267.43 496.42 266.36 492.76C266.26 492.4 266.13 492.1 265.99 491.82C264.71 494.23 263.41 496.41 262.09 498.38C262.5 498.42 262.94 498.41 263.4 498.33L263.41 498.34Z" fill="var(--fill-0, black)"/>
<path id="Vector_245" d="M257.18 515.73C259.44 515.6 261.35 513.92 260.79 510.81C260.37 508.51 259.06 507.2 256.85 507.2C251.08 507.2 251.5 516.06 257.18 515.73Z" fill="var(--fill-0, black)"/>
<path id="Vector_246" d="M247.66 536.06C252.76 538.36 258.79 534.66 258.16 528.52C257.82 525.2 255.93 523.06 254.22 522.29C244.19 517.77 239.87 532.55 247.66 536.06Z" fill="var(--fill-0, black)"/>
<path id="Vector_247" d="M234.22 528.52C236.69 528.16 238.84 526.37 237.83 522.29C237.19 519.7 235.55 518.83 233.89 518.68C225.44 517.89 227.14 529.56 234.22 528.52Z" fill="var(--fill-0, black)"/>
<path id="Vector_248" d="M219.41 598.24C221.98 595.82 224.54 593.38 227.08 590.93C223.58 591.71 220.42 594.77 219.41 598.24Z" fill="var(--fill-0, black)"/>
<path id="Vector_249" d="M235.2 540.33C233.96 530.69 219.78 531.88 219.78 541.32C219.78 550.76 236.67 551.85 235.2 540.33Z" fill="var(--fill-0, black)"/>
<path id="Vector_250" d="M215.85 522.29C218.56 522.14 220.59 520.43 219.79 516.71C219.76 516.58 219.72 516.46 219.69 516.34C216.92 516.19 214.11 516 211.24 515.86C210.23 518.64 211.93 522.49 215.85 522.29Z" fill="var(--fill-0, black)"/>
<path id="Vector_251" d="M205.03 540.33C209.35 544.66 217.45 541 216.51 534.43C214.74 522.07 196.77 532.07 205.03 540.33Z" fill="var(--fill-0, black)"/>
<path id="Vector_252" d="M210.27 559.35C211.5 558.12 212.92 554.35 212.24 551.15C211.02 545.42 203.02 541.68 197.81 546.89C189.74 554.96 202.44 567.19 210.27 559.35Z" fill="var(--fill-0, black)"/>
<path id="Vector_253" d="M206.34 605.27C199.48 603.98 197.58 609.46 198.14 613.14C198.34 614.42 198.89 615.46 199.64 616.26C202.95 613.33 206.26 610.35 209.56 607.35C208.62 606.18 207.4 605.47 206.33 605.27H206.34Z" fill="var(--fill-0, black)"/>
<path id="Vector_254" d="M203.06 516.71C203.33 516.42 203.55 516.06 203.74 515.68C200.27 515.71 196.74 515.91 193.14 516.45C195.79 519.22 201.06 518.86 203.06 516.71Z" fill="var(--fill-0, black)"/>
<path id="Vector_255" d="M198.79 528.85C197.01 516.49 179.05 526.49 187.31 534.75C191.63 539.07 199.73 535.42 198.79 528.85Z" fill="var(--fill-0, black)"/>
<path id="Vector_256" d="M183.38 554.1C188.48 556.4 194.51 552.7 193.88 546.56C193.54 543.23 191.65 541.09 189.94 540.33C179.92 535.82 175.59 550.6 183.38 554.11V554.1Z" fill="var(--fill-0, black)"/>
<path id="Vector_257" d="M193.22 604.29C192.55 601.36 190.38 599.7 188.63 599.37C181.77 598.08 179.86 603.56 180.43 607.24C181.62 614.99 195.42 613.89 193.22 604.29Z" fill="var(--fill-0, black)"/>
<path id="Vector_258" d="M188.63 563.62C187.11 553.91 172.56 555.07 172.56 564.93C172.56 575.76 190.5 575.62 188.63 563.62Z" fill="var(--fill-0, black)"/>
<path id="Vector_259" d="M167.31 581.66C166.19 592.79 185.14 593.13 182.72 581C181.04 572.56 168.19 572.89 167.31 581.66Z" fill="var(--fill-0, black)"/>
<path id="Vector_260" d="M181.74 625.61C182.57 625.38 183.68 624.17 182.72 622.66C179.29 618.8 177.38 626.8 181.74 625.61Z" fill="var(--fill-0, black)"/>
<path id="Vector_261" d="M181.08 521.96C180.89 521.16 180.59 520.49 180.23 519.91C176.21 521.52 172.12 523.7 167.95 526.64C170.82 532.74 183.51 531.97 181.08 521.96Z" fill="var(--fill-0, black)"/>
<path id="Vector_262" d="M174.52 540.66C173.29 533.13 162.79 535.53 163.04 541.97C163.34 549.6 175.9 549.16 174.52 540.66Z" fill="var(--fill-0, black)"/>
<path id="Vector_263" d="M164.36 598.06C161.12 606.4 176.48 608.8 174.2 599.04C172.82 593.13 165.43 595.29 164.36 598.06Z" fill="var(--fill-0, black)"/>
<path id="Vector_264" d="M167.96 558.04C166.58 552.13 159.2 554.29 158.12 557.06C154.88 565.4 170.24 567.8 167.96 558.04Z" fill="var(--fill-0, black)"/>
<path id="Vector_265" d="M165.01 620.03C165.58 619.67 165.92 618.84 165.67 617.74C165.19 615.59 164.34 615.68 163.37 615.77C160.37 616.05 161.31 622.38 165.01 620.04V620.03Z" fill="var(--fill-0, black)"/>
<path id="Vector_266" d="M161.08 580.67C162.16 579.69 162.65 577.94 162.39 576.08C161.89 572.5 160.1 571.49 157.47 571.49C147.99 571.49 153.84 587.24 161.08 580.67Z" fill="var(--fill-0, black)"/>
<path id="Vector_267" d="M158.12 637.42C160.22 637.1 159.7 635.44 159.43 634.8C157.49 630.19 153.55 638.13 158.12 637.42Z" fill="var(--fill-0, black)"/>
<path id="Vector_268" d="M156.75 536.32C155.31 537.8 153.86 539.39 152.4 541.09C154.68 540.73 156.66 539.16 156.75 536.32Z" fill="var(--fill-0, black)"/>
<path id="Vector_269" d="M153.86 649.23C145.69 646.81 147.23 659.08 153.86 657.1C155.9 656.49 156.75 654.01 155.83 651.52C155.4 650.34 154.62 649.45 153.86 649.23Z" fill="var(--fill-0, black)"/>
<path id="Vector_270" d="M151.89 598.71C154.15 598.58 156.06 596.9 155.5 593.79C155.08 591.49 153.77 590.18 151.56 590.18C145.79 590.18 146.21 599.04 151.89 598.71Z" fill="var(--fill-0, black)"/>
<path id="Vector_271" d="M144.04 674.88C145.77 672.41 147.58 669.93 149.47 667.44C148.76 666.65 147.76 666.28 146.32 666.28C140.89 666.28 140.51 672.86 144.04 674.88Z" fill="var(--fill-0, black)"/>
<path id="Vector_272" d="M146.32 615.44C148.68 615.24 149.4 613.48 148.94 611.5C148.4 609.16 147.03 608.88 145.99 608.88C141.8 608.88 141.54 615.83 146.32 615.44Z" fill="var(--fill-0, black)"/>
<path id="Vector_273" d="M146.32 555.42C147.15 555.19 148.26 553.98 147.3 552.47C143.87 548.61 141.96 556.62 146.32 555.42Z" fill="var(--fill-0, black)"/>
<path id="Vector_274" d="M136.8 631.52C138.22 634.67 143.88 633.33 143.36 629.55C142.55 623.61 134.81 627.12 136.8 631.52Z" fill="var(--fill-0, black)"/>
<path id="Vector_275" d="M141.4 573.13C143.31 570.97 141 567.54 138.12 569.19C136.21 571.35 138.52 574.78 141.4 573.13Z" fill="var(--fill-0, black)"/>
<path id="Vector_276" d="M134.51 642.99C127.99 642.99 128.74 652.49 134.84 652.18C137.55 652.04 139.58 650.32 138.77 646.6C138.22 644.06 137 642.99 134.51 642.99Z" fill="var(--fill-0, black)"/>
<path id="Vector_277" d="M134.84 592.15C136.47 591.91 138.05 590.83 137.13 587.89C134.61 579.8 125.96 593.48 134.84 592.15Z" fill="var(--fill-0, black)"/>
<path id="Vector_278" d="M123.68 665.3C123.98 671.02 134.72 671.36 133.19 663.99C131.94 657.97 123.39 659.76 123.68 665.3Z" fill="var(--fill-0, black)"/>
<path id="Vector_279" d="M129.26 610.19C130.94 609.86 132.67 608.53 131.56 605.27C130.92 603.43 130.09 602.43 127.29 602.98C123.04 603.81 123.88 611.25 129.26 610.19Z" fill="var(--fill-0, black)"/>
<path id="Vector_280" d="M127.62 622.33C125.76 615.45 115.99 619.02 117.45 625.61C118.83 631.85 129.62 629.71 127.62 622.33Z" fill="var(--fill-0, black)"/>
<path id="Vector_281" d="M123.36 686.95C125.62 686.82 127.53 685.15 126.97 682.03C126.56 679.73 125.24 678.42 123.03 678.42C117.26 678.42 117.68 687.27 123.36 686.95Z" fill="var(--fill-0, black)"/>
<path id="Vector_282" d="M118.44 646.6C120.6 646.07 122.58 644.09 121.39 640.04C120.71 637.74 119.11 636.94 117.78 636.76C108.65 635.46 110.66 648.51 118.44 646.6Z" fill="var(--fill-0, black)"/>
<path id="Vector_283" d="M118.44 703.67C120.24 703.14 120.87 701.09 120.08 699.08C119.44 697.45 118.43 697.2 117.78 697.11C111.76 696.24 113.07 705.25 118.44 703.67Z" fill="var(--fill-0, black)"/>
<path id="Vector_284" d="M111.55 663.66C113.81 663.53 115.72 661.85 115.16 658.74C114.74 656.44 113.43 655.13 111.22 655.13C105.45 655.13 105.87 663.98 111.55 663.66Z" fill="var(--fill-0, black)"/>
<path id="Vector_285" d="M108.92 617.41C108.85 617.09 108.76 616.8 108.66 616.53C107.68 618.58 106.72 620.6 105.78 622.61C108.05 622.31 109.69 620.75 108.92 617.41Z" fill="var(--fill-0, black)"/>
<path id="Vector_286" d="M106.63 680.39C108.43 679.86 109.06 677.81 108.27 675.8C107.63 674.17 106.62 673.93 105.98 673.83C99.96 672.96 101.27 681.97 106.64 680.39H106.63Z" fill="var(--fill-0, black)"/>
<path id="Vector_287" d="M103.35 635.45C103.09 633.8 102.49 632.67 101.44 632.06C100.15 634.91 98.9 637.72 97.69 640.5C98.2 640.66 98.78 640.73 99.42 640.7C101.95 640.57 103.91 638.89 103.35 635.45Z" fill="var(--fill-0, black)"/>
<path id="Vector_288" d="M100.07 697.77C102.05 697.61 102.84 695.95 102.37 694.16C100.46 686.98 92.39 698.4 100.07 697.77Z" fill="var(--fill-0, black)"/>
<path id="Vector_289" d="M96.46 652.83C95.92 650.51 94.56 650.21 93.52 650.21C92.72 652.12 91.93 654.02 91.16 655.89C91.74 656.5 92.63 656.87 93.83 656.77C96.19 656.58 96.91 654.81 96.45 652.84L96.46 652.83Z" fill="var(--fill-0, black)"/>
<path id="Vector_290" d="M87.93 673.17C90.03 672.85 89.51 671.19 89.24 670.55C87.31 665.95 83.36 673.88 87.93 673.17Z" fill="var(--fill-0, black)"/>
<path id="Vector_291" d="M82.36 690.88C84.44 690.09 84.27 687.12 81.7 686.94C81.07 687.41 80.53 687.95 80.06 688.58C80.25 689.92 81.02 690.68 82.36 690.87V690.88Z" fill="var(--fill-0, black)"/>
<path id="Vector_292" d="M77.11 708.27C79.29 706.54 76.21 703.47 74.49 705.65C74.15 707.74 75.02 708.62 77.11 708.27Z" fill="var(--fill-0, black)"/>
<path id="Vector_293" d="M645.58 0H635.83C638.83 1.67 642.7 1.81 645.58 0Z" fill="var(--fill-0, black)"/>
<path id="Vector_294" d="M666.91 0H648.55C650.14 10.15 665.17 8.77 666.91 0Z" fill="var(--fill-0, black)"/>
<path id="Vector_295" d="M317.62 427.98C317.56 427.42 317.51 426.85 317.46 426.27C313.84 427.57 311.63 430.98 311.63 434.71C311.63 439.21 314.49 442.04 317.96 443.1C318.24 438.04 318.15 432.99 317.62 427.98Z" fill="var(--fill-0, black)"/>
<path id="Vector_296" d="M472.01 84.73C461.95 83.61 457.97 97.17 466.76 101.79C461.18 101.23 458.66 103.75 456.59 106.71C457.46 102.17 454.64 98.64 451.67 96.87C458.34 96.85 461.75 93.36 462.17 88.67C463.14 77.88 447.77 75.22 444.46 84.08C445.22 78.11 441.56 73.98 437.9 73.26C427.78 71.27 422.05 85.4 431.67 90.32C427.28 88.85 423.64 92.51 421.83 93.6C421.86 89.31 418.35 86.8 416.91 85.07C429.97 86.43 429.47 67.03 417.89 67.03C408.53 67.03 405.87 80.63 413.63 84.41C408.9 83.32 405.38 86.2 403.46 89C404 75.41 385.09 76.85 385.09 88.02C385.09 97.56 397.62 99.79 402.15 93.27C401.75 97.72 404.95 100.31 406.09 102.13C396.25 101.9 394.16 116.78 402.15 120.17C396.23 119.42 392.3 123.45 391.65 126.73C389.12 139.62 407.37 141.48 409.36 131.32C410.25 126.8 408.45 123.31 404.44 120.82C409.42 121.86 413.05 119.01 414.94 115.9C413.1 127.33 429.38 129.41 432.65 121.15C430.53 129.34 438.45 132.92 444.36 131.62C448.43 127.45 452.6 123.42 456.86 119.53C453.95 120.42 451.78 122.05 450.69 124.76C450.85 120.66 449.03 116.01 445.11 114.92C449.45 114.98 454.32 113.66 455.61 109.67C455.9 113.14 456.73 116.08 458.72 117.84C463.37 113.67 468.14 109.68 473.01 105.89C472.27 104.31 471.16 103.05 469.71 102.45C482.53 103.37 481.63 85.81 472.01 84.74V84.73ZM416.91 111.63C416.67 111.9 416.09 113.46 415.6 112.61H415.93C415.79 108.49 414.51 105.5 411.67 104.08C415.1 103.25 418.41 102.3 419.87 99.49C420.96 102.99 421.93 106.61 425.45 107.69C421.69 107.71 418.95 109.34 416.92 111.63H416.91ZM433.64 118.84C433.27 114.39 432.02 110.84 428.72 109.33C432.83 108.63 436.39 107.38 437.91 104.08C437.89 108.15 439.76 112.86 443.81 113.92C439.65 113.76 434.92 115.11 433.64 118.84ZM439.54 100.47C438.76 96.33 437.66 92.51 433.96 91.29C438.16 91.11 441.18 89.77 443.15 87.35C443.1 86.53 443.66 86.33 443.81 85.71C444.04 85.08 444.32 86.06 443.81 86.04C443.65 91.34 445.58 94.55 449.39 95.88C445.56 95.85 440.93 97.05 439.55 100.47H439.54Z" fill="var(--fill-0, black)"/>
<path id="Vector_297" d="M240.45 555.09C235.04 554.82 232.76 557.68 230.61 560.67C231.63 552.89 225.51 548.66 219.46 549.84C211.6 551.39 210.44 563.85 217.82 566.9C212.57 566.02 209.72 569.29 207.98 570.84C207.36 564.93 203.44 561.18 198.14 561.33C188.54 561.59 186.56 574.81 193.22 579.04C180.31 578.51 181.41 596.31 191.25 597.41C201.95 598.6 204.85 584.65 197.48 580.02C201.52 581.19 205.13 577.42 206.66 576.09C206.02 581.21 209.96 583.5 211.58 585.27C198.93 583.77 198.74 601.17 207.97 602.98C217.76 604.9 224.05 591.4 214.2 585.92C219.9 586.92 222.76 583.33 224.7 581.66C224.55 585.56 226.07 588.22 228.29 589.74C232.66 585.49 236.97 581.2 241.2 576.85C240.35 575.82 239.41 574.94 238.8 574.12C243.73 574.68 246.08 570.9 247.98 569.53C247.98 569.6 247.99 569.67 247.99 569.74C250.67 566.89 253.31 564.02 255.9 561.13C252.84 561.87 250.26 563.09 249.29 565.92C248.85 561.44 247.36 558 244.04 556.41C248.33 555.99 251.73 554.7 253.22 551.49C253.6 555.18 254.4 558.45 256.86 560.05C261.07 555.33 265.16 550.56 269.09 545.76C268.03 544.71 266.68 543.94 265.03 543.62C260.5 542.75 256.2 545.39 254.53 547.88C254.48 541.86 251.45 538.25 246.66 537.71C236.09 536.53 233.12 550.58 240.43 555.09H240.45ZM226.02 577.72C225.7 572.9 224.16 569.3 220.44 567.88C225.22 567.52 228.78 565.95 229.95 561.98C229.51 566.54 231.23 571.28 234.87 572.81C230.76 573.29 227.48 574.6 226.01 577.73L226.02 577.72Z" fill="var(--fill-0, black)"/>
<path id="Vector_298" d="M460.53 1283.59C460.73 1288.6 464.87 1290.41 468.51 1289.69C467.62 1286.51 466.24 1282.35 464.14 1277.57C462.01 1278.69 460.41 1280.8 460.52 1283.59H460.53Z" fill="var(--fill-0, black)"/>
<path id="Vector_299" d="M455.61 1299C453.72 1309.07 470.14 1309.47 467.75 1299C465.99 1291.34 456.44 1294.62 455.61 1299Z" fill="var(--fill-0, black)"/>
<path id="Vector_300" d="M458.8 1267.03C456.35 1262.8 453.38 1258.35 449.78 1253.85C448.36 1255.2 447.41 1257.14 447.41 1259.64C447.41 1266.21 454.02 1268.73 458.79 1267.03H458.8Z" fill="var(--fill-0, black)"/>
<path id="Vector_301" d="M451.03 1318.5H460.67C460.66 1318.15 460.62 1317.77 460.53 1317.37C459.3 1311.42 450.94 1313.11 451.03 1318.5Z" fill="var(--fill-0, black)"/>
<path id="Vector_302" d="M450.36 1284.9C455.96 1284.7 458.13 1280.12 457.25 1275.72C456.31 1271.01 453.93 1269.66 449.71 1269.82C440.27 1270.16 440.43 1285.27 450.37 1284.91L450.36 1284.9Z" fill="var(--fill-0, black)"/>
<path id="Vector_303" d="M435.6 1240.62C436.91 1243.19 439.32 1244.63 441.93 1245.04C439.71 1242.79 437.31 1240.56 434.74 1238.37C434.93 1239.1 435.21 1239.85 435.61 1240.63L435.6 1240.62Z" fill="var(--fill-0, black)"/>
<path id="Vector_304" d="M451.35 1293.76C450.57 1289.19 447.72 1287.53 444.14 1287.53C434.45 1287.53 434.08 1302.62 444.14 1302.62C449.22 1302.62 452.23 1298.83 451.35 1293.76Z" fill="var(--fill-0, black)"/>
<path id="Vector_305" d="M429.7 1251.77C427.09 1262.16 439.92 1264.37 444.13 1259.97C445.35 1258.69 446.2 1255.5 446.1 1253.74C445.49 1243.01 431.62 1244.13 429.7 1251.77Z" fill="var(--fill-0, black)"/>
<path id="Vector_306" d="M432.32 1309.83C430.63 1314.11 432.61 1317.15 435.48 1318.5H442.33C443.4 1317.92 444.28 1317 444.79 1315.73C445.31 1314.42 445.25 1312.57 444.79 1310.81C443.29 1305.14 434.43 1304.5 432.33 1309.83H432.32Z" fill="var(--fill-0, black)"/>
<path id="Vector_307" d="M439.87 1271.13C439.35 1265.84 436.54 1263.76 432 1263.91C423.03 1264.2 421.72 1279.65 432.33 1279.65C437.9 1279.65 440.29 1275.32 439.87 1271.12V1271.13Z" fill="var(--fill-0, black)"/>
<path id="Vector_308" d="M432.32 1237.01C432.43 1236.9 432.54 1236.77 432.65 1236.62C428.37 1233.14 423.61 1229.76 418.31 1226.58C413.83 1234.47 425.13 1244.21 432.33 1237.01H432.32Z" fill="var(--fill-0, black)"/>
<path id="Vector_309" d="M433.96 1290.15C434.06 1289.15 433.84 1288.55 433.63 1287.53C432.8 1283.41 430.85 1281.98 427.4 1281.63C421.59 1281.03 419.12 1284.78 418.87 1288.52C418.2 1298.69 433.02 1299.26 433.96 1290.16V1290.15Z" fill="var(--fill-0, black)"/>
<path id="Vector_310" d="M428.39 1247.18C427.15 1237.51 414.64 1238.93 412.64 1245.54C409.01 1257.59 430.08 1260.41 428.39 1247.18Z" fill="var(--fill-0, black)"/>
<path id="Vector_311" d="M414.28 1305.24C412.39 1315.56 429.44 1315.8 427.07 1305.24C425.47 1298.1 415.34 1299.45 414.28 1305.24Z" fill="var(--fill-0, black)"/>
<path id="Vector_312" d="M422.16 1265.22C421.64 1259.93 418.83 1257.85 414.29 1258C405.32 1258.29 404.02 1273.75 414.62 1273.75C420.19 1273.75 422.58 1269.41 422.16 1265.22Z" fill="var(--fill-0, black)"/>
<path id="Vector_313" d="M416.58 1282.27C415.01 1272.75 400.85 1274.83 401.16 1283.91C401.52 1294.16 418.45 1293.58 416.58 1282.27Z" fill="var(--fill-0, black)"/>
<path id="Vector_314" d="M408.38 1233.07C413.14 1233.07 416.2 1229.73 416.32 1225.4C412.21 1223.02 407.77 1220.77 403.01 1218.66C398.32 1223.03 399.95 1233.07 408.38 1233.07Z" fill="var(--fill-0, black)"/>
<path id="Vector_315" d="M399.85 1250.46C406.57 1252.63 411.98 1247.85 410.67 1240.95C410 1237.44 407.65 1235.33 405.75 1234.72C393.4 1230.73 391.35 1247.72 399.85 1250.46Z" fill="var(--fill-0, black)"/>
<path id="Vector_316" d="M404.77 1295.07C395.87 1293.2 394.08 1305.09 401.16 1307.2C406.55 1308.81 410.24 1304.47 409.03 1299.66C408.36 1297 406.19 1295.37 404.77 1295.07Z" fill="var(--fill-0, black)"/>
<path id="Vector_317" d="M405.1 1258.33C404.27 1254.28 401.93 1252.68 400.18 1252.1C393.94 1250.02 389.72 1253.98 388.7 1257.02C384 1271.09 408.13 1273.07 405.1 1258.33Z" fill="var(--fill-0, black)"/>
<path id="Vector_318" d="M399.2 1315.08C395.3 1313.92 393.62 1316.11 393.64 1318.5H401.45C401.39 1318.13 401.3 1317.75 401.16 1317.37C400.73 1316.19 399.95 1315.3 399.19 1315.07L399.2 1315.08Z" fill="var(--fill-0, black)"/>
<path id="Vector_319" d="M399.53 1217.99C399.48 1217.68 399.42 1217.39 399.35 1217.1C395.07 1215.34 390.54 1213.71 385.74 1212.22C383.63 1213.63 382.14 1216 382.14 1219.3C382.14 1231.57 401.3 1229.94 399.52 1217.99H399.53Z" fill="var(--fill-0, black)"/>
<path id="Vector_320" d="M378.86 1230.12C375.58 1233.23 375.29 1239.49 378.53 1242.91C384.23 1248.92 395.25 1243.91 393.62 1235.04C392.33 1228.01 384.01 1225.24 378.86 1230.12Z" fill="var(--fill-0, black)"/>
<path id="Vector_321" d="M386.41 1287.85C380.6 1287.26 378.13 1291 377.88 1294.74C377.21 1304.91 392.03 1305.48 392.97 1296.38C393.07 1295.38 392.85 1294.78 392.64 1293.76C391.81 1289.65 389.87 1288.21 386.41 1287.85Z" fill="var(--fill-0, black)"/>
<path id="Vector_322" d="M380.17 1308.19C372.23 1307.82 373.84 1318.64 380.5 1318.03C383.17 1317.78 385.45 1315.92 384.44 1311.8C383.79 1309.15 382.03 1308.28 380.18 1308.19H380.17Z" fill="var(--fill-0, black)"/>
<path id="Vector_323" d="M371.32 1281.62C355.81 1276.44 355.86 1303.18 371.32 1298.02C377.92 1295.81 378.61 1284.05 371.32 1281.62Z" fill="var(--fill-0, black)"/>
<path id="Vector_324" d="M355.9 1305.89C354.01 1315.96 370.44 1316.36 368.04 1305.89C366.28 1298.23 356.73 1301.51 355.9 1305.89Z" fill="var(--fill-0, black)"/>
<path id="Vector_325" d="M346.72 1208.15C346.81 1211.09 348.67 1215.18 352.95 1216.35C359.45 1218.12 364.43 1213.56 364.43 1207.82C364.43 1207.46 364.41 1207.11 364.38 1206.77C358.52 1205.49 352.98 1204.42 347.7 1203.51C347.04 1204.78 346.67 1206.32 346.72 1208.15Z" fill="var(--fill-0, black)"/>
<path id="Vector_326" d="M350.98 1275.39C339.77 1274.73 338.71 1291.8 349.67 1292.45C355.61 1292.8 359.57 1287.88 358.53 1282.28C357.68 1277.72 355.45 1275.66 350.99 1275.39H350.98Z" fill="var(--fill-0, black)"/>
<path id="Vector_327" d="M337.21 1302.94C338.08 1309.67 348.33 1310.74 350.99 1305.23C351.72 1303.73 351.74 1302.12 351.32 1299.98C349.5 1290.85 336.06 1294.03 337.22 1302.93L337.21 1302.94Z" fill="var(--fill-0, black)"/>
<path id="Vector_328" d="M332.61 1316.39C332.32 1317.13 332.14 1317.84 332.06 1318.5H345.31C345.25 1318.12 345.18 1317.75 345.08 1317.37C343.58 1311.7 334.72 1311.06 332.62 1316.38L332.61 1316.39Z" fill="var(--fill-0, black)"/>
<path id="Vector_329" d="M344.83 1203.03C339.96 1202.23 335.31 1201.56 330.87 1200.98C330.45 1204.87 332.8 1209.13 337.86 1209.13C341.58 1209.13 344.54 1206.95 344.83 1203.03Z" fill="var(--fill-0, black)"/>
<path id="Vector_330" d="M324.09 1278.67C324.39 1289.03 342.68 1289.58 340.82 1277.03C339.29 1266.72 323.79 1268.21 324.09 1278.67Z" fill="var(--fill-0, black)"/>
<path id="Vector_331" d="M323.76 1219.95C324.06 1230.31 342.35 1230.86 340.49 1218.31C338.96 1207.99 323.46 1209.49 323.76 1219.95Z" fill="var(--fill-0, black)"/>
<path id="Vector_332" d="M333.93 1294.08C332.83 1289.47 330.3 1287.64 325.07 1288.5C316.74 1289.88 317.43 1305.4 328.35 1303.59C332.87 1302.84 334.9 1298.19 333.93 1294.08Z" fill="var(--fill-0, black)"/>
<path id="Vector_333" d="M319.49 1305.89C313.79 1306.83 312.32 1314.4 315.45 1318.5H326.95C328.43 1316.6 328.94 1313.94 328.35 1311.47C327.25 1306.86 324.73 1305.03 319.49 1305.89Z" fill="var(--fill-0, black)"/>
<path id="Vector_334" d="M316.28 1199.31C317.25 1200.59 318.79 1201.45 320.8 1201.26C321.89 1201.16 322.9 1200.79 323.67 1200.11C321.15 1199.82 318.68 1199.56 316.28 1199.31Z" fill="var(--fill-0, black)"/>
<path id="Vector_335" d="M323.1 1270.14C320.9 1260.63 308.64 1263.27 306.7 1269.15C302.03 1283.33 326.58 1285.17 323.1 1270.14Z" fill="var(--fill-0, black)"/>
<path id="Vector_336" d="M320.81 1212.08C319.21 1204.94 309.08 1206.29 308.02 1212.08C306.14 1222.4 323.18 1222.64 320.81 1212.08Z" fill="var(--fill-0, black)"/>
<path id="Vector_337" d="M306.38 1298.02C313.1 1300.19 318.51 1295.41 317.2 1288.51C316.53 1285 314.18 1282.89 312.28 1282.28C299.93 1278.3 297.88 1295.28 306.38 1298.03V1298.02Z" fill="var(--fill-0, black)"/>
<path id="Vector_338" d="M316.21 1229.47C314.38 1221.22 302.18 1222.31 300.8 1229.47C298.33 1242.2 319.1 1242.46 316.21 1229.47Z" fill="var(--fill-0, black)"/>
<path id="Vector_339" d="M310.97 1247.84C309.35 1238.06 294.9 1239.91 294.9 1249.15C294.9 1259.37 313.03 1260.31 310.97 1247.84Z" fill="var(--fill-0, black)"/>
<path id="Vector_340" d="M304.41 1300.65C292.58 1299.39 294.29 1316.55 304.74 1315.08C308.39 1314.57 311.46 1311.72 310.32 1306.23C309.57 1302.63 307.11 1300.94 304.42 1300.65H304.41Z" fill="var(--fill-0, black)"/>
<path id="Vector_341" d="M305.39 1264.89C303.27 1255.07 289.94 1258.06 288.66 1264.89C286.09 1278.63 308.37 1278.7 305.39 1264.89Z" fill="var(--fill-0, black)"/>
<path id="Vector_342" d="M291.29 1208.8C291.87 1216.08 303.89 1214.9 302.11 1206.83C300.46 1199.32 290.83 1203.07 291.29 1208.8Z" fill="var(--fill-0, black)"/>
<path id="Vector_343" d="M297.85 1290.47C299.24 1288.97 300.06 1286.54 299.82 1283.91C299.17 1276.71 290.73 1273.69 285.72 1278.33C277.36 1286.08 290.28 1298.63 297.86 1290.46L297.85 1290.47Z" fill="var(--fill-0, black)"/>
<path id="Vector_344" d="M298.18 1223.89C297.43 1220.8 295.37 1219.46 293.59 1218.97C286.32 1216.95 283.09 1223.05 284.08 1227.82C285.85 1236.42 300.55 1233.64 298.18 1223.89Z" fill="var(--fill-0, black)"/>
<path id="Vector_345" d="M279.48 1237.01C271.12 1244.76 284.04 1257.31 291.61 1249.15C293 1247.65 293.82 1245.21 293.58 1242.59C292.93 1235.38 284.48 1232.37 279.48 1237.01Z" fill="var(--fill-0, black)"/>
<path id="Vector_346" d="M279.15 1299.33C275.31 1310.48 294.93 1312.16 292.27 1300.31C290.5 1292.42 280.74 1294.72 279.15 1299.33Z" fill="var(--fill-0, black)"/>
<path id="Vector_347" d="M277.51 1252.1C275.8 1252.39 272.97 1254.43 271.62 1256.89C272 1254.9 271.58 1252.61 269.97 1250.14C268.92 1248.53 267.22 1247.93 265.38 1246.53C279.79 1249.13 279.5 1228.15 267.35 1228.49C257.19 1228.78 255.43 1243.81 265.05 1246.53C258.99 1245.04 255.1 1248.32 253.24 1252.11C254.58 1246.19 251.33 1242.28 247.34 1240.63C257.76 1243.16 261.97 1231.61 256.52 1225.87C253.57 1222.75 247.4 1222.06 243.73 1225.54C239.22 1229.81 241.23 1239.11 247.01 1240.63C245.51 1240.34 244.25 1240.17 243.07 1240.3C228.49 1241.89 237.19 1266.15 249.96 1257.03C251.48 1255.94 252.05 1254.43 253.24 1252.44C252.95 1254.33 252.67 1255.87 252.91 1257.36C254.5 1267.23 267.49 1265.57 270.92 1258.91C269.58 1266.54 276.29 1271.7 283.09 1269.5C291.04 1266.92 291.13 1249.78 277.51 1252.11V1252.1Z" fill="var(--fill-0, black)"/>
<path id="Vector_348" d="M272.59 1200.27C270.11 1210.79 284.28 1210.4 285.71 1204.21C285.99 1203.01 285.85 1202.03 285.38 1200.27C283.46 1193.15 273.7 1195.56 272.59 1200.27Z" fill="var(--fill-0, black)"/>
<path id="Vector_349" d="M275.06 1318.5H285.19C285.15 1318.35 285.11 1318.2 285.06 1318.03C283.39 1312.16 276.48 1314.26 275.06 1318.5Z" fill="var(--fill-0, black)"/>
<path id="Vector_350" d="M267.67 1272.76C259.89 1280.97 272.73 1292.38 280.13 1284.57C281.61 1283 282.47 1280.61 282.1 1277.68C281.19 1270.57 272.49 1267.68 267.67 1272.76Z" fill="var(--fill-0, black)"/>
<path id="Vector_351" d="M265.7 1217.99C263.23 1230.73 284 1230.98 281.11 1217.99C279.27 1209.74 267.08 1210.83 265.7 1217.99Z" fill="var(--fill-0, black)"/>
<path id="Vector_352" d="M262.1 1293.43C258.45 1302.67 271.88 1306.13 274.56 1299.34C275.08 1298.03 275.03 1296.18 274.56 1294.42C273.06 1288.75 264.2 1288.11 262.1 1293.43Z" fill="var(--fill-0, black)"/>
<path id="Vector_353" d="M267.31 1192.44C264.42 1191.67 261.53 1190.79 258.62 1189.77C251.16 1192.19 253.61 1205.17 262.75 1203.89C266.4 1203.38 269.47 1200.53 268.33 1195.03C268.12 1194.01 267.76 1193.17 267.31 1192.44Z" fill="var(--fill-0, black)"/>
<path id="Vector_354" d="M262.75 1309.83C255.47 1309.45 257.29 1319.38 263.41 1318.36C265.48 1318.02 267.43 1316.44 266.36 1312.78C265.69 1310.48 264.32 1309.91 262.75 1309.83Z" fill="var(--fill-0, black)"/>
<path id="Vector_355" d="M247.99 1273.09C247.99 1283.92 265.93 1283.78 264.06 1271.78C262.54 1262.07 247.99 1263.23 247.99 1273.09Z" fill="var(--fill-0, black)"/>
<path id="Vector_356" d="M255.87 1222.25C261.44 1222.25 263.82 1217.92 263.41 1213.72C262.89 1208.43 260.08 1206.35 255.54 1206.5C246.57 1206.79 245.26 1222.24 255.87 1222.24V1222.25Z" fill="var(--fill-0, black)"/>
<path id="Vector_357" d="M252.58 1284.24C245.41 1282.6 243.5 1288.6 244.38 1292.44C245.93 1299.23 259.02 1297.81 256.51 1288.5C255.85 1286.05 253.76 1284.51 252.57 1284.24H252.58Z" fill="var(--fill-0, black)"/>
<path id="Vector_358" d="M250.53 1186.57C248.16 1185.52 245.75 1184.37 243.31 1183.1C243.02 1183.13 242.72 1183.17 242.42 1183.22C234.09 1184.6 234.78 1200.12 245.7 1198.31C250.22 1197.56 252.25 1192.91 251.28 1188.8C251.08 1187.97 250.83 1187.23 250.54 1186.57H250.53Z" fill="var(--fill-0, black)"/>
<path id="Vector_359" d="M245.37 1304.25C236.93 1303.23 241.68 1317.12 247.67 1311.14C248.34 1310.47 248.95 1308.9 248.33 1306.87C247.52 1304.22 246.12 1304.34 245.38 1304.25H245.37Z" fill="var(--fill-0, black)"/>
<path id="Vector_360" d="M246.02 1265.87C244.45 1256.35 230.29 1258.43 230.6 1267.51C230.96 1277.77 247.89 1277.18 246.02 1265.87Z" fill="var(--fill-0, black)"/>
<path id="Vector_361" d="M230.94 1210.44C232.71 1219.04 247.41 1216.26 245.04 1206.5C244.29 1203.41 242.23 1202.08 240.45 1201.58C233.18 1199.57 229.95 1205.67 230.94 1210.44Z" fill="var(--fill-0, black)"/>
<path id="Vector_362" d="M232.25 1218.32C223.28 1218.61 221.97 1234.06 232.58 1234.06C238.15 1234.06 240.53 1229.72 240.12 1225.53C239.6 1220.24 236.79 1218.17 232.25 1218.32Z" fill="var(--fill-0, black)"/>
<path id="Vector_363" d="M226.59 1285.55C227.82 1287.2 228.89 1288.79 229.8 1290.31C233.55 1292.24 239.15 1289.36 238.8 1284.57C238.09 1274.82 226.04 1279.21 226.59 1285.55Z" fill="var(--fill-0, black)"/>
<path id="Vector_364" d="M226.67 1252.1C231.97 1252.1 235.18 1247.96 234.54 1242.92C233.9 1237.86 230.6 1235.7 226.67 1235.7C216.22 1235.7 215.9 1252.1 226.67 1252.1Z" fill="var(--fill-0, black)"/>
<path id="Vector_365" d="M219.79 1185.19C219.79 1193.72 233.58 1193.21 232.58 1184.53C231.66 1176.55 219.79 1177.05 219.79 1185.19Z" fill="var(--fill-0, black)"/>
<path id="Vector_366" d="M221.1 1269.48C226.67 1269.48 229.05 1265.14 228.64 1260.95C228.12 1255.66 225.31 1253.58 220.77 1253.74C211.8 1254.03 210.5 1269.48 221.1 1269.48Z" fill="var(--fill-0, black)"/>
<path id="Vector_367" d="M215.85 1207.16C219.34 1211.04 226.75 1208.06 226.35 1202.57C225.51 1191.03 208.78 1199.3 215.85 1207.16Z" fill="var(--fill-0, black)"/>
<path id="Vector_368" d="M214.44 1272.4C217.22 1274.96 219.66 1277.4 221.77 1279.73C221.83 1279.18 221.84 1278.61 221.75 1278.01C221.03 1273 217.65 1271.67 214.44 1272.4Z" fill="var(--fill-0, black)"/>
<path id="Vector_369" d="M221.1 1219.63C219.81 1211.43 208.02 1213.58 208.31 1220.94C208.64 1229.39 222.55 1228.83 221.1 1219.63Z" fill="var(--fill-0, black)"/>
<path id="Vector_370" d="M212.24 1164.19C212.95 1164.87 214.63 1165.01 215.87 1164.72C214.47 1163.6 213.06 1162.44 211.63 1161.24C211.47 1162.33 211.64 1163.55 212.24 1164.2V1164.19Z" fill="var(--fill-0, black)"/>
<path id="Vector_371" d="M215.52 1241.6C216.24 1240.1 216.27 1238.49 215.85 1236.35C214.03 1227.22 200.59 1230.4 201.75 1239.3C202.62 1246.04 212.87 1247.1 215.53 1241.6H215.52Z" fill="var(--fill-0, black)"/>
<path id="Vector_372" d="M206.01 1176.66C200.78 1181.89 213.48 1185.89 211.91 1178.63C211.31 1175.83 208.08 1174.59 206.01 1176.66Z" fill="var(--fill-0, black)"/>
<path id="Vector_373" d="M201.75 1248.16C197.22 1248.91 195.36 1253.84 196.37 1257.9C198.98 1259.77 201.44 1261.6 203.73 1263.38C204.15 1263.36 204.58 1263.33 205.04 1263.25C209.56 1262.5 211.59 1257.85 210.62 1253.74C209.52 1249.13 207 1247.3 201.76 1248.16H201.75Z" fill="var(--fill-0, black)"/>
<path id="Vector_374" d="M198.14 1197C198.14 1202.88 208.8 1203.83 207.65 1196.34C206.67 1190 198.14 1191.94 198.14 1197Z" fill="var(--fill-0, black)"/>
<path id="Vector_375" d="M204.04 1213.72C203.47 1209.82 201.3 1207.49 197.15 1207.49C187.68 1207.49 187.83 1221.92 197.15 1221.92C201.49 1221.92 204.8 1218.97 204.04 1213.72Z" fill="var(--fill-0, black)"/>
<path id="Vector_376" d="M189.61 1240.62C196.73 1241.95 200.74 1236.41 199.45 1230.45C198.67 1226.85 195.91 1224.66 193.55 1224.22C180.7 1221.81 180.83 1238.97 189.61 1240.62Z" fill="var(--fill-0, black)"/>
<path id="Vector_377" d="M197.15 1157.96C199.25 1157.64 198.73 1155.97 198.46 1155.34C196.52 1150.73 192.58 1158.67 197.15 1157.96Z" fill="var(--fill-0, black)"/>
<path id="Vector_378" d="M178.88 1246.27C183.63 1249.23 187.99 1252.08 192 1254.84C193.09 1253.38 193.64 1251.38 193.21 1248.82C191.92 1241.01 182.17 1241.01 178.87 1246.27H178.88Z" fill="var(--fill-0, black)"/>
<path id="Vector_379" d="M192.23 1175.67C192.8 1175.31 193.14 1174.48 192.89 1173.37C192.41 1171.22 191.56 1171.31 190.59 1171.4C187.58 1171.67 188.53 1178.01 192.23 1175.66V1175.67Z" fill="var(--fill-0, black)"/>
<path id="Vector_380" d="M189.61 1191.09C188.66 1182.25 176.85 1189.48 182.07 1194.7C185.12 1197.74 189.99 1194.65 189.61 1191.09Z" fill="var(--fill-0, black)"/>
<path id="Vector_381" d="M184.49 1136.83C183.27 1135.69 182.09 1134.58 180.94 1133.5C181.38 1135.16 182.62 1136.63 184.49 1136.83Z" fill="var(--fill-0, black)"/>
<path id="Vector_382" d="M186.66 1207.16C185.56 1202.55 183.04 1200.72 177.8 1201.58C169.47 1202.96 170.16 1218.48 181.08 1216.67C185.6 1215.92 187.63 1211.27 186.66 1207.16Z" fill="var(--fill-0, black)"/>
<path id="Vector_383" d="M169.93 1235.04C177.88 1238.43 184.1 1231.43 182.72 1224.54C182.02 1221.05 179.55 1218.73 177.8 1217.98C164.79 1212.43 160.86 1231.16 169.93 1235.04Z" fill="var(--fill-0, black)"/>
<path id="Vector_384" d="M179.44 1154.03C181.9 1153.87 183.08 1151.93 182.39 1149.44C179.95 1140.59 170.04 1154.66 179.44 1154.03Z" fill="var(--fill-0, black)"/>
<path id="Vector_385" d="M173.54 1171.41C176 1171.25 177.18 1169.31 176.49 1166.82C174.05 1157.97 164.14 1172.04 173.54 1171.41Z" fill="var(--fill-0, black)"/>
<path id="Vector_386" d="M168.62 1235.7C166.47 1235.57 164.7 1236.1 163.32 1237.03C167.93 1239.65 172.27 1242.21 176.33 1244.69C176.35 1244 176.31 1243.3 176.17 1242.58C175.32 1238.02 173.09 1235.95 168.63 1235.69L168.62 1235.7Z" fill="var(--fill-0, black)"/>
<path id="Vector_387" d="M169.28 1190.43C171.44 1189.9 173.42 1187.92 172.23 1183.87C171.55 1181.57 169.95 1180.78 168.62 1180.59C159.48 1179.29 161.5 1192.34 169.28 1190.43Z" fill="var(--fill-0, black)"/>
<path id="Vector_388" d="M171.9 1125.82C171.76 1125.17 171.53 1124.62 171.24 1124.15C170.72 1123.64 170.21 1123.14 169.71 1122.64C166.78 1121 162.17 1123.03 162.38 1127.13C162.68 1132.85 173.42 1133.19 171.89 1125.82H171.9Z" fill="var(--fill-0, black)"/>
<path id="Vector_389" d="M168.29 1201.26C166.5 1193.89 156.81 1195.8 155.17 1200.28C150.9 1211.91 171.31 1213.71 168.29 1201.26Z" fill="var(--fill-0, black)"/>
<path id="Vector_390" d="M154.52 1144.84C154.88 1154.16 168.9 1152.43 167.97 1143.86C166.97 1134.62 154.22 1137.1 154.52 1144.84Z" fill="var(--fill-0, black)"/>
<path id="Vector_391" d="M164.36 1219.3C161.95 1206.15 142.66 1214.22 148.61 1225.21C153.06 1233.42 166.09 1228.8 164.36 1219.3Z" fill="var(--fill-0, black)"/>
<path id="Vector_392" d="M155.83 1169.44C160.17 1169.44 163.48 1166.48 162.72 1161.24C162.15 1157.34 159.98 1155.01 155.83 1155.01C146.36 1155.01 146.51 1169.44 155.83 1169.44Z" fill="var(--fill-0, black)"/>
<path id="Vector_393" d="M156.12 1232.85C155.26 1231.94 154.21 1231.33 153.08 1230.99C154.09 1231.62 155.11 1232.24 156.12 1232.85Z" fill="var(--fill-0, black)"/>
<path id="Vector_394" d="M152.32 1104.66C152.43 1105.12 152.61 1105.52 152.88 1105.81C153.11 1106.03 153.46 1106.19 153.85 1106.31C153.33 1105.75 152.82 1105.2 152.32 1104.66Z" fill="var(--fill-0, black)"/>
<path id="Vector_395" d="M156.48 1178.62C155.03 1170.65 143.03 1171.96 143.03 1179.93C143.03 1188.54 158.38 1189.1 156.48 1178.62Z" fill="var(--fill-0, black)"/>
<path id="Vector_396" d="M144.68 1121.22C144.68 1127.1 155.34 1128.05 154.19 1120.56C153.21 1114.22 144.68 1116.16 144.68 1121.22Z" fill="var(--fill-0, black)"/>
<path id="Vector_397" d="M140.74 1146.81C147.46 1148.98 152.87 1144.2 151.56 1137.3C150.89 1133.79 148.54 1131.68 146.64 1131.07C134.29 1127.09 132.24 1144.07 140.74 1146.81Z" fill="var(--fill-0, black)"/>
<path id="Vector_398" d="M150.91 1196.67C149.62 1188.04 137.16 1190.21 137.46 1197.98C137.79 1206.21 152.44 1206.87 150.91 1196.67Z" fill="var(--fill-0, black)"/>
<path id="Vector_399" d="M137.46 1164.85C143.4 1165.2 147.36 1160.28 146.32 1154.68C145.47 1150.12 143.24 1148.06 138.77 1147.79C127.56 1147.13 126.5 1164.2 137.46 1164.85Z" fill="var(--fill-0, black)"/>
<path id="Vector_400" d="M131.56 1215.36C131.56 1215.6 131.59 1215.83 131.63 1216.05C134.1 1217.95 136.59 1219.81 139.09 1221.61C142.56 1221.48 145.77 1219.1 145.01 1214.05C143.71 1205.42 131.25 1207.59 131.56 1215.36Z" fill="var(--fill-0, black)"/>
<path id="Vector_401" d="M136.8 1095.31C131.33 1097.02 139.14 1103.68 140.41 1098.91C140.54 1098.44 140.43 1097.77 140.08 1096.94C139.5 1095.56 139.2 1094.55 136.8 1095.3V1095.31Z" fill="var(--fill-0, black)"/>
<path id="Vector_402" d="M134.84 1179.61C137.57 1178.56 138.64 1175.78 137.79 1172.39C137.13 1169.75 135.51 1168.85 134.18 1168.46C122.52 1164.98 125.05 1183.39 134.84 1179.61Z" fill="var(--fill-0, black)"/>
<path id="Vector_403" d="M136.48 1114.34C135.23 1108.32 126.68 1110.11 126.97 1115.65C127.27 1121.37 138.01 1121.71 136.48 1114.34Z" fill="var(--fill-0, black)"/>
<path id="Vector_404" d="M131.88 1131.72C130.38 1124.47 120.63 1127.1 120.4 1132.7C120.09 1140.35 133.9 1141.44 131.88 1131.72Z" fill="var(--fill-0, black)"/>
<path id="Vector_405" d="M128.28 1187.15C119.05 1184.8 120.91 1198.21 128.28 1196.33C130.81 1195.69 131.79 1192.95 130.9 1190.1C130.36 1188.36 129.17 1187.37 128.28 1187.15Z" fill="var(--fill-0, black)"/>
<path id="Vector_406" d="M118.44 1156.32C124.01 1157.74 126.99 1153.18 125.66 1148.78C125.04 1146.75 123.17 1145.37 122.38 1145.17C113.44 1142.89 112.3 1154.76 118.44 1156.32Z" fill="var(--fill-0, black)"/>
<path id="Vector_407" d="M121.06 1204.87C120.02 1204.82 119.16 1204.97 118.45 1205.27C120.68 1207.2 122.92 1209.1 125.18 1210.95C125.33 1210.18 125.29 1209.25 124.99 1208.16C124.33 1205.75 122.75 1204.97 121.05 1204.88L121.06 1204.87Z" fill="var(--fill-0, black)"/>
<path id="Vector_408" d="M119.09 1088.42C114.84 1089.25 115.68 1096.69 121.06 1095.64C122.74 1095.31 124.47 1093.98 123.36 1090.72C122.72 1088.88 121.89 1087.88 119.09 1088.42Z" fill="var(--fill-0, black)"/>
<path id="Vector_409" d="M114.83 1114.34C117.4 1114.07 119.49 1112.29 118.44 1108.44C117.78 1106.03 116.2 1105.25 114.5 1105.16C106.98 1104.76 108.6 1115 114.83 1114.34Z" fill="var(--fill-0, black)"/>
<path id="Vector_410" d="M118.44 1167.47C117.88 1165.27 116.83 1164.52 114.83 1164.52C109.11 1164.52 109.93 1172.39 114.83 1172.39C117.47 1172.39 119.31 1170.89 118.44 1167.47Z" fill="var(--fill-0, black)"/>
<path id="Vector_411" d="M108.92 1130.08C110.33 1129.94 111.54 1128.95 110.89 1126.8C108.96 1120.42 102.38 1130.74 108.92 1130.08Z" fill="var(--fill-0, black)"/>
<path id="Vector_412" d="M110.56 1067.76C108.13 1060.99 100.74 1072.32 108.26 1071.69C110.05 1071.54 111.56 1070.54 110.56 1067.76Z" fill="var(--fill-0, black)"/>
<path id="Vector_413" d="M109.25 1188.14C111.35 1187.82 110.83 1186.16 110.56 1185.52C108.62 1180.91 104.68 1188.85 109.25 1188.14Z" fill="var(--fill-0, black)"/>
<path id="Vector_414" d="M105.97 1085.47C104.64 1080.34 98.43 1083.11 98.43 1086.45C98.43 1091.11 107.68 1092.03 105.97 1085.47Z" fill="var(--fill-0, black)"/>
<path id="Vector_415" d="M102.04 1143.53C101.97 1143.9 101.68 1144.04 101.38 1144.19C101.24 1145.53 101.71 1146.26 103.02 1146.16C104.61 1145.81 104.19 1142.92 102.04 1143.54V1143.53Z" fill="var(--fill-0, black)"/>
<path id="Vector_416" d="M101.38 1102.53C100 1096.62 92.61 1098.78 91.54 1101.55C88.3 1109.9 103.66 1112.29 101.38 1102.53Z" fill="var(--fill-0, black)"/>
<path id="Vector_417" d="M100.07 734.83C100.09 734.63 100.12 734.44 100.4 734.5V733.84C100.2 733.82 100.01 733.79 100.07 733.51H99.42C99.4 733.71 99.37 733.9 99.09 733.84V734.5C99.29 734.52 99.48 734.55 99.42 734.83H100.07Z" fill="var(--fill-0, black)"/>
<path id="Vector_418" d="M96.74 1047.81C95.77 1046.4 94.8 1044.95 93.83 1043.46C92.54 1045.43 94.66 1048.01 96.74 1047.81Z" fill="var(--fill-0, black)"/>
<path id="Vector_419" d="M95.8 1161.57C95.8 1162.44 95.68 1163.44 96.13 1163.87H98.1C99.46 1162.24 97.43 1160.21 95.8 1161.57Z" fill="var(--fill-0, black)"/>
<path id="Vector_420" d="M94.82 751.24C94.76 750.75 94.03 750.94 93.51 750.91C91.58 753.14 96.53 753.5 94.82 751.24Z" fill="var(--fill-0, black)"/>
<path id="Vector_421" d="M89.24 1125.16C92.74 1126.33 95.52 1123.16 94.16 1119.91C91.23 1112.93 83.21 1123.13 89.24 1125.16Z" fill="var(--fill-0, black)"/>
<path id="Vector_422" d="M90.89 1065.79C92.68 1065.64 94.18 1064.64 93.19 1061.85C90.76 1055.08 83.37 1066.41 90.89 1065.79Z" fill="var(--fill-0, black)"/>
<path id="Vector_423" d="M88.59 772.56C90.37 772.41 91.89 771.41 90.89 768.62C88.46 761.85 81.07 773.18 88.59 772.56Z" fill="var(--fill-0, black)"/>
<path id="Vector_424" d="M88.26 1079.24C87.45 1076.59 86.05 1076.7 85.31 1076.62C76.87 1075.6 81.62 1089.49 87.61 1083.51C88.28 1082.84 88.89 1081.27 88.27 1079.25L88.26 1079.24Z" fill="var(--fill-0, black)"/>
<path id="Vector_425" d="M83.34 792.24C86.01 791.99 88.29 790.13 87.28 786.01C86.63 783.36 84.87 782.49 83.02 782.4C75.08 782.03 76.69 792.85 83.35 792.24H83.34Z" fill="var(--fill-0, black)"/>
<path id="Vector_426" d="M81.85 1023.02C81.91 1023.38 82.07 1023.71 82.35 1023.96C82.18 1023.65 82.02 1023.34 81.85 1023.02Z" fill="var(--fill-0, black)"/>
<path id="Vector_427" d="M85.64 1138.61H84.98C84.96 1138.81 84.93 1139 84.65 1138.94V1139.59C84.85 1139.61 85.04 1139.64 84.98 1139.92H85.64C85.66 1139.72 85.69 1139.53 85.97 1139.59V1138.94C85.77 1138.92 85.58 1138.89 85.64 1138.61Z" fill="var(--fill-0, black)"/>
<path id="Vector_428" d="M75.66 812.5C78.07 808.49 80.6 804.4 83.19 799.99C81.89 797.67 79.58 796.72 76.46 796.82C67.82 797.1 66.3 811.43 75.66 812.5Z" fill="var(--fill-0, black)"/>
<path id="Vector_429" d="M81.05 728.28C80.81 729.17 81.7 728.94 81.71 729.59C83.32 729.65 83.32 727.56 81.71 727.62C81.64 727.99 81.35 728.13 81.05 728.28Z" fill="var(--fill-0, black)"/>
<path id="Vector_430" d="M77.44 1101.87C80.94 1103.04 83.72 1099.87 82.36 1096.62C79.43 1089.64 71.41 1099.84 77.44 1101.87Z" fill="var(--fill-0, black)"/>
<path id="Vector_431" d="M79.73 1156.32H79.07C79.05 1156.52 79.02 1156.71 78.74 1156.65V1157.31C78.94 1157.33 79.13 1157.36 79.07 1157.64H79.73C79.75 1157.44 79.78 1157.25 80.06 1157.31V1156.65C79.86 1156.63 79.67 1156.6 79.73 1156.32Z" fill="var(--fill-0, black)"/>
<path id="Vector_432" d="M77.76 1038.57C75.83 1040.8 80.77 1041.16 79.07 1038.9C79.01 1038.41 78.28 1038.6 77.76 1038.57Z" fill="var(--fill-0, black)"/>
<path id="Vector_433" d="M66.7 828.77C68.94 824.07 71.39 819.68 73.99 815.29C69.35 813.75 63.12 816.68 63.33 822.74C63.43 825.58 64.81 827.59 66.7 828.77Z" fill="var(--fill-0, black)"/>
<path id="Vector_434" d="M76.13 745.33C76.06 745.7 75.77 745.84 75.47 745.99C75.23 746.89 76.12 746.65 76.13 747.3C77.74 747.36 77.74 745.27 76.13 745.33Z" fill="var(--fill-0, black)"/>
<path id="Vector_435" d="M72.19 1113.35C66.72 1115.06 74.53 1121.72 75.8 1116.96C75.93 1116.49 75.82 1115.81 75.47 1114.99C74.89 1113.61 74.59 1112.6 72.19 1113.35Z" fill="var(--fill-0, black)"/>
<path id="Vector_436" d="M71.53 1056.28C71.53 1057.15 71.41 1058.15 71.86 1058.57H73.83C75.19 1056.95 73.16 1054.91 71.53 1056.28Z" fill="var(--fill-0, black)"/>
<path id="Vector_437" d="M70.22 764.36H70.88C70.9 764.16 70.93 763.97 71.21 764.03V763.37C71.01 763.35 70.82 763.32 70.88 763.04H70.22C70.2 763.24 70.17 763.43 69.89 763.37V764.03C70.09 764.05 70.28 764.08 70.22 764.36Z" fill="var(--fill-0, black)"/>
<path id="Vector_438" d="M61.27 842.29C62.06 839.89 62.9 837.6 63.79 835.4C60.83 836.25 60.25 839.7 61.27 842.29Z" fill="var(--fill-0, black)"/>
<path id="Vector_439" d="M66.61 1073.34C64.8 1073.76 64.97 1076.85 67.26 1076.62C69.07 1076.2 68.9 1073.11 66.61 1073.34Z" fill="var(--fill-0, black)"/>
<path id="Vector_440" d="M67.27 1132.38C67.2 1132.75 66.91 1132.89 66.62 1133.04C66.38 1133.93 67.27 1133.7 67.27 1134.35C68.88 1134.41 68.88 1132.32 67.27 1132.38Z" fill="var(--fill-0, black)"/>
<path id="Vector_441" d="M65.63 1015.94C65.39 1016.83 66.28 1016.6 66.29 1017.25C67.9 1017.31 67.9 1015.22 66.29 1015.28C66.22 1015.65 65.93 1015.79 65.63 1015.94Z" fill="var(--fill-0, black)"/>
<path id="Vector_442" d="M65.3 782.72C66.89 782.37 66.47 779.48 64.31 780.1C64.24 780.47 63.95 780.61 63.65 780.76C63.51 782.1 63.99 782.83 65.29 782.73L65.3 782.72Z" fill="var(--fill-0, black)"/>
<path id="Vector_443" d="M57.43 802.73C60.93 803.9 63.71 800.73 62.35 797.48C59.42 790.5 51.4 800.7 57.43 802.73Z" fill="var(--fill-0, black)"/>
<path id="Vector_444" d="M58.74 974.28C58.4 976.37 59.27 977.25 61.36 976.9C63.53 975.17 60.46 972.1 58.74 974.28Z" fill="var(--fill-0, black)"/>
<path id="Vector_445" d="M61.69 1091.7H61.03C61.01 1091.9 60.98 1092.09 60.7 1092.03V1092.69C60.9 1092.71 61.09 1092.74 61.03 1093.02H61.69C61.71 1092.82 61.74 1092.63 62.02 1092.69V1092.03C61.82 1092.01 61.63 1091.98 61.69 1091.7Z" fill="var(--fill-0, black)"/>
<path id="Vector_446" d="M60.71 1034.3H61.37C61.39 1034.1 61.42 1033.91 61.7 1033.97V1033.31C61.5 1033.29 61.31 1033.26 61.37 1032.98H60.71C60.69 1033.18 60.66 1033.37 60.38 1033.31V1033.97C60.58 1033.99 60.77 1034.02 60.71 1034.3Z" fill="var(--fill-0, black)"/>
<path id="Vector_447" d="M48.9 815.2C46.87 823.06 60.41 823.45 57.76 815.2C56.5 811.26 49.99 810.99 48.9 815.2Z" fill="var(--fill-0, black)"/>
<path id="Vector_448" d="M55.13 937.87C55.13 937.87 55.14 937.87 55.15 937.87C54.86 935.44 54.6 932.99 54.39 930.53C54.03 930.53 53.63 930.57 53.17 930.66C48.92 931.49 49.76 938.93 55.14 937.88L55.13 937.87Z" fill="var(--fill-0, black)"/>
<path id="Vector_449" d="M55.13 991.99H54.48C54.46 992.19 54.43 992.38 54.15 992.32V992.98C54.35 993 54.54 993.03 54.48 993.31H55.13C55.15 993.11 55.18 992.92 55.46 992.98V992.32C55.26 992.3 55.07 992.27 55.13 991.99Z" fill="var(--fill-0, black)"/>
<path id="Vector_450" d="M47.59 830.94V838.16C52.05 837.89 52.05 831.22 47.59 830.94Z" fill="var(--fill-0, black)"/>
<path id="Vector_451" d="M47.59 949.02V954.27C52.33 955.41 52.33 947.88 47.59 949.02Z" fill="var(--fill-0, black)"/>
<path id="Vector_452" d="M48.9 893.26V892.6C48.62 892.66 48.59 892.47 48.57 892.27C48.04 892.18 48.01 892.58 47.59 892.6V893.26C47.85 893.43 48.12 893.6 48.57 893.59C48.51 893.31 48.7 893.28 48.9 893.26Z" fill="var(--fill-0, black)"/>
<path id="Vector_453" d="M400.18 1276.04C399.03 1267.93 386.69 1266.08 383.13 1273.74C384.03 1268.24 380.46 1265.48 378.87 1263.57C391 1264.83 391.59 1247.12 381.82 1245.2C376.99 1244.25 372.94 1246.8 371 1250.45C371.52 1244.8 368.93 1242.24 365.75 1240.28C377.45 1242.34 379.67 1225.93 371.33 1222.57C379.27 1224.62 383.21 1217.12 382.31 1211.18C380.29 1210.6 378.23 1210.03 376.11 1209.5C372.7 1208.65 369.4 1207.87 366.18 1207.15C362.8 1211.68 363.49 1219.56 369.03 1221.91C363.41 1221.43 360.96 1224.11 358.86 1227.16C361.16 1214.15 342.57 1212.33 340.49 1222.89C339.65 1227.19 342.03 1230.94 344.43 1233.39C339.67 1232.78 337.38 1236.39 335.57 1237.66C335.38 1231.05 330.62 1227.31 324.75 1228.15C316.05 1229.38 314.68 1242.59 322.45 1245.86C315.98 1244.85 311.63 1249.49 311.63 1254.72C311.63 1264.2 324.33 1266.28 328.69 1259.97C327.5 1270.87 342.8 1272.43 346.4 1265.87C345.5 1276.46 360.55 1277.91 364.11 1271.45C362.4 1282.8 379.27 1284.57 382.48 1276.37C381.47 1290.55 401.97 1288.61 400.19 1276.04H400.18ZM358.2 1228.48C357.71 1233.12 359.49 1238.04 363.45 1239.3C359 1239.65 355.3 1240.77 353.94 1244.22C353.57 1239.78 352.32 1236.22 349.02 1234.71C353.63 1234.18 357.02 1232.43 358.2 1228.48ZM329.99 1256.04C330.1 1252.47 328.47 1247.99 325.07 1246.86C329.36 1246.44 332.77 1245.15 334.26 1241.94C334.73 1245.95 335.7 1249.47 338.85 1250.8C334.88 1251.53 331.49 1252.84 329.99 1256.05V1256.04ZM348.03 1261.28C347.26 1257.57 346.25 1254.09 343.11 1252.75C347.4 1252.33 350.8 1251.04 352.29 1247.83C352.71 1251.68 353.77 1254.88 356.55 1256.36C352.9 1257.19 349.33 1258.11 348.02 1261.28H348.03ZM365.74 1266.86C364.91 1263.21 363.99 1259.65 360.82 1258.33C365.28 1257.87 368.78 1256.45 370 1252.75C370.35 1257.21 371.47 1260.9 374.92 1262.26C370.76 1262.69 367.09 1263.61 365.74 1266.85V1266.86Z" fill="var(--fill-0, black)"/>
<path id="Vector_454" d="M46.39 786.33C46.32 786.7 46.03 786.84 45.73 786.99C45.49 787.89 46.38 787.65 46.39 788.3C47.99 788.36 47.99 786.27 46.39 786.33Z" fill="var(--fill-0, black)"/>
<path id="Vector_455" d="M40.15 803.72C40.08 804.09 39.79 804.23 39.49 804.38C39.36 805.72 39.83 806.45 41.13 806.35C42.71 806 42.3 803.11 40.14 803.73L40.15 803.72Z" fill="var(--fill-0, black)"/>
<path id="Vector_456" d="M35.56 822.08H34.9C34.88 822.28 34.85 822.47 34.57 822.41V823.07C34.77 823.09 34.96 823.12 34.9 823.4H35.56C35.58 823.2 35.61 823.01 35.89 823.07V822.41C35.69 822.39 35.5 822.36 35.56 822.08Z" fill="var(--fill-0, black)"/>
<path id="Vector_457" d="M30.64 956.89H29.99C29.97 957.09 29.94 957.28 29.66 957.22V957.88C29.86 957.9 30.05 957.93 29.99 958.21H30.64C30.66 958.01 30.69 957.82 30.97 957.88V957.22C30.77 957.2 30.58 957.17 30.64 956.89Z" fill="var(--fill-0, black)"/>
<path id="Vector_458" d="M29.66 841.11C29.68 840.91 29.71 840.72 29.99 840.78V840.12C29.79 840.1 29.6 840.07 29.66 839.79H29C28.98 839.99 28.95 840.18 28.67 840.12V840.78C28.87 840.8 29.06 840.83 29 841.11H29.66Z" fill="var(--fill-0, black)"/>
<path id="Vector_459" d="M24.08 974.28C22.15 976.51 27.1 976.87 25.39 974.61C25.33 974.12 24.6 974.31 24.08 974.28Z" fill="var(--fill-0, black)"/>
<path id="Vector_460" d="M19.16 992.32H18.5C18.48 992.52 18.45 992.71 18.17 992.65V993.31C18.37 993.33 18.56 993.36 18.5 993.64H19.16C19.18 993.44 19.21 993.25 19.49 993.31V992.65C19.29 992.63 19.1 992.6 19.16 992.32Z" fill="var(--fill-0, black)"/>
<path id="Vector_461" d="M18.18 934.92H18.84C18.86 934.72 18.89 934.53 19.17 934.59V933.93C18.97 933.91 18.78 933.88 18.84 933.6H18.18C18.16 933.8 18.13 933.99 17.85 933.93V934.59C18.05 934.61 18.24 934.64 18.18 934.92Z" fill="var(--fill-0, black)"/>
<path id="Vector_462" d="M12.27 950.33C10.46 950.75 10.63 953.84 12.93 953.61C14.74 953.19 14.57 950.1 12.27 950.33Z" fill="var(--fill-0, black)"/>
<path id="Vector_463" d="M3.75 971.33C5.17 974.48 10.82 973.14 10.31 969.36C9.5 963.42 1.76 966.93 3.75 971.33Z" fill="var(--fill-0, black)"/>
<path id="Vector_464" d="M6.04 911.63H6.69C6.71 911.43 6.74 911.24 7.02 911.3V910.64C6.82 910.62 6.63 910.59 6.69 910.31H6.04C6.02 910.47 5.99 910.62 5.84 910.64C5.8 910.8 5.76 910.95 5.71 911.11V911.29C5.91 911.31 6.1 911.34 6.04 911.62V911.63Z" fill="var(--fill-0, black)"/>
<path id="Vector_465" d="M0.14 984.45C0.14 984.45 0.05 984.48 0 984.5C0.16 986.14 0.35 987.78 0.54 989.43C1.83 990.03 3.26 989.88 3.75 988.06C3.87 987.59 3.76 986.91 3.42 986.09C2.84 984.71 2.54 983.7 0.14 984.45Z" fill="var(--fill-0, black)"/>
<path id="Vector_466" d="M1.72 928.51C1.67 928.79 1.61 929.07 1.56 929.36C1.78 929.19 1.87 928.91 1.72 928.51Z" fill="var(--fill-0, black)"/>
</g>
</g>
<defs>
<clipPath id="clip0_0_4">
<rect width="685.99" height="1318.5" fill="white"/>
</clipPath>
</defs>
</svg>
