<svg preserveAspectRatio="none" width="100%" height="100%" overflow="visible" style="display: block;" viewBox="0 0 8.15718 5.68396" fill="none" xmlns="http://www.w3.org/2000/svg">
<g id="pillars">
<rect id="Rectangle 76" x="0.580566" y="1.24131" width="0.653333" height="3.39733" fill="var(--fill-0, #F1F9FF)"/>
<path id="Combined Shape" d="M1.49516 0.980428H1.29985V1.24117H0.515666V0.980428H0.319377V0.65328H1.49516V0.980428Z" fill="var(--fill-0, #C88A02)"/>
<path id="Combined Shape_2" fill-rule="evenodd" clip-rule="evenodd" d="M1.29938 4.83467H1.49538V5.16133H0.319377V4.83467H0.515377V4.57333H1.29938V4.83467Z" fill="var(--fill-0, #C88A02)"/>
<path id="Oval 56" fill-rule="evenodd" clip-rule="evenodd" d="M0.907447 0.718687C1.04962 0.718687 1.06408 0.665151 1.14796 0.585191C1.21309 0.523102 1.36478 0.446097 1.36478 0.359354C1.36478 0.160899 1.16003 2.03451e-05 0.907447 2.03451e-05C0.654869 2.03451e-05 0.450114 0.160899 0.450114 0.359354C0.450114 0.455993 0.554577 0.520611 0.633563 0.585191C0.716779 0.65323 0.777865 0.718687 0.907447 0.718687Z" fill="var(--fill-0, #AD1619)"/>
<g id="water">
<path id="Rectangle 76_2" fill-rule="evenodd" clip-rule="evenodd" d="M0.319377 5.1613H1.49538V5.68396C1.49538 5.68396 1.34838 5.61863 1.20138 5.61863C1.05438 5.61863 0.907377 5.68396 0.907377 5.68396C0.907377 5.68396 0.760377 5.61863 0.613377 5.61863C0.466377 5.61863 0.319377 5.68396 0.319377 5.68396V5.1613Z" fill="var(--fill-0, #005BBF)"/>
<mask id="mask0_0_87" style="mask-type:luminance" maskUnits="userSpaceOnUse" x="0" y="5" width="2" height="1">
<path id="Rectangle 76_3" fill-rule="evenodd" clip-rule="evenodd" d="M0.319377 5.1613H1.49538V5.68396C1.49538 5.68396 1.34838 5.61863 1.20138 5.61863C1.05438 5.61863 0.907377 5.68396 0.907377 5.68396C0.907377 5.68396 0.760377 5.61863 0.613377 5.61863C0.466377 5.61863 0.319377 5.68396 0.319377 5.68396V5.1613Z" fill="var(--fill-0, white)"/>
</mask>
<g mask="url(#mask0_0_87)">
<path id="Path 308" d="M0.308912 5.58126L0.283244 5.51868C0.389165 5.47154 0.495463 5.44789 0.601921 5.44789C0.670701 5.44789 0.706618 5.45748 0.767677 5.48465C0.821309 5.50852 0.84911 5.51594 0.907765 5.51594C0.966419 5.51594 0.99422 5.50852 1.04785 5.48465C1.10891 5.45748 1.14483 5.44789 1.21361 5.44789C1.32007 5.44789 1.42636 5.47154 1.53229 5.51868L1.50662 5.58126C1.40864 5.53766 1.31104 5.51594 1.21361 5.51594C1.15495 5.51594 1.12715 5.52336 1.07352 5.54723C1.01246 5.57441 0.976544 5.584 0.907765 5.584C0.838985 5.584 0.803068 5.57441 0.742009 5.54723C0.688376 5.52336 0.660576 5.51594 0.601921 5.51594C0.504484 5.51594 0.406887 5.53766 0.308912 5.58126Z" fill="var(--fill-0, white)"/>
<path id="Path 308_2" d="M0.308912 5.38523L0.283244 5.32264C0.389165 5.2755 0.495463 5.25185 0.601921 5.25185C0.670701 5.25185 0.706618 5.26144 0.767677 5.28862C0.821309 5.31248 0.84911 5.31991 0.907765 5.31991C0.966419 5.31991 0.99422 5.31248 1.04785 5.28862C1.10891 5.26144 1.14483 5.25185 1.21361 5.25185C1.32007 5.25185 1.42636 5.2755 1.53229 5.32264L1.50662 5.38523C1.40864 5.34162 1.31104 5.31991 1.21361 5.31991C1.15495 5.31991 1.12715 5.32733 1.07352 5.3512C1.01246 5.37837 0.976544 5.38796 0.907765 5.38796C0.838985 5.38796 0.803068 5.37837 0.742009 5.3512C0.688376 5.32733 0.660576 5.31991 0.601921 5.31991C0.504484 5.31991 0.406887 5.34162 0.308912 5.38523Z" fill="var(--fill-0, white)"/>
</g>
</g>
<rect id="Rectangle 76_4" x="6.98356" y="1.24131" width="0.653333" height="3.39733" fill="var(--fill-0, #F1F9FF)"/>
<path id="Combined Shape_3" d="M7.89787 0.980428H7.70158V1.24117H6.91838V0.980428H6.72209V0.65328H7.89787V0.980428Z" fill="var(--fill-0, #C88A02)"/>
<path id="Combined Shape_4" fill-rule="evenodd" clip-rule="evenodd" d="M7.70209 4.83467H7.89809V5.16133H6.72209V4.83467H6.91809V4.57333H7.70209V4.83467Z" fill="var(--fill-0, #C88A02)"/>
<path id="Oval 56_2" fill-rule="evenodd" clip-rule="evenodd" d="M7.30987 0.718687C7.45205 0.718687 7.4665 0.665151 7.55038 0.585191C7.61551 0.523102 7.76721 0.446097 7.76721 0.359354C7.76721 0.160899 7.56245 2.03451e-05 7.30987 2.03451e-05C7.05729 2.03451e-05 6.85254 0.160899 6.85254 0.359354C6.85254 0.455993 6.957 0.520611 7.03599 0.585191C7.1192 0.65323 7.18029 0.718687 7.30987 0.718687Z" fill="var(--fill-0, #AD1619)"/>
<g id="water_2">
<path id="Rectangle 76_5" fill-rule="evenodd" clip-rule="evenodd" d="M6.72209 5.1613H7.89809V5.68396C7.89809 5.68396 7.75109 5.61863 7.60409 5.61863C7.45709 5.61863 7.31009 5.68396 7.31009 5.68396C7.31009 5.68396 7.16309 5.61863 7.01609 5.61863C6.86909 5.61863 6.72209 5.68396 6.72209 5.68396V5.1613Z" fill="var(--fill-0, #005BBF)"/>
<mask id="mask1_0_87" style="mask-type:luminance" maskUnits="userSpaceOnUse" x="6" y="5" width="2" height="1">
<path id="Rectangle 76_6" fill-rule="evenodd" clip-rule="evenodd" d="M6.72209 5.1613H7.89809V5.68396C7.89809 5.68396 7.75109 5.61863 7.60409 5.61863C7.45709 5.61863 7.31009 5.68396 7.31009 5.68396C7.31009 5.68396 7.16309 5.61863 7.01609 5.61863C6.86909 5.61863 6.72209 5.68396 6.72209 5.68396V5.1613Z" fill="var(--fill-0, white)"/>
</mask>
<g mask="url(#mask1_0_87)">
<path id="Path 308_3" d="M6.71122 5.58126L6.68555 5.51868C6.79147 5.47154 6.89777 5.44789 7.00422 5.44789C7.073 5.44789 7.10892 5.45748 7.16998 5.48465C7.22361 5.50852 7.25141 5.51594 7.31007 5.51594C7.36872 5.51594 7.39652 5.50852 7.45016 5.48465C7.51121 5.45748 7.54713 5.44789 7.61591 5.44789C7.72237 5.44789 7.82867 5.47154 7.93459 5.51868L7.90892 5.58126C7.81095 5.53766 7.71335 5.51594 7.61591 5.51594C7.55726 5.51594 7.52946 5.52336 7.47582 5.54723C7.41476 5.57441 7.37885 5.584 7.31007 5.584C7.24129 5.584 7.20537 5.57441 7.14431 5.54723C7.09068 5.52336 7.06288 5.51594 7.00422 5.51594C6.90679 5.51594 6.80919 5.53766 6.71122 5.58126Z" fill="var(--fill-0, white)"/>
<path id="Path 308_4" d="M6.71122 5.38523L6.68555 5.32264C6.79147 5.2755 6.89777 5.25185 7.00422 5.25185C7.073 5.25185 7.10892 5.26144 7.16998 5.28862C7.22361 5.31248 7.25141 5.31991 7.31007 5.31991C7.36872 5.31991 7.39652 5.31248 7.45016 5.28862C7.51121 5.26144 7.54713 5.25185 7.61591 5.25185C7.72237 5.25185 7.82867 5.2755 7.93459 5.32264L7.90892 5.38523C7.81095 5.34162 7.71335 5.31991 7.61591 5.31991C7.55726 5.31991 7.52946 5.32733 7.47582 5.3512C7.41476 5.37837 7.37885 5.38796 7.31007 5.38796C7.24129 5.38796 7.20537 5.37837 7.14431 5.3512C7.09068 5.32733 7.06288 5.31991 7.00422 5.31991C6.90679 5.31991 6.80919 5.34162 6.71122 5.38523Z" fill="var(--fill-0, white)"/>
</g>
</g>
<path id="ribbons" d="M0.218831 2.1743C0.656376 1.87297 1.8277 1.84641 2.34188 2.1118L2.10262 2.57566C1.85039 2.44543 1.27673 2.42099 0.875081 2.48777C0.936095 2.49843 1.00447 2.50991 1.08114 2.52195C1.12876 2.52943 1.2964 2.5549 1.31063 2.55711C1.47087 2.58202 1.58014 2.61431 1.66121 2.66941C1.82676 2.78212 1.85162 2.98543 1.73348 3.13523C1.68362 3.19837 1.61818 3.24603 1.51961 3.3032C1.48804 3.32151 1.4539 3.34039 1.40828 3.36473C1.39811 3.37015 1.31905 3.41191 1.29598 3.4243C1.20191 3.47481 1.13992 3.51091 1.09383 3.54441C1.0216 3.59694 0.947449 3.63984 0.863363 3.68016C0.818251 3.70179 0.688559 3.75829 0.688558 3.75828C0.68622 3.75934 0.683907 3.76024 0.681722 3.76121C0.727017 3.82251 0.752936 3.89801 0.753011 3.98484C0.753011 4.12283 0.68623 4.25317 0.568441 4.39598L0.16805 4.06492L0.128988 4.0532L0.10848 3.88621C0.0690321 3.57735 0.200739 3.40637 0.472738 3.28269C0.479966 3.27941 0.602763 3.22526 0.637777 3.20848C0.694991 3.18102 0.742144 3.15361 0.786214 3.12156C0.829664 3.08997 0.8765 3.06043 0.932699 3.02781C0.596584 2.9738 0.414912 2.93354 0.275472 2.87351C-0.0584548 2.72965 -0.102105 2.39532 0.218831 2.1743ZM5.81551 2.1118C6.32975 1.84648 7.50105 1.87299 7.93856 2.1743C8.25936 2.39533 8.2158 2.72966 7.88192 2.87351C7.7424 2.93359 7.56019 2.97375 7.22371 3.02781C7.28012 3.06053 7.3276 3.08987 7.37118 3.12156C7.41527 3.15363 7.46235 3.181 7.51961 3.20848C7.55467 3.22529 7.67772 3.27954 7.68465 3.28269C7.95657 3.40637 8.08835 3.5774 8.04891 3.88621L8.02743 4.0532L7.98934 4.06492L7.58797 4.39598C7.47026 4.25322 7.40438 4.12278 7.40438 3.98484C7.40445 3.898 7.43037 3.82251 7.47567 3.76121C7.47334 3.76017 7.47036 3.75942 7.46785 3.75828C7.4605 3.75509 7.3379 3.70118 7.29403 3.68016C7.20994 3.63984 7.13579 3.59694 7.06356 3.54441C7.01747 3.5109 6.95548 3.47481 6.86141 3.4243C6.83844 3.41196 6.75982 3.37044 6.7491 3.36473C6.70356 3.34042 6.66931 3.32148 6.63778 3.3032C6.53926 3.24605 6.47376 3.19833 6.42391 3.13523C6.30584 2.98551 6.3299 2.78216 6.4952 2.66941C6.57631 2.61419 6.68633 2.58205 6.84676 2.55711C6.86201 2.55474 7.0288 2.5294 7.07625 2.52195C7.15292 2.50991 7.2213 2.49843 7.28231 2.48777C6.88067 2.42096 6.30706 2.44543 6.05477 2.57566L5.81551 2.1118Z" fill="var(--fill-0, #AD1619)"/>
<path id="Path 329" d="M1.11452 2.4826L1.30736 2.5225V2.80993C1.10198 2.97381 0.580566 3.25002 0.580566 3.25002V2.4826H1.11452Z" fill="var(--fill-0, #F1F9FF)"/>
<path id="Path 329_2" d="M7.17621 2.4826L6.98337 2.5225V2.80993C7.18875 2.97381 7.71016 3.25002 7.71016 3.25002V2.4826H7.17621Z" fill="var(--fill-0, #F1F9FF)"/>
</g>
</svg>
