<svg preserveAspectRatio="none" width="100%" height="100%" overflow="visible" style="display: block;" viewBox="0 0 23.3359 15.7038" fill="none" xmlns="http://www.w3.org/2000/svg">
<g id="Pay">
<path id="Union" d="M19.2842 9.74386H19.3125L21.6758 3.8132H23.3359L18.2305 15.7038H16.6553L18.5537 11.5446L15.2031 3.8132H16.8643L19.2842 9.74386ZM11.292 3.54367C12.4213 3.54367 13.3139 3.85213 13.9688 4.4587C14.6234 5.06526 14.9463 5.91258 14.9463 6.98117V12.0739H13.4844V10.9284H13.418C12.7821 11.872 11.947 12.3435 10.8936 12.3435C10.0015 12.3434 9.24238 12.074 8.64453 11.5349C8.05626 11.0342 7.72423 10.2932 7.74316 9.51339C7.74316 8.65663 8.06554 7.98264 8.70117 7.47238C9.33693 6.96215 10.1912 6.7117 11.2539 6.71163C12.165 6.71163 12.9058 6.88525 13.4941 7.21261V6.85617C13.4941 6.32662 13.2658 5.82582 12.8672 5.47921C12.4591 5.11344 11.9373 4.91085 11.3965 4.91085C10.5425 4.9109 9.86845 5.27682 9.375 6.00851L8.02734 5.15206C8.74855 4.08341 9.84014 3.54373 11.292 3.54367ZM4.05273 0.000696334C5.03006 -0.0184376 5.9792 0.357381 6.67188 1.0505C8.05712 2.35996 8.14282 4.56497 6.84277 5.98019L6.67188 6.15304C5.96022 6.83654 5.08697 7.18321 4.05273 7.18331H1.52832V12.0739H0V0.000696334H4.05273ZM11.4941 7.96359C10.8772 7.96359 10.3551 8.11731 9.9375 8.41574C9.52948 8.71412 9.32044 9.08937 9.32031 9.54171C9.32031 9.94609 9.51002 10.3224 9.82324 10.5534C10.1649 10.823 10.5827 10.9673 11.0098 10.9577C11.6552 10.9577 12.2719 10.6972 12.7275 10.2351C13.2306 9.75367 13.4873 9.18568 13.4873 8.53097C13.0128 8.14588 12.3483 7.954 11.4941 7.96359ZM1.53125 5.70089H4.09375C4.66325 5.72015 5.21436 5.48892 5.60352 5.07492C6.4007 4.23733 6.38123 2.88954 5.55566 2.08077C5.16651 1.69565 4.64427 1.48312 4.09375 1.48312H1.53125V5.70089Z" fill="var(--fill-0, #3C4043)"/>
</g>
</svg>
