<svg preserveAspectRatio="none" width="100%" height="100%" overflow="visible" style="display: block;" viewBox="0 0 41.9987 17.3636" fill="none" xmlns="http://www.w3.org/2000/svg">
<path id="ApplePay" fill-rule="evenodd" clip-rule="evenodd" d="M7.67666 2.2386C7.18442 2.82509 6.39683 3.28768 5.60924 3.2216C5.51079 2.42859 5.89638 1.58602 6.3476 1.06561C6.83985 0.462588 7.70127 0.033042 8.39862 0C8.48066 0.826051 8.1607 1.63558 7.67666 2.2386ZM8.38793 3.37854C7.69408 3.33833 7.06097 3.58865 6.54959 3.79083C6.2205 3.92094 5.94183 4.03112 5.72982 4.03112C5.4919 4.03112 5.20172 3.91505 4.87591 3.78473C4.449 3.61397 3.96092 3.41873 3.44909 3.4281C2.27591 3.44463 1.18477 4.11373 0.585879 5.17933C-0.644728 7.31054 0.265922 10.466 1.45551 12.2008C2.038 13.0598 2.73534 14.0015 3.65419 13.9685C4.05843 13.9531 4.34922 13.8289 4.65016 13.7003C4.99662 13.5523 5.35653 13.3985 5.91851 13.3985C6.46101 13.3985 6.80518 13.5483 7.13556 13.6921C7.44971 13.8288 7.75139 13.96 8.19924 13.952C9.1509 13.9355 9.7498 13.0929 10.3323 12.2338C10.9609 11.3118 11.2371 10.4119 11.279 10.2753L11.284 10.2595C11.283 10.2585 11.2752 10.2549 11.2615 10.2486C11.0513 10.1518 9.44525 9.41143 9.42984 7.42619C9.41438 5.75986 10.7038 4.91559 10.9067 4.78269C10.9191 4.7746 10.9274 4.76915 10.9312 4.76631C10.1108 3.54375 8.83095 3.41158 8.38793 3.37854ZM14.9766 13.8611V0.983032H19.7759C22.2536 0.983032 23.9846 2.70122 23.9846 5.21241C23.9846 7.7236 22.2207 9.4583 19.7103 9.4583H16.9619V13.8611H14.9766ZM16.9611 2.66814H19.25C20.9728 2.66814 21.9573 3.59331 21.9573 5.22063C21.9573 6.84795 20.9728 7.78138 19.2418 7.78138H16.9611V2.66814ZM30.5394 12.3165C30.0143 13.3242 28.8575 13.9603 27.6105 13.9603C25.7646 13.9603 24.4766 12.8534 24.4766 11.1848C24.4766 9.53268 25.7236 8.58272 28.0289 8.4423L30.5065 8.29361V7.5832C30.5065 6.53412 29.8256 5.96415 28.6114 5.96415C27.6105 5.96415 26.8804 6.48456 26.7327 7.27757H24.9442C25.0016 5.60895 26.5604 4.39465 28.6688 4.39465C30.9414 4.39465 32.4181 5.59242 32.4181 7.45104V13.8612H30.5804V12.3165H30.5394ZM28.1451 12.4321C27.0868 12.4321 26.4141 11.9199 26.4141 11.1352C26.4141 10.3256 27.0622 9.85479 28.301 9.78044L30.5079 9.64001V10.3669C30.5079 11.573 29.4906 12.4321 28.1451 12.4321ZM38.5119 14.3651C37.7161 16.6202 36.8055 17.3636 34.8693 17.3636C34.7217 17.3636 34.2294 17.3471 34.1146 17.3141V15.7694C34.2376 15.7859 34.5412 15.8024 34.697 15.8024C35.5749 15.8024 36.0671 15.4307 36.3707 14.4642L36.5512 13.8942L33.1875 4.51855H35.2631L37.6013 12.1265H37.6423L39.9805 4.51855H41.9987L38.5119 14.3651Z" fill="var(--fill-0, black)"/>
</svg>
