<svg preserveAspectRatio="none" width="100%" height="100%" overflow="visible" style="display: block;" viewBox="0 0 42 20.968" fill="none" xmlns="http://www.w3.org/2000/svg">
<g id="Logo" clip-path="url(#clip0_0_4)">
<path id="Vector" d="M13.6368 0.224242L14.7146 0.465997C15.5317 0.688054 16.3306 1.00579 17.1114 1.41895L18.2345 2.14396C18.709 2.50237 19.1445 2.90223 19.5407 3.34404C20.1887 4.08056 20.7124 4.89511 21.1115 5.78718C21.5592 6.83249 21.8427 7.92384 21.9621 9.06175L22 9.44473C22 9.44703 22.0003 9.44908 22.0003 9.45138C22.0003 9.48796 21.9703 9.51789 21.9337 9.51815L21.3482 9.52122L19.8559 9.51994H13.9077L10.9107 9.52122C10.8961 9.52122 10.8843 9.53324 10.8843 9.54757L10.8831 11.4287C10.8831 11.4519 10.9023 11.4714 10.9258 11.4714L12.8706 11.4696L15.6049 11.4647L19.3916 11.4665L20.6257 11.4652L21.9422 11.4591H21.9429C21.9726 11.4591 21.9972 11.4834 21.9972 11.5133C21.9972 11.5146 21.9972 11.5156 21.9972 11.5169C21.9342 12.42 21.7705 13.2977 21.506 14.1501C20.9524 15.9355 19.9639 17.4199 18.5397 18.603C18.1411 18.8957 17.7377 19.2047 17.3235 19.4393C16.9331 19.6599 16.5286 19.8599 16.1104 20.04C15.5002 20.2782 14.8696 20.4759 14.2185 20.6333C13.5644 20.7663 12.9056 20.8633 12.2418 20.9242C11.4423 20.982 10.6533 20.9825 9.87486 20.9259C9.13731 20.8694 8.42739 20.7666 7.74485 20.6169L6.33576 20.1984L5.40276 19.8029C4.8576 19.5383 4.3572 19.2398 3.90157 18.9072C3.72608 18.7785 3.51246 18.6097 3.26073 18.4009C2.78489 17.9696 2.35025 17.504 1.95678 17.0039C1.01586 15.6948 0.420549 14.2369 0.171374 12.6298C0.12379 12.3212 0.0826025 12.027 0.0480659 11.7472C0.033228 11.4698 0.0209484 11.2081 0.0107153 10.962C-0.138687 7.21162 1.26861 3.62878 4.58591 1.6208C5.31015 1.1864 6.07942 0.844108 6.89397 0.59391C8.04545 0.241638 9.22634 0.0497684 10.4367 0.0185576C10.6477 0.0198367 10.8672 -0.00421095 11.0642 0.000649744C12.0128 0.0264882 12.7324 0.0697228 13.6368 0.224242Z" fill="var(--fill-0, white)"/>
<path id="Vector_2" d="M24.6837 0.585264L25.9462 0.590636L28.9977 0.589357L29.68 0.585264L31.5672 0.587566L33.8023 0.586287L35.0096 0.589357L36.6435 0.589868C37.3829 0.577845 38.0099 0.619288 38.5241 0.7142C38.6142 0.730573 38.8002 0.774831 39.0821 0.846462C39.6022 1.01966 40.068 1.28648 40.4791 1.6472C41.373 2.44026 41.8734 3.44105 41.9803 4.64957C41.9982 4.85116 41.9977 5.14536 41.9785 5.53217C41.9588 5.65727 41.9371 5.78365 41.913 5.91156C41.6726 7.19172 41.0143 8.17511 39.9381 8.86226C39.5702 9.09762 39.1486 9.26391 38.6738 9.36112C38.0634 9.46524 37.5377 9.51769 37.0964 9.51794C35.8881 9.51948 34.6801 9.52025 33.4723 9.51973L30.4971 9.52101H28.7375L25.2061 9.52408L23.8185 9.51871C23.7896 9.51871 23.7752 9.50439 23.7752 9.47548L23.7734 2.53312L23.7775 0.82267L23.7734 0.620056V0.619288C23.7732 0.600101 23.7888 0.58424 23.8085 0.583984H23.809L24.6837 0.585264Z" fill="var(--fill-0, white)"/>
<path id="Vector_3" d="M24.7085 11.4596L28.0913 11.4676L29.8491 11.4711L33.2897 11.4681C34.7269 11.4711 36.1646 11.4742 37.6026 11.477C37.7538 11.477 37.993 11.5021 38.3205 11.5522C39.7777 11.7277 40.9747 12.6656 41.5838 13.9869C41.9164 14.7365 42.0474 15.5065 41.9765 16.2973C41.8345 17.8885 41.0686 19.0812 39.6782 19.8755C38.7625 20.3125 37.8042 20.3703 36.7924 20.3708C36.2401 20.3713 35.6875 20.3708 35.1349 20.3703L32.9399 20.3708L31.2771 20.3713L27.641 20.378L27.1913 20.3719L24.456 20.3713L23.8379 20.3785C23.7983 20.3749 23.7783 20.3621 23.7783 20.3401C23.7788 18.4217 23.7775 16.5015 23.7747 14.5797L23.7734 11.5395C23.7734 11.4855 23.8003 11.4584 23.854 11.4589L24.7082 11.4594L24.7085 11.4596Z" fill="var(--fill-0, white)"/>
</g>
<defs>
<clipPath id="clip0_0_4">
<rect width="42" height="20.968" fill="white"/>
</clipPath>
</defs>
</svg>
