<svg preserveAspectRatio="none" width="100%" height="100%" overflow="visible" style="display: block;" viewBox="0 0 12.9873 11.375" fill="none" xmlns="http://www.w3.org/2000/svg">
<path id="Icon lable" d="M2.4375 11.375C1.06641 11.375 0 10.2832 0 8.9375V2.4375C0 1.0918 1.06641 0 2.4375 0H4.0625C4.49414 0 4.875 0.380859 4.875 0.8125C4.875 1.26953 4.49414 1.625 4.0625 1.625H2.4375C1.98047 1.625 1.625 2.00586 1.625 2.4375V8.9375C1.625 9.39453 1.98047 9.75 2.4375 9.75H4.0625C4.49414 9.75 4.875 10.1309 4.875 10.5625C4.875 11.0195 4.49414 11.375 4.0625 11.375H2.4375ZM12.7969 5.25586C13.0508 5.48438 13.0508 5.91602 12.7969 6.11914L9.14062 9.57227C8.96289 9.75 8.70898 9.77539 8.48047 9.69922C8.25195 9.59766 8.125 9.36914 8.125 9.14062V7.3125H4.875C4.41797 7.3125 4.0625 6.95703 4.0625 6.5V4.875C4.0625 4.44336 4.41797 4.0625 4.875 4.0625H8.125V2.23438C8.125 2.00586 8.25195 1.77734 8.48047 1.67578C8.70898 1.59961 8.96289 1.625 9.14062 1.80273L12.7969 5.25586Z" fill="var(--fill-0, #2B2A26)"/>
</svg>
